<?xml version="1.0" standalone="no"?>
<!DOCTYPE svg PUBLIC "-//W3C//DTD SVG 1.1//EN"
  "http://www.w3.org/Graphics/SVG/1.1/DTD/svg11.dtd">
<svg width="277mm" height="281.99999999999994mm" viewBox="-138.5 -140.99999999999997 277 281.99999999999994" xmlns="http://www.w3.org/2000/svg" version="1.1">
	<title>svgOutput</title>
	<desc>made with tinkercad</desc>
<path d="M 0.9583333134651184 -80.26950073242186 L 0.9509999752044678 -80.30599975585936 L 0.9475270509719849 -80.31427001953124 L 0.8880000114440918 -80.45600128173827 L 0.8246666789054871 -80.56266784667967 L 0.8081666827201843 -80.58883666992186 L 0.7273333072662354 -80.68299865722655 L 0.703000009059906 -80.70850372314452 L 0.5846666693687439 -80.80933380126952 L 0.549833357334137 -80.83183288574217 L 0.41483333706855774 -80.91016387939452 L 0.4033333361148834 -80.91516876220702 L 0.30666667222976685 -80.95099639892577 L 0.29499998688697815 -80.95500183105467 L 0.1979999989271164 -80.98000335693358 L 0.10000000149011612 -80.99500274658202 L 0 -80.99999999999999 L -0.10000000149011612 -80.99500274658202 L -0.1979999989271164 -80.98000335693358 L -0.29499998688697815 -80.95500183105467 L -0.36500000953674316 -80.93099975585936 L -0.5041666626930237 -80.86016845703124 L -0.5238333344459534 -80.85050201416014 L -0.525982141494751 -80.84906005859374 L -0.5504999756813049 -80.83266448974608 L -0.6430000066757202 -80.76599884033202 L -0.7105000019073486 -80.7018356323242 L -0.7386666536331177 -80.67150115966795 L -0.8119999766349792 -80.58399963378905 L -0.8276666402816772 -80.55699920654295 L -0.9101666808128357 -80.41283416748045 L -0.918833315372467 -80.38966369628905 L -0.9580000042915344 -80.28299713134764 L -0.9894247055053711 -80.13159179687499 L -0.9909999966621399 -80.12400054931639 L -0.9916666746139526 -80.08983612060545 L -0.9983333349227905 -79.96566772460936 L -0.988207221031189 -79.8720016479492 L -0.9850000143051147 -79.84233093261717 L -0.9820267558097839 -79.82334899902342 L -0.9806666374206543 -79.81466674804686 L -0.9750000238418579 -79.79699707031249 L -0.9350000023841858 -79.64700317382811 L -0.8650000095367432 -79.50099945068358 L -0.7883333563804626 -79.3893356323242 L -0.7703333497047424 -79.36383056640624 L -0.6928333044052124 -79.28050231933592 L -0.6800000071525574 -79.26699829101561 L -0.5619999766349792 -79.1750030517578 L -0.421999990940094 -79.09400177001952 L -0.3161666691303253 -79.05316925048827 L -0.2930000126361847 -79.04450225830077 L -0.1469999998807907 -79.01249694824217 L -0.022833332419395447 -79.0016632080078 L 0 -78.99999999999999 L 0.018666666001081467 -79.00116729736327 L 0.132833331823349 -79.00949859619139 L 0.15733332931995392 -79.01416778564452 L 0.2590000033378601 -79.03500366210936 L 0.36649999022483826 -79.07166290283202 L 0.39366665482521057 -79.0814971923828 L 0.49533334374427795 -79.13316345214842 L 0.5118333101272583 -79.14199829101561 L 0.5326666831970215 -79.15750122070311 L 0.6426666378974915 -79.23583221435545 L 0.6611164212226868 -79.25306701660155 L 0.718500018119812 -79.30666351318358 L 0.7411666512489319 -79.32949829101561 L 0.7549999952316284 -79.35016632080077 L 0.8441666960716248 -79.4651641845703 L 0.8558333516120911 -79.48950195312499 L 0.8713821768760681 -79.52404022216795 L 0.9574999809265137 -79.71533203124999 L 0.9641666412353516 -79.73716735839842 L 0.9875850677490234 -79.8720016479492 L 0.9916666746139526 -79.89550018310545 L 0.9951666593551636 -79.9199981689453 L 0.9984999895095825 -80.02916717529295 L 0.9983333349227905 -80.05616760253905 L 0.987500011920929 -80.14866638183592 L 0.9583333134651184 -80.26950073242186 M 80.57749938964844 -0.8101666569709775 L 80.4000015258789 -0.9160000085830685 L 80.29499816894531 -0.9549999833106991 L 80.14900207519531 -0.9869999885559079 L 80 -0.9999999999999997 L 79.87200164794922 -0.9856502413749691 L 79.81416320800781 -0.9791666865348813 L 79.76516723632812 -0.9714999794960019 L 79.6326675415039 -0.9273333549499508 L 79.60933685302734 -0.9185000061988827 L 79.48433685302734 -0.855166673660278 L 79.44950103759766 -0.8326666951179501 L 79.35700225830078 -0.7659999728202816 L 79.27532958984375 -0.6859999895095823 L 79.2403335571289 -0.6451666951179502 L 79.16449737548828 -0.5476666688919065 L 79.09950256347656 -0.4293333292007444 L 79.09066772460938 -0.4128333330154417 L 79.08200073242188 -0.38966667652130105 L 79.03616333007812 -0.26300001144409163 L 79.03067016601562 -0.23649999499320967 L 79.00816345214844 -0.12399999797344194 L 79.00233459472656 -0.041499998420476795 L 79.00133514404297 -0.010499999858438856 L 79.00189971923828 1.1102230246251565e-16 L 79.00800323486328 0.11366666853427895 L 79.0354995727539 0.24616666138172155 L 79.04199981689453 0.2829999923706055 L 79.04463195800781 0.2901701927185059 L 79.08899688720703 0.41100001335144043 L 79.16100311279297 0.5419999957084656 L 79.17583465576172 0.5618333220481873 L 79.25749969482422 0.6685000061988831 L 79.2691650390625 0.6804999709129333 L 79.350830078125 0.7605000138282775 L 79.37049865722656 0.7758333086967467 L 79.51716613769531 0.8733333349227904 L 79.54049682617188 0.8868333101272582 L 79.6546630859375 0.9368333220481871 L 79.67583465576172 0.9449999928474425 L 79.69200134277344 0.9491666555404662 L 79.84283447265625 0.9858333468437194 L 79.86750030517578 0.9886666536331176 L 79.87200164794922 0.9890592694282531 L 79.99166870117188 0.9994999766349791 L 80.01667022705078 0.9991666674613952 L 80.14083099365234 0.9883333444595336 L 80.16516876220703 0.9838333129882811 L 80.28683471679688 0.9571666717529296 L 80.31800079345703 0.9458333253860473 L 80.50633239746094 0.8600000143051146 L 80.52799987792969 0.8476666808128356 L 80.62966918945312 0.7760000228881835 L 80.65516662597656 0.7546666860580443 L 80.77100372314453 0.6355000138282776 L 80.78483581542969 0.6188333630561829 L 80.8489990234375 0.5246666669845581 L 80.86315155029297 0.5013892650604248 L 80.86683654785156 0.49533334374427795 L 80.87249755859375 0.4819999933242798 L 80.94000244140625 0.3420000076293946 L 80.96900177001953 0.2469999939203263 L 80.98500061035156 0.17399999499320992 L 80.99700164794922 0.07500000298023234 L 80.99849700927734 1.1102230246251565e-16 L 80.9990005493164 -0.025000000372528912 L 80.99500274658203 -0.10000000149011598 L 80.98500061035156 -0.1739999949932097 L 80.9626235961914 -0.2683656215667723 L 80.96199798583984 -0.2709999978542326 L 80.93099975585938 -0.365000009536743 L 80.84850311279297 -0.5216666460037229 L 80.84166717529297 -0.5368333458900449 L 80.82849884033203 -0.5580000281333921 L 80.75267028808594 -0.655499994754791 L 80.72467041015625 -0.6859999895095823 L 80.61799621582031 -0.7851666808128354 L 80.61178588867188 -0.7897248864173886 L 80.60299682617188 -0.7961666584014889 L 80.57749938964844 -0.8101666569709775 M -137.5 -139.99999999999997 L 0 -139.99999999999997 L 137.5 -139.99999999999997 L 137.5 -131.0720062255859 L 137.5 1.1102230246251565e-16 L 137.5 131.0720062255859 L 137.5 139.99999999999997 L 0 139.99999999999997 L -137.5 139.99999999999997 L -137.5 131.0720062255859 L -137.5 1.1102230246251565e-16 L -137.5 -131.0720062255859 L -137.5 -139.99999999999997 M -79.64566802978516 -79.06883239746092 L -79.60633087158203 -79.0814971923828 L -79.50466918945312 -79.13316345214842 L -79.47433471679688 -79.15133666992186 L -79.36433410644531 -79.2296676635742 L -79.34716796875 -79.24483489990233 L -79.25133514404297 -79.33899688720702 L -79.23883056640625 -79.3528366088867 L -79.14883422851562 -79.48033142089842 L -79.13500213623047 -79.50099945068358 L -79.08000183105469 -79.61266326904295 L -79.06649780273438 -79.64282989501952 L -79.03150177001953 -79.76200103759764 L -79.02483367919922 -79.78816986083983 L -79.01419830322266 -79.8720016479492 L -79.00399780273438 -79.95233154296874 L -79.0018310546875 -79.97083282470702 L -79.00233459472656 -79.99166870117186 L -79.01233673095703 -80.14666748046874 L -79.01499938964844 -80.1671676635742 L -79.0441665649414 -80.28800201416014 L -79.05118560791016 -80.31085205078124 L -79.05333709716797 -80.31783294677733 L -79.0643310546875 -80.33999633789061 L -79.14099884033203 -80.51000213623045 L -79.20516967773438 -80.60416412353514 L -79.22350311279297 -80.62933349609374 L -79.27850341796875 -80.69183349609374 L -79.30950164794922 -80.71932983398436 L -79.37866973876953 -80.78182983398436 L -79.38475036621094 -80.7860870361328 L -79.48116302490234 -80.85350036621092 L -79.5028305053711 -80.86583709716795 L -79.60449981689453 -80.91750335693358 L -79.62750244140625 -80.92666625976561 L -79.73500061035156 -80.9633331298828 L -79.74700164794922 -80.96666717529295 L -79.83866882324219 -80.98666381835936 L -79.85099792480469 -80.98899841308592 L -79.87200164794922 -80.99090576171874 L -79.94999694824219 -80.9980010986328 L -80.05000305175781 -80.9980010986328 L -80.14900207519531 -80.98899841308592 L -80.1673355102539 -80.98500061035155 L -80.22899627685547 -80.97333526611327 L -80.25900268554688 -80.96499633789061 L -80.28900146484375 -80.95666503906249 L -80.31050109863281 -80.94933319091795 L -80.38800048828125 -80.92099761962889 L -80.44032287597656 -80.89600372314452 L -80.47799682617188 -80.87799835205077 L -80.56300354003906 -80.82599639892577 L -80.64299774169922 -80.76599884033202 L -80.65516662597656 -80.75466918945311 L -80.73683166503906 -80.67466735839842 L -80.74783325195312 -80.66217041015624 L -80.80699920654297 -80.59049987792967 L -80.81983184814453 -80.57166290283202 L -80.86483001708984 -80.5016632080078 L -80.87349700927734 -80.48516845703124 L -80.91100311279297 -80.41100311279295 L -80.94000244140625 -80.34200286865233 L -80.96199798583984 -80.27100372314452 L -80.98600006103516 -80.16100311279295 L -80.9990005493164 -80.0500030517578 L -80.9990005493164 -79.97499847412108 L -80.99199676513672 -79.87599945068358 L -80.99124908447266 -79.8720016479492 L -80.96900177001953 -79.75299835205077 L -80.96199798583984 -79.7324981689453 L -80.90950012207031 -79.58666992187499 L -80.8949966430664 -79.55799865722655 L -80.83999633789062 -79.45800018310545 L -80.68000030517578 -79.26699829101561 L -80.56199645996094 -79.1750030517578 L -80.4219970703125 -79.09400177001952 L -80.4046630859375 -79.08699798583983 L -80.29883575439453 -79.04616546630858 L -80.2788314819336 -79.04100036621092 L -80.15716552734375 -79.01266479492186 L -80.09549713134766 -79.00599670410155 L -80.07083129882812 -79.00283050537108 L -80.06620788574219 -79.00283050537108 L -80.05416870117188 -79.00283050537108 L -79.90916442871094 -79.00616455078124 L -79.8864974975586 -79.00883483886717 L -79.87200164794922 -79.01136779785155 L -79.76709747314453 -79.02973175048827 L -79.75316619873047 -79.03216552734374 L -79.64566802978516 -79.06883239746092 M -0.9883333444595337 -0.07966666668653476 L -0.9983393549919128 -0.03480096533894527 L -0.9986666440963745 -0.03333333507180202 L -0.9976666569709778 -0.0011666666250674804 L -0.9976433515548706 1.1102230246251565e-16 L -0.9959999918937683 0.08216666430234919 L -0.9793333411216736 0.1946666687726975 L -0.9738333225250244 0.2221666723489762 L -0.9311584830284119 0.3521310389041901 L -0.918833315372467 0.38966667652130127 L -0.9110000133514404 0.41100001335144043 L -0.828499972820282 0.5551666617393494 L -0.8209999799728394 0.5699999928474426 L -0.8081666827201843 0.5888333320617676 L -0.6673333048820496 0.7404999732971191 L -0.6380000114440918 0.7698333263397216 L -0.5454999804496765 0.8364999890327453 L -0.5136666893959045 0.856000006198883 L -0.4036666750907898 0.9143333435058593 L -0.3804999887943268 0.9229999780654906 L -0.25216665863990784 0.9663333296775817 L -0.2278333306312561 0.9716666936874389 L -0.10616666823625565 0.9941666722297667 L -0.08616680651903152 0.9956265091896056 L -0.0833333358168602 0.9958333373069762 L -0.06666667014360428 0.9950000047683715 L 0 0.9928581118583678 L 0.14083333313465118 0.9883333444595336 L 0.16516666114330292 0.9838333129882811 L 0.28683334589004517 0.9571666717529296 L 0.31049999594688416 0.9493333101272582 L 0.4163333475589752 0.9085000157356261 L 0.43849998712539673 0.8970000147819518 L 0.5901666879653931 0.806166648864746 L 0.6171666383743286 0.7853333353996276 L 0.7388333082199097 0.671999990940094 L 0.7613333463668823 0.6463333368301392 L 0.8355000019073486 0.547166645526886 L 0.8576666712760925 0.5026666522026062 L 0.9176666736602783 0.3935000002384186 L 0.9359416365623474 0.3455281555652619 L 0.9509999752044678 0.30599999427795416 L 0.9860000014305115 0.16099999845027932 L 0.996833324432373 0.036833334714174375 L 0.9988333582878113 0.005833333358168712 L 0.9984809756278992 1.1102230246251565e-16 L 0.9913333058357239 -0.11833333224058137 L 0.9891666769981384 -0.14316666126251207 L 0.9624999761581421 -0.2648333311080931 L 0.9580000042915344 -0.2829999923706053 L 0.9146666526794434 -0.39883333444595315 L 0.9041666388511658 -0.42583334445953347 L 0.8308333158493042 -0.5516666769981382 L 0.8168333172798157 -0.5746666789054868 L 0.7526666522026062 -0.655499994754791 L 0.7368333339691162 -0.6746666431427 L 0.7246666550636292 -0.6859999895095823 L 0.6179999709129333 -0.7851666808128354 L 0.6029999852180481 -0.7961666584014889 L 0.5263333320617676 -0.8495000004768368 L 0.4833333194255829 -0.8700000047683712 L 0.29499998688697815 -0.9549999833106991 L 0.14900000393390656 -0.9869999885559079 L 0.024833332747220993 -0.9978333115577694 L 3.973642890290263e-15 -0.9990812540054318 L -0.008333333767950535 -0.9994999766349789 L -0.13249999284744263 -0.9886666536331173 L -0.16516666114330292 -0.9838333129882809 L -0.28683334589004517 -0.9571666717529294 L -0.3125 -0.9484999775886532 L -0.4283333420753479 -0.9035000205039975 L -0.6025000214576721 -0.7910000085830685 L -0.6244999766349792 -0.7793333530426022 L -0.6430000066757202 -0.7659999728202816 L -0.646477460861206 -0.7625935077667233 L -0.7246666550636292 -0.6859999895095823 L -0.7425000071525574 -0.6685000061988828 L -0.8183333277702332 -0.5709999799728391 L -0.8368333578109741 -0.5448333621025083 L -0.8893333077430725 -0.45483332872390725 L -0.9016666412353516 -0.4296666681766508 L -0.9541666507720947 -0.294666677713394 L -0.9883333444595337 -0.07966666668653476 M -79.2836685180664 -0.6894999742507932 L -79.47366333007812 -0.8495000004768368 L -79.51667022705078 -0.8700000047683712 L -79.55082702636719 -0.8854173421859738 L -79.70049285888672 -0.952966213226318 L -79.70500183105469 -0.9549999833106991 L -79.7344970703125 -0.9608333110809323 L -79.8461685180664 -0.9866666793823239 L -79.87200164794922 -0.9881358742713925 L -80.02200317382812 -0.9966666698455807 L -80.05000305175781 -0.9980000257492062 L -80.25416564941406 -0.9621666669845578 L -80.31816864013672 -0.945999979972839 L -80.40567016601562 -0.9135000109672543 L -80.60816955566406 -0.7885000109672543 L -80.64299774169922 -0.7659999728202816 L -80.65933227539062 -0.7499999999999997 L -80.74766540527344 -0.6625000238418577 L -80.76283264160156 -0.64300000667572 L -80.85449981689453 -0.5171666741371153 L -80.86416625976562 -0.5009999871253965 L -80.90750122070312 -0.41850000619888283 L -80.9143295288086 -0.4033333361148832 L -80.9451675415039 -0.3258333206176756 L -80.95033264160156 -0.3101666569709776 L -80.97283172607422 -0.23016667366027815 L -80.9768295288086 -0.21183332800865157 L -80.99099731445312 -0.13016666471958147 L -80.9931640625 -0.1075000017881392 L -80.9990005493164 -0.025000000372528912 L -80.9990005493164 1.1102230246251565e-16 L -80.9990005493164 0.05000000074505816 L -80.99199676513672 0.12399999797344216 L -80.9749984741211 0.222000002861023 L -80.947998046875 0.31799998879432684 L -80.91100311279297 0.41100001335144043 L -80.80349731445312 0.5876666903495789 L -80.79483032226562 0.6041666865348816 L -80.78424835205078 0.6193097829818726 L -80.78050231933594 0.624666690826416 L -80.69466400146484 0.715499997138977 L -80.67916870117188 0.7321666479110718 L -80.67794799804688 0.7331942319869995 L -80.66649627685547 0.7428333163261414 L -80.54399871826172 0.8378333449363707 L -80.53016662597656 0.8471666574478148 L -80.36183166503906 0.927999973297119 L -80.32820892333984 0.9437344074249266 L -80.3280029296875 0.9438333511352538 L -80.30999755859375 0.9486666917800902 L -80.19000244140625 0.9811666607856749 L -80.16950225830078 0.9841666817665099 L -80.05616760253906 0.9975000023841857 L -80.01483154296875 0.9959999918937682 L -79.89066314697266 0.9918333292007445 L -79.8875503540039 0.9913808107376098 L -79.87200164794922 0.9891236424446105 L -79.7873306274414 0.9768333435058593 L -79.76753234863281 0.9722526669502257 L -79.76499938964844 0.9716666936874389 L -79.74949645996094 0.9660000205039977 L -79.58366394042969 0.9085000157356261 L -79.5615005493164 0.8970000147819518 L -79.45233154296875 0.8353333473205565 L -79.37733459472656 0.7803333401679992 L -79.35099792480469 0.7603333592414855 L -79.24600219726562 0.6528333425521851 L -79.22883605957031 0.6346666812896729 L -79.21817016601562 0.6194999814033508 L -79.14385223388672 0.5146334171295166 L -79.1431655883789 0.5136666893959045 L -79.14197540283203 0.511161744594574 L -79.12616729736328 0.4779999852180481 L -79.06783294677734 0.3571666777133942 L -79.02283477783203 0.1971666663885117 L -79.01466369628906 0.15666666626930245 L -79.00133514404297 0.02250000089406978 L -79.0009994506836 0.005833333358168712 L -79.00129699707031 1.1102230246251565e-16 L -79.0068359375 -0.1075000017881392 L -79.01249694824219 -0.1465000063180922 L -79.04916381835938 -0.30816665291786177 L -79.05833435058594 -0.3334999978542326 L -79.12750244140625 -0.4843333363533018 L -79.13916778564453 -0.5061666369438169 L -79.24549865722656 -0.6546666622161863 L -79.26866912841797 -0.6784999966621397 L -79.2836685180664 -0.6894999742507932 M 80.91883087158203 80.38966369628905 L 80.94966888427734 80.31216430664061 L 80.95648956298828 80.28910064697264 L 80.9671630859375 80.25299835205077 L 80.98049926757812 80.19216918945311 L 80.98500061035156 80.1740036010742 L 80.99500274658203 80.09999847412108 L 80.9990005493164 80.02500152587889 L 80.99700164794922 79.9250030517578 L 80.9905776977539 79.8720016479492 L 80.98500061035156 79.82599639892577 L 80.96199798583984 79.72899627685545 L 80.95683288574219 79.7133331298828 L 80.91850280761719 79.60583496093749 L 80.86383056640625 79.49649810791014 L 80.79299926757812 79.3939971923828 L 80.78616333007812 79.3834991455078 L 80.7838134765625 79.38069915771483 L 80.7701644897461 79.36450195312499 L 80.70099639892578 79.28700256347655 L 80.65516662597656 79.24533081054686 L 80.63316345214844 79.22633361816405 L 80.4306640625 79.10133361816405 L 80.40567016601562 79.0865020751953 L 80.37449645996094 79.07516479492186 L 80.25700378417969 79.03433227539061 L 80.04116821289062 79.00516510009764 L 80 78.99999999999999 L 79.87200164794922 79.01116943359374 L 79.85099792480469 79.01300048828124 L 79.82483673095703 79.0189971923828 L 79.61566925048828 79.07816314697264 L 79.59432983398438 79.0865020751953 L 79.46683502197266 79.15650177001952 L 79.43199920654297 79.17900085449217 L 79.2961654663086 79.29066467285155 L 79.27532958984375 79.3123321533203 L 79.1953353881836 79.40733337402342 L 79.17900085449219 79.43000030517577 L 79.11566925048828 79.53666687011717 L 79.1048355102539 79.55916595458983 L 79.0615005493164 79.65416717529295 L 79.05449676513672 79.67800140380858 L 79.01950073242188 79.80799865722655 L 79.01434326171875 79.8720016479492 L 79.00533294677734 79.98383331298827 L 79.00133514404297 80.00833129882811 L 79.00192260742188 80.02612304687499 L 79.00233459472656 80.03833007812499 L 79.02733612060547 80.22333526611327 L 79.0328369140625 80.25299835205077 L 79.04066467285156 80.27433013916014 L 79.08899688720703 80.41100311279295 L 79.09457397460938 80.42113494873045 L 79.16100311279297 80.54199981689452 L 79.25900268554688 80.6699981689453 L 79.2770004272461 80.68716430664061 L 79.3836669921875 80.7863311767578 L 79.46033477783203 80.83966827392577 L 79.48616790771484 80.85700225830077 L 79.58699798583984 80.9095001220703 L 79.6058349609375 80.91850280761717 L 79.6933364868164 80.95099639892577 L 79.70500183105469 80.95500183105467 L 79.802001953125 80.98000335693358 L 79.87200164794922 80.99071502685545 L 79.9000015258789 80.99500274658202 L 80 80.99999999999999 L 80.0999984741211 80.99500274658202 L 80.197998046875 80.98000335693358 L 80.29499816894531 80.95500183105467 L 80.4000015258789 80.91600036621092 L 80.43841552734375 80.89600372314452 L 80.52100372314453 80.85299682617186 L 80.61299896240234 80.78900146484374 L 80.74099731445312 80.6699981689453 L 80.81199645996094 80.58399963378905 L 80.86599731445312 80.49999999999999 L 80.90792846679688 80.4170684814453 L 80.91100311279297 80.41100311279295 L 80.91883087158203 80.38966369628905 M 0.6756666898727417 79.27566528320311 L 0.5331666469573975 79.15650177001952 L 0.40566667914390564 79.0865020751953 L 0.37450000643730164 79.07516479492186 L 0.25699999928474426 79.03433227539061 L 0.13449999690055847 79.01100158691405 L 0 79.00972747802733 L -0.04216666519641876 79.0093307495117 L -0.0833333358168602 79.00416564941405 L -0.1081666648387909 79.00633239746092 L -0.12039805203676224 79.0085983276367 L -0.22983333468437195 79.02883148193358 L -0.2541666626930237 79.03416442871092 L -0.27166667580604553 79.04066467285155 L -0.5008333325386047 79.13649749755858 L -0.5228333473205566 79.14817047119139 L -0.6244999766349792 79.22066497802733 L -0.6430000066757202 79.23400115966795 L -0.656499981880188 79.24683380126952 L -0.7381666898727417 79.3268356323242 L -0.7561666369438171 79.34950256347655 L -0.8378333449363708 79.45616912841795 L -0.8508333563804626 79.47983551025389 L -0.9108333587646484 79.58899688720702 L -0.9109258055686951 79.58923339843749 L -0.9416666626930237 79.66649627685545 L -0.9503333568572998 79.68983459472655 L -0.984499990940094 79.84649658203124 L -0.9890535473823547 79.8720016479492 L -0.9903333187103271 79.87916564941405 L -0.9986666440963745 80.00833129882811 L -0.9976666569709778 80.04049682617186 L -0.9901666641235352 80.13383483886717 L -0.984666645526886 80.1613311767578 L -0.9580000042915344 80.28299713134764 L -0.918833315372467 80.38966369628905 L -0.9083333611488342 80.41666412353514 L -0.8483333587646484 80.5258331298828 L -0.8295000195503235 80.5554962158203 L -0.7478333115577698 80.66217041015624 L -0.7368333339691162 80.67466735839842 L -0.6301666498184204 80.77383422851561 L -0.6163333058357239 80.7863311767578 L -0.590499997138977 80.8036651611328 L -0.4779999852180481 80.87699890136717 L -0.36500000953674316 80.93099975585936 L -0.29499998688697815 80.95500183105467 L -0.1979999989271164 80.98000335693358 L -0.10000000149011612 80.99500274658202 L 0 80.99999999999999 L 0.10000000149011612 80.99500274658202 L 0.1979999989271164 80.98000335693358 L 0.29499998688697815 80.95500183105467 L 0.30666667222976685 80.95099639892577 L 0.42250001430511475 80.90599822998045 L 0.4413333237171173 80.89700317382811 L 0.6154999732971191 80.7845001220703 L 0.6380000114440918 80.76983642578124 L 0.656499981880188 80.75316619873045 L 0.7973333597183228 80.60150146484374 L 0.8119999766349792 80.58399963378905 L 0.8293333053588867 80.55333709716795 L 0.8926666378974915 80.44666290283202 L 0.9014690518379211 80.42570495605467 L 0.9451666474342346 80.32166290283202 L 0.952833354473114 80.30016326904295 L 0.981166660785675 80.19017028808592 L 0.9858333468437195 80.16783142089842 L 0.996666669845581 80.0536651611328 L 0.9980000257492065 80.0266647338867 L 0.9884707927703857 79.8720016479492 L 0.9871666431427002 79.85083007812499 L 0.9850000143051147 79.82599639892577 L 0.9459999799728394 79.68199920654295 L 0.9384999871253967 79.66266632080077 L 0.8918333053588867 79.54766845703124 L 0.8318333625793457 79.45016479492186 L 0.8131666779518127 79.42033386230467 L 0.7385503053665161 79.32825469970702 L 0.7348333597183228 79.32366943359374 L 0.7164999842643738 79.30383300781249 L 0.6756666898727417 79.27566528320311 M 80 -80.99999999999999 L 79.9000015258789 -80.99500274658202 L 79.87200164794922 -80.99071502685545 L 79.802001953125 -80.98000335693358 L 79.68199920654297 -80.94799804687499 L 79.56700134277344 -80.90000152587889 L 79.43699645996094 -80.82599639892577 L 79.37033081054688 -80.77600097656249 L 79.34349822998047 -80.75316619873045 L 79.25516510009766 -80.66566467285155 L 79.23583221435547 -80.6411666870117 L 79.16000366210938 -80.54199981689452 L 79.05916595458984 -80.31533050537108 L 79.04816436767578 -80.29533386230467 L 79.04116821289062 -80.27799987792967 L 79.03982543945312 -80.27185821533202 L 79.03433227539062 -80.24666595458983 L 79.00849914550781 -80.12499999999999 L 79.00267028808594 -80.0316696166992 L 79.0009994506836 -80.00583648681639 L 79.00102233886719 -80.00537872314452 L 79.0068359375 -79.89250183105467 L 79.01009368896484 -79.8720016479492 L 79.01333618164062 -79.85166931152342 L 79.02749633789062 -79.76999664306639 L 79.06083679199219 -79.66083526611327 L 79.07250213623047 -79.6298370361328 L 79.15166473388672 -79.47233581542967 L 79.16133117675781 -79.45633697509764 L 79.23049926757812 -79.36466979980467 L 79.2441635131836 -79.34649658203124 L 79.2443618774414 -79.34629058837889 L 79.30833435058594 -79.27899932861327 L 79.31999969482422 -79.26699829101561 L 79.43800354003906 -79.1750030517578 L 79.5780029296875 -79.09400177001952 L 79.70500183105469 -79.0449981689453 L 79.85099792480469 -79.01300048828124 L 79.87200164794922 -79.01116943359374 L 79.97516632080078 -79.00216674804686 L 80.00933074951172 -79.0006637573242 L 80.12349700927734 -79.00900268554686 L 80.25516510009766 -79.03816986083983 L 80.28900146484375 -79.04333496093749 L 80.30558013916016 -79.04933166503905 L 80.31616973876953 -79.05316925048827 L 80.39366912841797 -79.0814971923828 L 80.49533081054688 -79.13316345214842 L 80.51183319091797 -79.14199829101561 L 80.61433410644531 -79.21366882324217 L 80.6344985961914 -79.22833251953124 L 80.71033477783203 -79.29833221435545 L 80.72949981689453 -79.31716918945311 L 80.82533264160156 -79.43966674804686 L 80.83916473388672 -79.45800018310545 L 80.85016632080078 -79.47799682617186 L 80.91016387939453 -79.58716583251952 L 80.94100189208984 -79.66466522216795 L 80.95149993896484 -79.69383239746092 L 80.9739990234375 -79.77383422851561 L 80.97783660888672 -79.79433441162108 L 80.99130249023438 -79.8720016479492 L 80.99199676513672 -79.87599945068358 L 80.9990005493164 -79.97499847412108 L 80.9990005493164 -80.0500030517578 L 80.9931640625 -80.11166381835936 L 80.99099731445312 -80.13016510009764 L 80.98100280761719 -80.19183349609374 L 80.97699737548828 -80.21016693115233 L 80.96199798583984 -80.27100372314452 L 80.94000244140625 -80.34200286865233 L 80.91100311279297 -80.41100311279295 L 80.86599731445312 -80.49999999999999 L 80.81199645996094 -80.58399963378905 L 80.74099731445312 -80.6699981689453 L 80.64299774169922 -80.76599884033202 L 80.56300354003906 -80.82599639892577 L 80.47799682617188 -80.87799835205077 L 80.44032287597656 -80.89600372314452 L 80.38800048828125 -80.92099761962889 L 80.29499816894531 -80.95500183105467 L 80.197998046875 -80.98000335693358 L 80.0999984741211 -80.99500274658202 L 80 -80.99999999999999 M -80.98899841308594 79.85099792480467 L -80.99127197265625 79.8720016479492 L -80.99700164794922 79.9250030517578 L -80.9990005493164 80.02500152587889 L -80.99500274658203 80.09999847412108 L -80.98500061035156 80.1740036010742 L -80.96900177001953 80.2470016479492 L -80.947998046875 80.31800079345702 L -80.91100311279297 80.41100311279295 L -80.84600067138672 80.53199768066405 L -80.78199768066406 80.6230010986328 L -80.71600341796875 80.69799804687499 L -80.61299896240234 80.78900146484374 L -80.52100372314453 80.85299682617186 L -80.44306182861328 80.89600372314452 L -80.43399810791016 80.90100097656249 L -80.36499786376953 80.93099975585936 L -80.29499816894531 80.95500183105467 L -80.18599700927734 80.98200225830077 L -80.05000305175781 80.9980010986328 L -79.94999694824219 80.9980010986328 L -79.87200164794922 80.9888229370117 L -79.81400299072266 80.98200225830077 L -79.70500183105469 80.95500183105467 L -79.55249786376953 80.89083099365233 L -79.51483154296875 80.8738327026367 L -79.4106674194336 80.8054962158203 L -79.31649780273438 80.7238311767578 L -79.27902221679688 80.69226837158202 L -79.27850341796875 80.69183349609374 L -79.26233673095703 80.67033386230467 L -79.1431655883789 80.51366424560545 L -79.13150024414062 80.49166870117186 L -79.0548324584961 80.32166290283202 L -79.04716491699219 80.30016326904295 L -79.01966857910156 80.19017028808592 L -79.01599884033203 80.1740036010742 L -79.00199890136719 80.03700256347655 L -79.00700378417969 79.88800048828124 L -79.01004791259766 79.8720016479492 L -79.03500366210938 79.74099731445311 L -79.08999633789062 79.58899688720702 L -79.16000366210938 79.45800018310545 L -79.2509994506836 79.33899688720702 L -79.26866912841797 79.32150268554686 L -79.39450073242188 79.2064971923828 L -79.42933654785156 79.18399810791014 L -79.59432983398438 79.0865020751953 L -79.72766876220703 79.04233551025389 L -79.76899719238281 79.02883148193358 L -79.87200164794922 79.0131149291992 L -79.92733001708984 79.00466918945311 L -79.94999694824219 79.00199890136717 L -80.05000305175781 79.00199890136717 L -80.18599700927734 79.0179977416992 L -80.21282958984375 79.02566528320311 L -80.37181854248047 79.07469940185545 L -80.39116668701172 79.08066558837889 L -80.49199676513672 79.13316345214842 L -80.52283477783203 79.14817047119139 L -80.62449645996094 79.22066497802733 L -80.64299774169922 79.23400115966795 L -80.65516662597656 79.24533081054686 L -80.73683166503906 79.32533264160155 L -80.75150299072266 79.34283447265624 L -80.83316802978516 79.44950103759764 L -80.84349822998047 79.46499633789061 L -80.91516876220703 79.60250091552733 L -80.93016815185547 79.63666534423827 L -80.9635009765625 79.73500061035155 L -80.96900177001953 79.7593307495117 L -80.98899841308594 79.85099792480467 z" fill="none" stroke="rgb(255,0,0)" stroke-width="0.001mm" />
</svg>