solid CATIA STL
  facet normal -4.361996e-002 -9.990482e-001  0.000000e+000
    outer loop
      vertex  2.000000e+001  3.000000e+001  3.000000e+000
      vertex  2.000000e+001  3.000000e+001  0.000000e+000
      vertex  2.087156e+001  2.996195e+001  3.000000e+000
    endloop
  endfacet
  facet normal -4.361996e-002 -9.990482e-001  -0.000000e+000
    outer loop
      vertex  2.087156e+001  2.996195e+001  3.000000e+000
      vertex  2.000000e+001  3.000000e+001  0.000000e+000
      vertex  2.087156e+001  2.996195e+001  0.000000e+000
    endloop
  endfacet
  facet normal -1.305252e-001 -9.914450e-001  0.000000e+000
    outer loop
      vertex  2.087156e+001  2.996195e+001  3.000000e+000
      vertex  2.087156e+001  2.996195e+001  0.000000e+000
      vertex  2.173648e+001  2.984808e+001  3.000000e+000
    endloop
  endfacet
  facet normal -1.305252e-001 -9.914450e-001  -0.000000e+000
    outer loop
      vertex  2.173648e+001  2.984808e+001  3.000000e+000
      vertex  2.087156e+001  2.996195e+001  0.000000e+000
      vertex  2.173648e+001  2.984808e+001  0.000000e+000
    endloop
  endfacet
  facet normal -2.164406e-001 -9.762958e-001  0.000000e+000
    outer loop
      vertex  2.173648e+001  2.984808e+001  3.000000e+000
      vertex  2.173648e+001  2.984808e+001  0.000000e+000
      vertex  2.258819e+001  2.965926e+001  3.000000e+000
    endloop
  endfacet
  facet normal -2.164406e-001 -9.762958e-001  -0.000000e+000
    outer loop
      vertex  2.258819e+001  2.965926e+001  3.000000e+000
      vertex  2.173648e+001  2.984808e+001  0.000000e+000
      vertex  2.258819e+001  2.965926e+001  0.000000e+000
    endloop
  endfacet
  facet normal -3.007043e-001 -9.537174e-001  0.000000e+000
    outer loop
      vertex  2.258819e+001  2.965926e+001  3.000000e+000
      vertex  2.258819e+001  2.965926e+001  0.000000e+000
      vertex  2.342020e+001  2.939693e+001  3.000000e+000
    endloop
  endfacet
  facet normal -3.007043e-001 -9.537174e-001  -0.000000e+000
    outer loop
      vertex  2.342020e+001  2.939693e+001  3.000000e+000
      vertex  2.258819e+001  2.965926e+001  0.000000e+000
      vertex  2.342020e+001  2.939693e+001  0.000000e+000
    endloop
  endfacet
  facet normal -3.826843e-001 -9.238793e-001  0.000000e+000
    outer loop
      vertex  2.342020e+001  2.939693e+001  3.000000e+000
      vertex  2.342020e+001  2.939693e+001  0.000000e+000
      vertex  2.422618e+001  2.906308e+001  3.000000e+000
    endloop
  endfacet
  facet normal -3.826843e-001 -9.238793e-001  -0.000000e+000
    outer loop
      vertex  2.422618e+001  2.906308e+001  3.000000e+000
      vertex  2.342020e+001  2.939693e+001  0.000000e+000
      vertex  2.422618e+001  2.906308e+001  0.000000e+000
    endloop
  endfacet
  facet normal -4.617493e-001 -8.870105e-001  0.000000e+000
    outer loop
      vertex  2.422618e+001  2.906308e+001  3.000000e+000
      vertex  2.422618e+001  2.906308e+001  0.000000e+000
      vertex  2.500000e+001  2.866025e+001  3.000000e+000
    endloop
  endfacet
  facet normal -4.617493e-001 -8.870105e-001  -0.000000e+000
    outer loop
      vertex  2.500000e+001  2.866025e+001  3.000000e+000
      vertex  2.422618e+001  2.906308e+001  0.000000e+000
      vertex  2.500000e+001  2.866025e+001  0.000000e+000
    endloop
  endfacet
  facet normal -5.372994e-001 -8.433915e-001  0.000000e+000
    outer loop
      vertex  2.500000e+001  2.866025e+001  3.000000e+000
      vertex  2.500000e+001  2.866025e+001  0.000000e+000
      vertex  2.573576e+001  2.819152e+001  3.000000e+000
    endloop
  endfacet
  facet normal -5.372994e-001 -8.433915e-001  -0.000000e+000
    outer loop
      vertex  2.573576e+001  2.819152e+001  3.000000e+000
      vertex  2.500000e+001  2.866025e+001  0.000000e+000
      vertex  2.573576e+001  2.819152e+001  0.000000e+000
    endloop
  endfacet
  facet normal -6.087616e-001 -7.933532e-001  0.000000e+000
    outer loop
      vertex  2.573576e+001  2.819152e+001  3.000000e+000
      vertex  2.573576e+001  2.819152e+001  0.000000e+000
      vertex  2.642788e+001  2.766044e+001  3.000000e+000
    endloop
  endfacet
  facet normal -6.087616e-001 -7.933532e-001  -0.000000e+000
    outer loop
      vertex  2.642788e+001  2.766044e+001  3.000000e+000
      vertex  2.573576e+001  2.819152e+001  0.000000e+000
      vertex  2.642788e+001  2.766044e+001  0.000000e+000
    endloop
  endfacet
  facet normal -6.755897e-001 -7.372777e-001  0.000000e+000
    outer loop
      vertex  2.642788e+001  2.766044e+001  3.000000e+000
      vertex  2.642788e+001  2.766044e+001  0.000000e+000
      vertex  2.707107e+001  2.707107e+001  3.000000e+000
    endloop
  endfacet
  facet normal -6.755897e-001 -7.372777e-001  -0.000000e+000
    outer loop
      vertex  2.707107e+001  2.707107e+001  3.000000e+000
      vertex  2.642788e+001  2.766044e+001  0.000000e+000
      vertex  2.707107e+001  2.707107e+001  0.000000e+000
    endloop
  endfacet
  facet normal -7.372777e-001 -6.755897e-001  0.000000e+000
    outer loop
      vertex  2.707107e+001  2.707107e+001  3.000000e+000
      vertex  2.707107e+001  2.707107e+001  0.000000e+000
      vertex  2.766044e+001  2.642788e+001  3.000000e+000
    endloop
  endfacet
  facet normal -7.372777e-001 -6.755897e-001  -0.000000e+000
    outer loop
      vertex  2.766044e+001  2.642788e+001  3.000000e+000
      vertex  2.707107e+001  2.707107e+001  0.000000e+000
      vertex  2.766044e+001  2.642788e+001  0.000000e+000
    endloop
  endfacet
  facet normal -7.933532e-001 -6.087616e-001  0.000000e+000
    outer loop
      vertex  2.766044e+001  2.642788e+001  3.000000e+000
      vertex  2.766044e+001  2.642788e+001  0.000000e+000
      vertex  2.819152e+001  2.573576e+001  3.000000e+000
    endloop
  endfacet
  facet normal -7.933532e-001 -6.087616e-001  -0.000000e+000
    outer loop
      vertex  2.819152e+001  2.573576e+001  3.000000e+000
      vertex  2.766044e+001  2.642788e+001  0.000000e+000
      vertex  2.819152e+001  2.573576e+001  0.000000e+000
    endloop
  endfacet
  facet normal -8.433915e-001 -5.372994e-001  0.000000e+000
    outer loop
      vertex  2.819152e+001  2.573576e+001  3.000000e+000
      vertex  2.819152e+001  2.573576e+001  0.000000e+000
      vertex  2.866025e+001  2.500000e+001  3.000000e+000
    endloop
  endfacet
  facet normal -8.433915e-001 -5.372994e-001  -0.000000e+000
    outer loop
      vertex  2.866025e+001  2.500000e+001  3.000000e+000
      vertex  2.819152e+001  2.573576e+001  0.000000e+000
      vertex  2.866025e+001  2.500000e+001  0.000000e+000
    endloop
  endfacet
  facet normal -8.870105e-001 -4.617493e-001  0.000000e+000
    outer loop
      vertex  2.866025e+001  2.500000e+001  3.000000e+000
      vertex  2.866025e+001  2.500000e+001  0.000000e+000
      vertex  2.906308e+001  2.422618e+001  3.000000e+000
    endloop
  endfacet
  facet normal -8.870105e-001 -4.617493e-001  -0.000000e+000
    outer loop
      vertex  2.906308e+001  2.422618e+001  3.000000e+000
      vertex  2.866025e+001  2.500000e+001  0.000000e+000
      vertex  2.906308e+001  2.422618e+001  0.000000e+000
    endloop
  endfacet
  facet normal -9.238793e-001 -3.826843e-001  0.000000e+000
    outer loop
      vertex  2.906308e+001  2.422618e+001  3.000000e+000
      vertex  2.906308e+001  2.422618e+001  0.000000e+000
      vertex  2.939693e+001  2.342020e+001  3.000000e+000
    endloop
  endfacet
  facet normal -9.238793e-001 -3.826843e-001  -0.000000e+000
    outer loop
      vertex  2.939693e+001  2.342020e+001  3.000000e+000
      vertex  2.906308e+001  2.422618e+001  0.000000e+000
      vertex  2.939693e+001  2.342020e+001  0.000000e+000
    endloop
  endfacet
  facet normal -9.537174e-001 -3.007043e-001  0.000000e+000
    outer loop
      vertex  2.939693e+001  2.342020e+001  3.000000e+000
      vertex  2.939693e+001  2.342020e+001  0.000000e+000
      vertex  2.965926e+001  2.258819e+001  3.000000e+000
    endloop
  endfacet
  facet normal -9.537174e-001 -3.007043e-001  -0.000000e+000
    outer loop
      vertex  2.965926e+001  2.258819e+001  3.000000e+000
      vertex  2.939693e+001  2.342020e+001  0.000000e+000
      vertex  2.965926e+001  2.258819e+001  0.000000e+000
    endloop
  endfacet
  facet normal -9.762958e-001 -2.164406e-001  0.000000e+000
    outer loop
      vertex  2.965926e+001  2.258819e+001  3.000000e+000
      vertex  2.965926e+001  2.258819e+001  0.000000e+000
      vertex  2.984808e+001  2.173648e+001  3.000000e+000
    endloop
  endfacet
  facet normal -9.762958e-001 -2.164406e-001  -0.000000e+000
    outer loop
      vertex  2.984808e+001  2.173648e+001  3.000000e+000
      vertex  2.965926e+001  2.258819e+001  0.000000e+000
      vertex  2.984808e+001  2.173648e+001  0.000000e+000
    endloop
  endfacet
  facet normal -9.914450e-001 -1.305252e-001  0.000000e+000
    outer loop
      vertex  2.984808e+001  2.173648e+001  3.000000e+000
      vertex  2.984808e+001  2.173648e+001  0.000000e+000
      vertex  2.996195e+001  2.087156e+001  3.000000e+000
    endloop
  endfacet
  facet normal -9.914450e-001 -1.305252e-001  -0.000000e+000
    outer loop
      vertex  2.996195e+001  2.087156e+001  3.000000e+000
      vertex  2.984808e+001  2.173648e+001  0.000000e+000
      vertex  2.996195e+001  2.087156e+001  0.000000e+000
    endloop
  endfacet
  facet normal -9.990482e-001 -4.361996e-002  0.000000e+000
    outer loop
      vertex  2.996195e+001  2.087156e+001  3.000000e+000
      vertex  2.996195e+001  2.087156e+001  0.000000e+000
      vertex  3.000000e+001  2.000000e+001  3.000000e+000
    endloop
  endfacet
  facet normal -9.990482e-001 -4.361996e-002  -0.000000e+000
    outer loop
      vertex  3.000000e+001  2.000000e+001  3.000000e+000
      vertex  2.996195e+001  2.087156e+001  0.000000e+000
      vertex  3.000000e+001  2.000000e+001  0.000000e+000
    endloop
  endfacet
  facet normal  -0.000000e+000  -0.000000e+000 -9.999999e-001
    outer loop
      vertex  1.200000e+002  4.000000e+001  0.000000e+000
      vertex  1.500000e+002  4.000000e+001  0.000000e+000
      vertex  1.500000e+002  3.450000e+001  0.000000e+000
    endloop
  endfacet
  facet normal  0.000000e+000  0.000000e+000 -1.000000e+000
    outer loop
      vertex  2.000000e+001  3.000000e+001  0.000000e+000
      vertex  2.000000e+001  1.500000e+002  0.000000e+000
      vertex  2.500000e+001  1.500000e+002  0.000000e+000
    endloop
  endfacet
  facet normal  0.000000e+000  -0.000000e+000 -1.000000e+000
    outer loop
      vertex  2.000000e+001  3.000000e+001  0.000000e+000
      vertex  2.500000e+001  1.500000e+002  0.000000e+000
      vertex  2.500000e+001  1.400000e+002  0.000000e+000
    endloop
  endfacet
  facet normal  0.000000e+000  -0.000000e+000 -1.000000e+000
    outer loop
      vertex  2.000000e+001  3.000000e+001  0.000000e+000
      vertex  2.500000e+001  1.400000e+002  0.000000e+000
      vertex  3.500000e+001  1.400000e+002  0.000000e+000
    endloop
  endfacet
  facet normal  0.000000e+000  -0.000000e+000 -9.999999e-001
    outer loop
      vertex  2.000000e+001  3.000000e+001  0.000000e+000
      vertex  3.500000e+001  1.400000e+002  0.000000e+000
      vertex  4.000000e+001  1.200000e+002  0.000000e+000
    endloop
  endfacet
  facet normal  0.000000e+000  -0.000000e+000 -1.000000e+000
    outer loop
      vertex  2.000000e+001  3.000000e+001  0.000000e+000
      vertex  4.000000e+001  1.200000e+002  0.000000e+000
      vertex  4.000000e+001  1.000000e+002  0.000000e+000
    endloop
  endfacet
  facet normal  0.000000e+000  -0.000000e+000 -1.000000e+000
    outer loop
      vertex  2.000000e+001  3.000000e+001  0.000000e+000
      vertex  4.000000e+001  1.000000e+002  0.000000e+000
      vertex  4.000000e+001  4.000000e+001  0.000000e+000
    endloop
  endfacet
  facet normal  0.000000e+000  0.000000e+000 -1.000000e+000
    outer loop
      vertex  2.000000e+001  3.000000e+001  0.000000e+000
      vertex  4.000000e+001  4.000000e+001  0.000000e+000
      vertex  2.087156e+001  2.996195e+001  0.000000e+000
    endloop
  endfacet
  facet normal  0.000000e+000  0.000000e+000 -9.999999e-001
    outer loop
      vertex  1.500000e+002  1.055000e+002  0.000000e+000
      vertex  1.500000e+002  1.000000e+002  0.000000e+000
      vertex  1.200000e+002  1.000000e+002  0.000000e+000
    endloop
  endfacet
  facet normal  0.000000e+000  0.000000e+000 -9.999999e-001
    outer loop
      vertex  1.500000e+002  1.055000e+002  0.000000e+000
      vertex  1.200000e+002  1.000000e+002  0.000000e+000
      vertex  1.000000e+002  1.000000e+002  0.000000e+000
    endloop
  endfacet
  facet normal  0.000000e+000  0.000000e+000 -1.000000e+000
    outer loop
      vertex  1.500000e+002  1.055000e+002  0.000000e+000
      vertex  1.000000e+002  1.000000e+002  0.000000e+000
      vertex  1.500000e+002  1.145000e+002  0.000000e+000
    endloop
  endfacet
  facet normal  0.000000e+000  0.000000e+000 -1.000000e+000
    outer loop
      vertex  1.500000e+002  1.055000e+002  0.000000e+000
      vertex  1.500000e+002  1.145000e+002  0.000000e+000
      vertex  1.600000e+002  1.145000e+002  0.000000e+000
    endloop
  endfacet
  facet normal  0.000000e+000  -0.000000e+000 -1.000000e+000
    outer loop
      vertex  1.500000e+002  1.055000e+002  0.000000e+000
      vertex  1.600000e+002  1.145000e+002  0.000000e+000
      vertex  1.600000e+002  1.055000e+002  0.000000e+000
    endloop
  endfacet
  facet normal  0.000000e+000  0.000000e+000 -9.999999e-001
    outer loop
      vertex  1.500000e+002  2.550000e+001  0.000000e+000
      vertex  1.500000e+002  2.000000e+001  0.000000e+000
      vertex  3.000000e+001  2.000000e+001  0.000000e+000
    endloop
  endfacet
  facet normal  0.000000e+000  0.000000e+000 -1.000000e+000
    outer loop
      vertex  1.500000e+002  2.550000e+001  0.000000e+000
      vertex  3.000000e+001  2.000000e+001  0.000000e+000
      vertex  1.000000e+002  4.000000e+001  0.000000e+000
    endloop
  endfacet
  facet normal  0.000000e+000  0.000000e+000 -1.000000e+000
    outer loop
      vertex  1.500000e+002  2.550000e+001  0.000000e+000
      vertex  1.000000e+002  4.000000e+001  0.000000e+000
      vertex  1.500000e+002  3.450000e+001  0.000000e+000
    endloop
  endfacet
  facet normal  0.000000e+000  0.000000e+000 -1.000000e+000
    outer loop
      vertex  1.500000e+002  2.550000e+001  0.000000e+000
      vertex  1.500000e+002  3.450000e+001  0.000000e+000
      vertex  1.600000e+002  3.450000e+001  0.000000e+000
    endloop
  endfacet
  facet normal  0.000000e+000  -0.000000e+000 -1.000000e+000
    outer loop
      vertex  1.500000e+002  2.550000e+001  0.000000e+000
      vertex  1.600000e+002  3.450000e+001  0.000000e+000
      vertex  1.600000e+002  2.550000e+001  0.000000e+000
    endloop
  endfacet
  facet normal  -0.000000e+000  0.000000e+000 -1.000000e+000
    outer loop
      vertex  4.000000e+001  4.000000e+001  0.000000e+000
      vertex  1.000000e+002  4.000000e+001  0.000000e+000
      vertex  3.000000e+001  2.000000e+001  0.000000e+000
    endloop
  endfacet
  facet normal  0.000000e+000  0.000000e+000 -1.000000e+000
    outer loop
      vertex  4.000000e+001  4.000000e+001  0.000000e+000
      vertex  3.000000e+001  2.000000e+001  0.000000e+000
      vertex  2.996195e+001  2.087156e+001  0.000000e+000
    endloop
  endfacet
  facet normal  0.000000e+000  0.000000e+000 -1.000000e+000
    outer loop
      vertex  4.000000e+001  4.000000e+001  0.000000e+000
      vertex  2.996195e+001  2.087156e+001  0.000000e+000
      vertex  2.984808e+001  2.173648e+001  0.000000e+000
    endloop
  endfacet
  facet normal  0.000000e+000  0.000000e+000 -1.000000e+000
    outer loop
      vertex  4.000000e+001  4.000000e+001  0.000000e+000
      vertex  2.984808e+001  2.173648e+001  0.000000e+000
      vertex  2.965926e+001  2.258819e+001  0.000000e+000
    endloop
  endfacet
  facet normal  0.000000e+000  0.000000e+000 -9.999999e-001
    outer loop
      vertex  4.000000e+001  4.000000e+001  0.000000e+000
      vertex  2.965926e+001  2.258819e+001  0.000000e+000
      vertex  2.939693e+001  2.342020e+001  0.000000e+000
    endloop
  endfacet
  facet normal  0.000000e+000  0.000000e+000 -9.999999e-001
    outer loop
      vertex  4.000000e+001  4.000000e+001  0.000000e+000
      vertex  2.939693e+001  2.342020e+001  0.000000e+000
      vertex  2.906308e+001  2.422618e+001  0.000000e+000
    endloop
  endfacet
  facet normal  0.000000e+000  0.000000e+000 -1.000000e+000
    outer loop
      vertex  4.000000e+001  4.000000e+001  0.000000e+000
      vertex  2.906308e+001  2.422618e+001  0.000000e+000
      vertex  2.866025e+001  2.500000e+001  0.000000e+000
    endloop
  endfacet
  facet normal  0.000000e+000  0.000000e+000 -1.000000e+000
    outer loop
      vertex  4.000000e+001  4.000000e+001  0.000000e+000
      vertex  2.866025e+001  2.500000e+001  0.000000e+000
      vertex  2.819152e+001  2.573576e+001  0.000000e+000
    endloop
  endfacet
  facet normal  0.000000e+000  0.000000e+000 -1.000000e+000
    outer loop
      vertex  4.000000e+001  4.000000e+001  0.000000e+000
      vertex  2.819152e+001  2.573576e+001  0.000000e+000
      vertex  2.766044e+001  2.642788e+001  0.000000e+000
    endloop
  endfacet
  facet normal  0.000000e+000  0.000000e+000 -1.000000e+000
    outer loop
      vertex  4.000000e+001  4.000000e+001  0.000000e+000
      vertex  2.766044e+001  2.642788e+001  0.000000e+000
      vertex  2.707107e+001  2.707107e+001  0.000000e+000
    endloop
  endfacet
  facet normal  0.000000e+000  0.000000e+000 -1.000000e+000
    outer loop
      vertex  4.000000e+001  4.000000e+001  0.000000e+000
      vertex  2.707107e+001  2.707107e+001  0.000000e+000
      vertex  2.642788e+001  2.766044e+001  0.000000e+000
    endloop
  endfacet
  facet normal  0.000000e+000  0.000000e+000 -1.000000e+000
    outer loop
      vertex  4.000000e+001  4.000000e+001  0.000000e+000
      vertex  2.642788e+001  2.766044e+001  0.000000e+000
      vertex  2.573576e+001  2.819152e+001  0.000000e+000
    endloop
  endfacet
  facet normal  0.000000e+000  0.000000e+000 -1.000000e+000
    outer loop
      vertex  4.000000e+001  4.000000e+001  0.000000e+000
      vertex  2.573576e+001  2.819152e+001  0.000000e+000
      vertex  2.500000e+001  2.866025e+001  0.000000e+000
    endloop
  endfacet
  facet normal  0.000000e+000  0.000000e+000 -1.000000e+000
    outer loop
      vertex  4.000000e+001  4.000000e+001  0.000000e+000
      vertex  2.500000e+001  2.866025e+001  0.000000e+000
      vertex  2.422618e+001  2.906308e+001  0.000000e+000
    endloop
  endfacet
  facet normal  0.000000e+000  0.000000e+000 -9.999999e-001
    outer loop
      vertex  4.000000e+001  4.000000e+001  0.000000e+000
      vertex  2.422618e+001  2.906308e+001  0.000000e+000
      vertex  2.342020e+001  2.939693e+001  0.000000e+000
    endloop
  endfacet
  facet normal  0.000000e+000  0.000000e+000 -9.999999e-001
    outer loop
      vertex  4.000000e+001  4.000000e+001  0.000000e+000
      vertex  2.342020e+001  2.939693e+001  0.000000e+000
      vertex  2.258819e+001  2.965926e+001  0.000000e+000
    endloop
  endfacet
  facet normal  0.000000e+000  0.000000e+000 -1.000000e+000
    outer loop
      vertex  4.000000e+001  4.000000e+001  0.000000e+000
      vertex  2.258819e+001  2.965926e+001  0.000000e+000
      vertex  2.173648e+001  2.984808e+001  0.000000e+000
    endloop
  endfacet
  facet normal  0.000000e+000  0.000000e+000 -1.000000e+000
    outer loop
      vertex  4.000000e+001  4.000000e+001  0.000000e+000
      vertex  2.173648e+001  2.984808e+001  0.000000e+000
      vertex  2.087156e+001  2.996195e+001  0.000000e+000
    endloop
  endfacet
  facet normal  0.000000e+000  0.000000e+000 -1.000000e+000
    outer loop
      vertex  1.000000e+002  1.000000e+002  0.000000e+000
      vertex  4.000000e+001  1.000000e+002  0.000000e+000
      vertex  4.000000e+001  1.200000e+002  0.000000e+000
    endloop
  endfacet
  facet normal  0.000000e+000  0.000000e+000 -1.000000e+000
    outer loop
      vertex  1.000000e+002  1.000000e+002  0.000000e+000
      vertex  4.000000e+001  1.200000e+002  0.000000e+000
      vertex  1.000000e+002  1.200000e+002  0.000000e+000
    endloop
  endfacet
  facet normal  0.000000e+000  0.000000e+000 -1.000000e+000
    outer loop
      vertex  1.000000e+002  1.000000e+002  0.000000e+000
      vertex  1.000000e+002  1.200000e+002  0.000000e+000
      vertex  1.200000e+002  1.200000e+002  0.000000e+000
    endloop
  endfacet
  facet normal  0.000000e+000  -0.000000e+000 -1.000000e+000
    outer loop
      vertex  1.000000e+002  1.000000e+002  0.000000e+000
      vertex  1.200000e+002  1.200000e+002  0.000000e+000
      vertex  1.500000e+002  1.200000e+002  0.000000e+000
    endloop
  endfacet
  facet normal  0.000000e+000  -0.000000e+000 -1.000000e+000
    outer loop
      vertex  1.000000e+002  1.000000e+002  0.000000e+000
      vertex  1.500000e+002  1.200000e+002  0.000000e+000
      vertex  1.500000e+002  1.145000e+002  0.000000e+000
    endloop
  endfacet
  facet normal  0.000000e+000  0.000000e+000 -1.000000e+000
    outer loop
      vertex  1.000000e+002  1.200000e+002  0.000000e+000
      vertex  1.000000e+002  1.500000e+002  0.000000e+000
      vertex  1.050000e+002  1.500000e+002  0.000000e+000
    endloop
  endfacet
  facet normal  0.000000e+000  -0.000000e+000 -1.000000e+000
    outer loop
      vertex  1.000000e+002  1.200000e+002  0.000000e+000
      vertex  1.050000e+002  1.500000e+002  0.000000e+000
      vertex  1.050000e+002  1.400000e+002  0.000000e+000
    endloop
  endfacet
  facet normal  0.000000e+000  -0.000000e+000 -1.000000e+000
    outer loop
      vertex  1.000000e+002  1.200000e+002  0.000000e+000
      vertex  1.050000e+002  1.400000e+002  0.000000e+000
      vertex  1.150000e+002  1.400000e+002  0.000000e+000
    endloop
  endfacet
  facet normal  0.000000e+000  -0.000000e+000 -1.000000e+000
    outer loop
      vertex  1.000000e+002  1.200000e+002  0.000000e+000
      vertex  1.150000e+002  1.400000e+002  0.000000e+000
      vertex  1.200000e+002  1.200000e+002  0.000000e+000
    endloop
  endfacet
  facet normal  0.000000e+000  0.000000e+000 -1.000000e+000
    outer loop
      vertex  4.000000e+001  1.200000e+002  0.000000e+000
      vertex  3.500000e+001  1.400000e+002  0.000000e+000
      vertex  4.000000e+001  1.500000e+002  0.000000e+000
    endloop
  endfacet
  facet normal  -0.000000e+000  0.000000e+000 -1.000000e+000
    outer loop
      vertex  4.000000e+001  1.500000e+002  0.000000e+000
      vertex  3.500000e+001  1.400000e+002  0.000000e+000
      vertex  3.500000e+001  1.500000e+002  0.000000e+000
    endloop
  endfacet
  facet normal  0.000000e+000  0.000000e+000 -1.000000e+000
    outer loop
      vertex  1.200000e+002  1.200000e+002  0.000000e+000
      vertex  1.150000e+002  1.400000e+002  0.000000e+000
      vertex  1.200000e+002  1.500000e+002  0.000000e+000
    endloop
  endfacet
  facet normal  -0.000000e+000  0.000000e+000 -1.000000e+000
    outer loop
      vertex  1.200000e+002  1.500000e+002  0.000000e+000
      vertex  1.150000e+002  1.400000e+002  0.000000e+000
      vertex  1.150000e+002  1.500000e+002  0.000000e+000
    endloop
  endfacet
  facet normal  -0.000000e+000  0.000000e+000 -1.000000e+000
    outer loop
      vertex  1.000000e+002  1.000000e+002  0.000000e+000
      vertex  1.200000e+002  1.000000e+002  0.000000e+000
      vertex  1.000000e+002  4.000000e+001  0.000000e+000
    endloop
  endfacet
  facet normal  0.000000e+000  0.000000e+000 -1.000000e+000
    outer loop
      vertex  1.000000e+002  4.000000e+001  0.000000e+000
      vertex  1.200000e+002  1.000000e+002  0.000000e+000
      vertex  1.200000e+002  4.000000e+001  0.000000e+000
    endloop
  endfacet
  facet normal  -0.000000e+000  -0.000000e+000 -9.999999e-001
    outer loop
      vertex  1.000000e+002  4.000000e+001  0.000000e+000
      vertex  1.200000e+002  4.000000e+001  0.000000e+000
      vertex  1.500000e+002  3.450000e+001  0.000000e+000
    endloop
  endfacet
  facet normal  0.000000e+000  0.000000e+000  9.999999e-001
    outer loop
      vertex  1.500000e+002  1.055000e+002  3.000000e+000
      vertex  1.200000e+002  1.000000e+002  3.000000e+000
      vertex  1.500000e+002  1.000000e+002  3.000000e+000
    endloop
  endfacet
  facet normal  0.000000e+000  0.000000e+000  9.999999e-001
    outer loop
      vertex  1.500000e+002  3.450000e+001  3.000000e+000
      vertex  1.500000e+002  4.000000e+001  3.000000e+000
      vertex  1.200000e+002  4.000000e+001  3.000000e+000
    endloop
  endfacet
  facet normal  0.000000e+000  0.000000e+000  9.999999e-001
    outer loop
      vertex  1.500000e+002  3.450000e+001  3.000000e+000
      vertex  1.200000e+002  4.000000e+001  3.000000e+000
      vertex  1.000000e+002  4.000000e+001  3.000000e+000
    endloop
  endfacet
  facet normal  0.000000e+000  0.000000e+000  9.999999e-001
    outer loop
      vertex  1.500000e+002  1.145000e+002  3.000000e+000
      vertex  1.500000e+002  1.200000e+002  3.000000e+000
      vertex  1.200000e+002  1.200000e+002  3.000000e+000
    endloop
  endfacet
  facet normal  -0.000000e+000  0.000000e+000  1.000000e+000
    outer loop
      vertex  2.000000e+001  3.500000e+001  3.000000e+000
      vertex  2.000000e+001  3.000000e+001  3.000000e+000
      vertex  2.087156e+001  2.996195e+001  3.000000e+000
    endloop
  endfacet
  facet normal  -0.000000e+000  -0.000000e+000  1.000000e+000
    outer loop
      vertex  2.000000e+001  3.500000e+001  3.000000e+000
      vertex  2.087156e+001  2.996195e+001  3.000000e+000
      vertex  2.173648e+001  2.984808e+001  3.000000e+000
    endloop
  endfacet
  facet normal  -0.000000e+000  -0.000000e+000  1.000000e+000
    outer loop
      vertex  2.000000e+001  3.500000e+001  3.000000e+000
      vertex  2.173648e+001  2.984808e+001  3.000000e+000
      vertex  2.258819e+001  2.965926e+001  3.000000e+000
    endloop
  endfacet
  facet normal  -0.000000e+000  -0.000000e+000  1.000000e+000
    outer loop
      vertex  2.000000e+001  3.500000e+001  3.000000e+000
      vertex  2.258819e+001  2.965926e+001  3.000000e+000
      vertex  2.342020e+001  2.939693e+001  3.000000e+000
    endloop
  endfacet
  facet normal  -0.000000e+000  -0.000000e+000  1.000000e+000
    outer loop
      vertex  2.000000e+001  3.500000e+001  3.000000e+000
      vertex  2.342020e+001  2.939693e+001  3.000000e+000
      vertex  2.422618e+001  2.906308e+001  3.000000e+000
    endloop
  endfacet
  facet normal  -0.000000e+000  -0.000000e+000  1.000000e+000
    outer loop
      vertex  2.000000e+001  3.500000e+001  3.000000e+000
      vertex  2.422618e+001  2.906308e+001  3.000000e+000
      vertex  2.500000e+001  2.866025e+001  3.000000e+000
    endloop
  endfacet
  facet normal  -0.000000e+000  -0.000000e+000  1.000000e+000
    outer loop
      vertex  2.000000e+001  3.500000e+001  3.000000e+000
      vertex  2.500000e+001  2.866025e+001  3.000000e+000
      vertex  2.573576e+001  2.819152e+001  3.000000e+000
    endloop
  endfacet
  facet normal  -0.000000e+000  -0.000000e+000  1.000000e+000
    outer loop
      vertex  2.000000e+001  3.500000e+001  3.000000e+000
      vertex  2.573576e+001  2.819152e+001  3.000000e+000
      vertex  2.642788e+001  2.766044e+001  3.000000e+000
    endloop
  endfacet
  facet normal  -0.000000e+000  -0.000000e+000  1.000000e+000
    outer loop
      vertex  2.000000e+001  3.500000e+001  3.000000e+000
      vertex  2.642788e+001  2.766044e+001  3.000000e+000
      vertex  2.707107e+001  2.707107e+001  3.000000e+000
    endloop
  endfacet
  facet normal  -0.000000e+000  -0.000000e+000  1.000000e+000
    outer loop
      vertex  2.000000e+001  3.500000e+001  3.000000e+000
      vertex  2.707107e+001  2.707107e+001  3.000000e+000
      vertex  2.766044e+001  2.642788e+001  3.000000e+000
    endloop
  endfacet
  facet normal  0.000000e+000  -0.000000e+000  1.000000e+000
    outer loop
      vertex  1.500000e+002  2.550000e+001  3.000000e+000
      vertex  1.600000e+002  2.550000e+001  3.000000e+000
      vertex  1.600000e+002  3.450000e+001  3.000000e+000
    endloop
  endfacet
  facet normal  0.000000e+000  0.000000e+000  1.000000e+000
    outer loop
      vertex  1.500000e+002  2.550000e+001  3.000000e+000
      vertex  1.600000e+002  3.450000e+001  3.000000e+000
      vertex  1.500000e+002  3.450000e+001  3.000000e+000
    endloop
  endfacet
  facet normal  0.000000e+000  0.000000e+000  1.000000e+000
    outer loop
      vertex  1.500000e+002  2.550000e+001  3.000000e+000
      vertex  1.500000e+002  3.450000e+001  3.000000e+000
      vertex  1.000000e+002  4.000000e+001  3.000000e+000
    endloop
  endfacet
  facet normal  0.000000e+000  0.000000e+000  1.000000e+000
    outer loop
      vertex  1.500000e+002  2.550000e+001  3.000000e+000
      vertex  1.000000e+002  4.000000e+001  3.000000e+000
      vertex  3.000000e+001  2.000000e+001  3.000000e+000
    endloop
  endfacet
  facet normal  0.000000e+000  0.000000e+000  9.999999e-001
    outer loop
      vertex  1.500000e+002  2.550000e+001  3.000000e+000
      vertex  3.000000e+001  2.000000e+001  3.000000e+000
      vertex  1.500000e+002  2.000000e+001  3.000000e+000
    endloop
  endfacet
  facet normal  0.000000e+000  0.000000e+000  1.000000e+000
    outer loop
      vertex  4.000000e+001  4.000000e+001  3.000000e+000
      vertex  4.000000e+001  1.000000e+002  3.000000e+000
      vertex  2.000000e+001  7.000000e+001  3.000000e+000
    endloop
  endfacet
  facet normal  0.000000e+000  0.000000e+000  1.000000e+000
    outer loop
      vertex  4.000000e+001  4.000000e+001  3.000000e+000
      vertex  2.000000e+001  7.000000e+001  3.000000e+000
      vertex  2.000000e+001  3.500000e+001  3.000000e+000
    endloop
  endfacet
  facet normal  -0.000000e+000  0.000000e+000  1.000000e+000
    outer loop
      vertex  4.000000e+001  4.000000e+001  3.000000e+000
      vertex  2.000000e+001  3.500000e+001  3.000000e+000
      vertex  2.766044e+001  2.642788e+001  3.000000e+000
    endloop
  endfacet
  facet normal  -0.000000e+000  0.000000e+000  1.000000e+000
    outer loop
      vertex  4.000000e+001  4.000000e+001  3.000000e+000
      vertex  2.766044e+001  2.642788e+001  3.000000e+000
      vertex  2.819152e+001  2.573576e+001  3.000000e+000
    endloop
  endfacet
  facet normal  -0.000000e+000  0.000000e+000  1.000000e+000
    outer loop
      vertex  4.000000e+001  4.000000e+001  3.000000e+000
      vertex  2.819152e+001  2.573576e+001  3.000000e+000
      vertex  2.866025e+001  2.500000e+001  3.000000e+000
    endloop
  endfacet
  facet normal  -0.000000e+000  0.000000e+000  1.000000e+000
    outer loop
      vertex  4.000000e+001  4.000000e+001  3.000000e+000
      vertex  2.866025e+001  2.500000e+001  3.000000e+000
      vertex  2.906308e+001  2.422618e+001  3.000000e+000
    endloop
  endfacet
  facet normal  -0.000000e+000  0.000000e+000  9.999999e-001
    outer loop
      vertex  4.000000e+001  4.000000e+001  3.000000e+000
      vertex  2.906308e+001  2.422618e+001  3.000000e+000
      vertex  2.939693e+001  2.342020e+001  3.000000e+000
    endloop
  endfacet
  facet normal  -0.000000e+000  0.000000e+000  9.999999e-001
    outer loop
      vertex  4.000000e+001  4.000000e+001  3.000000e+000
      vertex  2.939693e+001  2.342020e+001  3.000000e+000
      vertex  2.965926e+001  2.258819e+001  3.000000e+000
    endloop
  endfacet
  facet normal  -0.000000e+000  0.000000e+000  1.000000e+000
    outer loop
      vertex  4.000000e+001  4.000000e+001  3.000000e+000
      vertex  2.965926e+001  2.258819e+001  3.000000e+000
      vertex  2.984808e+001  2.173648e+001  3.000000e+000
    endloop
  endfacet
  facet normal  -0.000000e+000  0.000000e+000  1.000000e+000
    outer loop
      vertex  4.000000e+001  4.000000e+001  3.000000e+000
      vertex  2.984808e+001  2.173648e+001  3.000000e+000
      vertex  2.996195e+001  2.087156e+001  3.000000e+000
    endloop
  endfacet
  facet normal  -0.000000e+000  0.000000e+000  1.000000e+000
    outer loop
      vertex  4.000000e+001  4.000000e+001  3.000000e+000
      vertex  2.996195e+001  2.087156e+001  3.000000e+000
      vertex  3.000000e+001  2.000000e+001  3.000000e+000
    endloop
  endfacet
  facet normal  0.000000e+000  0.000000e+000  1.000000e+000
    outer loop
      vertex  4.000000e+001  4.000000e+001  3.000000e+000
      vertex  3.000000e+001  2.000000e+001  3.000000e+000
      vertex  1.000000e+002  4.000000e+001  3.000000e+000
    endloop
  endfacet
  facet normal  0.000000e+000  -0.000000e+000  1.000000e+000
    outer loop
      vertex  2.000000e+001  7.000000e+001  3.000000e+000
      vertex  4.000000e+001  1.000000e+002  3.000000e+000
      vertex  4.000000e+001  1.200000e+002  3.000000e+000
    endloop
  endfacet
  facet normal  0.000000e+000  0.000000e+000  1.000000e+000
    outer loop
      vertex  2.000000e+001  7.000000e+001  3.000000e+000
      vertex  4.000000e+001  1.200000e+002  3.000000e+000
      vertex  3.500000e+001  1.400000e+002  3.000000e+000
    endloop
  endfacet
  facet normal  0.000000e+000  0.000000e+000  1.000000e+000
    outer loop
      vertex  2.000000e+001  7.000000e+001  3.000000e+000
      vertex  3.500000e+001  1.400000e+002  3.000000e+000
      vertex  2.500000e+001  1.400000e+002  3.000000e+000
    endloop
  endfacet
  facet normal  0.000000e+000  -0.000000e+000  1.000000e+000
    outer loop
      vertex  2.000000e+001  7.000000e+001  3.000000e+000
      vertex  2.500000e+001  1.400000e+002  3.000000e+000
      vertex  2.500000e+001  1.500000e+002  3.000000e+000
    endloop
  endfacet
  facet normal  0.000000e+000  0.000000e+000  1.000000e+000
    outer loop
      vertex  2.000000e+001  7.000000e+001  3.000000e+000
      vertex  2.500000e+001  1.500000e+002  3.000000e+000
      vertex  2.000000e+001  1.500000e+002  3.000000e+000
    endloop
  endfacet
  facet normal  0.000000e+000  0.000000e+000  9.999999e-001
    outer loop
      vertex  1.000000e+002  1.200000e+002  3.000000e+000
      vertex  1.500000e+002  1.145000e+002  3.000000e+000
      vertex  1.200000e+002  1.200000e+002  3.000000e+000
    endloop
  endfacet
  facet normal  0.000000e+000  0.000000e+000  1.000000e+000
    outer loop
      vertex  1.000000e+002  1.200000e+002  3.000000e+000
      vertex  1.200000e+002  1.200000e+002  3.000000e+000
      vertex  1.150000e+002  1.400000e+002  3.000000e+000
    endloop
  endfacet
  facet normal  0.000000e+000  0.000000e+000  1.000000e+000
    outer loop
      vertex  1.000000e+002  1.200000e+002  3.000000e+000
      vertex  1.150000e+002  1.400000e+002  3.000000e+000
      vertex  1.050000e+002  1.400000e+002  3.000000e+000
    endloop
  endfacet
  facet normal  0.000000e+000  -0.000000e+000  1.000000e+000
    outer loop
      vertex  1.000000e+002  1.200000e+002  3.000000e+000
      vertex  1.050000e+002  1.400000e+002  3.000000e+000
      vertex  1.050000e+002  1.500000e+002  3.000000e+000
    endloop
  endfacet
  facet normal  0.000000e+000  0.000000e+000  1.000000e+000
    outer loop
      vertex  1.000000e+002  1.200000e+002  3.000000e+000
      vertex  1.050000e+002  1.500000e+002  3.000000e+000
      vertex  1.000000e+002  1.500000e+002  3.000000e+000
    endloop
  endfacet
  facet normal  0.000000e+000  0.000000e+000  1.000000e+000
    outer loop
      vertex  1.600000e+002  1.055000e+002  3.000000e+000
      vertex  1.600000e+002  1.145000e+002  3.000000e+000
      vertex  1.500000e+002  1.055000e+002  3.000000e+000
    endloop
  endfacet
  facet normal  0.000000e+000  0.000000e+000  1.000000e+000
    outer loop
      vertex  1.500000e+002  1.055000e+002  3.000000e+000
      vertex  1.600000e+002  1.145000e+002  3.000000e+000
      vertex  1.500000e+002  1.145000e+002  3.000000e+000
    endloop
  endfacet
  facet normal  0.000000e+000  0.000000e+000  1.000000e+000
    outer loop
      vertex  1.500000e+002  1.055000e+002  3.000000e+000
      vertex  1.500000e+002  1.145000e+002  3.000000e+000
      vertex  1.000000e+002  1.000000e+002  3.000000e+000
    endloop
  endfacet
  facet normal  0.000000e+000  0.000000e+000  1.000000e+000
    outer loop
      vertex  1.000000e+002  1.000000e+002  3.000000e+000
      vertex  1.500000e+002  1.145000e+002  3.000000e+000
      vertex  1.000000e+002  1.200000e+002  3.000000e+000
    endloop
  endfacet
  facet normal  0.000000e+000  0.000000e+000  1.000000e+000
    outer loop
      vertex  1.000000e+002  1.000000e+002  3.000000e+000
      vertex  1.000000e+002  1.200000e+002  3.000000e+000
      vertex  4.000000e+001  1.000000e+002  3.000000e+000
    endloop
  endfacet
  facet normal  0.000000e+000  0.000000e+000  1.000000e+000
    outer loop
      vertex  4.000000e+001  1.000000e+002  3.000000e+000
      vertex  1.000000e+002  1.200000e+002  3.000000e+000
      vertex  4.000000e+001  1.200000e+002  3.000000e+000
    endloop
  endfacet
  facet normal  0.000000e+000  0.000000e+000  1.000000e+000
    outer loop
      vertex  3.500000e+001  1.400000e+002  3.000000e+000
      vertex  4.000000e+001  1.200000e+002  3.000000e+000
      vertex  3.500000e+001  1.500000e+002  3.000000e+000
    endloop
  endfacet
  facet normal  -0.000000e+000  0.000000e+000  1.000000e+000
    outer loop
      vertex  3.500000e+001  1.500000e+002  3.000000e+000
      vertex  4.000000e+001  1.200000e+002  3.000000e+000
      vertex  4.000000e+001  1.500000e+002  3.000000e+000
    endloop
  endfacet
  facet normal  0.000000e+000  0.000000e+000  1.000000e+000
    outer loop
      vertex  1.150000e+002  1.400000e+002  3.000000e+000
      vertex  1.200000e+002  1.200000e+002  3.000000e+000
      vertex  1.150000e+002  1.500000e+002  3.000000e+000
    endloop
  endfacet
  facet normal  -0.000000e+000  0.000000e+000  1.000000e+000
    outer loop
      vertex  1.150000e+002  1.500000e+002  3.000000e+000
      vertex  1.200000e+002  1.200000e+002  3.000000e+000
      vertex  1.200000e+002  1.500000e+002  3.000000e+000
    endloop
  endfacet
  facet normal  0.000000e+000  0.000000e+000  1.000000e+000
    outer loop
      vertex  1.000000e+002  4.000000e+001  3.000000e+000
      vertex  1.200000e+002  4.000000e+001  3.000000e+000
      vertex  1.000000e+002  1.000000e+002  3.000000e+000
    endloop
  endfacet
  facet normal  -0.000000e+000  0.000000e+000  1.000000e+000
    outer loop
      vertex  1.000000e+002  1.000000e+002  3.000000e+000
      vertex  1.200000e+002  4.000000e+001  3.000000e+000
      vertex  1.200000e+002  1.000000e+002  3.000000e+000
    endloop
  endfacet
  facet normal  0.000000e+000  -0.000000e+000  9.999999e-001
    outer loop
      vertex  1.000000e+002  1.000000e+002  3.000000e+000
      vertex  1.200000e+002  1.000000e+002  3.000000e+000
      vertex  1.500000e+002  1.055000e+002  3.000000e+000
    endloop
  endfacet
  facet normal  0.000000e+000 -1.000000e+000  0.000000e+000
    outer loop
      vertex  3.000000e+001  2.000000e+001  3.000000e+000
      vertex  3.000000e+001  2.000000e+001  0.000000e+000
      vertex  1.500000e+002  2.000000e+001  3.000000e+000
    endloop
  endfacet
  facet normal  0.000000e+000 -1.000000e+000  -0.000000e+000
    outer loop
      vertex  1.500000e+002  2.000000e+001  3.000000e+000
      vertex  3.000000e+001  2.000000e+001  0.000000e+000
      vertex  1.500000e+002  2.000000e+001  0.000000e+000
    endloop
  endfacet
  facet normal -1.000000e+000  0.000000e+000  0.000000e+000
    outer loop
      vertex  2.000000e+001  3.000000e+001  0.000000e+000
      vertex  2.000000e+001  3.000000e+001  3.000000e+000
      vertex  2.000000e+001  3.500000e+001  3.000000e+000
    endloop
  endfacet
  facet normal -1.000000e+000  0.000000e+000  -0.000000e+000
    outer loop
      vertex  2.000000e+001  3.000000e+001  0.000000e+000
      vertex  2.000000e+001  3.500000e+001  3.000000e+000
      vertex  2.000000e+001  7.000000e+001  3.000000e+000
    endloop
  endfacet
  facet normal -1.000000e+000  0.000000e+000  -0.000000e+000
    outer loop
      vertex  2.000000e+001  3.000000e+001  0.000000e+000
      vertex  2.000000e+001  7.000000e+001  3.000000e+000
      vertex  2.000000e+001  1.500000e+002  3.000000e+000
    endloop
  endfacet
  facet normal -1.000000e+000  0.000000e+000  -0.000000e+000
    outer loop
      vertex  2.000000e+001  3.000000e+001  0.000000e+000
      vertex  2.000000e+001  1.500000e+002  3.000000e+000
      vertex  2.000000e+001  1.500000e+002  0.000000e+000
    endloop
  endfacet
  facet normal  1.000000e+000  0.000000e+000  0.000000e+000
    outer loop
      vertex  1.500000e+002  2.000000e+001  3.000000e+000
      vertex  1.500000e+002  2.000000e+001  0.000000e+000
      vertex  1.500000e+002  2.550000e+001  3.000000e+000
    endloop
  endfacet
  facet normal  1.000000e+000  0.000000e+000  0.000000e+000
    outer loop
      vertex  1.500000e+002  2.550000e+001  3.000000e+000
      vertex  1.500000e+002  2.000000e+001  0.000000e+000
      vertex  1.500000e+002  2.550000e+001  0.000000e+000
    endloop
  endfacet
  facet normal  0.000000e+000  1.000000e+000  0.000000e+000
    outer loop
      vertex  2.000000e+001  1.500000e+002  0.000000e+000
      vertex  2.000000e+001  1.500000e+002  3.000000e+000
      vertex  2.500000e+001  1.500000e+002  0.000000e+000
    endloop
  endfacet
  facet normal  0.000000e+000  1.000000e+000  -0.000000e+000
    outer loop
      vertex  2.500000e+001  1.500000e+002  0.000000e+000
      vertex  2.000000e+001  1.500000e+002  3.000000e+000
      vertex  2.500000e+001  1.500000e+002  3.000000e+000
    endloop
  endfacet
  facet normal  0.000000e+000  1.000000e+000  0.000000e+000
    outer loop
      vertex  1.500000e+002  1.145000e+002  0.000000e+000
      vertex  1.500000e+002  1.145000e+002  3.000000e+000
      vertex  1.600000e+002  1.145000e+002  0.000000e+000
    endloop
  endfacet
  facet normal  0.000000e+000  1.000000e+000  -0.000000e+000
    outer loop
      vertex  1.600000e+002  1.145000e+002  0.000000e+000
      vertex  1.500000e+002  1.145000e+002  3.000000e+000
      vertex  1.600000e+002  1.145000e+002  3.000000e+000
    endloop
  endfacet
  facet normal  0.000000e+000 -1.000000e+000  -0.000000e+000
    outer loop
      vertex  1.600000e+002  1.055000e+002  0.000000e+000
      vertex  1.600000e+002  1.055000e+002  3.000000e+000
      vertex  1.500000e+002  1.055000e+002  0.000000e+000
    endloop
  endfacet
  facet normal  0.000000e+000 -1.000000e+000  0.000000e+000
    outer loop
      vertex  1.500000e+002  1.055000e+002  0.000000e+000
      vertex  1.600000e+002  1.055000e+002  3.000000e+000
      vertex  1.500000e+002  1.055000e+002  3.000000e+000
    endloop
  endfacet
  facet normal  0.000000e+000 -1.000000e+000  0.000000e+000
    outer loop
      vertex  1.500000e+002  2.550000e+001  3.000000e+000
      vertex  1.500000e+002  2.550000e+001  0.000000e+000
      vertex  1.600000e+002  2.550000e+001  3.000000e+000
    endloop
  endfacet
  facet normal  0.000000e+000 -1.000000e+000  -0.000000e+000
    outer loop
      vertex  1.600000e+002  2.550000e+001  3.000000e+000
      vertex  1.500000e+002  2.550000e+001  0.000000e+000
      vertex  1.600000e+002  2.550000e+001  0.000000e+000
    endloop
  endfacet
  facet normal  0.000000e+000  1.000000e+000  -0.000000e+000
    outer loop
      vertex  1.600000e+002  3.450000e+001  3.000000e+000
      vertex  1.600000e+002  3.450000e+001  0.000000e+000
      vertex  1.500000e+002  3.450000e+001  3.000000e+000
    endloop
  endfacet
  facet normal  0.000000e+000  1.000000e+000  0.000000e+000
    outer loop
      vertex  1.500000e+002  3.450000e+001  3.000000e+000
      vertex  1.600000e+002  3.450000e+001  0.000000e+000
      vertex  1.500000e+002  3.450000e+001  0.000000e+000
    endloop
  endfacet
  facet normal  1.000000e+000  0.000000e+000  0.000000e+000
    outer loop
      vertex  1.500000e+002  1.000000e+002  3.000000e+000
      vertex  1.500000e+002  1.000000e+002  0.000000e+000
      vertex  1.500000e+002  1.055000e+002  3.000000e+000
    endloop
  endfacet
  facet normal  1.000000e+000  0.000000e+000  0.000000e+000
    outer loop
      vertex  1.500000e+002  1.055000e+002  3.000000e+000
      vertex  1.500000e+002  1.000000e+002  0.000000e+000
      vertex  1.500000e+002  1.055000e+002  0.000000e+000
    endloop
  endfacet
  facet normal  1.000000e+000  0.000000e+000  0.000000e+000
    outer loop
      vertex  1.500000e+002  1.145000e+002  3.000000e+000
      vertex  1.500000e+002  1.145000e+002  0.000000e+000
      vertex  1.500000e+002  1.200000e+002  3.000000e+000
    endloop
  endfacet
  facet normal  1.000000e+000  0.000000e+000  0.000000e+000
    outer loop
      vertex  1.500000e+002  1.200000e+002  3.000000e+000
      vertex  1.500000e+002  1.145000e+002  0.000000e+000
      vertex  1.500000e+002  1.200000e+002  0.000000e+000
    endloop
  endfacet
  facet normal  1.000000e+000  0.000000e+000  0.000000e+000
    outer loop
      vertex  1.500000e+002  3.450000e+001  3.000000e+000
      vertex  1.500000e+002  3.450000e+001  0.000000e+000
      vertex  1.500000e+002  4.000000e+001  3.000000e+000
    endloop
  endfacet
  facet normal  1.000000e+000  0.000000e+000  0.000000e+000
    outer loop
      vertex  1.500000e+002  4.000000e+001  3.000000e+000
      vertex  1.500000e+002  3.450000e+001  0.000000e+000
      vertex  1.500000e+002  4.000000e+001  0.000000e+000
    endloop
  endfacet
  facet normal  1.000000e+000  0.000000e+000  0.000000e+000
    outer loop
      vertex  1.600000e+002  2.550000e+001  3.000000e+000
      vertex  1.600000e+002  2.550000e+001  0.000000e+000
      vertex  1.600000e+002  3.450000e+001  3.000000e+000
    endloop
  endfacet
  facet normal  1.000000e+000  0.000000e+000  0.000000e+000
    outer loop
      vertex  1.600000e+002  3.450000e+001  3.000000e+000
      vertex  1.600000e+002  2.550000e+001  0.000000e+000
      vertex  1.600000e+002  3.450000e+001  0.000000e+000
    endloop
  endfacet
  facet normal  1.000000e+000  0.000000e+000  0.000000e+000
    outer loop
      vertex  1.600000e+002  1.055000e+002  3.000000e+000
      vertex  1.600000e+002  1.055000e+002  0.000000e+000
      vertex  1.600000e+002  1.145000e+002  3.000000e+000
    endloop
  endfacet
  facet normal  1.000000e+000  0.000000e+000  0.000000e+000
    outer loop
      vertex  1.600000e+002  1.145000e+002  3.000000e+000
      vertex  1.600000e+002  1.055000e+002  0.000000e+000
      vertex  1.600000e+002  1.145000e+002  0.000000e+000
    endloop
  endfacet
  facet normal  0.000000e+000  1.000000e+000  0.000000e+000
    outer loop
      vertex  3.500000e+001  1.500000e+002  0.000000e+000
      vertex  3.500000e+001  1.500000e+002  3.000000e+000
      vertex  4.000000e+001  1.500000e+002  0.000000e+000
    endloop
  endfacet
  facet normal  0.000000e+000  1.000000e+000  -0.000000e+000
    outer loop
      vertex  4.000000e+001  1.500000e+002  0.000000e+000
      vertex  3.500000e+001  1.500000e+002  3.000000e+000
      vertex  4.000000e+001  1.500000e+002  3.000000e+000
    endloop
  endfacet
  facet normal  0.000000e+000  1.000000e+000  0.000000e+000
    outer loop
      vertex  1.000000e+002  1.500000e+002  0.000000e+000
      vertex  1.000000e+002  1.500000e+002  3.000000e+000
      vertex  1.050000e+002  1.500000e+002  0.000000e+000
    endloop
  endfacet
  facet normal  0.000000e+000  1.000000e+000  -0.000000e+000
    outer loop
      vertex  1.050000e+002  1.500000e+002  0.000000e+000
      vertex  1.000000e+002  1.500000e+002  3.000000e+000
      vertex  1.050000e+002  1.500000e+002  3.000000e+000
    endloop
  endfacet
  facet normal  0.000000e+000  1.000000e+000  0.000000e+000
    outer loop
      vertex  1.150000e+002  1.500000e+002  0.000000e+000
      vertex  1.150000e+002  1.500000e+002  3.000000e+000
      vertex  1.200000e+002  1.500000e+002  0.000000e+000
    endloop
  endfacet
  facet normal  0.000000e+000  1.000000e+000  -0.000000e+000
    outer loop
      vertex  1.200000e+002  1.500000e+002  0.000000e+000
      vertex  1.150000e+002  1.500000e+002  3.000000e+000
      vertex  1.200000e+002  1.500000e+002  3.000000e+000
    endloop
  endfacet
  facet normal  1.000000e+000  0.000000e+000  0.000000e+000
    outer loop
      vertex  1.050000e+002  1.400000e+002  3.000000e+000
      vertex  1.050000e+002  1.400000e+002  0.000000e+000
      vertex  1.050000e+002  1.500000e+002  3.000000e+000
    endloop
  endfacet
  facet normal  1.000000e+000  0.000000e+000  0.000000e+000
    outer loop
      vertex  1.050000e+002  1.500000e+002  3.000000e+000
      vertex  1.050000e+002  1.400000e+002  0.000000e+000
      vertex  1.050000e+002  1.500000e+002  0.000000e+000
    endloop
  endfacet
  facet normal  0.000000e+000  1.000000e+000  -0.000000e+000
    outer loop
      vertex  1.150000e+002  1.400000e+002  3.000000e+000
      vertex  1.150000e+002  1.400000e+002  0.000000e+000
      vertex  1.050000e+002  1.400000e+002  3.000000e+000
    endloop
  endfacet
  facet normal  0.000000e+000  1.000000e+000  0.000000e+000
    outer loop
      vertex  1.050000e+002  1.400000e+002  3.000000e+000
      vertex  1.150000e+002  1.400000e+002  0.000000e+000
      vertex  1.050000e+002  1.400000e+002  0.000000e+000
    endloop
  endfacet
  facet normal -1.000000e+000  0.000000e+000  0.000000e+000
    outer loop
      vertex  1.150000e+002  1.500000e+002  3.000000e+000
      vertex  1.150000e+002  1.500000e+002  0.000000e+000
      vertex  1.150000e+002  1.400000e+002  3.000000e+000
    endloop
  endfacet
  facet normal -1.000000e+000  0.000000e+000  0.000000e+000
    outer loop
      vertex  1.150000e+002  1.400000e+002  3.000000e+000
      vertex  1.150000e+002  1.500000e+002  0.000000e+000
      vertex  1.150000e+002  1.400000e+002  0.000000e+000
    endloop
  endfacet
  facet normal  1.000000e+000  0.000000e+000  0.000000e+000
    outer loop
      vertex  2.500000e+001  1.500000e+002  0.000000e+000
      vertex  2.500000e+001  1.500000e+002  3.000000e+000
      vertex  2.500000e+001  1.400000e+002  0.000000e+000
    endloop
  endfacet
  facet normal  1.000000e+000  0.000000e+000  0.000000e+000
    outer loop
      vertex  2.500000e+001  1.400000e+002  0.000000e+000
      vertex  2.500000e+001  1.500000e+002  3.000000e+000
      vertex  2.500000e+001  1.400000e+002  3.000000e+000
    endloop
  endfacet
  facet normal  0.000000e+000  1.000000e+000  -0.000000e+000
    outer loop
      vertex  3.500000e+001  1.400000e+002  3.000000e+000
      vertex  3.500000e+001  1.400000e+002  0.000000e+000
      vertex  2.500000e+001  1.400000e+002  3.000000e+000
    endloop
  endfacet
  facet normal  0.000000e+000  1.000000e+000  0.000000e+000
    outer loop
      vertex  2.500000e+001  1.400000e+002  3.000000e+000
      vertex  3.500000e+001  1.400000e+002  0.000000e+000
      vertex  2.500000e+001  1.400000e+002  0.000000e+000
    endloop
  endfacet
  facet normal -1.000000e+000  0.000000e+000  0.000000e+000
    outer loop
      vertex  3.500000e+001  1.500000e+002  3.000000e+000
      vertex  3.500000e+001  1.500000e+002  0.000000e+000
      vertex  3.500000e+001  1.400000e+002  3.000000e+000
    endloop
  endfacet
  facet normal -1.000000e+000  0.000000e+000  0.000000e+000
    outer loop
      vertex  3.500000e+001  1.400000e+002  3.000000e+000
      vertex  3.500000e+001  1.500000e+002  0.000000e+000
      vertex  3.500000e+001  1.400000e+002  0.000000e+000
    endloop
  endfacet
  facet normal -1.000000e+000  0.000000e+000  0.000000e+000
    outer loop
      vertex  1.000000e+002  1.500000e+002  3.000000e+000
      vertex  1.000000e+002  1.500000e+002  0.000000e+000
      vertex  1.000000e+002  1.200000e+002  3.000000e+000
    endloop
  endfacet
  facet normal -1.000000e+000  0.000000e+000  0.000000e+000
    outer loop
      vertex  1.000000e+002  1.200000e+002  3.000000e+000
      vertex  1.000000e+002  1.500000e+002  0.000000e+000
      vertex  1.000000e+002  1.200000e+002  0.000000e+000
    endloop
  endfacet
  facet normal  1.000000e+000  0.000000e+000  0.000000e+000
    outer loop
      vertex  4.000000e+001  1.200000e+002  3.000000e+000
      vertex  4.000000e+001  1.200000e+002  0.000000e+000
      vertex  4.000000e+001  1.500000e+002  3.000000e+000
    endloop
  endfacet
  facet normal  1.000000e+000  0.000000e+000  0.000000e+000
    outer loop
      vertex  4.000000e+001  1.500000e+002  3.000000e+000
      vertex  4.000000e+001  1.200000e+002  0.000000e+000
      vertex  4.000000e+001  1.500000e+002  0.000000e+000
    endloop
  endfacet
  facet normal  0.000000e+000  1.000000e+000  -0.000000e+000
    outer loop
      vertex  1.500000e+002  4.000000e+001  3.000000e+000
      vertex  1.500000e+002  4.000000e+001  0.000000e+000
      vertex  1.200000e+002  4.000000e+001  3.000000e+000
    endloop
  endfacet
  facet normal  0.000000e+000  1.000000e+000  0.000000e+000
    outer loop
      vertex  1.200000e+002  4.000000e+001  3.000000e+000
      vertex  1.500000e+002  4.000000e+001  0.000000e+000
      vertex  1.200000e+002  4.000000e+001  0.000000e+000
    endloop
  endfacet
  facet normal  0.000000e+000 -1.000000e+000  0.000000e+000
    outer loop
      vertex  1.200000e+002  1.000000e+002  3.000000e+000
      vertex  1.200000e+002  1.000000e+002  0.000000e+000
      vertex  1.500000e+002  1.000000e+002  3.000000e+000
    endloop
  endfacet
  facet normal  0.000000e+000 -1.000000e+000  -0.000000e+000
    outer loop
      vertex  1.500000e+002  1.000000e+002  3.000000e+000
      vertex  1.200000e+002  1.000000e+002  0.000000e+000
      vertex  1.500000e+002  1.000000e+002  0.000000e+000
    endloop
  endfacet
  facet normal  0.000000e+000  1.000000e+000  -0.000000e+000
    outer loop
      vertex  1.500000e+002  1.200000e+002  3.000000e+000
      vertex  1.500000e+002  1.200000e+002  0.000000e+000
      vertex  1.200000e+002  1.200000e+002  3.000000e+000
    endloop
  endfacet
  facet normal  0.000000e+000  1.000000e+000  0.000000e+000
    outer loop
      vertex  1.200000e+002  1.200000e+002  3.000000e+000
      vertex  1.500000e+002  1.200000e+002  0.000000e+000
      vertex  1.200000e+002  1.200000e+002  0.000000e+000
    endloop
  endfacet
  facet normal  1.000000e+000  0.000000e+000  0.000000e+000
    outer loop
      vertex  1.200000e+002  1.200000e+002  3.000000e+000
      vertex  1.200000e+002  1.200000e+002  0.000000e+000
      vertex  1.200000e+002  1.500000e+002  3.000000e+000
    endloop
  endfacet
  facet normal  1.000000e+000  0.000000e+000  0.000000e+000
    outer loop
      vertex  1.200000e+002  1.500000e+002  3.000000e+000
      vertex  1.200000e+002  1.200000e+002  0.000000e+000
      vertex  1.200000e+002  1.500000e+002  0.000000e+000
    endloop
  endfacet
  facet normal  1.000000e+000  0.000000e+000  0.000000e+000
    outer loop
      vertex  1.200000e+002  4.000000e+001  3.000000e+000
      vertex  1.200000e+002  4.000000e+001  0.000000e+000
      vertex  1.200000e+002  1.000000e+002  3.000000e+000
    endloop
  endfacet
  facet normal  1.000000e+000  0.000000e+000  0.000000e+000
    outer loop
      vertex  1.200000e+002  1.000000e+002  3.000000e+000
      vertex  1.200000e+002  4.000000e+001  0.000000e+000
      vertex  1.200000e+002  1.000000e+002  0.000000e+000
    endloop
  endfacet
  facet normal  0.000000e+000  1.000000e+000  -0.000000e+000
    outer loop
      vertex  1.000000e+002  1.200000e+002  3.000000e+000
      vertex  1.000000e+002  1.200000e+002  0.000000e+000
      vertex  4.000000e+001  1.200000e+002  3.000000e+000
    endloop
  endfacet
  facet normal  0.000000e+000  1.000000e+000  0.000000e+000
    outer loop
      vertex  4.000000e+001  1.200000e+002  3.000000e+000
      vertex  1.000000e+002  1.200000e+002  0.000000e+000
      vertex  4.000000e+001  1.200000e+002  0.000000e+000
    endloop
  endfacet
  facet normal  0.000000e+000 -1.000000e+000  0.000000e+000
    outer loop
      vertex  4.000000e+001  1.000000e+002  3.000000e+000
      vertex  4.000000e+001  1.000000e+002  0.000000e+000
      vertex  1.000000e+002  1.000000e+002  3.000000e+000
    endloop
  endfacet
  facet normal  0.000000e+000 -1.000000e+000  -0.000000e+000
    outer loop
      vertex  1.000000e+002  1.000000e+002  3.000000e+000
      vertex  4.000000e+001  1.000000e+002  0.000000e+000
      vertex  1.000000e+002  1.000000e+002  0.000000e+000
    endloop
  endfacet
  facet normal  1.000000e+000  0.000000e+000  0.000000e+000
    outer loop
      vertex  4.000000e+001  4.000000e+001  3.000000e+000
      vertex  4.000000e+001  4.000000e+001  0.000000e+000
      vertex  4.000000e+001  1.000000e+002  3.000000e+000
    endloop
  endfacet
  facet normal  1.000000e+000  0.000000e+000  0.000000e+000
    outer loop
      vertex  4.000000e+001  1.000000e+002  3.000000e+000
      vertex  4.000000e+001  4.000000e+001  0.000000e+000
      vertex  4.000000e+001  1.000000e+002  0.000000e+000
    endloop
  endfacet
  facet normal  0.000000e+000  1.000000e+000  -0.000000e+000
    outer loop
      vertex  1.000000e+002  4.000000e+001  3.000000e+000
      vertex  1.000000e+002  4.000000e+001  0.000000e+000
      vertex  4.000000e+001  4.000000e+001  3.000000e+000
    endloop
  endfacet
  facet normal  0.000000e+000  1.000000e+000  0.000000e+000
    outer loop
      vertex  4.000000e+001  4.000000e+001  3.000000e+000
      vertex  1.000000e+002  4.000000e+001  0.000000e+000
      vertex  4.000000e+001  4.000000e+001  0.000000e+000
    endloop
  endfacet
  facet normal -1.000000e+000  0.000000e+000  0.000000e+000
    outer loop
      vertex  1.000000e+002  1.000000e+002  3.000000e+000
      vertex  1.000000e+002  1.000000e+002  0.000000e+000
      vertex  1.000000e+002  4.000000e+001  3.000000e+000
    endloop
  endfacet
  facet normal -1.000000e+000  0.000000e+000  0.000000e+000
    outer loop
      vertex  1.000000e+002  4.000000e+001  3.000000e+000
      vertex  1.000000e+002  1.000000e+002  0.000000e+000
      vertex  1.000000e+002  4.000000e+001  0.000000e+000
    endloop
  endfacet
endsolid CATIA STL
