<?xml version="1.0" standalone="no"?>
<!DOCTYPE svg PUBLIC "-//W3C//DTD SVG 1.1//EN"
  "http://www.w3.org/Graphics/SVG/1.1/DTD/svg11.dtd">
<svg width="277mm" height="281.99999999999994mm" viewBox="-138.5 -140.99999999999997 277 281.99999999999994" xmlns="http://www.w3.org/2000/svg" version="1.1">
	<title>svgOutput</title>
	<desc>made with tinkercad</desc>
<path d="M 81.38983154296875 -77.92416381835936 L 81.55899810791016 -78.0449981689453 L 81.57833862304688 -78.06148529052733 L 81.65399932861328 -78.12599945068358 L 81.91500091552734 -78.3929977416992 L 81.91999816894531 -78.39921569824217 L 81.99299621582031 -78.48999786376952 L 82.0268325805664 -78.54233551025389 L 82.11516571044922 -78.67066955566405 L 82.16097259521484 -78.74982452392577 L 82.21932983398438 -78.85066986083983 L 82.23300170898438 -78.87866973876952 L 82.29966735839844 -79.01950073242186 L 82.3115005493164 -79.04833221435545 L 82.38233184814453 -79.24333190917967 L 82.38899993896484 -79.26300048828124 L 82.47200012207031 -79.62699890136717 L 82.48799896240234 -79.75099945068358 L 82.48966979980469 -79.78216552734374 L 82.4971694946289 -80.09383392333983 L 82.49700164794922 -80.12499999999999 L 82.48283386230469 -80.27999877929686 L 82.4749984741211 -80.34166717529295 L 82.44999694824219 -80.49500274658202 L 82.38899993896484 -80.73699951171874 L 82.3489990234375 -80.85500335693358 L 82.25199890136719 -81.08499908447264 L 82.23733520507812 -81.1125030517578 L 82.08233642578125 -81.3816680908203 L 82.06600189208984 -81.40799713134764 L 81.91999816894531 -81.59097290039061 L 81.83300018310547 -81.69999694824217 L 81.65399932861328 -81.87400054931639 L 81.59334564208984 -81.9199981689453 L 81.35600280761719 -82.09999847412108 L 81.22183227539062 -82.17916870117186 L 81.16716766357422 -82.20899963378905 L 81.02799987792969 -82.27899932861327 L 80.677001953125 -82.40699768066405 L 80.43399810791016 -82.46199798583983 L 80.40316772460938 -82.46616363525389 L 80.09317016601562 -82.4970016479492 L 80.06199645996094 -82.49900054931639 L 79.93800354003906 -82.49900054931639 L 79.78216552734375 -82.48899841308592 L 79.72016906738281 -82.48283386230467 L 79.56600189208984 -82.46199798583983 L 79.322998046875 -82.40699768066405 L 79.2040023803711 -82.37000274658202 L 79.17483520507812 -82.35883331298827 L 78.88733673095703 -82.23799896240233 L 78.85900115966797 -82.22499847412108 L 78.7239990234375 -82.14833068847655 L 78.6709976196289 -82.11583709716795 L 78.49933624267578 -81.99833679199217 L 78.4748306274414 -81.97916412353514 L 78.40213012695312 -81.9199981689453 L 78.35399627685547 -81.88083648681639 L 78.3306655883789 -81.86000061035155 L 78.21817016601562 -81.75250244140624 L 78.19000244140625 -81.7220001220703 L 78.08499908447266 -81.60700225830077 L 77.98999786376953 -81.48366546630858 L 77.95366668701172 -81.43316650390624 L 77.86699676513672 -81.30400085449217 L 77.8239974975586 -81.22650909423827 L 77.79116821289062 -81.16733551025389 L 77.76849365234375 -81.12418365478514 L 77.76699829101562 -81.12133026123045 L 77.70033264160156 -80.98049926757811 L 77.62950134277344 -80.78549957275389 L 77.61766815185547 -80.7566680908203 L 77.60816955566406 -80.72699737548827 L 77.56816864013672 -80.57616424560545 L 77.56470489501953 -80.5618438720703 L 77.56083679199219 -80.5458297729492 L 77.5250015258789 -80.34166717529295 L 77.52133178710938 -80.32133483886717 L 77.51799774169922 -80.2903366088867 L 77.50382995605469 -80.1353302001953 L 77.50299835205078 -80.08333587646483 L 77.50216674804688 -79.92749786376952 L 77.50633239746094 -79.88616943359374 L 77.52133178710938 -79.6786651611328 L 77.53523254394531 -79.59945678710936 L 77.55716705322266 -79.47450256347655 L 77.56300354003906 -79.44400024414061 L 77.63099670410156 -79.20400238037108 L 77.68516540527344 -79.05816650390624 L 77.70033264160156 -79.01950073242186 L 77.76699829101562 -78.87866973876952 L 77.78067016601562 -78.85066986083983 L 77.8239974975586 -78.77578735351561 L 77.88483428955078 -78.67066955566405 L 77.91866302490234 -78.61833190917967 L 78.03949737548828 -78.44999694824217 L 78.05249786376953 -78.43383026123045 L 78.19000244140625 -78.27799987792967 L 78.21099853515625 -78.25499725341795 L 78.24933624267578 -78.22000122070311 L 78.36183166503906 -78.1125030517578 L 78.41001892089844 -78.07328796386717 L 78.482666015625 -78.01416778564452 L 78.5078353881836 -77.99583435058592 L 78.63533020019531 -77.90583038330077 L 78.67082977294922 -77.88416290283202 L 78.77279663085938 -77.82399749755858 L 78.7861557006836 -77.8161163330078 L 78.80500030517578 -77.80500030517577 L 78.85199737548828 -77.78299713134764 L 78.99116516113281 -77.71299743652342 L 79.13533020019531 -77.65550231933592 L 79.16466522216797 -77.64533233642577 L 79.31300354003906 -77.59616851806639 L 79.3635025024414 -77.58383178710936 L 79.51516723632812 -77.54799652099608 L 79.57716369628906 -77.54183197021483 L 79.93800354003906 -77.50099945068358 L 79.98770904541016 -77.50099945068358 L 80.06199645996094 -77.50099945068358 L 80.09317016601562 -77.50299835205077 L 80.4540023803711 -77.54383087158202 L 80.47781372070312 -77.5470504760742 L 80.48483276367188 -77.54799652099608 L 80.50516510009766 -77.55216979980467 L 80.70683288574219 -77.6038360595703 L 80.72699737548828 -77.60883331298827 L 80.75666809082031 -77.61866760253905 L 80.90333557128906 -77.66950225830077 L 80.93216705322266 -77.68099975585936 L 81.02799987792969 -77.7210006713867 L 81.05583190917969 -77.73500061035155 L 81.21891784667969 -77.82399749755858 L 81.32917022705078 -77.88416290283202 L 81.36466979980469 -77.90583038330077 L 81.38983154296875 -77.92416381835936 M 1.3013333082199097 -77.87016296386717 L 1.3291666507720947 -77.88416290283202 L 1.3646667003631592 -77.90583038330077 L 1.5729999542236328 -78.05999755859374 L 1.6059999465942383 -78.08499908447264 L 1.7890000343322754 -78.25499725341795 L 1.9264999628067017 -78.41083526611327 L 1.9605000019073486 -78.44999694824217 L 2.0813333988189697 -78.61833190917967 L 2.0934998989105225 -78.6353302001953 L 2.109833240509033 -78.66166687011717 L 2.190666675567627 -78.7949981689453 L 2.2096667289733887 -78.83200073242186 L 2.2691752910614014 -78.95391845703124 L 2.2780001163482666 -78.9720001220703 L 2.2964999675750732 -79.02050018310545 L 2.3556666374206543 -79.16466522216795 L 2.4031667709350586 -79.31300354003905 L 2.4111666679382324 -79.34317016601561 L 2.447833299636841 -79.49483489990233 L 2.4661667346954346 -79.59649658203124 L 2.4733333587646484 -79.63733673095702 L 2.486666679382324 -79.74066925048827 L 2.489500045776367 -79.81333160400389 L 2.4909117221832275 -79.8720016479492 L 2.496999979019165 -80.12499999999999 L 2.4578332901000977 -80.43333435058592 L 2.447833299636841 -80.50516510009764 L 2.3970000743865967 -80.70683288574217 L 2.385666608810425 -80.74683380126952 L 2.3523333072662354 -80.8451690673828 L 2.3371665477752686 -80.88383483886717 L 2.2780001163482666 -81.02799987792967 L 2.1640000343322754 -81.24999999999999 L 2.065999984741211 -81.40799713134764 L 1.9539999961853027 -81.55799865722655 L 1.7890000343322754 -81.74500274658202 L 1.7664999961853027 -81.76650238037108 L 1.6139999628067017 -81.90816497802733 L 1.5994590520858765 -81.9199981689453 L 1.589833378791809 -81.92783355712889 L 1.4673333168029785 -82.02366638183592 L 1.4418333768844604 -82.04166412353514 L 1.3559999465942383 -82.09999847412108 L 1.027999997138977 -82.27899932861327 L 0.6769999861717224 -82.40699768066405 L 0.4339999854564667 -82.46199798583983 L 0.2798333466053009 -82.48283386230467 L 0.21783334016799927 -82.48899841308592 L 0.06199999898672104 -82.49900054931639 L 0 -82.49900054931639 L -0.06199999898672104 -82.49900054931639 L -0.21783334016799927 -82.48899841308592 L -0.2798333466053009 -82.48283386230467 L -0.4339999854564667 -82.46199798583983 L -0.6769999861717224 -82.40699768066405 L -1.027999997138977 -82.27899932861327 L -1.0826666355133057 -82.24916839599608 L -1.221833348274231 -82.17916870117186 L -1.3139067888259888 -82.12297058105467 L -1.3993333578109741 -82.07083129882811 L -1.4248332977294922 -82.05283355712889 L -1.5506666898727417 -81.96116638183592 L -1.5748332738876343 -81.94149780273436 L -1.5983809232711792 -81.9199981689453 L -1.781833291053772 -81.75250244140624 L -1.809999942779541 -81.7220001220703 L -1.9149999618530273 -81.60700225830077 L -2.009999990463257 -81.48366546630858 L -2.0463333129882812 -81.43316650390624 L -2.132999897003174 -81.30400085449217 L -2.2321667671203613 -81.12149810791014 L -2.256333351135254 -81.07550048828124 L -2.3371665477752686 -80.88383483886717 L -2.3556666374206543 -80.83533477783202 L -2.3889999389648438 -80.73699951171874 L -2.4719998836517334 -80.3730010986328 L -2.4746665954589844 -80.35233306884764 L -2.491333246231079 -80.19733428955077 L -2.493000030517578 -80.16616821289061 L -2.499666690826416 -80.0103302001953 L -2.499500036239624 -79.97916412353514 L -2.495333433151245 -79.93783569335936 L -2.4910995960235596 -79.8720016479492 L -2.4786667823791504 -79.6786651611328 L -2.4564435482025146 -79.55204772949217 L -2.442833423614502 -79.47450256347655 L -2.428999900817871 -79.41383361816405 L -2.372333288192749 -79.21383666992186 L -2.361833333969116 -79.1845016479492 L -2.307666778564453 -79.03866577148436 L -2.2643332481384277 -78.94366455078124 L -2.247333288192749 -78.90583038330077 L -2.2459936141967773 -78.90345764160155 L -2.11983323097229 -78.68000030517577 L -2.0989999771118164 -78.6439971923828 L -2.0813333988189697 -78.61833190917967 L -1.9605000019073486 -78.44999694824217 L -1.9474999904632568 -78.43383026123045 L -1.7741667032241821 -78.24050140380858 L -1.753166675567627 -78.21749877929686 L -1.5556666851043701 -78.04916381835936 L -1.5331666469573975 -78.0276641845703 L -1.5173333883285522 -78.01416778564452 L -1.4985377788543701 -78.00047302246092 L -1.4921666383743286 -77.99583435058592 L -1.3646667003631592 -77.90583038330077 L -1.3291666507720947 -77.88416290283202 L -1.2272000312805176 -77.82399749755858 L -1.2138440608978271 -77.8161163330078 L -1.1950000524520874 -77.80500030517577 L -1.1480000019073486 -77.78299713134764 L -1.0088332891464233 -77.71299743652342 L -0.8646666407585144 -77.65550231933592 L -0.8353333473205566 -77.64533233642577 L -0.6869999766349792 -77.59616851806639 L -0.6365000009536743 -77.58383178710936 L -0.48483332991600037 -77.54799652099608 L -0.42283332347869873 -77.54183197021483 L -0.06199999898672104 -77.50099945068358 L -0.012292793020606041 -77.50099945068358 L 0 -77.50099945068358 L 0.06199999898672104 -77.50099945068358 L 0.42283332347869873 -77.54183197021483 L 0.47949889302253723 -77.54747009277342 L 0.48483332991600037 -77.54799652099608 L 0.49409177899360657 -77.54989624023436 L 0.5051666498184204 -77.55216979980467 L 0.7068333625793457 -77.6038360595703 L 0.7269999980926514 -77.60883331298827 L 0.7566666603088379 -77.61866760253905 L 0.9002959728240967 -77.66844940185545 L 0.903333306312561 -77.66950225830077 L 0.9321666955947876 -77.68099975585936 L 1.027999997138977 -77.7210006713867 L 1.2167373895645142 -77.82399749755858 L 1.3013333082199097 -77.87016296386717 M 81.5251693725586 -1.9791666269302364 L 81.42880249023438 -2.04800009727478 L 81.35600280761719 -2.099999904632568 L 81.3201675415039 -2.1208333969116206 L 81.2318344116211 -2.1749999523162837 L 81.18279266357422 -2.200702905654907 L 81.09349822998047 -2.2474999427795406 L 81.03600311279297 -2.2716667652130123 L 80.84516906738281 -2.352499961853027 L 80.83851623535156 -2.354666709899902 L 80.72679138183594 -2.3910706043243404 L 80.69683074951172 -2.400833368301391 L 80.59600067138672 -2.4258332252502437 L 80.54582977294922 -2.4391667842864986 L 80.39250183105469 -2.46749997138977 L 80.36183166503906 -2.47266674041748 L 80.18163299560547 -2.4909057617187496 L 80.15599822998047 -2.4934999942779537 L 80.114501953125 -2.4965000152587886 L 79.75116729736328 -2.483999967575073 L 79.72000122070312 -2.483500003814697 L 79.6788330078125 -2.479333400726318 L 79.52549743652344 -2.4535000324249263 L 79.49483489990234 -2.4478332996368404 L 79.34317016601562 -2.411999940872192 L 79.30316925048828 -2.400833368301391 L 79.15483093261719 -2.352499961853027 L 79.12566375732422 -2.341333389282226 L 78.98149871826172 -2.282999992370605 L 78.9173355102539 -2.2491667270660396 L 78.77816772460938 -2.1791665554046626 L 78.73748779296875 -2.154337882995605 L 78.60066986083984 -2.0708334445953365 L 78.57516479492188 -2.0528333187103267 L 78.56853485107422 -2.04800009727478 L 78.44933319091797 -1.9611666202545162 L 78.4175033569336 -1.9344999790191646 L 78.18916320800781 -1.7220000028610225 L 78.16699981689453 -1.7000000476837154 L 77.97283172607422 -1.4566667079925533 L 77.95266723632812 -1.4329999685287471 L 77.9411849975586 -1.4170001745223995 L 77.92849731445312 -1.3993333578109737 L 77.87266540527344 -1.3126666545867915 L 77.8518295288086 -1.2766666412353511 L 77.8239974975586 -1.2254439592361446 L 77.75267028808594 -1.0941666364669795 L 77.73924255371094 -1.0642886161804195 L 77.73566436767578 -1.0563333034515376 L 77.72516632080078 -1.026999950408935 L 77.59683227539062 -0.686999976634979 L 77.58883666992188 -0.6568333506584165 L 77.55216979980469 -0.5051666498184202 L 77.54685974121094 -0.4774268567562101 L 77.54633331298828 -0.47466665506362893 L 77.54366302490234 -0.4539999961853025 L 77.5086669921875 -0.19733333587646468 L 77.50700378417969 -0.1661666631698607 L 77.50033569335938 -0.010333333164453394 L 77.5003890991211 1.1102230246251565e-16 L 77.50050354003906 0.020833333954215157 L 77.50716400146484 0.17666666209697732 L 77.51000213623047 0.2076666653156281 L 77.52666473388672 0.362666666507721 L 77.53166961669922 0.3933333456516266 L 77.56083679199219 0.5458333492279053 L 77.56816864013672 0.5761666893959045 L 77.60816955566406 0.7269999980926514 L 77.61766815185547 0.7566666603088378 L 77.670166015625 0.9033333063125609 L 77.68199920654297 0.9321666955947875 L 77.74366760253906 1.0755000114440918 L 77.75733184814453 1.1035000085830688 L 77.80400085449219 1.1959999799728394 L 77.8239974975586 1.228615403175354 L 77.82566833496094 1.2313333749771118 L 77.90451049804688 1.3613818883895874 L 77.90650177001953 1.3646667003631592 L 78.02733612060547 1.532999992370605 L 78.03949737548828 1.5499999523162837 L 78.05933380126953 1.5740000009536739 L 78.16016387939453 1.692333340644836 L 78.18150329589844 1.7150000333786006 L 78.2923355102539 1.8250000476837154 L 78.31566619873047 1.845833301544189 L 78.43316650390625 1.948333382606506 L 78.4576644897461 1.96749997138977 L 78.4748306274414 1.9791666269302364 L 78.5738296508789 2.04800009727478 L 78.68816375732422 2.1275000572204585 L 78.71499633789062 2.1433334350585933 L 78.72347259521484 2.1481456756591792 L 78.84488677978516 2.2170970439910884 L 78.8499984741211 2.220000028610229 L 78.89700317382812 2.2420001029968257 L 78.99116516113281 2.286999940872192 L 79.13533020019531 2.344500064849853 L 79.16466522216797 2.354666709899902 L 79.31300354003906 2.403833389282226 L 79.34317016601562 2.411999940872192 L 79.54566955566406 2.457833290100097 L 79.56600189208984 2.461999893188476 L 79.93800354003906 2.4990000724792476 L 80.06199645996094 2.4990000724792476 L 80.42283630371094 2.458166599273681 L 80.47296905517578 2.453180313110351 L 80.48483276367188 2.4519999027252193 L 80.49173736572266 2.450369596481323 L 80.6364974975586 2.41616678237915 L 80.677001953125 2.407000064849853 L 80.82533264160156 2.357833385467529 L 80.88383483886719 2.3364999294281 L 80.91584014892578 2.3237349987030025 L 81.02799987792969 2.279000043869018 L 81.30133056640625 2.1298332214355464 L 81.32917022705078 2.1158332824707027 L 81.36466979980469 2.094166755676269 L 81.43006896972656 2.04800009727478 L 81.4921646118164 2.0041666030883785 L 81.517333984375 1.9858332872390743 L 81.67649841308594 1.852499961853027 L 81.72216796875 1.8099999427795406 L 81.83300018310547 1.7000000476837154 L 81.91999816894531 1.5979008674621578 L 81.93383026123047 1.5816667079925533 L 81.97266387939453 1.532999992370605 L 82.0871353149414 1.3735342025756836 L 82.09349822998047 1.3646667003631592 L 82.17433166503906 1.2313333749771118 L 82.19599914550781 1.1959999799728394 L 82.26433563232422 1.055999994277954 L 82.28233337402344 1.0184999704360962 L 82.32073211669922 0.9249314069747924 L 82.34149932861328 0.8743333220481871 L 82.37483215332031 0.7760000228881835 L 82.38899993896484 0.7369999885559082 L 82.47200012207031 0.3729999959468842 L 82.48799896240234 0.24899999797344213 L 82.5 1.1102230246251565e-16 L 82.47200012207031 -0.372999995946884 L 82.4661636352539 -0.4034999907016752 L 82.39700317382812 -0.7068333625793455 L 82.38899993896484 -0.736999988555908 L 82.33650207519531 -0.8836666941642758 L 82.31366729736328 -0.9416666626930233 L 82.22866821289062 -1.1308333873748775 L 82.21399688720703 -1.158333301544189 L 82.13816833496094 -1.2949999570846553 L 82.12183380126953 -1.321333289146423 L 82.06600189208984 -1.407999992370605 L 81.91999816894531 -1.5909699201583858 L 81.83300018310547 -1.7000000476837154 L 81.60466766357422 -1.9125000238418575 L 81.55181121826172 -1.9601336717605586 L 81.55066680908203 -1.9611666202545162 L 81.5251693725586 -1.9791666269302364 M 0.8884999752044678 -2.33483338356018 L 0.8451666831970215 -2.352499961853027 L 0.6968333125114441 -2.400833368301391 L 0.6769999861717224 -2.407000064849853 L 0.5253333449363708 -2.4428334236145015 L 0.46433332562446594 -2.4551665782928462 L 0.3109999895095825 -2.480999946594238 L 0.18708296120166779 -2.49099326133728 L 0.15600000321865082 -2.4934999942779537 L 0.1145000010728836 -2.4965000152587886 L 1.589457156116105e-14 -2.4925608634948726 L -0.2488333284854889 -2.483999967575073 L -0.2800000011920929 -2.483500003814697 L -0.32116666436195374 -2.479333400726318 L -0.47450000047683716 -2.4535000324249263 L -0.5051666498184204 -2.4478332996368404 L -0.6568333506584167 -2.411999940872192 L -0.6968333125114441 -2.400833368301391 L -0.8451666831970215 -2.352499961853027 L -0.8743333220481873 -2.341333389282226 L -1.0184999704360962 -2.282999992370605 L -1.065000057220459 -2.2599999904632564 L -1.159166693687439 -2.214999914169311 L -1.1806883811950684 -2.2027778625488277 L -1.2941666841506958 -2.1383333206176753 L -1.3205000162124634 -2.1216666698455806 L -1.4320727586746216 -2.04800009727478 L -1.4505000114440918 -2.035833358764648 L -1.4756666421890259 -2.0174999237060542 L -1.559000015258789 -1.9550000429153438 L -1.6764999628067017 -1.852499961853027 L -1.722166657447815 -1.8099999427795406 L -1.8671666383743286 -1.661666631698608 L -1.9663333892822266 -1.5416666269302364 L -1.9989999532699585 -1.501500010490417 L -2.0873334407806396 -1.373166680335998 L -2.1046667098999023 -1.3473333120346065 L -2.2321667671203613 -1.1215000152587886 L -2.247333288192749 -1.0941666364669795 L -2.2643332481384277 -1.0563333034515376 L -2.3451666831970215 -0.8646666407585141 L -2.3585000038146973 -0.8253333568572995 L -2.4059998989105225 -0.6769999861717222 L -2.4609999656677246 -0.43399998545646645 L -2.492000102996826 -0.1870000064373015 L -2.493333339691162 -0.1558333337306975 L -2.4970884323120117 1.1102230246251565e-16 L -2.498333215713501 0.05166666582226763 L -2.496999979019165 0.08283333480358133 L -2.4886667728424072 0.23866666853427893 L -2.4753334522247314 0.3420000076293946 L -2.4661667346954346 0.4034999907016754 L -2.3970000743865967 0.7068333625793457 L -2.3889999389648438 0.7369999885559082 L -2.382333278656006 0.7566666603088378 L -2.3298332691192627 0.9033333063125609 L -2.318000078201294 0.9321666955947875 L -2.256333351135254 1.0755000114440918 L -2.242666721343994 1.1035000085830688 L -2.2265000343322754 1.1301666498184204 L -2.0989999771118164 1.3559999465942383 L -2.020059108734131 1.4706876277923584 L -2.010666608810425 1.4843332767486572 L -1.9865000247955322 1.5180000066757198 L -1.8873332738876343 1.6380000114440914 L -1.8671666383743286 1.661666631698608 L -1.722166657447815 1.8099999427795406 L -1.7076666355133057 1.8250000476837154 L -1.706385850906372 1.8261435031890865 L -1.684333324432373 1.845833301544189 L -1.5668333768844604 1.948333382606506 L -1.54543137550354 1.9650763273239131 L -1.5423333644866943 1.96749997138977 L -1.525166630744934 1.9791666269302364 L -1.4261704683303833 2.04800009727478 L -1.311833381652832 2.1275000572204585 L -1.284999966621399 2.1433334350585933 L -1.1551116704940796 2.2170970439910884 L -1.149999976158142 2.220000028610229 L -1.1030000448226929 2.2420001029968257 L -1.0088332891464233 2.286999940872192 L -0.8646666407585144 2.344500064849853 L -0.8353333473205566 2.354666709899902 L -0.6869999766349792 2.403833389282226 L -0.6568333506584167 2.411999940872192 L -0.4543333351612091 2.457833290100097 L -0.4339999854564667 2.461999893188476 L -0.06199999898672104 2.4990000724792476 L 0 2.4990000724792476 L 0.06199999898672104 2.4990000724792476 L 0.4339999854564667 2.461999893188476 L 0.5356666445732117 2.4411666393280025 L 0.5761666893959045 2.4319999217987056 L 0.7269999980926514 2.3911666870117183 L 0.7566666603088379 2.3813333511352535 L 0.903333306312561 2.33049988746643 L 0.9321666955947876 2.3190000057220455 L 1.027999997138977 2.279000043869018 L 1.354224681854248 2.1009688377380367 L 1.3559999465942383 2.099999904632568 L 1.3898333311080933 2.0758333206176753 L 1.4292638301849365 2.04800009727478 L 1.5173333883285522 1.9858332872390743 L 1.6764999628067017 1.852499961853027 L 1.722166657447815 1.8099999427795406 L 1.8329999446868896 1.7000000476837154 L 1.8531666994094849 1.6763333082199092 L 2.047333240509033 1.4329999685287476 L 2.071500062942505 1.3993333578109741 L 2.1531667709350586 1.2676666975021362 L 2.1693332195281982 1.2410000562667847 L 2.2643332481384277 1.055999994277954 L 2.2736666202545166 1.037500023841858 L 2.2860000133514404 1.0088332891464233 L 2.3451666831970215 0.8646666407585143 L 2.3556666374206543 0.8353333473205565 L 2.4031667709350586 0.6869999766349792 L 2.4111666679382324 0.6568333506584167 L 2.447833299636841 0.5051666498184204 L 2.4536666870117188 0.47466665506362915 L 2.4786667823791504 0.3213333189487458 L 2.4820001125335693 0.29033333063125616 L 2.496166706085205 0.1353333294391633 L 2.497499942779541 0.10416666418313988 L 2.4980571269989014 1.1102230246251565e-16 L 2.498333215713501 -0.05166666582226741 L 2.496999979019165 -0.08283333480358111 L 2.4886667728424072 -0.2386666685342787 L 2.4853334426879883 -0.2696666717529295 L 2.4536666870117188 -0.47466665506362893 L 2.447833299636841 -0.5051666498184202 L 2.4111666679382324 -0.6568333506584165 L 2.4031667709350586 -0.686999976634979 L 2.3926665782928467 -0.7163333296775816 L 2.3098556995391846 -0.9550237059593197 L 2.307666778564453 -0.961333334445953 L 2.2643332481384277 -1.0563333034515376 L 2.247333288192749 -1.0941666364669795 L 2.200666666030884 -1.18666660785675 L 2.17983341217041 -1.2226666212081905 L 2.1621665954589844 -1.24833333492279 L 1.9605000019073486 -1.5499999523162837 L 1.933833360671997 -1.5816667079925533 L 1.9288136959075928 -1.5873556137084956 L 1.7963333129882812 -1.7374999523162837 L 1.7741667032241821 -1.7595000267028804 L 1.6616666316986084 -1.8669999837875362 L 1.6381666660308838 -1.8875000476837154 L 1.4756666421890259 -2.0174999237060542 L 1.4505000114440918 -2.035833358764648 L 1.4320727586746216 -2.04800009727478 L 1.3205000162124634 -2.1216666698455806 L 1.2941666841506958 -2.1383333206176753 L 1.065000057220459 -2.2599999904632564 L 1.036976933479309 -2.274300336837768 L 1.0326666831970215 -2.276499986648559 L 0.8884999752044678 -2.33483338356018 M -137.5 -139.99999999999997 L 0 -139.99999999999997 L 137.5 -139.99999999999997 L 137.5 -131.0720062255859 L 137.5 1.1102230246251565e-16 L 137.5 131.0720062255859 L 137.5 139.99999999999997 L 0 139.99999999999997 L -137.5 139.99999999999997 L -137.5 131.0720062255859 L -137.5 1.1102230246251565e-16 L -137.5 -131.0720062255859 L -137.5 -139.99999999999997 M -78.57583618164062 -82.05249786376952 L -78.75 -82.16500091552733 L -78.84083557128906 -82.21499633789061 L -78.85900115966797 -82.22499847412108 L -79.00066375732422 -82.29000091552733 L -79.05816650390625 -82.3141632080078 L -79.2040023803711 -82.37000274658202 L -79.56600189208984 -82.46199798583983 L -79.72016906738281 -82.48283386230467 L -79.78216552734375 -82.48899841308592 L -79.93800354003906 -82.49900054931639 L -80.06199645996094 -82.49900054931639 L -80.09317016601562 -82.4970016479492 L -80.40316772460938 -82.46616363525389 L -80.43399810791016 -82.46199798583983 L -80.4645004272461 -82.45532989501952 L -80.66699981689453 -82.4095001220703 L -80.69683074951172 -82.4008331298828 L -80.7959976196289 -82.37000274658202 L -81.14099884033203 -82.22499847412108 L -81.35600280761719 -82.09999847412108 L -81.59334564208984 -81.9199981689453 L -81.65399932861328 -81.87400054931639 L -81.83300018310547 -81.69999694824217 L -81.91999816894531 -81.59790039062499 L -81.93383026123047 -81.58166503906249 L -81.97266387939453 -81.53299713134764 L -81.99540710449219 -81.50254058837889 L -82.06600189208984 -81.40799713134764 L -82.22100067138672 -81.13883209228514 L -82.23733520507812 -81.1125030517578 L -82.25199890136719 -81.08499908447264 L -82.3489990234375 -80.85500335693358 L -82.38899993896484 -80.73699951171874 L -82.44999694824219 -80.49500274658202 L -82.4749984741211 -80.34166717529295 L -82.48283386230469 -80.27999877929686 L -82.49700164794922 -80.12499999999999 L -82.48799896240234 -79.75099945068358 L -82.47200012207031 -79.62699890136717 L -82.4661636352539 -79.59649658203124 L -82.39700317382812 -79.2931671142578 L -82.38899993896484 -79.26300048828124 L -82.35566711425781 -79.16466522216795 L -82.34149932861328 -79.1256637573242 L -82.28233337402344 -78.9814987182617 L -82.26899719238281 -78.95333099365233 L -82.20066833496094 -78.81333160400389 L -82.1798324584961 -78.77733612060545 L -82.01066589355469 -78.51566314697264 L -81.99299621582031 -78.48999786376952 L -81.91999816894531 -78.39921569824217 L -81.91500091552734 -78.3929977416992 L -81.80999755859375 -78.27799987792967 L -81.7665023803711 -78.23349761962889 L -81.61399841308594 -78.09183502197264 L -81.572998046875 -78.05999755859374 L -81.36466979980469 -77.90583038330077 L -81.32917022705078 -77.88416290283202 L -81.22567749023438 -77.82399749755858 L -81.1500015258789 -77.77999877929686 L -81.08350372314453 -77.75083160400389 L -80.7959976196289 -77.62999725341795 L -80.77616882324219 -77.6238327026367 L -80.62699890136719 -77.5804977416992 L -80.58650207519531 -77.57133483886717 L -80.43399810791016 -77.53800201416014 L -80.40316772460938 -77.53383636474608 L -80.09317016601562 -77.50299835205077 L -80.05166625976562 -77.50099945068358 L -80.02050018310547 -77.50199890136717 L -79.7613296508789 -77.51200103759764 L -79.73049926757812 -77.51566314697264 L -79.59418487548828 -77.53408813476561 L -79.57633209228516 -77.53649902343749 L -79.42383575439453 -77.56983184814452 L -79.37300109863281 -77.5804977416992 L -79.15483093261719 -77.64833068847655 L -79.12566375732422 -77.6595001220703 L -78.98149871826172 -77.71700286865233 L -78.88733673095703 -77.76200103759764 L -78.8499984741211 -77.77999877929686 L -78.77432250976562 -77.82399749755858 L -78.67082977294922 -77.88416290283202 L -78.63533020019531 -77.90583038330077 L -78.4661636352539 -78.0266647338867 L -78.43316650390625 -78.05166625976561 L -78.35399627685547 -78.11916351318358 L -78.32350158691406 -78.14749908447264 L -78.21099853515625 -78.25499725341795 L -78.07350158691406 -78.41083526611327 L -78.03949737548828 -78.44999694824217 L -77.91866302490234 -78.61833190917967 L -77.90650177001953 -78.6353302001953 L -77.89016723632812 -78.66166687011717 L -77.8239974975586 -78.7708053588867 L -77.81600189208984 -78.78400421142577 L -77.80933380126953 -78.7949981689453 L -77.77850341796875 -78.86083221435545 L -77.71016693115234 -79.00083160400389 L -77.63433074951172 -79.1941680908203 L -77.62483215332031 -79.2238311767578 L -77.579833984375 -79.3730010986328 L -77.57066345214844 -79.41349792480467 L -77.54816436767578 -79.51516723632811 L -77.5231704711914 -79.66850280761717 L -77.51866912841797 -79.69933319091795 L -77.50366973876953 -79.90682983398436 L -77.50216674804688 -79.9691696166992 L -77.50299835205078 -80.12499999999999 L -77.51716613769531 -80.27999877929686 L -77.5250015258789 -80.34166717529295 L -77.56083679199219 -80.5458297729492 L -77.5653305053711 -80.56616973876952 L -77.63866424560547 -80.81533050537108 L -77.64766693115234 -80.8451690673828 L -77.66283416748047 -80.88383483886717 L -77.72200012207031 -81.02799987792967 L -77.8239974975586 -81.22663116455077 L -77.83599853515625 -81.24999999999999 L -77.93399810791016 -81.40799713134764 L -78.0459976196289 -81.55799865722655 L -78.21099853515625 -81.74500274658202 L -78.2334976196289 -81.76650238037108 L -78.38600158691406 -81.90816497802733 L -78.40054321289062 -81.9199981689453 L -78.41016387939453 -81.92783355712889 L -78.53266906738281 -82.02366638183592 L -78.55816650390625 -82.04166412353514 L -78.57583618164062 -82.05249786376952 M -77.52466583251953 -0.34200000762939436 L -77.52983093261719 -0.38316667079925515 L -77.54816436767578 -0.48483332991600014 L -77.55733489990234 -0.5253333449363706 L -77.6415023803711 -0.8253333568572995 L -77.65483093261719 -0.8646666407585141 L -77.73566436767578 -1.0563333034515376 L -77.75267028808594 -1.0941666364669795 L -77.8239974975586 -1.2205152511596675 L -77.88016510009766 -1.320000052452087 L -77.90650177001953 -1.3646667003631587 L -78.00273895263672 -1.4987349510192867 L -78.02733612060547 -1.532999992370605 L -78.12816619873047 -1.6513333320617671 L -78.17433166503906 -1.7074999809265132 L -78.32350158691406 -1.852499961853027 L -78.35399627685547 -1.8808333873748775 L -78.4748306274414 -1.9791666269302364 L -78.49933624267578 -1.99833333492279 L -78.56969451904297 -2.04800009727478 L -78.6268310546875 -2.088333368301391 L -78.67082977294922 -2.1158332824707027 L -78.8499984741211 -2.220000028610229 L -78.91649627685547 -2.2491667270660396 L -79.2040023803711 -2.3699998855590816 L -79.35316467285156 -2.413333415985107 L -79.41349792480469 -2.4286665916442867 L -79.56600189208984 -2.461999893188476 L -79.72016906738281 -2.482833385467529 L -79.78216552734375 -2.4890000820159908 L -79.81316375732422 -2.490989208221435 L -79.93800354003906 -2.4990000724792476 L -80.24883270263672 -2.483999967575073 L -80.27999877929688 -2.483500003814697 L -80.3211669921875 -2.479333400726318 L -80.42366790771484 -2.463500022888183 L -80.4645004272461 -2.4553332328796382 L -80.61699676513672 -2.4219999313354488 L -80.8550033569336 -2.348999977111816 L -81.02799987792969 -2.279000043869018 L -81.1221694946289 -2.233999967575073 L -81.1500015258789 -2.220000028610229 L -81.28500366210938 -2.1433334350585933 L -81.31183624267578 -2.1275000572204585 L -81.427978515625 -2.04800009727478 L -81.4834976196289 -2.0099999904632564 L -81.5251693725586 -1.9791666269302364 L -81.64600372314453 -1.8808333873748775 L -81.795166015625 -1.7358332872390743 L -81.81849670410156 -1.7150000333786006 L -81.83300018310547 -1.7000000476837154 L -81.83635711669922 -1.6957957744598384 L -81.91999816894531 -1.5909699201583858 L -82.06600189208984 -1.407999992370605 L -82.07716369628906 -1.3906667232513423 L -82.1588363647461 -1.2589999437332149 L -82.17400360107422 -1.2316666841506954 L -82.24732971191406 -1.0941666364669795 L -82.26433563232422 -1.0563333034515376 L -82.34516906738281 -0.8646666407585141 L -82.36583709716797 -0.7950000166893002 L -82.44999694824219 -0.49500000476837136 L -82.47200012207031 -0.372999995946884 L -82.47533416748047 -0.34200000762939436 L -82.49866485595703 -0.031166667118668438 L -82.5 1.1102230246251565e-16 L -82.48799896240234 0.24899999797344213 L -82.4229965209961 0.6169999837875366 L -82.38899993896484 0.7369999885559082 L -82.30400085449219 0.9710000157356261 L -82.28600311279297 1.0084999799728394 L -82.22481536865234 1.1377589702606201 L -82.21932983398438 1.1493333578109741 L -82.21503448486328 1.1563398838043213 L -82.19766998291016 1.184666633605957 L -82.09349822998047 1.3646667003631592 L -81.97266387939453 1.532999992370605 L -81.93383026123047 1.5816667079925533 L -81.91999816894531 1.5973443984985347 L -81.79633331298828 1.7374999523162837 L -81.78182983398438 1.7525000572204585 L -81.62933349609375 1.8941667079925533 L -81.60600280761719 1.914999961853027 L -81.4304428100586 2.04800009727478 L -81.40799713134766 2.0650000572204585 L -81.27633666992188 2.148333311080932 L -81.24083709716797 2.170000076293945 L -81.1500015258789 2.220000028610229 L -81.11266326904297 2.2379999160766597 L -80.82516479492188 2.358833312988281 L -80.7959976196289 2.3699998855590816 L -80.77616882324219 2.3761665821075435 L -80.62699890136719 2.419500112533569 L -80.59666442871094 2.4266667366027828 L -80.44416809082031 2.460000038146972 L -80.37200164794922 2.468166589736938 L -80.06199645996094 2.4990000724792476 L -79.95866394042969 2.4990000724792476 L -79.91716766357422 2.4979999065399165 L -79.7613296508789 2.4879999160766597 L -79.73049926757812 2.484333276748657 L -79.57633209228516 2.463500022888183 L -79.54380798339844 2.4569954872131343 L -79.5354995727539 2.4553332328796382 L -79.50566864013672 2.4466667175292964 L -79.15483093261719 2.351666688919067 L -79.12566375732422 2.340500116348266 L -78.98149871826172 2.282999992370605 L -78.88733673095703 2.2379999160766597 L -78.8499984741211 2.220000028610229 L -78.67082977294922 2.1158332824707027 L -78.63533020019531 2.094166755676269 L -78.5707015991211 2.04800009727478 L -78.4661636352539 1.973333358764648 L -78.43316650390625 1.948333382606506 L -78.40266418457031 1.9199999570846553 L -78.24683380126953 1.782500028610229 L -78.1780014038086 1.7112946510314937 L -78.17433166503906 1.7074999809265132 L -78.12816619873047 1.6513333320617671 L -78.02733612060547 1.532999992370605 L -78.00273895263672 1.498734951019287 L -77.90650177001953 1.3646667003631592 L -77.89016723632812 1.3383333683013916 L -77.8239974975586 1.2291924953460693 L -77.80933380126953 1.2050000429153442 L -77.79467010498047 1.1775000095367432 L -77.72633361816406 1.037500023841858 L -77.71399688720703 1.0088332891464233 L -77.65483093261719 0.8646666407585143 L -77.60816955566406 0.7269999980926514 L -77.579833984375 0.6269999742507935 L -77.52566528320312 0.32033333182334905 L -77.51200103759766 0.24899999797344213 L -77.5112533569336 0.23874501883983618 L -77.50450134277344 0.1456666737794877 L -77.50250244140625 0.10416666418313988 L -77.50194549560547 1.1102230246251565e-16 L -77.50166320800781 -0.05166666582226741 L -77.50299835205078 -0.08283333480358111 L -77.51106262207031 -0.2336080521345137 L -77.5113296508789 -0.2386666685342787 L -77.52466583251953 -0.34200000762939436 M 77.95266723632812 78.56700134277342 L 77.92849731445312 78.60066986083983 L 77.8239974975586 78.77108001708983 L 77.8201675415039 78.77733612060545 L 77.79933166503906 78.81333160400389 L 77.75267028808594 78.90583038330077 L 77.73566436767578 78.94366455078124 L 77.62149810791016 79.23366546630858 L 77.6212158203125 79.23445892333983 L 77.61100006103516 79.26300048828124 L 77.56016540527344 79.46466827392577 L 77.55216979980469 79.49483489990233 L 77.54216766357422 79.56666564941405 L 77.50299835205078 79.87499999999999 L 77.50250244140625 79.89583587646483 L 77.50166320800781 80.05166625976561 L 77.50299835205078 80.08283233642577 L 77.5113296508789 80.23867034912108 L 77.5183334350586 80.29000091552733 L 77.53166961669922 80.39333343505858 L 77.53430938720703 80.40713500976561 L 77.56083679199219 80.5458297729492 L 77.56816864013672 80.57616424560545 L 77.60816955566406 80.72699737548827 L 77.63383483886719 80.7949981689453 L 77.68633270263672 80.94166564941405 L 77.70420837402344 80.98144531249999 L 77.77133178710938 81.13083648681639 L 77.78067016601562 81.14933013916014 L 77.8239974975586 81.22421264648436 L 77.88483428955078 81.32933044433592 L 77.91866302490234 81.3816680908203 L 78.03949737548828 81.5500030517578 L 78.14033508300781 81.66833496093749 L 78.18150329589844 81.71499633789061 L 78.2923355102539 81.82499694824217 L 78.31566619873047 81.84583282470702 L 78.40068817138672 81.9199981689453 L 78.43316650390625 81.94833374023436 L 78.4545669555664 81.96507263183592 L 78.4576644897461 81.96749877929686 L 78.4748306274414 81.97916412353514 L 78.68816375732422 82.12750244140624 L 78.71499633789062 82.14333343505858 L 78.8453140258789 82.2173385620117 L 78.8499984741211 82.22000122070311 L 78.94416809082031 82.26499938964842 L 78.98149871826172 82.28299713134764 L 79.01066589355469 82.29416656494139 L 79.2040023803711 82.37000274658202 L 79.22149658203125 82.37488555908202 L 79.44400024414062 82.43699645996092 L 79.56600189208984 82.46199798583983 L 79.59683227539062 82.46616363525389 L 79.90682983398438 82.4970016479492 L 79.93800354003906 82.49900054931639 L 80.06199645996094 82.49900054931639 L 80.43399810791016 82.46199798583983 L 80.677001953125 82.40699768066405 L 81.02799987792969 82.27899932861327 L 81.35600280761719 82.09999847412108 L 81.55899810791016 81.95500183105467 L 81.59912109375 81.9199981689453 L 81.67649841308594 81.85250091552733 L 81.72216796875 81.80999755859374 L 81.83300018310547 81.69999694824217 L 81.91999816894531 81.59668731689452 L 81.99299621582031 81.51000213623045 L 82.0989990234375 81.35600280761717 L 82.19599914550781 81.1959991455078 L 82.25199890136719 81.08499908447264 L 82.26433563232422 81.05633544921874 L 82.37850189208984 80.76633453369139 L 82.38899993896484 80.73699951171874 L 82.39700317382812 80.70683288574217 L 82.4661636352539 80.40350341796874 L 82.47200012207031 80.3730010986328 L 82.48487091064453 80.27326202392577 L 82.48799896240234 80.24900054931639 L 82.489501953125 80.18666839599608 L 82.49783325195312 80.03083038330077 L 82.49700164794922 79.87499999999999 L 82.44999694824219 79.50499725341795 L 82.41365814208984 79.36083984374999 L 82.38899993896484 79.26300048828124 L 82.27483367919922 78.97299957275389 L 82.26433563232422 78.94366455078124 L 82.24732971191406 78.90583038330077 L 82.23217010498047 78.87850189208983 L 82.13300323486328 78.6959991455078 L 82.12156677246094 78.67917633056639 L 81.99299621582031 78.48999786376952 L 81.95183563232422 78.44333648681639 L 81.91999816894531 78.40834808349608 L 81.7076644897461 78.1750030517578 L 81.69233703613281 78.16100311279295 L 81.40567016601562 77.93766784667967 L 81.35600280761719 77.90000152587889 L 81.25 77.83499908447264 L 81.22901153564453 77.82399749755858 L 81.11166381835938 77.76249694824217 L 81.05549621582031 77.73549652099608 L 80.86466979980469 77.65550231933592 L 80.83533477783203 77.64533233642577 L 80.69807434082031 77.59983825683592 L 80.68699645996094 77.59616851806639 L 80.58616638183594 77.57116699218749 L 80.54582977294922 77.56083679199217 L 80.39250183105469 77.53250122070311 L 80.36183166503906 77.52733612060545 L 80.15599822998047 77.50650024414061 L 80.114501953125 77.50350189208983 L 79.75116729736328 77.51599884033202 L 79.68900299072266 77.5189971923828 L 79.322998046875 77.59300231933592 L 79.22383117675781 77.6238327026367 L 79.19416809082031 77.63366699218749 L 79.04833221435547 77.68949890136717 L 79.02957916259766 77.69698333740233 L 79.01950073242188 77.70099639892577 L 78.83283233642578 77.79100036621092 L 78.81400299072266 77.8000030517578 L 78.78700256347656 77.81533050537108 L 78.7723159790039 77.82399749755858 L 78.65283203125 77.89450073242186 L 78.52532958984375 77.98449707031249 L 78.46683502197266 78.0276641845703 L 78.30766296386719 78.16100311279295 L 78.27783203125 78.19000244140624 L 78.1328353881836 78.3383331298828 L 78.11266326904297 78.36199951171874 L 78.01488494873047 78.48033142089842 L 78.01349639892578 78.48200225830077 L 77.95266723632812 78.56700134277342 M 0.8884999752044678 77.66600036621092 L 0.8451666831970215 77.64833068847655 L 0.6968333125114441 77.59916687011717 L 0.6769999861717224 77.59300231933592 L 0.5253333449363708 77.55716705322264 L 0.46433332562446594 77.54483032226561 L 0.3109999895095825 77.5189971923828 L 0.15600000321865082 77.50650024414061 L 0.1145000010728836 77.50350189208983 L -2.543131449785768e-13 77.50743865966795 L -0.2488333284854889 77.51599884033202 L -0.3109999895095825 77.5189971923828 L -0.6769999861717224 77.59300231933592 L -0.7761666774749756 77.6238327026367 L -0.8058333396911621 77.63366699218749 L -0.9516666531562805 77.68949890136717 L -0.9704223275184631 77.69698333740233 L -0.9804999828338623 77.70099639892577 L -1.1671667098999023 77.79100036621092 L -1.1859999895095825 77.8000030517578 L -1.2130000591278076 77.81533050537108 L -1.2276877164840698 77.82399749755858 L -1.347166657447815 77.89450073242186 L -1.474666714668274 77.98449707031249 L -1.5331666469573975 78.0276641845703 L -1.6923333406448364 78.16100311279295 L -1.722166657447815 78.19000244140624 L -1.8671666383743286 78.3383331298828 L -1.8873332738876343 78.36199951171874 L -1.9851182699203491 78.48033142089842 L -1.9865000247955322 78.48200225830077 L -2.047333240509033 78.56700134277342 L -2.071500062942505 78.60066986083983 L -2.17983341217041 78.77733612060545 L -2.200666666030884 78.81333160400389 L -2.247333288192749 78.90583038330077 L -2.2643332481384277 78.94366455078124 L -2.378499984741211 79.23366546630858 L -2.3787841796875 79.23445892333983 L -2.3889999389648438 79.26300048828124 L -2.439833402633667 79.46466827392577 L -2.447833299636841 79.49483489990233 L -2.4578332901000977 79.56666564941405 L -2.4966189861297607 79.8720016479492 L -2.496999979019165 79.87499999999999 L -2.497499942779541 79.89583587646483 L -2.498333215713501 80.05166625976561 L -2.496999979019165 80.08283233642577 L -2.4886667728424072 80.23867034912108 L -2.4853334426879883 80.26966857910155 L -2.4719998836517334 80.3730010986328 L -2.3889999389648438 80.73699951171874 L -2.366166591644287 80.7949981689453 L -2.313666582107544 80.94166564941405 L -2.271369695663452 81.03579711914061 L -2.2286667823791504 81.13083648681639 L -2.2193334102630615 81.14933013916014 L -2.115166664123535 81.32933044433592 L -2.0813333988189697 81.3816680908203 L -1.9605000019073486 81.5500030517578 L -1.8596667051315308 81.66833496093749 L -1.81850004196167 81.71499633789061 L -1.7076666355133057 81.82499694824217 L -1.684333324432373 81.84583282470702 L -1.5993130207061768 81.9199981689453 L -1.5668333768844604 81.94833374023436 L -1.54543137550354 81.96507263183592 L -1.5423333644866943 81.96749877929686 L -1.525166630744934 81.97916412353514 L -1.311833381652832 82.12750244140624 L -1.284999966621399 82.14333343505858 L -1.149999976158142 82.22000122070311 L -1.122166633605957 82.23400115966795 L -1.027999997138977 82.27899932861327 L -0.6769999861717224 82.40699768066405 L -0.4339999854564667 82.46199798583983 L -0.40316668152809143 82.46616363525389 L -0.09316666424274445 82.4970016479492 L -0.06199999898672104 82.49900054931639 L 0 82.49900054931639 L 0.06199999898672104 82.49900054931639 L 0.4339999854564667 82.46199798583983 L 0.6769999861717224 82.40699768066405 L 0.7354999780654907 82.38566589355467 L 1.0746666193008423 82.25650024414061 L 1.1024999618530273 82.24250030517577 L 1.2408332824707031 82.1699981689453 L 1.2676666975021362 82.15416717529295 L 1.4835000038146973 82.01000213623045 L 1.5331666469573975 81.97233581542967 L 1.5956395864486694 81.9199981689453 L 1.6923333406448364 81.83899688720702 L 1.714833378791809 81.81749725341795 L 1.8256666660308838 81.70749664306639 L 1.8596667051315308 81.66833496093749 L 1.9605000019073486 81.5500030517578 L 1.9609792232513428 81.54930114746092 L 1.9781666994094849 81.52433013916014 L 1.9943333864212036 81.49766540527342 L 2.2193334102630615 81.14933013916014 L 2.2330000400543213 81.12133026123045 L 2.2996666431427 80.98049926757811 L 2.311500072479248 80.95166778564452 L 2.382333278656006 80.7566680908203 L 2.3946666717529297 80.71700286865233 L 2.434666633605957 80.56616973876952 L 2.440999984741211 80.53566741943358 L 2.4701666831970215 80.38316345214842 L 2.4746665954589844 80.35233306884764 L 2.491333246231079 80.19733428955077 L 2.493000030517578 80.16616821289061 L 2.499666690826416 80.0103302001953 L 2.497166633605957 79.90616607666014 L 2.4963433742523193 79.8720016479492 L 2.496166706085205 79.86466979980467 L 2.4820001125335693 79.70966339111327 L 2.4788215160369873 79.6801071166992 L 2.4786667823791504 79.6786651611328 L 2.4749999046325684 79.65833282470702 L 2.439166784286499 79.45417022705077 L 2.431833267211914 79.42383575439452 L 2.3918333053588867 79.2730026245117 L 2.378499984741211 79.23366546630858 L 2.2643332481384277 78.94366455078124 L 2.247333288192749 78.90583038330077 L 2.1740000247955322 78.76833343505858 L 2.1588332653045654 78.74099731445311 L 2.0463333129882812 78.56683349609374 L 2.0351667404174805 78.54949951171874 L 2.0349478721618652 78.54920959472655 L 2.0164999961853027 78.52449798583983 L 1.9214999675750732 78.40116882324217 L 1.9013333320617676 78.37750244140624 L 1.683833360671997 78.15499877929686 L 1.6616666316986084 78.13300323486327 L 1.6298333406448364 78.10633087158202 L 1.381500005722046 77.91799926757811 L 1.3675485849380493 77.90844726562499 L 1.347166657447815 77.89450073242186 L 1.305999994277954 77.87266540527342 L 1.2222933769226074 77.82399749755858 L 1.1268333196640015 77.76850128173827 L 1.0508424043655396 77.73218536376952 L 1.0326666831970215 77.72350311279295 L 0.8884999752044678 77.66600036621092 M -78.02733612060547 78.46700286865233 L -78.03949737548828 78.44999694824217 L -78.05933380126953 78.42600250244139 L -78.16016387939453 78.30766296386717 L -78.18150329589844 78.28500366210936 L -78.2923355102539 78.1750030517578 L -78.31566619873047 78.15416717529295 L -78.43316650390625 78.05166625976561 L -78.4661636352539 78.0266647338867 L -78.63533020019531 77.90583038330077 L -78.67082977294922 77.88416290283202 L -78.77432250976562 77.82399749755858 L -78.8499984741211 77.77999877929686 L -78.88733673095703 77.76200103759764 L -79.17483520507812 77.6411666870117 L -79.21383666992188 77.62699890136717 L -79.36299896240234 77.58366394042967 L -79.3931655883789 77.57550048828124 L -79.54566955566406 77.5421676635742 L -79.58650207519531 77.53483581542967 L -79.74066925048828 77.51399993896483 L -79.77166748046875 77.51149749755858 L -79.92749786376953 77.50150299072264 L -80.07250213623047 77.50150299072264 L -80.10350036621094 77.50399780273436 L -80.36183166503906 77.52733612060545 L -80.41283416748047 77.53717041015624 L -80.66699981689453 77.59049987792967 L -80.7163314819336 77.60633087158202 L -80.86466979980469 77.65550231933592 L -81.05549621582031 77.73549652099608 L -81.10250091552734 77.7574996948242 L -81.22938537597656 77.82399749755858 L -81.24083709716797 77.83000183105467 L -81.30149841308594 77.87000274658202 L -81.43316650390625 77.95333099365233 L -81.46858978271484 77.98017120361327 L -81.5981674194336 78.07833099365233 L -81.61399841308594 78.09183502197264 L -81.7665023803711 78.23349761962889 L -81.87149810791016 78.34850311279295 L -81.91999816894531 78.3995895385742 L -81.92150115966797 78.40116882324217 L -82.04733276367188 78.56700134277342 L -82.07716369628906 78.60933685302733 L -82.1588363647461 78.74099731445311 L -82.17400360107422 78.76833343505858 L -82.24732971191406 78.90583038330077 L -82.25587463378906 78.92484283447264 L -82.26433563232422 78.94366455078124 L -82.27483367919922 78.97299957275389 L -82.38899993896484 79.26300048828124 L -82.44999694824219 79.50499725341795 L -82.4749984741211 79.65833282470702 L -82.48283386230469 79.72000122070311 L -82.49700164794922 79.87499999999999 L -82.48799896240234 80.24900054931639 L -82.4834976196289 80.27983093261717 L -82.42933654785156 80.5865020751953 L -82.4229965209961 80.6169967651367 L -82.38899993896484 80.73699951171874 L -82.25199890136719 81.08499908447264 L -82.19599914550781 81.1959991455078 L -82.1798324584961 81.22266387939452 L -82.01066589355469 81.48433685302733 L -81.99299621582031 81.51000213623045 L -81.91999816894531 81.59668731689452 L -81.83300018310547 81.69999694824217 L -81.65399932861328 81.87400054931639 L -81.60005187988281 81.9199981689453 L -81.55899810791016 81.95500183105467 L -81.25 82.16500091552733 L -81.14099884033203 82.22499847412108 L -80.99933624267578 82.29000091552733 L -80.94183349609375 82.3141632080078 L -80.7959976196289 82.37000274658202 L -80.76616668701172 82.37866973876952 L -80.4645004272461 82.45532989501952 L -80.43399810791016 82.46199798583983 L -80.27983093261719 82.48283386230467 L -80.21783447265625 82.48899841308592 L -80.06199645996094 82.49900054931639 L -79.93800354003906 82.49900054931639 L -79.90682983398438 82.4970016479492 L -79.59683227539062 82.46616363525389 L -79.56600189208984 82.46199798583983 L -79.41349792480469 82.4286651611328 L -79.35316467285156 82.41333007812499 L -79.32052612304688 82.40385437011717 L -79.2040023803711 82.37000274658202 L -78.91649627685547 82.24916839599608 L -78.88733673095703 82.23799896240233 L -78.8499984741211 82.22000122070311 L -78.75916290283203 82.1699981689453 L -78.72366333007812 82.14833068847655 L -78.4661636352539 81.97333526611327 L -78.43316650390625 81.94833374023436 L -78.39993286132812 81.9199981689453 L -78.35399627685547 81.88083648681639 L -78.32350158691406 81.85250091552733 L -78.30249786376953 81.82949829101561 L -78.05249786376953 81.56616973876952 L -78.03949737548828 81.5500030517578 L -78.01309967041016 81.51253509521483 L -77.89033508300781 81.3383331298828 L -77.87816619873047 81.32133483886717 L -77.87680053710938 81.31912994384764 L -77.86183166503906 81.2949981689453 L -77.8239974975586 81.22681427001952 L -77.78600311279297 81.15833282470702 L -77.77133178710938 81.13083648681639 L -77.70466613769531 80.98999786376952 L -77.6884994506836 80.95166778564452 L -77.63433074951172 80.80583190917967 L -77.62483215332031 80.77616882324217 L -77.579833984375 80.62699890136717 L -77.57066345214844 80.5865020751953 L -77.51316833496094 80.22816467285155 L -77.5086669921875 80.19733428955077 L -77.50700378417969 80.16616821289061 L -77.50033569335938 80.0103302001953 L -77.5028305053711 79.90616607666014 L -77.50382995605469 79.86466979980467 L -77.51799774169922 79.70966339111327 L -77.52133178710938 79.6786651611328 L -77.54633331298828 79.52532958984374 L -77.55000305175781 79.50499725341795 L -77.6510009765625 79.14499664306639 L -77.6884994506836 79.04833221435545 L -77.75516510009766 78.90750122070311 L -77.7760009765625 78.86000061035155 L -77.79116821289062 78.83266448974608 L -77.8239974975586 78.7759323120117 L -77.89533233642578 78.6526641845703 L -77.90325927734375 78.64036560058592 L -77.90650177001953 78.6353302001953 L -78.02733612060547 78.46700286865233 z" fill="none" stroke="rgb(255,0,0)" stroke-width="0.001mm" />
</svg>