solid CATIA STL
  facet normal -1.000000e+000  0.000000e+000  0.000000e+000
    outer loop
      vertex -1.500000e+002 -2.000000e+002  0.000000e+000
      vertex -1.500000e+002 -2.000000e+002  7.000000e+000
      vertex -1.500000e+002 -8.000000e+001  0.000000e+000
    endloop
  endfacet
  facet normal -1.000000e+000  0.000000e+000  0.000000e+000
    outer loop
      vertex -1.500000e+002 -8.000000e+001  0.000000e+000
      vertex -1.500000e+002 -2.000000e+002  7.000000e+000
      vertex -1.500000e+002 -8.000000e+001  7.000000e+000
    endloop
  endfacet
  facet normal -1.000000e+000  0.000000e+000  0.000000e+000
    outer loop
      vertex -1.500000e+002 -4.000000e+001  0.000000e+000
      vertex -1.500000e+002 -4.000000e+001  7.000000e+000
      vertex -1.500000e+002 -2.000000e+001  0.000000e+000
    endloop
  endfacet
  facet normal -1.000000e+000  0.000000e+000  0.000000e+000
    outer loop
      vertex -1.500000e+002 -2.000000e+001  0.000000e+000
      vertex -1.500000e+002 -4.000000e+001  7.000000e+000
      vertex -1.500000e+002 -2.000000e+001  7.000000e+000
    endloop
  endfacet
  facet normal -1.000000e+000  0.000000e+000  0.000000e+000
    outer loop
      vertex -1.500000e+002  1.000000e+002  0.000000e+000
      vertex -1.500000e+002  1.000000e+002  7.000000e+000
      vertex -1.500000e+002  2.000000e+002  0.000000e+000
    endloop
  endfacet
  facet normal -1.000000e+000  0.000000e+000  0.000000e+000
    outer loop
      vertex -1.500000e+002  2.000000e+002  0.000000e+000
      vertex -1.500000e+002  1.000000e+002  7.000000e+000
      vertex -1.500000e+002  2.000000e+002  7.000000e+000
    endloop
  endfacet
  facet normal -1.000000e+000  0.000000e+000  0.000000e+000
    outer loop
      vertex -1.500000e+002  2.000000e+001  0.000000e+000
      vertex -1.500000e+002  2.000000e+001  7.000000e+000
      vertex -1.500000e+002  4.000000e+001  0.000000e+000
    endloop
  endfacet
  facet normal -1.000000e+000  0.000000e+000  0.000000e+000
    outer loop
      vertex -1.500000e+002  4.000000e+001  0.000000e+000
      vertex -1.500000e+002  2.000000e+001  7.000000e+000
      vertex -1.500000e+002  4.000000e+001  7.000000e+000
    endloop
  endfacet
  facet normal  1.000000e+000  0.000000e+000  0.000000e+000
    outer loop
      vertex  1.500000e+002  2.000000e+002  0.000000e+000
      vertex  1.500000e+002  2.000000e+002  7.000000e+000
      vertex  1.500000e+002  1.000000e+002  0.000000e+000
    endloop
  endfacet
  facet normal  1.000000e+000  0.000000e+000  0.000000e+000
    outer loop
      vertex  1.500000e+002  1.000000e+002  0.000000e+000
      vertex  1.500000e+002  2.000000e+002  7.000000e+000
      vertex  1.500000e+002  1.000000e+002  7.000000e+000
    endloop
  endfacet
  facet normal  1.000000e+000  0.000000e+000  0.000000e+000
    outer loop
      vertex  1.500000e+002  4.000000e+001  0.000000e+000
      vertex  1.500000e+002  4.000000e+001  7.000000e+000
      vertex  1.500000e+002  2.000000e+001  0.000000e+000
    endloop
  endfacet
  facet normal  1.000000e+000  0.000000e+000  0.000000e+000
    outer loop
      vertex  1.500000e+002  2.000000e+001  0.000000e+000
      vertex  1.500000e+002  4.000000e+001  7.000000e+000
      vertex  1.500000e+002  2.000000e+001  7.000000e+000
    endloop
  endfacet
  facet normal  1.000000e+000  0.000000e+000  0.000000e+000
    outer loop
      vertex  1.500000e+002 -8.000000e+001  0.000000e+000
      vertex  1.500000e+002 -8.000000e+001  7.000000e+000
      vertex  1.500000e+002 -2.000000e+002  0.000000e+000
    endloop
  endfacet
  facet normal  1.000000e+000  0.000000e+000  0.000000e+000
    outer loop
      vertex  1.500000e+002 -2.000000e+002  0.000000e+000
      vertex  1.500000e+002 -8.000000e+001  7.000000e+000
      vertex  1.500000e+002 -2.000000e+002  7.000000e+000
    endloop
  endfacet
  facet normal  1.000000e+000  0.000000e+000  0.000000e+000
    outer loop
      vertex  1.500000e+002 -2.000000e+001  0.000000e+000
      vertex  1.500000e+002 -2.000000e+001  7.000000e+000
      vertex  1.500000e+002 -4.000000e+001  0.000000e+000
    endloop
  endfacet
  facet normal  1.000000e+000  0.000000e+000  0.000000e+000
    outer loop
      vertex  1.500000e+002 -4.000000e+001  0.000000e+000
      vertex  1.500000e+002 -2.000000e+001  7.000000e+000
      vertex  1.500000e+002 -4.000000e+001  7.000000e+000
    endloop
  endfacet
  facet normal  -0.000000e+000  -0.000000e+000 -1.000000e+000
    outer loop
      vertex -1.500000e+002  2.000000e+002  0.000000e+000
      vertex -1.200000e+002  2.000000e+002  0.000000e+000
      vertex  1.500000e+002  1.000000e+002  0.000000e+000
    endloop
  endfacet
  facet normal  0.000000e+000  0.000000e+000 -1.000000e+000
    outer loop
      vertex -1.500000e+002  2.000000e+002  0.000000e+000
      vertex  1.500000e+002  1.000000e+002  0.000000e+000
      vertex  1.440000e+002  1.000000e+002  0.000000e+000
    endloop
  endfacet
  facet normal  0.000000e+000  0.000000e+000 -1.000000e+000
    outer loop
      vertex -1.500000e+002  2.000000e+002  0.000000e+000
      vertex  1.440000e+002  1.000000e+002  0.000000e+000
      vertex -1.440000e+002  1.000000e+002  0.000000e+000
    endloop
  endfacet
  facet normal  0.000000e+000  0.000000e+000 -1.000000e+000
    outer loop
      vertex -1.500000e+002  2.000000e+002  0.000000e+000
      vertex -1.440000e+002  1.000000e+002  0.000000e+000
      vertex -1.500000e+002  1.000000e+002  0.000000e+000
    endloop
  endfacet
  facet normal  0.000000e+000  0.000000e+000 -1.000000e+000
    outer loop
      vertex  1.500000e+002  1.000000e+002  0.000000e+000
      vertex -1.200000e+002  2.000000e+002  0.000000e+000
      vertex -9.000000e+001  2.000000e+002  0.000000e+000
    endloop
  endfacet
  facet normal  0.000000e+000  0.000000e+000 -1.000000e+000
    outer loop
      vertex  1.500000e+002  1.000000e+002  0.000000e+000
      vertex -9.000000e+001  2.000000e+002  0.000000e+000
      vertex -6.000000e+001  2.000000e+002  0.000000e+000
    endloop
  endfacet
  facet normal  0.000000e+000  0.000000e+000 -1.000000e+000
    outer loop
      vertex  1.500000e+002  1.000000e+002  0.000000e+000
      vertex -6.000000e+001  2.000000e+002  0.000000e+000
      vertex -3.000000e+001  2.000000e+002  0.000000e+000
    endloop
  endfacet
  facet normal  0.000000e+000  0.000000e+000 -1.000000e+000
    outer loop
      vertex  1.500000e+002  1.000000e+002  0.000000e+000
      vertex -3.000000e+001  2.000000e+002  0.000000e+000
      vertex -1.000000e+001  2.000000e+002  0.000000e+000
    endloop
  endfacet
  facet normal  0.000000e+000  0.000000e+000 -1.000000e+000
    outer loop
      vertex  1.500000e+002  1.000000e+002  0.000000e+000
      vertex -1.000000e+001  2.000000e+002  0.000000e+000
      vertex  1.000000e+001  2.000000e+002  0.000000e+000
    endloop
  endfacet
  facet normal  0.000000e+000  0.000000e+000 -1.000000e+000
    outer loop
      vertex  1.500000e+002  1.000000e+002  0.000000e+000
      vertex  1.000000e+001  2.000000e+002  0.000000e+000
      vertex  3.000000e+001  2.000000e+002  0.000000e+000
    endloop
  endfacet
  facet normal  0.000000e+000  0.000000e+000 -1.000000e+000
    outer loop
      vertex  1.500000e+002  1.000000e+002  0.000000e+000
      vertex  3.000000e+001  2.000000e+002  0.000000e+000
      vertex  6.000000e+001  2.000000e+002  0.000000e+000
    endloop
  endfacet
  facet normal  0.000000e+000  0.000000e+000 -1.000000e+000
    outer loop
      vertex  1.500000e+002  1.000000e+002  0.000000e+000
      vertex  6.000000e+001  2.000000e+002  0.000000e+000
      vertex  9.000000e+001  2.000000e+002  0.000000e+000
    endloop
  endfacet
  facet normal  0.000000e+000  0.000000e+000 -1.000000e+000
    outer loop
      vertex  1.500000e+002  1.000000e+002  0.000000e+000
      vertex  9.000000e+001  2.000000e+002  0.000000e+000
      vertex  1.200000e+002  2.000000e+002  0.000000e+000
    endloop
  endfacet
  facet normal  0.000000e+000  0.000000e+000 -1.000000e+000
    outer loop
      vertex  1.500000e+002  1.000000e+002  0.000000e+000
      vertex  1.200000e+002  2.000000e+002  0.000000e+000
      vertex  1.500000e+002  2.000000e+002  0.000000e+000
    endloop
  endfacet
  facet normal  0.000000e+000  0.000000e+000 -1.000000e+000
    outer loop
      vertex  1.500000e+002  4.000000e+001  0.000000e+000
      vertex  1.500000e+002  2.000000e+001  0.000000e+000
      vertex  1.440000e+002  2.000000e+001  0.000000e+000
    endloop
  endfacet
  facet normal  0.000000e+000  0.000000e+000 -1.000000e+000
    outer loop
      vertex  1.500000e+002  4.000000e+001  0.000000e+000
      vertex  1.440000e+002  2.000000e+001  0.000000e+000
      vertex -1.440000e+002  2.000000e+001  0.000000e+000
    endloop
  endfacet
  facet normal  0.000000e+000  0.000000e+000 -1.000000e+000
    outer loop
      vertex  1.500000e+002  4.000000e+001  0.000000e+000
      vertex -1.440000e+002  2.000000e+001  0.000000e+000
      vertex -1.500000e+002  2.000000e+001  0.000000e+000
    endloop
  endfacet
  facet normal  0.000000e+000  0.000000e+000 -1.000000e+000
    outer loop
      vertex -1.500000e+002  2.000000e+001  0.000000e+000
      vertex -1.500000e+002  4.000000e+001  0.000000e+000
      vertex -1.440000e+002  4.000000e+001  0.000000e+000
    endloop
  endfacet
  facet normal  0.000000e+000  -0.000000e+000 -1.000000e+000
    outer loop
      vertex -1.500000e+002  2.000000e+001  0.000000e+000
      vertex -1.440000e+002  4.000000e+001  0.000000e+000
      vertex  1.440000e+002  4.000000e+001  0.000000e+000
    endloop
  endfacet
  facet normal  0.000000e+000  -0.000000e+000 -1.000000e+000
    outer loop
      vertex -1.500000e+002  2.000000e+001  0.000000e+000
      vertex  1.440000e+002  4.000000e+001  0.000000e+000
      vertex  1.500000e+002  4.000000e+001  0.000000e+000
    endloop
  endfacet
  facet normal  0.000000e+000  0.000000e+000 -1.000000e+000
    outer loop
      vertex  1.500000e+002 -2.000000e+001  0.000000e+000
      vertex  1.500000e+002 -4.000000e+001  0.000000e+000
      vertex  1.440000e+002 -4.000000e+001  0.000000e+000
    endloop
  endfacet
  facet normal  0.000000e+000  0.000000e+000 -1.000000e+000
    outer loop
      vertex  1.500000e+002 -2.000000e+001  0.000000e+000
      vertex  1.440000e+002 -4.000000e+001  0.000000e+000
      vertex -1.440000e+002 -4.000000e+001  0.000000e+000
    endloop
  endfacet
  facet normal  0.000000e+000  0.000000e+000 -1.000000e+000
    outer loop
      vertex  1.500000e+002 -2.000000e+001  0.000000e+000
      vertex -1.440000e+002 -4.000000e+001  0.000000e+000
      vertex -1.500000e+002 -4.000000e+001  0.000000e+000
    endloop
  endfacet
  facet normal  0.000000e+000  0.000000e+000 -1.000000e+000
    outer loop
      vertex -1.500000e+002 -4.000000e+001  0.000000e+000
      vertex -1.500000e+002 -2.000000e+001  0.000000e+000
      vertex -1.440000e+002 -2.000000e+001  0.000000e+000
    endloop
  endfacet
  facet normal  0.000000e+000  -0.000000e+000 -1.000000e+000
    outer loop
      vertex -1.500000e+002 -4.000000e+001  0.000000e+000
      vertex -1.440000e+002 -2.000000e+001  0.000000e+000
      vertex  1.440000e+002 -2.000000e+001  0.000000e+000
    endloop
  endfacet
  facet normal  0.000000e+000  -0.000000e+000 -1.000000e+000
    outer loop
      vertex -1.500000e+002 -4.000000e+001  0.000000e+000
      vertex  1.440000e+002 -2.000000e+001  0.000000e+000
      vertex  1.500000e+002 -2.000000e+001  0.000000e+000
    endloop
  endfacet
  facet normal  0.000000e+000  0.000000e+000 -1.000000e+000
    outer loop
      vertex  1.500000e+002 -8.000000e+001  0.000000e+000
      vertex  1.500000e+002 -2.000000e+002  0.000000e+000
      vertex  1.200000e+002 -2.000000e+002  0.000000e+000
    endloop
  endfacet
  facet normal  0.000000e+000  0.000000e+000 -1.000000e+000
    outer loop
      vertex  1.500000e+002 -8.000000e+001  0.000000e+000
      vertex  1.200000e+002 -2.000000e+002  0.000000e+000
      vertex  9.000000e+001 -2.000000e+002  0.000000e+000
    endloop
  endfacet
  facet normal  0.000000e+000  0.000000e+000 -1.000000e+000
    outer loop
      vertex  1.500000e+002 -8.000000e+001  0.000000e+000
      vertex  9.000000e+001 -2.000000e+002  0.000000e+000
      vertex  6.000000e+001 -2.000000e+002  0.000000e+000
    endloop
  endfacet
  facet normal  0.000000e+000  0.000000e+000 -1.000000e+000
    outer loop
      vertex  1.500000e+002 -8.000000e+001  0.000000e+000
      vertex  6.000000e+001 -2.000000e+002  0.000000e+000
      vertex  3.000000e+001 -2.000000e+002  0.000000e+000
    endloop
  endfacet
  facet normal  0.000000e+000  0.000000e+000 -1.000000e+000
    outer loop
      vertex  1.500000e+002 -8.000000e+001  0.000000e+000
      vertex  3.000000e+001 -2.000000e+002  0.000000e+000
      vertex  1.000000e+001 -2.000000e+002  0.000000e+000
    endloop
  endfacet
  facet normal  0.000000e+000  0.000000e+000 -1.000000e+000
    outer loop
      vertex  1.500000e+002 -8.000000e+001  0.000000e+000
      vertex  1.000000e+001 -2.000000e+002  0.000000e+000
      vertex -1.000000e+001 -2.000000e+002  0.000000e+000
    endloop
  endfacet
  facet normal  0.000000e+000  0.000000e+000 -1.000000e+000
    outer loop
      vertex  1.500000e+002 -8.000000e+001  0.000000e+000
      vertex -1.000000e+001 -2.000000e+002  0.000000e+000
      vertex -3.000000e+001 -2.000000e+002  0.000000e+000
    endloop
  endfacet
  facet normal  0.000000e+000  0.000000e+000 -1.000000e+000
    outer loop
      vertex  1.500000e+002 -8.000000e+001  0.000000e+000
      vertex -3.000000e+001 -2.000000e+002  0.000000e+000
      vertex -6.000000e+001 -2.000000e+002  0.000000e+000
    endloop
  endfacet
  facet normal  0.000000e+000  0.000000e+000 -1.000000e+000
    outer loop
      vertex  1.500000e+002 -8.000000e+001  0.000000e+000
      vertex -6.000000e+001 -2.000000e+002  0.000000e+000
      vertex -9.000000e+001 -2.000000e+002  0.000000e+000
    endloop
  endfacet
  facet normal  0.000000e+000  0.000000e+000 -1.000000e+000
    outer loop
      vertex  1.500000e+002 -8.000000e+001  0.000000e+000
      vertex -9.000000e+001 -2.000000e+002  0.000000e+000
      vertex -1.200000e+002 -2.000000e+002  0.000000e+000
    endloop
  endfacet
  facet normal  0.000000e+000  0.000000e+000 -1.000000e+000
    outer loop
      vertex  1.500000e+002 -8.000000e+001  0.000000e+000
      vertex -1.200000e+002 -2.000000e+002  0.000000e+000
      vertex -1.500000e+002 -2.000000e+002  0.000000e+000
    endloop
  endfacet
  facet normal  0.000000e+000  0.000000e+000 -1.000000e+000
    outer loop
      vertex -1.500000e+002 -2.000000e+002  0.000000e+000
      vertex -1.500000e+002 -8.000000e+001  0.000000e+000
      vertex -1.440000e+002 -8.000000e+001  0.000000e+000
    endloop
  endfacet
  facet normal  0.000000e+000  -0.000000e+000 -1.000000e+000
    outer loop
      vertex -1.500000e+002 -2.000000e+002  0.000000e+000
      vertex -1.440000e+002 -8.000000e+001  0.000000e+000
      vertex  1.440000e+002 -8.000000e+001  0.000000e+000
    endloop
  endfacet
  facet normal  0.000000e+000  -0.000000e+000 -1.000000e+000
    outer loop
      vertex -1.500000e+002 -2.000000e+002  0.000000e+000
      vertex  1.440000e+002 -8.000000e+001  0.000000e+000
      vertex  1.500000e+002 -8.000000e+001  0.000000e+000
    endloop
  endfacet
  facet normal  0.000000e+000  0.000000e+000 -1.000000e+000
    outer loop
      vertex  1.000000e+001 -2.060000e+002  0.000000e+000
      vertex -1.000000e+001 -2.060000e+002  0.000000e+000
      vertex  1.000000e+001 -2.000000e+002  0.000000e+000
    endloop
  endfacet
  facet normal  -0.000000e+000  0.000000e+000 -1.000000e+000
    outer loop
      vertex  1.000000e+001 -2.000000e+002  0.000000e+000
      vertex -1.000000e+001 -2.060000e+002  0.000000e+000
      vertex -1.000000e+001 -2.000000e+002  0.000000e+000
    endloop
  endfacet
  facet normal  0.000000e+000  0.000000e+000 -1.000000e+000
    outer loop
      vertex -3.000000e+001 -2.060000e+002  0.000000e+000
      vertex -6.000000e+001 -2.060000e+002  0.000000e+000
      vertex -3.000000e+001 -2.000000e+002  0.000000e+000
    endloop
  endfacet
  facet normal  -0.000000e+000  0.000000e+000 -1.000000e+000
    outer loop
      vertex -3.000000e+001 -2.000000e+002  0.000000e+000
      vertex -6.000000e+001 -2.060000e+002  0.000000e+000
      vertex -6.000000e+001 -2.000000e+002  0.000000e+000
    endloop
  endfacet
  facet normal  0.000000e+000  0.000000e+000 -1.000000e+000
    outer loop
      vertex -9.000000e+001 -2.060000e+002  0.000000e+000
      vertex -1.200000e+002 -2.060000e+002  0.000000e+000
      vertex -9.000000e+001 -2.000000e+002  0.000000e+000
    endloop
  endfacet
  facet normal  -0.000000e+000  0.000000e+000 -1.000000e+000
    outer loop
      vertex -9.000000e+001 -2.000000e+002  0.000000e+000
      vertex -1.200000e+002 -2.060000e+002  0.000000e+000
      vertex -1.200000e+002 -2.000000e+002  0.000000e+000
    endloop
  endfacet
  facet normal  0.000000e+000  0.000000e+000 -1.000000e+000
    outer loop
      vertex -3.000000e+001  2.000000e+002  0.000000e+000
      vertex -6.000000e+001  2.000000e+002  0.000000e+000
      vertex -3.000000e+001  2.060000e+002  0.000000e+000
    endloop
  endfacet
  facet normal  -0.000000e+000  0.000000e+000 -1.000000e+000
    outer loop
      vertex -3.000000e+001  2.060000e+002  0.000000e+000
      vertex -6.000000e+001  2.000000e+002  0.000000e+000
      vertex -6.000000e+001  2.060000e+002  0.000000e+000
    endloop
  endfacet
  facet normal  0.000000e+000  0.000000e+000 -1.000000e+000
    outer loop
      vertex  1.000000e+001  2.000000e+002  0.000000e+000
      vertex -1.000000e+001  2.000000e+002  0.000000e+000
      vertex  1.000000e+001  2.060000e+002  0.000000e+000
    endloop
  endfacet
  facet normal  -0.000000e+000  0.000000e+000 -1.000000e+000
    outer loop
      vertex  1.000000e+001  2.060000e+002  0.000000e+000
      vertex -1.000000e+001  2.000000e+002  0.000000e+000
      vertex -1.000000e+001  2.060000e+002  0.000000e+000
    endloop
  endfacet
  facet normal  0.000000e+000  0.000000e+000 -1.000000e+000
    outer loop
      vertex  6.000000e+001  2.000000e+002  0.000000e+000
      vertex  3.000000e+001  2.000000e+002  0.000000e+000
      vertex  6.000000e+001  2.060000e+002  0.000000e+000
    endloop
  endfacet
  facet normal  -0.000000e+000  0.000000e+000 -1.000000e+000
    outer loop
      vertex  6.000000e+001  2.060000e+002  0.000000e+000
      vertex  3.000000e+001  2.000000e+002  0.000000e+000
      vertex  3.000000e+001  2.060000e+002  0.000000e+000
    endloop
  endfacet
  facet normal  0.000000e+000  0.000000e+000 -1.000000e+000
    outer loop
      vertex  1.200000e+002  2.000000e+002  0.000000e+000
      vertex  9.000000e+001  2.000000e+002  0.000000e+000
      vertex  1.200000e+002  2.060000e+002  0.000000e+000
    endloop
  endfacet
  facet normal  -0.000000e+000  0.000000e+000 -1.000000e+000
    outer loop
      vertex  1.200000e+002  2.060000e+002  0.000000e+000
      vertex  9.000000e+001  2.000000e+002  0.000000e+000
      vertex  9.000000e+001  2.060000e+002  0.000000e+000
    endloop
  endfacet
  facet normal  0.000000e+000  0.000000e+000 -1.000000e+000
    outer loop
      vertex -9.000000e+001  2.000000e+002  0.000000e+000
      vertex -1.200000e+002  2.000000e+002  0.000000e+000
      vertex -9.000000e+001  2.060000e+002  0.000000e+000
    endloop
  endfacet
  facet normal  -0.000000e+000  0.000000e+000 -1.000000e+000
    outer loop
      vertex -9.000000e+001  2.060000e+002  0.000000e+000
      vertex -1.200000e+002  2.000000e+002  0.000000e+000
      vertex -1.200000e+002  2.060000e+002  0.000000e+000
    endloop
  endfacet
  facet normal  0.000000e+000  0.000000e+000 -1.000000e+000
    outer loop
      vertex  1.440000e+002  4.000000e+001  0.000000e+000
      vertex -1.440000e+002  4.000000e+001  0.000000e+000
      vertex  1.440000e+002  1.000000e+002  0.000000e+000
    endloop
  endfacet
  facet normal  -0.000000e+000  0.000000e+000 -1.000000e+000
    outer loop
      vertex  1.440000e+002  1.000000e+002  0.000000e+000
      vertex -1.440000e+002  4.000000e+001  0.000000e+000
      vertex -1.440000e+002  1.000000e+002  0.000000e+000
    endloop
  endfacet
  facet normal  0.000000e+000  0.000000e+000 -1.000000e+000
    outer loop
      vertex  1.440000e+002 -2.000000e+001  0.000000e+000
      vertex -1.440000e+002 -2.000000e+001  0.000000e+000
      vertex  1.440000e+002  2.000000e+001  0.000000e+000
    endloop
  endfacet
  facet normal  -0.000000e+000  0.000000e+000 -1.000000e+000
    outer loop
      vertex  1.440000e+002  2.000000e+001  0.000000e+000
      vertex -1.440000e+002 -2.000000e+001  0.000000e+000
      vertex -1.440000e+002  2.000000e+001  0.000000e+000
    endloop
  endfacet
  facet normal  0.000000e+000  0.000000e+000 -1.000000e+000
    outer loop
      vertex  1.440000e+002 -8.000000e+001  0.000000e+000
      vertex -1.440000e+002 -8.000000e+001  0.000000e+000
      vertex  1.440000e+002 -4.000000e+001  0.000000e+000
    endloop
  endfacet
  facet normal  -0.000000e+000  0.000000e+000 -1.000000e+000
    outer loop
      vertex  1.440000e+002 -4.000000e+001  0.000000e+000
      vertex -1.440000e+002 -8.000000e+001  0.000000e+000
      vertex -1.440000e+002 -4.000000e+001  0.000000e+000
    endloop
  endfacet
  facet normal  0.000000e+000  0.000000e+000 -1.000000e+000
    outer loop
      vertex  1.200000e+002 -2.060000e+002  0.000000e+000
      vertex  9.000000e+001 -2.060000e+002  0.000000e+000
      vertex  1.200000e+002 -2.000000e+002  0.000000e+000
    endloop
  endfacet
  facet normal  -0.000000e+000  0.000000e+000 -1.000000e+000
    outer loop
      vertex  1.200000e+002 -2.000000e+002  0.000000e+000
      vertex  9.000000e+001 -2.060000e+002  0.000000e+000
      vertex  9.000000e+001 -2.000000e+002  0.000000e+000
    endloop
  endfacet
  facet normal  0.000000e+000  0.000000e+000 -1.000000e+000
    outer loop
      vertex  6.000000e+001 -2.060000e+002  0.000000e+000
      vertex  3.000000e+001 -2.060000e+002  0.000000e+000
      vertex  6.000000e+001 -2.000000e+002  0.000000e+000
    endloop
  endfacet
  facet normal  -0.000000e+000  0.000000e+000 -1.000000e+000
    outer loop
      vertex  6.000000e+001 -2.000000e+002  0.000000e+000
      vertex  3.000000e+001 -2.060000e+002  0.000000e+000
      vertex  3.000000e+001 -2.000000e+002  0.000000e+000
    endloop
  endfacet
  facet normal  0.000000e+000  0.000000e+000  1.000000e+000
    outer loop
      vertex -1.500000e+002  2.000000e+002  7.000000e+000
      vertex -1.500000e+002  1.000000e+002  7.000000e+000
      vertex -1.440000e+002  1.000000e+002  7.000000e+000
    endloop
  endfacet
  facet normal  0.000000e+000  -0.000000e+000  1.000000e+000
    outer loop
      vertex -1.500000e+002  2.000000e+002  7.000000e+000
      vertex -1.440000e+002  1.000000e+002  7.000000e+000
      vertex  1.440000e+002  1.000000e+002  7.000000e+000
    endloop
  endfacet
  facet normal  0.000000e+000  -0.000000e+000  1.000000e+000
    outer loop
      vertex -1.500000e+002  2.000000e+002  7.000000e+000
      vertex  1.440000e+002  1.000000e+002  7.000000e+000
      vertex  1.500000e+002  1.000000e+002  7.000000e+000
    endloop
  endfacet
  facet normal  0.000000e+000  0.000000e+000  1.000000e+000
    outer loop
      vertex -1.500000e+002  2.000000e+002  7.000000e+000
      vertex  1.500000e+002  1.000000e+002  7.000000e+000
      vertex -1.200000e+002  2.000000e+002  7.000000e+000
    endloop
  endfacet
  facet normal  0.000000e+000  0.000000e+000  1.000000e+000
    outer loop
      vertex  1.500000e+002  1.000000e+002  7.000000e+000
      vertex  1.500000e+002  2.000000e+002  7.000000e+000
      vertex  1.200000e+002  2.000000e+002  7.000000e+000
    endloop
  endfacet
  facet normal  0.000000e+000  0.000000e+000  1.000000e+000
    outer loop
      vertex  1.500000e+002  1.000000e+002  7.000000e+000
      vertex  1.200000e+002  2.000000e+002  7.000000e+000
      vertex  9.000000e+001  2.000000e+002  7.000000e+000
    endloop
  endfacet
  facet normal  0.000000e+000  0.000000e+000  1.000000e+000
    outer loop
      vertex  1.500000e+002  1.000000e+002  7.000000e+000
      vertex  9.000000e+001  2.000000e+002  7.000000e+000
      vertex  6.000000e+001  2.000000e+002  7.000000e+000
    endloop
  endfacet
  facet normal  0.000000e+000  0.000000e+000  1.000000e+000
    outer loop
      vertex  1.500000e+002  1.000000e+002  7.000000e+000
      vertex  6.000000e+001  2.000000e+002  7.000000e+000
      vertex  3.000000e+001  2.000000e+002  7.000000e+000
    endloop
  endfacet
  facet normal  0.000000e+000  0.000000e+000  1.000000e+000
    outer loop
      vertex  1.500000e+002  1.000000e+002  7.000000e+000
      vertex  3.000000e+001  2.000000e+002  7.000000e+000
      vertex  1.000000e+001  2.000000e+002  7.000000e+000
    endloop
  endfacet
  facet normal  0.000000e+000  0.000000e+000  1.000000e+000
    outer loop
      vertex  1.500000e+002  1.000000e+002  7.000000e+000
      vertex  1.000000e+001  2.000000e+002  7.000000e+000
      vertex -1.000000e+001  2.000000e+002  7.000000e+000
    endloop
  endfacet
  facet normal  0.000000e+000  0.000000e+000  1.000000e+000
    outer loop
      vertex  1.500000e+002  1.000000e+002  7.000000e+000
      vertex -1.000000e+001  2.000000e+002  7.000000e+000
      vertex -3.000000e+001  2.000000e+002  7.000000e+000
    endloop
  endfacet
  facet normal  0.000000e+000  0.000000e+000  1.000000e+000
    outer loop
      vertex  1.500000e+002  1.000000e+002  7.000000e+000
      vertex -3.000000e+001  2.000000e+002  7.000000e+000
      vertex -6.000000e+001  2.000000e+002  7.000000e+000
    endloop
  endfacet
  facet normal  0.000000e+000  0.000000e+000  1.000000e+000
    outer loop
      vertex  1.500000e+002  1.000000e+002  7.000000e+000
      vertex -6.000000e+001  2.000000e+002  7.000000e+000
      vertex -9.000000e+001  2.000000e+002  7.000000e+000
    endloop
  endfacet
  facet normal  0.000000e+000  0.000000e+000  1.000000e+000
    outer loop
      vertex  1.500000e+002  1.000000e+002  7.000000e+000
      vertex -9.000000e+001  2.000000e+002  7.000000e+000
      vertex -1.200000e+002  2.000000e+002  7.000000e+000
    endloop
  endfacet
  facet normal  0.000000e+000  0.000000e+000  1.000000e+000
    outer loop
      vertex  1.500000e+002  4.000000e+001  7.000000e+000
      vertex -1.500000e+002  2.000000e+001  7.000000e+000
      vertex -1.440000e+002  2.000000e+001  7.000000e+000
    endloop
  endfacet
  facet normal  0.000000e+000  0.000000e+000  1.000000e+000
    outer loop
      vertex  1.500000e+002  4.000000e+001  7.000000e+000
      vertex -1.440000e+002  2.000000e+001  7.000000e+000
      vertex  1.440000e+002  2.000000e+001  7.000000e+000
    endloop
  endfacet
  facet normal  0.000000e+000  0.000000e+000  1.000000e+000
    outer loop
      vertex  1.500000e+002  4.000000e+001  7.000000e+000
      vertex  1.440000e+002  2.000000e+001  7.000000e+000
      vertex  1.500000e+002  2.000000e+001  7.000000e+000
    endloop
  endfacet
  facet normal  0.000000e+000  0.000000e+000  1.000000e+000
    outer loop
      vertex -1.500000e+002  2.000000e+001  7.000000e+000
      vertex  1.500000e+002  4.000000e+001  7.000000e+000
      vertex  1.440000e+002  4.000000e+001  7.000000e+000
    endloop
  endfacet
  facet normal  0.000000e+000  0.000000e+000  1.000000e+000
    outer loop
      vertex -1.500000e+002  2.000000e+001  7.000000e+000
      vertex  1.440000e+002  4.000000e+001  7.000000e+000
      vertex -1.440000e+002  4.000000e+001  7.000000e+000
    endloop
  endfacet
  facet normal  0.000000e+000  0.000000e+000  1.000000e+000
    outer loop
      vertex -1.500000e+002  2.000000e+001  7.000000e+000
      vertex -1.440000e+002  4.000000e+001  7.000000e+000
      vertex -1.500000e+002  4.000000e+001  7.000000e+000
    endloop
  endfacet
  facet normal  0.000000e+000  0.000000e+000  1.000000e+000
    outer loop
      vertex  1.500000e+002 -2.000000e+001  7.000000e+000
      vertex -1.500000e+002 -4.000000e+001  7.000000e+000
      vertex -1.440000e+002 -4.000000e+001  7.000000e+000
    endloop
  endfacet
  facet normal  0.000000e+000  0.000000e+000  1.000000e+000
    outer loop
      vertex  1.500000e+002 -2.000000e+001  7.000000e+000
      vertex -1.440000e+002 -4.000000e+001  7.000000e+000
      vertex  1.440000e+002 -4.000000e+001  7.000000e+000
    endloop
  endfacet
  facet normal  0.000000e+000  0.000000e+000  1.000000e+000
    outer loop
      vertex  1.500000e+002 -2.000000e+001  7.000000e+000
      vertex  1.440000e+002 -4.000000e+001  7.000000e+000
      vertex  1.500000e+002 -4.000000e+001  7.000000e+000
    endloop
  endfacet
  facet normal  0.000000e+000  0.000000e+000  1.000000e+000
    outer loop
      vertex -1.500000e+002 -4.000000e+001  7.000000e+000
      vertex  1.500000e+002 -2.000000e+001  7.000000e+000
      vertex  1.440000e+002 -2.000000e+001  7.000000e+000
    endloop
  endfacet
  facet normal  0.000000e+000  0.000000e+000  1.000000e+000
    outer loop
      vertex -1.500000e+002 -4.000000e+001  7.000000e+000
      vertex  1.440000e+002 -2.000000e+001  7.000000e+000
      vertex -1.440000e+002 -2.000000e+001  7.000000e+000
    endloop
  endfacet
  facet normal  0.000000e+000  0.000000e+000  1.000000e+000
    outer loop
      vertex -1.500000e+002 -4.000000e+001  7.000000e+000
      vertex -1.440000e+002 -2.000000e+001  7.000000e+000
      vertex -1.500000e+002 -2.000000e+001  7.000000e+000
    endloop
  endfacet
  facet normal  0.000000e+000  0.000000e+000  1.000000e+000
    outer loop
      vertex  1.500000e+002 -8.000000e+001  7.000000e+000
      vertex -1.500000e+002 -2.000000e+002  7.000000e+000
      vertex -1.200000e+002 -2.000000e+002  7.000000e+000
    endloop
  endfacet
  facet normal  0.000000e+000  0.000000e+000  1.000000e+000
    outer loop
      vertex  1.500000e+002 -8.000000e+001  7.000000e+000
      vertex -1.200000e+002 -2.000000e+002  7.000000e+000
      vertex -9.000000e+001 -2.000000e+002  7.000000e+000
    endloop
  endfacet
  facet normal  0.000000e+000  0.000000e+000  1.000000e+000
    outer loop
      vertex  1.500000e+002 -8.000000e+001  7.000000e+000
      vertex -9.000000e+001 -2.000000e+002  7.000000e+000
      vertex -6.000000e+001 -2.000000e+002  7.000000e+000
    endloop
  endfacet
  facet normal  0.000000e+000  0.000000e+000  1.000000e+000
    outer loop
      vertex  1.500000e+002 -8.000000e+001  7.000000e+000
      vertex -6.000000e+001 -2.000000e+002  7.000000e+000
      vertex -3.000000e+001 -2.000000e+002  7.000000e+000
    endloop
  endfacet
  facet normal  0.000000e+000  0.000000e+000  1.000000e+000
    outer loop
      vertex  1.500000e+002 -8.000000e+001  7.000000e+000
      vertex -3.000000e+001 -2.000000e+002  7.000000e+000
      vertex -1.000000e+001 -2.000000e+002  7.000000e+000
    endloop
  endfacet
  facet normal  0.000000e+000  0.000000e+000  1.000000e+000
    outer loop
      vertex  1.500000e+002 -8.000000e+001  7.000000e+000
      vertex -1.000000e+001 -2.000000e+002  7.000000e+000
      vertex  1.000000e+001 -2.000000e+002  7.000000e+000
    endloop
  endfacet
  facet normal  0.000000e+000  0.000000e+000  1.000000e+000
    outer loop
      vertex  1.500000e+002 -8.000000e+001  7.000000e+000
      vertex  1.000000e+001 -2.000000e+002  7.000000e+000
      vertex  3.000000e+001 -2.000000e+002  7.000000e+000
    endloop
  endfacet
  facet normal  0.000000e+000  0.000000e+000  1.000000e+000
    outer loop
      vertex  1.500000e+002 -8.000000e+001  7.000000e+000
      vertex  3.000000e+001 -2.000000e+002  7.000000e+000
      vertex  6.000000e+001 -2.000000e+002  7.000000e+000
    endloop
  endfacet
  facet normal  0.000000e+000  0.000000e+000  1.000000e+000
    outer loop
      vertex  1.500000e+002 -8.000000e+001  7.000000e+000
      vertex  6.000000e+001 -2.000000e+002  7.000000e+000
      vertex  9.000000e+001 -2.000000e+002  7.000000e+000
    endloop
  endfacet
  facet normal  0.000000e+000  0.000000e+000  1.000000e+000
    outer loop
      vertex  1.500000e+002 -8.000000e+001  7.000000e+000
      vertex  9.000000e+001 -2.000000e+002  7.000000e+000
      vertex  1.200000e+002 -2.000000e+002  7.000000e+000
    endloop
  endfacet
  facet normal  0.000000e+000  0.000000e+000  1.000000e+000
    outer loop
      vertex  1.500000e+002 -8.000000e+001  7.000000e+000
      vertex  1.200000e+002 -2.000000e+002  7.000000e+000
      vertex  1.500000e+002 -2.000000e+002  7.000000e+000
    endloop
  endfacet
  facet normal  0.000000e+000  0.000000e+000  1.000000e+000
    outer loop
      vertex -1.500000e+002 -2.000000e+002  7.000000e+000
      vertex  1.500000e+002 -8.000000e+001  7.000000e+000
      vertex  1.440000e+002 -8.000000e+001  7.000000e+000
    endloop
  endfacet
  facet normal  0.000000e+000  0.000000e+000  1.000000e+000
    outer loop
      vertex -1.500000e+002 -2.000000e+002  7.000000e+000
      vertex  1.440000e+002 -8.000000e+001  7.000000e+000
      vertex -1.440000e+002 -8.000000e+001  7.000000e+000
    endloop
  endfacet
  facet normal  0.000000e+000  0.000000e+000  1.000000e+000
    outer loop
      vertex -1.500000e+002 -2.000000e+002  7.000000e+000
      vertex -1.440000e+002 -8.000000e+001  7.000000e+000
      vertex -1.500000e+002 -8.000000e+001  7.000000e+000
    endloop
  endfacet
  facet normal  0.000000e+000  0.000000e+000  1.000000e+000
    outer loop
      vertex -1.000000e+001 -2.060000e+002  7.000000e+000
      vertex  1.000000e+001 -2.060000e+002  7.000000e+000
      vertex -1.000000e+001 -2.000000e+002  7.000000e+000
    endloop
  endfacet
  facet normal  -0.000000e+000  0.000000e+000  1.000000e+000
    outer loop
      vertex -1.000000e+001 -2.000000e+002  7.000000e+000
      vertex  1.000000e+001 -2.060000e+002  7.000000e+000
      vertex  1.000000e+001 -2.000000e+002  7.000000e+000
    endloop
  endfacet
  facet normal  0.000000e+000  0.000000e+000  1.000000e+000
    outer loop
      vertex -6.000000e+001 -2.060000e+002  7.000000e+000
      vertex -3.000000e+001 -2.060000e+002  7.000000e+000
      vertex -6.000000e+001 -2.000000e+002  7.000000e+000
    endloop
  endfacet
  facet normal  -0.000000e+000  0.000000e+000  1.000000e+000
    outer loop
      vertex -6.000000e+001 -2.000000e+002  7.000000e+000
      vertex -3.000000e+001 -2.060000e+002  7.000000e+000
      vertex -3.000000e+001 -2.000000e+002  7.000000e+000
    endloop
  endfacet
  facet normal  0.000000e+000  0.000000e+000  1.000000e+000
    outer loop
      vertex -1.200000e+002 -2.060000e+002  7.000000e+000
      vertex -9.000000e+001 -2.060000e+002  7.000000e+000
      vertex -1.200000e+002 -2.000000e+002  7.000000e+000
    endloop
  endfacet
  facet normal  -0.000000e+000  0.000000e+000  1.000000e+000
    outer loop
      vertex -1.200000e+002 -2.000000e+002  7.000000e+000
      vertex -9.000000e+001 -2.060000e+002  7.000000e+000
      vertex -9.000000e+001 -2.000000e+002  7.000000e+000
    endloop
  endfacet
  facet normal  0.000000e+000  0.000000e+000  1.000000e+000
    outer loop
      vertex -6.000000e+001  2.000000e+002  7.000000e+000
      vertex -3.000000e+001  2.000000e+002  7.000000e+000
      vertex -6.000000e+001  2.060000e+002  7.000000e+000
    endloop
  endfacet
  facet normal  -0.000000e+000  0.000000e+000  1.000000e+000
    outer loop
      vertex -6.000000e+001  2.060000e+002  7.000000e+000
      vertex -3.000000e+001  2.000000e+002  7.000000e+000
      vertex -3.000000e+001  2.060000e+002  7.000000e+000
    endloop
  endfacet
  facet normal  0.000000e+000  0.000000e+000  1.000000e+000
    outer loop
      vertex -1.000000e+001  2.000000e+002  7.000000e+000
      vertex  1.000000e+001  2.000000e+002  7.000000e+000
      vertex -1.000000e+001  2.060000e+002  7.000000e+000
    endloop
  endfacet
  facet normal  -0.000000e+000  0.000000e+000  1.000000e+000
    outer loop
      vertex -1.000000e+001  2.060000e+002  7.000000e+000
      vertex  1.000000e+001  2.000000e+002  7.000000e+000
      vertex  1.000000e+001  2.060000e+002  7.000000e+000
    endloop
  endfacet
  facet normal  0.000000e+000  0.000000e+000  1.000000e+000
    outer loop
      vertex  3.000000e+001  2.000000e+002  7.000000e+000
      vertex  6.000000e+001  2.000000e+002  7.000000e+000
      vertex  3.000000e+001  2.060000e+002  7.000000e+000
    endloop
  endfacet
  facet normal  -0.000000e+000  0.000000e+000  1.000000e+000
    outer loop
      vertex  3.000000e+001  2.060000e+002  7.000000e+000
      vertex  6.000000e+001  2.000000e+002  7.000000e+000
      vertex  6.000000e+001  2.060000e+002  7.000000e+000
    endloop
  endfacet
  facet normal  0.000000e+000  0.000000e+000  1.000000e+000
    outer loop
      vertex  9.000000e+001  2.000000e+002  7.000000e+000
      vertex  1.200000e+002  2.000000e+002  7.000000e+000
      vertex  9.000000e+001  2.060000e+002  7.000000e+000
    endloop
  endfacet
  facet normal  -0.000000e+000  0.000000e+000  1.000000e+000
    outer loop
      vertex  9.000000e+001  2.060000e+002  7.000000e+000
      vertex  1.200000e+002  2.000000e+002  7.000000e+000
      vertex  1.200000e+002  2.060000e+002  7.000000e+000
    endloop
  endfacet
  facet normal  0.000000e+000  0.000000e+000  1.000000e+000
    outer loop
      vertex -1.200000e+002  2.000000e+002  7.000000e+000
      vertex -9.000000e+001  2.000000e+002  7.000000e+000
      vertex -1.200000e+002  2.060000e+002  7.000000e+000
    endloop
  endfacet
  facet normal  -0.000000e+000  0.000000e+000  1.000000e+000
    outer loop
      vertex -1.200000e+002  2.060000e+002  7.000000e+000
      vertex -9.000000e+001  2.000000e+002  7.000000e+000
      vertex -9.000000e+001  2.060000e+002  7.000000e+000
    endloop
  endfacet
  facet normal  0.000000e+000  0.000000e+000  1.000000e+000
    outer loop
      vertex -1.440000e+002  4.000000e+001  7.000000e+000
      vertex  1.440000e+002  4.000000e+001  7.000000e+000
      vertex -1.440000e+002  1.000000e+002  7.000000e+000
    endloop
  endfacet
  facet normal  -0.000000e+000  0.000000e+000  1.000000e+000
    outer loop
      vertex -1.440000e+002  1.000000e+002  7.000000e+000
      vertex  1.440000e+002  4.000000e+001  7.000000e+000
      vertex  1.440000e+002  1.000000e+002  7.000000e+000
    endloop
  endfacet
  facet normal  0.000000e+000  0.000000e+000  1.000000e+000
    outer loop
      vertex -1.440000e+002 -2.000000e+001  7.000000e+000
      vertex  1.440000e+002 -2.000000e+001  7.000000e+000
      vertex -1.440000e+002  2.000000e+001  7.000000e+000
    endloop
  endfacet
  facet normal  -0.000000e+000  0.000000e+000  1.000000e+000
    outer loop
      vertex -1.440000e+002  2.000000e+001  7.000000e+000
      vertex  1.440000e+002 -2.000000e+001  7.000000e+000
      vertex  1.440000e+002  2.000000e+001  7.000000e+000
    endloop
  endfacet
  facet normal  0.000000e+000  0.000000e+000  1.000000e+000
    outer loop
      vertex -1.440000e+002 -8.000000e+001  7.000000e+000
      vertex  1.440000e+002 -8.000000e+001  7.000000e+000
      vertex -1.440000e+002 -4.000000e+001  7.000000e+000
    endloop
  endfacet
  facet normal  -0.000000e+000  0.000000e+000  1.000000e+000
    outer loop
      vertex -1.440000e+002 -4.000000e+001  7.000000e+000
      vertex  1.440000e+002 -8.000000e+001  7.000000e+000
      vertex  1.440000e+002 -4.000000e+001  7.000000e+000
    endloop
  endfacet
  facet normal  0.000000e+000  0.000000e+000  1.000000e+000
    outer loop
      vertex  9.000000e+001 -2.060000e+002  7.000000e+000
      vertex  1.200000e+002 -2.060000e+002  7.000000e+000
      vertex  9.000000e+001 -2.000000e+002  7.000000e+000
    endloop
  endfacet
  facet normal  -0.000000e+000  0.000000e+000  1.000000e+000
    outer loop
      vertex  9.000000e+001 -2.000000e+002  7.000000e+000
      vertex  1.200000e+002 -2.060000e+002  7.000000e+000
      vertex  1.200000e+002 -2.000000e+002  7.000000e+000
    endloop
  endfacet
  facet normal  0.000000e+000  0.000000e+000  1.000000e+000
    outer loop
      vertex  3.000000e+001 -2.060000e+002  7.000000e+000
      vertex  6.000000e+001 -2.060000e+002  7.000000e+000
      vertex  3.000000e+001 -2.000000e+002  7.000000e+000
    endloop
  endfacet
  facet normal  -0.000000e+000  0.000000e+000  1.000000e+000
    outer loop
      vertex  3.000000e+001 -2.000000e+002  7.000000e+000
      vertex  6.000000e+001 -2.060000e+002  7.000000e+000
      vertex  6.000000e+001 -2.000000e+002  7.000000e+000
    endloop
  endfacet
  facet normal  0.000000e+000 -1.000000e+000  0.000000e+000
    outer loop
      vertex -1.500000e+002 -4.000000e+001  7.000000e+000
      vertex -1.500000e+002 -4.000000e+001  0.000000e+000
      vertex -1.440000e+002 -4.000000e+001  7.000000e+000
    endloop
  endfacet
  facet normal  0.000000e+000 -1.000000e+000  -0.000000e+000
    outer loop
      vertex -1.440000e+002 -4.000000e+001  7.000000e+000
      vertex -1.500000e+002 -4.000000e+001  0.000000e+000
      vertex -1.440000e+002 -4.000000e+001  0.000000e+000
    endloop
  endfacet
  facet normal  0.000000e+000  1.000000e+000  -0.000000e+000
    outer loop
      vertex -1.440000e+002 -8.000000e+001  7.000000e+000
      vertex -1.440000e+002 -8.000000e+001  0.000000e+000
      vertex -1.500000e+002 -8.000000e+001  7.000000e+000
    endloop
  endfacet
  facet normal  0.000000e+000  1.000000e+000  0.000000e+000
    outer loop
      vertex -1.500000e+002 -8.000000e+001  7.000000e+000
      vertex -1.440000e+002 -8.000000e+001  0.000000e+000
      vertex -1.500000e+002 -8.000000e+001  0.000000e+000
    endloop
  endfacet
  facet normal -1.000000e+000  0.000000e+000  0.000000e+000
    outer loop
      vertex -1.440000e+002 -4.000000e+001  7.000000e+000
      vertex -1.440000e+002 -4.000000e+001  0.000000e+000
      vertex -1.440000e+002 -8.000000e+001  7.000000e+000
    endloop
  endfacet
  facet normal -1.000000e+000  0.000000e+000  0.000000e+000
    outer loop
      vertex -1.440000e+002 -8.000000e+001  7.000000e+000
      vertex -1.440000e+002 -4.000000e+001  0.000000e+000
      vertex -1.440000e+002 -8.000000e+001  0.000000e+000
    endloop
  endfacet
  facet normal  0.000000e+000 -1.000000e+000  0.000000e+000
    outer loop
      vertex -1.500000e+002  2.000000e+001  7.000000e+000
      vertex -1.500000e+002  2.000000e+001  0.000000e+000
      vertex -1.440000e+002  2.000000e+001  7.000000e+000
    endloop
  endfacet
  facet normal  0.000000e+000 -1.000000e+000  -0.000000e+000
    outer loop
      vertex -1.440000e+002  2.000000e+001  7.000000e+000
      vertex -1.500000e+002  2.000000e+001  0.000000e+000
      vertex -1.440000e+002  2.000000e+001  0.000000e+000
    endloop
  endfacet
  facet normal  0.000000e+000  1.000000e+000  -0.000000e+000
    outer loop
      vertex -1.440000e+002 -2.000000e+001  7.000000e+000
      vertex -1.440000e+002 -2.000000e+001  0.000000e+000
      vertex -1.500000e+002 -2.000000e+001  7.000000e+000
    endloop
  endfacet
  facet normal  0.000000e+000  1.000000e+000  0.000000e+000
    outer loop
      vertex -1.500000e+002 -2.000000e+001  7.000000e+000
      vertex -1.440000e+002 -2.000000e+001  0.000000e+000
      vertex -1.500000e+002 -2.000000e+001  0.000000e+000
    endloop
  endfacet
  facet normal -1.000000e+000  0.000000e+000  0.000000e+000
    outer loop
      vertex -1.440000e+002  2.000000e+001  7.000000e+000
      vertex -1.440000e+002  2.000000e+001  0.000000e+000
      vertex -1.440000e+002 -2.000000e+001  7.000000e+000
    endloop
  endfacet
  facet normal -1.000000e+000  0.000000e+000  0.000000e+000
    outer loop
      vertex -1.440000e+002 -2.000000e+001  7.000000e+000
      vertex -1.440000e+002  2.000000e+001  0.000000e+000
      vertex -1.440000e+002 -2.000000e+001  0.000000e+000
    endloop
  endfacet
  facet normal  0.000000e+000 -1.000000e+000  0.000000e+000
    outer loop
      vertex -1.500000e+002  1.000000e+002  7.000000e+000
      vertex -1.500000e+002  1.000000e+002  0.000000e+000
      vertex -1.440000e+002  1.000000e+002  7.000000e+000
    endloop
  endfacet
  facet normal  0.000000e+000 -1.000000e+000  -0.000000e+000
    outer loop
      vertex -1.440000e+002  1.000000e+002  7.000000e+000
      vertex -1.500000e+002  1.000000e+002  0.000000e+000
      vertex -1.440000e+002  1.000000e+002  0.000000e+000
    endloop
  endfacet
  facet normal  0.000000e+000  1.000000e+000  -0.000000e+000
    outer loop
      vertex -1.440000e+002  4.000000e+001  7.000000e+000
      vertex -1.440000e+002  4.000000e+001  0.000000e+000
      vertex -1.500000e+002  4.000000e+001  7.000000e+000
    endloop
  endfacet
  facet normal  0.000000e+000  1.000000e+000  0.000000e+000
    outer loop
      vertex -1.500000e+002  4.000000e+001  7.000000e+000
      vertex -1.440000e+002  4.000000e+001  0.000000e+000
      vertex -1.500000e+002  4.000000e+001  0.000000e+000
    endloop
  endfacet
  facet normal -1.000000e+000  0.000000e+000  0.000000e+000
    outer loop
      vertex -1.440000e+002  1.000000e+002  7.000000e+000
      vertex -1.440000e+002  1.000000e+002  0.000000e+000
      vertex -1.440000e+002  4.000000e+001  7.000000e+000
    endloop
  endfacet
  facet normal -1.000000e+000  0.000000e+000  0.000000e+000
    outer loop
      vertex -1.440000e+002  4.000000e+001  7.000000e+000
      vertex -1.440000e+002  1.000000e+002  0.000000e+000
      vertex -1.440000e+002  4.000000e+001  0.000000e+000
    endloop
  endfacet
  facet normal  1.000000e+000  0.000000e+000  0.000000e+000
    outer loop
      vertex  1.440000e+002 -4.000000e+001  0.000000e+000
      vertex  1.440000e+002 -4.000000e+001  7.000000e+000
      vertex  1.440000e+002 -8.000000e+001  0.000000e+000
    endloop
  endfacet
  facet normal  1.000000e+000  0.000000e+000  0.000000e+000
    outer loop
      vertex  1.440000e+002 -8.000000e+001  0.000000e+000
      vertex  1.440000e+002 -4.000000e+001  7.000000e+000
      vertex  1.440000e+002 -8.000000e+001  7.000000e+000
    endloop
  endfacet
  facet normal  0.000000e+000  1.000000e+000  -0.000000e+000
    outer loop
      vertex  1.500000e+002 -8.000000e+001  7.000000e+000
      vertex  1.500000e+002 -8.000000e+001  0.000000e+000
      vertex  1.440000e+002 -8.000000e+001  7.000000e+000
    endloop
  endfacet
  facet normal  0.000000e+000  1.000000e+000  0.000000e+000
    outer loop
      vertex  1.440000e+002 -8.000000e+001  7.000000e+000
      vertex  1.500000e+002 -8.000000e+001  0.000000e+000
      vertex  1.440000e+002 -8.000000e+001  0.000000e+000
    endloop
  endfacet
  facet normal  0.000000e+000 -1.000000e+000  0.000000e+000
    outer loop
      vertex  1.440000e+002 -4.000000e+001  7.000000e+000
      vertex  1.440000e+002 -4.000000e+001  0.000000e+000
      vertex  1.500000e+002 -4.000000e+001  7.000000e+000
    endloop
  endfacet
  facet normal  0.000000e+000 -1.000000e+000  -0.000000e+000
    outer loop
      vertex  1.500000e+002 -4.000000e+001  7.000000e+000
      vertex  1.440000e+002 -4.000000e+001  0.000000e+000
      vertex  1.500000e+002 -4.000000e+001  0.000000e+000
    endloop
  endfacet
  facet normal  1.000000e+000  0.000000e+000  0.000000e+000
    outer loop
      vertex  1.440000e+002  2.000000e+001  0.000000e+000
      vertex  1.440000e+002  2.000000e+001  7.000000e+000
      vertex  1.440000e+002 -2.000000e+001  0.000000e+000
    endloop
  endfacet
  facet normal  1.000000e+000  0.000000e+000  0.000000e+000
    outer loop
      vertex  1.440000e+002 -2.000000e+001  0.000000e+000
      vertex  1.440000e+002  2.000000e+001  7.000000e+000
      vertex  1.440000e+002 -2.000000e+001  7.000000e+000
    endloop
  endfacet
  facet normal  0.000000e+000  1.000000e+000  -0.000000e+000
    outer loop
      vertex  1.500000e+002 -2.000000e+001  7.000000e+000
      vertex  1.500000e+002 -2.000000e+001  0.000000e+000
      vertex  1.440000e+002 -2.000000e+001  7.000000e+000
    endloop
  endfacet
  facet normal  0.000000e+000  1.000000e+000  0.000000e+000
    outer loop
      vertex  1.440000e+002 -2.000000e+001  7.000000e+000
      vertex  1.500000e+002 -2.000000e+001  0.000000e+000
      vertex  1.440000e+002 -2.000000e+001  0.000000e+000
    endloop
  endfacet
  facet normal  0.000000e+000 -1.000000e+000  0.000000e+000
    outer loop
      vertex  1.440000e+002  2.000000e+001  7.000000e+000
      vertex  1.440000e+002  2.000000e+001  0.000000e+000
      vertex  1.500000e+002  2.000000e+001  7.000000e+000
    endloop
  endfacet
  facet normal  0.000000e+000 -1.000000e+000  -0.000000e+000
    outer loop
      vertex  1.500000e+002  2.000000e+001  7.000000e+000
      vertex  1.440000e+002  2.000000e+001  0.000000e+000
      vertex  1.500000e+002  2.000000e+001  0.000000e+000
    endloop
  endfacet
  facet normal  1.000000e+000  0.000000e+000  0.000000e+000
    outer loop
      vertex  1.440000e+002  1.000000e+002  0.000000e+000
      vertex  1.440000e+002  1.000000e+002  7.000000e+000
      vertex  1.440000e+002  4.000000e+001  0.000000e+000
    endloop
  endfacet
  facet normal  1.000000e+000  0.000000e+000  0.000000e+000
    outer loop
      vertex  1.440000e+002  4.000000e+001  0.000000e+000
      vertex  1.440000e+002  1.000000e+002  7.000000e+000
      vertex  1.440000e+002  4.000000e+001  7.000000e+000
    endloop
  endfacet
  facet normal  0.000000e+000  1.000000e+000  -0.000000e+000
    outer loop
      vertex  1.500000e+002  4.000000e+001  7.000000e+000
      vertex  1.500000e+002  4.000000e+001  0.000000e+000
      vertex  1.440000e+002  4.000000e+001  7.000000e+000
    endloop
  endfacet
  facet normal  0.000000e+000  1.000000e+000  0.000000e+000
    outer loop
      vertex  1.440000e+002  4.000000e+001  7.000000e+000
      vertex  1.500000e+002  4.000000e+001  0.000000e+000
      vertex  1.440000e+002  4.000000e+001  0.000000e+000
    endloop
  endfacet
  facet normal  0.000000e+000 -1.000000e+000  0.000000e+000
    outer loop
      vertex  1.440000e+002  1.000000e+002  7.000000e+000
      vertex  1.440000e+002  1.000000e+002  0.000000e+000
      vertex  1.500000e+002  1.000000e+002  7.000000e+000
    endloop
  endfacet
  facet normal  0.000000e+000 -1.000000e+000  -0.000000e+000
    outer loop
      vertex  1.500000e+002  1.000000e+002  7.000000e+000
      vertex  1.440000e+002  1.000000e+002  0.000000e+000
      vertex  1.500000e+002  1.000000e+002  0.000000e+000
    endloop
  endfacet
  facet normal -1.000000e+000  0.000000e+000  0.000000e+000
    outer loop
      vertex -1.000000e+001  2.000000e+002  0.000000e+000
      vertex -1.000000e+001  2.000000e+002  7.000000e+000
      vertex -1.000000e+001  2.060000e+002  0.000000e+000
    endloop
  endfacet
  facet normal -1.000000e+000  0.000000e+000  0.000000e+000
    outer loop
      vertex -1.000000e+001  2.060000e+002  0.000000e+000
      vertex -1.000000e+001  2.000000e+002  7.000000e+000
      vertex -1.000000e+001  2.060000e+002  7.000000e+000
    endloop
  endfacet
  facet normal  1.000000e+000  0.000000e+000  0.000000e+000
    outer loop
      vertex  1.000000e+001  2.060000e+002  0.000000e+000
      vertex  1.000000e+001  2.060000e+002  7.000000e+000
      vertex  1.000000e+001  2.000000e+002  0.000000e+000
    endloop
  endfacet
  facet normal  1.000000e+000  0.000000e+000  0.000000e+000
    outer loop
      vertex  1.000000e+001  2.000000e+002  0.000000e+000
      vertex  1.000000e+001  2.060000e+002  7.000000e+000
      vertex  1.000000e+001  2.000000e+002  7.000000e+000
    endloop
  endfacet
  facet normal -1.000000e+000  0.000000e+000  0.000000e+000
    outer loop
      vertex -1.200000e+002  2.000000e+002  0.000000e+000
      vertex -1.200000e+002  2.000000e+002  7.000000e+000
      vertex -1.200000e+002  2.060000e+002  0.000000e+000
    endloop
  endfacet
  facet normal -1.000000e+000  0.000000e+000  0.000000e+000
    outer loop
      vertex -1.200000e+002  2.060000e+002  0.000000e+000
      vertex -1.200000e+002  2.000000e+002  7.000000e+000
      vertex -1.200000e+002  2.060000e+002  7.000000e+000
    endloop
  endfacet
  facet normal  1.000000e+000  0.000000e+000  0.000000e+000
    outer loop
      vertex -9.000000e+001  2.060000e+002  0.000000e+000
      vertex -9.000000e+001  2.060000e+002  7.000000e+000
      vertex -9.000000e+001  2.000000e+002  0.000000e+000
    endloop
  endfacet
  facet normal  1.000000e+000  0.000000e+000  0.000000e+000
    outer loop
      vertex -9.000000e+001  2.000000e+002  0.000000e+000
      vertex -9.000000e+001  2.060000e+002  7.000000e+000
      vertex -9.000000e+001  2.000000e+002  7.000000e+000
    endloop
  endfacet
  facet normal -1.000000e+000  0.000000e+000  0.000000e+000
    outer loop
      vertex -6.000000e+001  2.000000e+002  0.000000e+000
      vertex -6.000000e+001  2.000000e+002  7.000000e+000
      vertex -6.000000e+001  2.060000e+002  0.000000e+000
    endloop
  endfacet
  facet normal -1.000000e+000  0.000000e+000  0.000000e+000
    outer loop
      vertex -6.000000e+001  2.060000e+002  0.000000e+000
      vertex -6.000000e+001  2.000000e+002  7.000000e+000
      vertex -6.000000e+001  2.060000e+002  7.000000e+000
    endloop
  endfacet
  facet normal  1.000000e+000  0.000000e+000  0.000000e+000
    outer loop
      vertex -3.000000e+001  2.060000e+002  0.000000e+000
      vertex -3.000000e+001  2.060000e+002  7.000000e+000
      vertex -3.000000e+001  2.000000e+002  0.000000e+000
    endloop
  endfacet
  facet normal  1.000000e+000  0.000000e+000  0.000000e+000
    outer loop
      vertex -3.000000e+001  2.000000e+002  0.000000e+000
      vertex -3.000000e+001  2.060000e+002  7.000000e+000
      vertex -3.000000e+001  2.000000e+002  7.000000e+000
    endloop
  endfacet
  facet normal -1.000000e+000  0.000000e+000  0.000000e+000
    outer loop
      vertex  3.000000e+001  2.060000e+002  7.000000e+000
      vertex  3.000000e+001  2.060000e+002  0.000000e+000
      vertex  3.000000e+001  2.000000e+002  7.000000e+000
    endloop
  endfacet
  facet normal -1.000000e+000  0.000000e+000  0.000000e+000
    outer loop
      vertex  3.000000e+001  2.000000e+002  7.000000e+000
      vertex  3.000000e+001  2.060000e+002  0.000000e+000
      vertex  3.000000e+001  2.000000e+002  0.000000e+000
    endloop
  endfacet
  facet normal  1.000000e+000  0.000000e+000  0.000000e+000
    outer loop
      vertex  6.000000e+001  2.000000e+002  7.000000e+000
      vertex  6.000000e+001  2.000000e+002  0.000000e+000
      vertex  6.000000e+001  2.060000e+002  7.000000e+000
    endloop
  endfacet
  facet normal  1.000000e+000  0.000000e+000  0.000000e+000
    outer loop
      vertex  6.000000e+001  2.060000e+002  7.000000e+000
      vertex  6.000000e+001  2.000000e+002  0.000000e+000
      vertex  6.000000e+001  2.060000e+002  0.000000e+000
    endloop
  endfacet
  facet normal -1.000000e+000  0.000000e+000  0.000000e+000
    outer loop
      vertex  9.000000e+001  2.060000e+002  7.000000e+000
      vertex  9.000000e+001  2.060000e+002  0.000000e+000
      vertex  9.000000e+001  2.000000e+002  7.000000e+000
    endloop
  endfacet
  facet normal -1.000000e+000  0.000000e+000  0.000000e+000
    outer loop
      vertex  9.000000e+001  2.000000e+002  7.000000e+000
      vertex  9.000000e+001  2.060000e+002  0.000000e+000
      vertex  9.000000e+001  2.000000e+002  0.000000e+000
    endloop
  endfacet
  facet normal  1.000000e+000  0.000000e+000  0.000000e+000
    outer loop
      vertex  1.200000e+002  2.000000e+002  7.000000e+000
      vertex  1.200000e+002  2.000000e+002  0.000000e+000
      vertex  1.200000e+002  2.060000e+002  7.000000e+000
    endloop
  endfacet
  facet normal  1.000000e+000  0.000000e+000  0.000000e+000
    outer loop
      vertex  1.200000e+002  2.060000e+002  7.000000e+000
      vertex  1.200000e+002  2.000000e+002  0.000000e+000
      vertex  1.200000e+002  2.060000e+002  0.000000e+000
    endloop
  endfacet
  facet normal  1.000000e+000  0.000000e+000  0.000000e+000
    outer loop
      vertex  1.000000e+001 -2.000000e+002  0.000000e+000
      vertex  1.000000e+001 -2.000000e+002  7.000000e+000
      vertex  1.000000e+001 -2.060000e+002  0.000000e+000
    endloop
  endfacet
  facet normal  1.000000e+000  0.000000e+000  0.000000e+000
    outer loop
      vertex  1.000000e+001 -2.060000e+002  0.000000e+000
      vertex  1.000000e+001 -2.000000e+002  7.000000e+000
      vertex  1.000000e+001 -2.060000e+002  7.000000e+000
    endloop
  endfacet
  facet normal -1.000000e+000  0.000000e+000  0.000000e+000
    outer loop
      vertex -1.000000e+001 -2.060000e+002  0.000000e+000
      vertex -1.000000e+001 -2.060000e+002  7.000000e+000
      vertex -1.000000e+001 -2.000000e+002  0.000000e+000
    endloop
  endfacet
  facet normal -1.000000e+000  0.000000e+000  0.000000e+000
    outer loop
      vertex -1.000000e+001 -2.000000e+002  0.000000e+000
      vertex -1.000000e+001 -2.060000e+002  7.000000e+000
      vertex -1.000000e+001 -2.000000e+002  7.000000e+000
    endloop
  endfacet
  facet normal  1.000000e+000  0.000000e+000  0.000000e+000
    outer loop
      vertex  1.200000e+002 -2.060000e+002  7.000000e+000
      vertex  1.200000e+002 -2.060000e+002  0.000000e+000
      vertex  1.200000e+002 -2.000000e+002  7.000000e+000
    endloop
  endfacet
  facet normal  1.000000e+000  0.000000e+000  0.000000e+000
    outer loop
      vertex  1.200000e+002 -2.000000e+002  7.000000e+000
      vertex  1.200000e+002 -2.060000e+002  0.000000e+000
      vertex  1.200000e+002 -2.000000e+002  0.000000e+000
    endloop
  endfacet
  facet normal -1.000000e+000  0.000000e+000  0.000000e+000
    outer loop
      vertex  9.000000e+001 -2.000000e+002  7.000000e+000
      vertex  9.000000e+001 -2.000000e+002  0.000000e+000
      vertex  9.000000e+001 -2.060000e+002  7.000000e+000
    endloop
  endfacet
  facet normal -1.000000e+000  0.000000e+000  0.000000e+000
    outer loop
      vertex  9.000000e+001 -2.060000e+002  7.000000e+000
      vertex  9.000000e+001 -2.000000e+002  0.000000e+000
      vertex  9.000000e+001 -2.060000e+002  0.000000e+000
    endloop
  endfacet
  facet normal  1.000000e+000  0.000000e+000  0.000000e+000
    outer loop
      vertex  6.000000e+001 -2.060000e+002  7.000000e+000
      vertex  6.000000e+001 -2.060000e+002  0.000000e+000
      vertex  6.000000e+001 -2.000000e+002  7.000000e+000
    endloop
  endfacet
  facet normal  1.000000e+000  0.000000e+000  0.000000e+000
    outer loop
      vertex  6.000000e+001 -2.000000e+002  7.000000e+000
      vertex  6.000000e+001 -2.060000e+002  0.000000e+000
      vertex  6.000000e+001 -2.000000e+002  0.000000e+000
    endloop
  endfacet
  facet normal -1.000000e+000  0.000000e+000  0.000000e+000
    outer loop
      vertex  3.000000e+001 -2.000000e+002  7.000000e+000
      vertex  3.000000e+001 -2.000000e+002  0.000000e+000
      vertex  3.000000e+001 -2.060000e+002  7.000000e+000
    endloop
  endfacet
  facet normal -1.000000e+000  0.000000e+000  0.000000e+000
    outer loop
      vertex  3.000000e+001 -2.060000e+002  7.000000e+000
      vertex  3.000000e+001 -2.000000e+002  0.000000e+000
      vertex  3.000000e+001 -2.060000e+002  0.000000e+000
    endloop
  endfacet
  facet normal  1.000000e+000  0.000000e+000  0.000000e+000
    outer loop
      vertex -3.000000e+001 -2.000000e+002  0.000000e+000
      vertex -3.000000e+001 -2.000000e+002  7.000000e+000
      vertex -3.000000e+001 -2.060000e+002  0.000000e+000
    endloop
  endfacet
  facet normal  1.000000e+000  0.000000e+000  0.000000e+000
    outer loop
      vertex -3.000000e+001 -2.060000e+002  0.000000e+000
      vertex -3.000000e+001 -2.000000e+002  7.000000e+000
      vertex -3.000000e+001 -2.060000e+002  7.000000e+000
    endloop
  endfacet
  facet normal -1.000000e+000  0.000000e+000  0.000000e+000
    outer loop
      vertex -6.000000e+001 -2.060000e+002  0.000000e+000
      vertex -6.000000e+001 -2.060000e+002  7.000000e+000
      vertex -6.000000e+001 -2.000000e+002  0.000000e+000
    endloop
  endfacet
  facet normal -1.000000e+000  0.000000e+000  0.000000e+000
    outer loop
      vertex -6.000000e+001 -2.000000e+002  0.000000e+000
      vertex -6.000000e+001 -2.060000e+002  7.000000e+000
      vertex -6.000000e+001 -2.000000e+002  7.000000e+000
    endloop
  endfacet
  facet normal  1.000000e+000  0.000000e+000  0.000000e+000
    outer loop
      vertex -9.000000e+001 -2.000000e+002  0.000000e+000
      vertex -9.000000e+001 -2.000000e+002  7.000000e+000
      vertex -9.000000e+001 -2.060000e+002  0.000000e+000
    endloop
  endfacet
  facet normal  1.000000e+000  0.000000e+000  0.000000e+000
    outer loop
      vertex -9.000000e+001 -2.060000e+002  0.000000e+000
      vertex -9.000000e+001 -2.000000e+002  7.000000e+000
      vertex -9.000000e+001 -2.060000e+002  7.000000e+000
    endloop
  endfacet
  facet normal -1.000000e+000  0.000000e+000  0.000000e+000
    outer loop
      vertex -1.200000e+002 -2.060000e+002  0.000000e+000
      vertex -1.200000e+002 -2.060000e+002  7.000000e+000
      vertex -1.200000e+002 -2.000000e+002  0.000000e+000
    endloop
  endfacet
  facet normal -1.000000e+000  0.000000e+000  0.000000e+000
    outer loop
      vertex -1.200000e+002 -2.000000e+002  0.000000e+000
      vertex -1.200000e+002 -2.060000e+002  7.000000e+000
      vertex -1.200000e+002 -2.000000e+002  7.000000e+000
    endloop
  endfacet
  facet normal  0.000000e+000  1.000000e+000  0.000000e+000
    outer loop
      vertex -1.500000e+002  2.000000e+002  0.000000e+000
      vertex -1.500000e+002  2.000000e+002  7.000000e+000
      vertex -1.200000e+002  2.000000e+002  0.000000e+000
    endloop
  endfacet
  facet normal  0.000000e+000  1.000000e+000  -0.000000e+000
    outer loop
      vertex -1.200000e+002  2.000000e+002  0.000000e+000
      vertex -1.500000e+002  2.000000e+002  7.000000e+000
      vertex -1.200000e+002  2.000000e+002  7.000000e+000
    endloop
  endfacet
  facet normal  0.000000e+000  1.000000e+000  0.000000e+000
    outer loop
      vertex -9.000000e+001  2.000000e+002  0.000000e+000
      vertex -9.000000e+001  2.000000e+002  7.000000e+000
      vertex -6.000000e+001  2.000000e+002  0.000000e+000
    endloop
  endfacet
  facet normal  0.000000e+000  1.000000e+000  -0.000000e+000
    outer loop
      vertex -6.000000e+001  2.000000e+002  0.000000e+000
      vertex -9.000000e+001  2.000000e+002  7.000000e+000
      vertex -6.000000e+001  2.000000e+002  7.000000e+000
    endloop
  endfacet
  facet normal  0.000000e+000  1.000000e+000  0.000000e+000
    outer loop
      vertex -3.000000e+001  2.000000e+002  0.000000e+000
      vertex -3.000000e+001  2.000000e+002  7.000000e+000
      vertex -1.000000e+001  2.000000e+002  0.000000e+000
    endloop
  endfacet
  facet normal  0.000000e+000  1.000000e+000  -0.000000e+000
    outer loop
      vertex -1.000000e+001  2.000000e+002  0.000000e+000
      vertex -3.000000e+001  2.000000e+002  7.000000e+000
      vertex -1.000000e+001  2.000000e+002  7.000000e+000
    endloop
  endfacet
  facet normal  0.000000e+000  1.000000e+000  0.000000e+000
    outer loop
      vertex  1.000000e+001  2.000000e+002  0.000000e+000
      vertex  1.000000e+001  2.000000e+002  7.000000e+000
      vertex  3.000000e+001  2.000000e+002  0.000000e+000
    endloop
  endfacet
  facet normal  0.000000e+000  1.000000e+000  -0.000000e+000
    outer loop
      vertex  3.000000e+001  2.000000e+002  0.000000e+000
      vertex  1.000000e+001  2.000000e+002  7.000000e+000
      vertex  3.000000e+001  2.000000e+002  7.000000e+000
    endloop
  endfacet
  facet normal  0.000000e+000  1.000000e+000  0.000000e+000
    outer loop
      vertex  1.200000e+002  2.000000e+002  0.000000e+000
      vertex  1.200000e+002  2.000000e+002  7.000000e+000
      vertex  1.500000e+002  2.000000e+002  0.000000e+000
    endloop
  endfacet
  facet normal  0.000000e+000  1.000000e+000  -0.000000e+000
    outer loop
      vertex  1.500000e+002  2.000000e+002  0.000000e+000
      vertex  1.200000e+002  2.000000e+002  7.000000e+000
      vertex  1.500000e+002  2.000000e+002  7.000000e+000
    endloop
  endfacet
  facet normal  0.000000e+000  1.000000e+000  0.000000e+000
    outer loop
      vertex  6.000000e+001  2.000000e+002  0.000000e+000
      vertex  6.000000e+001  2.000000e+002  7.000000e+000
      vertex  9.000000e+001  2.000000e+002  0.000000e+000
    endloop
  endfacet
  facet normal  0.000000e+000  1.000000e+000  -0.000000e+000
    outer loop
      vertex  9.000000e+001  2.000000e+002  0.000000e+000
      vertex  6.000000e+001  2.000000e+002  7.000000e+000
      vertex  9.000000e+001  2.000000e+002  7.000000e+000
    endloop
  endfacet
  facet normal  0.000000e+000 -1.000000e+000  -0.000000e+000
    outer loop
      vertex  1.500000e+002 -2.000000e+002  0.000000e+000
      vertex  1.500000e+002 -2.000000e+002  7.000000e+000
      vertex  1.200000e+002 -2.000000e+002  0.000000e+000
    endloop
  endfacet
  facet normal  0.000000e+000 -1.000000e+000  0.000000e+000
    outer loop
      vertex  1.200000e+002 -2.000000e+002  0.000000e+000
      vertex  1.500000e+002 -2.000000e+002  7.000000e+000
      vertex  1.200000e+002 -2.000000e+002  7.000000e+000
    endloop
  endfacet
  facet normal  0.000000e+000 -1.000000e+000  -0.000000e+000
    outer loop
      vertex  9.000000e+001 -2.000000e+002  0.000000e+000
      vertex  9.000000e+001 -2.000000e+002  7.000000e+000
      vertex  6.000000e+001 -2.000000e+002  0.000000e+000
    endloop
  endfacet
  facet normal  0.000000e+000 -1.000000e+000  0.000000e+000
    outer loop
      vertex  6.000000e+001 -2.000000e+002  0.000000e+000
      vertex  9.000000e+001 -2.000000e+002  7.000000e+000
      vertex  6.000000e+001 -2.000000e+002  7.000000e+000
    endloop
  endfacet
  facet normal  0.000000e+000 -1.000000e+000  -0.000000e+000
    outer loop
      vertex  3.000000e+001 -2.000000e+002  0.000000e+000
      vertex  3.000000e+001 -2.000000e+002  7.000000e+000
      vertex  1.000000e+001 -2.000000e+002  0.000000e+000
    endloop
  endfacet
  facet normal  0.000000e+000 -1.000000e+000  0.000000e+000
    outer loop
      vertex  1.000000e+001 -2.000000e+002  0.000000e+000
      vertex  3.000000e+001 -2.000000e+002  7.000000e+000
      vertex  1.000000e+001 -2.000000e+002  7.000000e+000
    endloop
  endfacet
  facet normal  0.000000e+000 -1.000000e+000  -0.000000e+000
    outer loop
      vertex -1.000000e+001 -2.000000e+002  0.000000e+000
      vertex -1.000000e+001 -2.000000e+002  7.000000e+000
      vertex -3.000000e+001 -2.000000e+002  0.000000e+000
    endloop
  endfacet
  facet normal  0.000000e+000 -1.000000e+000  0.000000e+000
    outer loop
      vertex -3.000000e+001 -2.000000e+002  0.000000e+000
      vertex -1.000000e+001 -2.000000e+002  7.000000e+000
      vertex -3.000000e+001 -2.000000e+002  7.000000e+000
    endloop
  endfacet
  facet normal  0.000000e+000 -1.000000e+000  -0.000000e+000
    outer loop
      vertex -1.200000e+002 -2.000000e+002  0.000000e+000
      vertex -1.200000e+002 -2.000000e+002  7.000000e+000
      vertex -1.500000e+002 -2.000000e+002  0.000000e+000
    endloop
  endfacet
  facet normal  0.000000e+000 -1.000000e+000  0.000000e+000
    outer loop
      vertex -1.500000e+002 -2.000000e+002  0.000000e+000
      vertex -1.200000e+002 -2.000000e+002  7.000000e+000
      vertex -1.500000e+002 -2.000000e+002  7.000000e+000
    endloop
  endfacet
  facet normal  0.000000e+000 -1.000000e+000  -0.000000e+000
    outer loop
      vertex -6.000000e+001 -2.000000e+002  0.000000e+000
      vertex -6.000000e+001 -2.000000e+002  7.000000e+000
      vertex -9.000000e+001 -2.000000e+002  0.000000e+000
    endloop
  endfacet
  facet normal  0.000000e+000 -1.000000e+000  0.000000e+000
    outer loop
      vertex -9.000000e+001 -2.000000e+002  0.000000e+000
      vertex -6.000000e+001 -2.000000e+002  7.000000e+000
      vertex -9.000000e+001 -2.000000e+002  7.000000e+000
    endloop
  endfacet
  facet normal  0.000000e+000  1.000000e+000  -0.000000e+000
    outer loop
      vertex  1.000000e+001  2.060000e+002  7.000000e+000
      vertex  1.000000e+001  2.060000e+002  0.000000e+000
      vertex -1.000000e+001  2.060000e+002  7.000000e+000
    endloop
  endfacet
  facet normal  0.000000e+000  1.000000e+000  0.000000e+000
    outer loop
      vertex -1.000000e+001  2.060000e+002  7.000000e+000
      vertex  1.000000e+001  2.060000e+002  0.000000e+000
      vertex -1.000000e+001  2.060000e+002  0.000000e+000
    endloop
  endfacet
  facet normal  0.000000e+000  1.000000e+000  -0.000000e+000
    outer loop
      vertex  6.000000e+001  2.060000e+002  7.000000e+000
      vertex  6.000000e+001  2.060000e+002  0.000000e+000
      vertex  3.000000e+001  2.060000e+002  7.000000e+000
    endloop
  endfacet
  facet normal  0.000000e+000  1.000000e+000  0.000000e+000
    outer loop
      vertex  3.000000e+001  2.060000e+002  7.000000e+000
      vertex  6.000000e+001  2.060000e+002  0.000000e+000
      vertex  3.000000e+001  2.060000e+002  0.000000e+000
    endloop
  endfacet
  facet normal  0.000000e+000  1.000000e+000  -0.000000e+000
    outer loop
      vertex  1.200000e+002  2.060000e+002  7.000000e+000
      vertex  1.200000e+002  2.060000e+002  0.000000e+000
      vertex  9.000000e+001  2.060000e+002  7.000000e+000
    endloop
  endfacet
  facet normal  0.000000e+000  1.000000e+000  0.000000e+000
    outer loop
      vertex  9.000000e+001  2.060000e+002  7.000000e+000
      vertex  1.200000e+002  2.060000e+002  0.000000e+000
      vertex  9.000000e+001  2.060000e+002  0.000000e+000
    endloop
  endfacet
  facet normal  0.000000e+000  1.000000e+000  -0.000000e+000
    outer loop
      vertex -3.000000e+001  2.060000e+002  7.000000e+000
      vertex -3.000000e+001  2.060000e+002  0.000000e+000
      vertex -6.000000e+001  2.060000e+002  7.000000e+000
    endloop
  endfacet
  facet normal  0.000000e+000  1.000000e+000  0.000000e+000
    outer loop
      vertex -6.000000e+001  2.060000e+002  7.000000e+000
      vertex -3.000000e+001  2.060000e+002  0.000000e+000
      vertex -6.000000e+001  2.060000e+002  0.000000e+000
    endloop
  endfacet
  facet normal  0.000000e+000  1.000000e+000  -0.000000e+000
    outer loop
      vertex -9.000000e+001  2.060000e+002  7.000000e+000
      vertex -9.000000e+001  2.060000e+002  0.000000e+000
      vertex -1.200000e+002  2.060000e+002  7.000000e+000
    endloop
  endfacet
  facet normal  0.000000e+000  1.000000e+000  0.000000e+000
    outer loop
      vertex -1.200000e+002  2.060000e+002  7.000000e+000
      vertex -9.000000e+001  2.060000e+002  0.000000e+000
      vertex -1.200000e+002  2.060000e+002  0.000000e+000
    endloop
  endfacet
  facet normal  0.000000e+000 -1.000000e+000  -0.000000e+000
    outer loop
      vertex  1.000000e+001 -2.060000e+002  0.000000e+000
      vertex  1.000000e+001 -2.060000e+002  7.000000e+000
      vertex -1.000000e+001 -2.060000e+002  0.000000e+000
    endloop
  endfacet
  facet normal  0.000000e+000 -1.000000e+000  0.000000e+000
    outer loop
      vertex -1.000000e+001 -2.060000e+002  0.000000e+000
      vertex  1.000000e+001 -2.060000e+002  7.000000e+000
      vertex -1.000000e+001 -2.060000e+002  7.000000e+000
    endloop
  endfacet
  facet normal  0.000000e+000 -1.000000e+000  -0.000000e+000
    outer loop
      vertex  6.000000e+001 -2.060000e+002  0.000000e+000
      vertex  6.000000e+001 -2.060000e+002  7.000000e+000
      vertex  3.000000e+001 -2.060000e+002  0.000000e+000
    endloop
  endfacet
  facet normal  0.000000e+000 -1.000000e+000  0.000000e+000
    outer loop
      vertex  3.000000e+001 -2.060000e+002  0.000000e+000
      vertex  6.000000e+001 -2.060000e+002  7.000000e+000
      vertex  3.000000e+001 -2.060000e+002  7.000000e+000
    endloop
  endfacet
  facet normal  0.000000e+000 -1.000000e+000  -0.000000e+000
    outer loop
      vertex  1.200000e+002 -2.060000e+002  0.000000e+000
      vertex  1.200000e+002 -2.060000e+002  7.000000e+000
      vertex  9.000000e+001 -2.060000e+002  0.000000e+000
    endloop
  endfacet
  facet normal  0.000000e+000 -1.000000e+000  0.000000e+000
    outer loop
      vertex  9.000000e+001 -2.060000e+002  0.000000e+000
      vertex  1.200000e+002 -2.060000e+002  7.000000e+000
      vertex  9.000000e+001 -2.060000e+002  7.000000e+000
    endloop
  endfacet
  facet normal  0.000000e+000 -1.000000e+000  -0.000000e+000
    outer loop
      vertex -3.000000e+001 -2.060000e+002  0.000000e+000
      vertex -3.000000e+001 -2.060000e+002  7.000000e+000
      vertex -6.000000e+001 -2.060000e+002  0.000000e+000
    endloop
  endfacet
  facet normal  0.000000e+000 -1.000000e+000  0.000000e+000
    outer loop
      vertex -6.000000e+001 -2.060000e+002  0.000000e+000
      vertex -3.000000e+001 -2.060000e+002  7.000000e+000
      vertex -6.000000e+001 -2.060000e+002  7.000000e+000
    endloop
  endfacet
  facet normal  0.000000e+000 -1.000000e+000  -0.000000e+000
    outer loop
      vertex -9.000000e+001 -2.060000e+002  0.000000e+000
      vertex -9.000000e+001 -2.060000e+002  7.000000e+000
      vertex -1.200000e+002 -2.060000e+002  0.000000e+000
    endloop
  endfacet
  facet normal  0.000000e+000 -1.000000e+000  0.000000e+000
    outer loop
      vertex -1.200000e+002 -2.060000e+002  0.000000e+000
      vertex -9.000000e+001 -2.060000e+002  7.000000e+000
      vertex -1.200000e+002 -2.060000e+002  7.000000e+000
    endloop
  endfacet
endsolid CATIA STL
