<?xml version="1.0" standalone="no"?>
<!DOCTYPE svg PUBLIC "-//W3C//DTD SVG 1.1//EN"
  "http://www.w3.org/Graphics/SVG/1.1/DTD/svg11.dtd">
<svg width="302mm" height="301.99999999999994mm" viewBox="-151 -150.99999999999997 302 301.99999999999994" xmlns="http://www.w3.org/2000/svg" version="1.1">
	<title>svgOutput</title>
	<desc>made with tinkercad</desc>
<path d="M 150 -119.99999999999997 L 144 -119.99999999999997 L 143 -119.99999999999997 L 143 -89.99999999999999 L 144 -89.99999999999999 L 150 -89.99999999999999 L 150 -59.999999999999986 L 144 -59.999999999999986 L 144 -29.999999999999993 L 150 -29.999999999999993 L 150 -9.999999999999998 L 144 -9.999999999999998 L 144 1.1102230246251565e-16 L 144 9.999999999999998 L 150 9.999999999999998 L 150 29.999999999999993 L 144 29.999999999999993 L 144 59.999999999999986 L 150 59.999999999999986 L 150 89.99999999999999 L 144 89.99999999999999 L 143 89.99999999999999 L 143 119.99999999999997 L 144 119.99999999999997 L 150 119.99999999999997 L 150 149.99999999999997 L 144 149.99999999999997 L 143 149.99999999999997 L -143 149.99999999999997 L -144 149.99999999999997 L -150 149.99999999999997 L -150 119.99999999999997 L -144 119.99999999999997 L -143 119.99999999999997 L -143 89.99999999999999 L -144 89.99999999999999 L -150 89.99999999999999 L -150 59.999999999999986 L -144 59.999999999999986 L -144 29.999999999999993 L -150 29.999999999999993 L -150 9.999999999999998 L -144 9.999999999999998 L -144 1.1102230246251565e-16 L -144 -9.999999999999998 L -150 -9.999999999999998 L -150 -29.999999999999993 L -144 -29.999999999999993 L -144 -59.999999999999986 L -150 -59.999999999999986 L -150 -89.99999999999999 L -143 -89.99999999999999 L -143 -119.99999999999997 L -150 -119.99999999999997 L -150 -142.99999999999997 L -150 -143.99999999999997 L -150 -149.99999999999997 L -120 -149.99999999999997 L -120 -143.99999999999997 L -120 -142.99999999999997 L -90 -142.99999999999997 L -90 -143.99999999999997 L -90 -149.99999999999997 L -60 -149.99999999999997 L -60 -143.99999999999997 L -30 -143.99999999999997 L -30 -149.99999999999997 L -10 -149.99999999999997 L -10 -143.99999999999997 L 0 -143.99999999999997 L 10 -143.99999999999997 L 10 -149.99999999999997 L 30 -149.99999999999997 L 30 -143.99999999999997 L 60 -143.99999999999997 L 60 -149.99999999999997 L 90 -149.99999999999997 L 90 -143.99999999999997 L 90 -142.99999999999997 L 120 -142.99999999999997 L 120 -143.99999999999997 L 120 -149.99999999999997 L 144 -149.99999999999997 L 150 -149.99999999999997 L 150 -119.99999999999997 z" fill="none" stroke="rgb(255,0,0)" stroke-width="0.001mm" />
</svg>