solid CATIA STL
  facet normal  0.000000e+000  -0.000000e+000  9.999999e-001
    outer loop
      vertex -6.000000e+000 -6.000000e+000  5.000000e+000
      vertex  3.500000e+001 -6.000000e+000  5.000000e+000
      vertex  3.500000e+001 -3.000000e+000  5.000000e+000
    endloop
  endfacet
  facet normal  0.000000e+000  0.000000e+000  1.000000e+000
    outer loop
      vertex -6.000000e+000 -6.000000e+000  5.000000e+000
      vertex  3.500000e+001 -3.000000e+000  5.000000e+000
      vertex  3.200000e+001  0.000000e+000  5.000000e+000
    endloop
  endfacet
  facet normal  0.000000e+000  0.000000e+000  1.000000e+000
    outer loop
      vertex -6.000000e+000 -6.000000e+000  5.000000e+000
      vertex  3.200000e+001  0.000000e+000  5.000000e+000
      vertex  1.606384e+001  0.000000e+000  5.000000e+000
    endloop
  endfacet
  facet normal  0.000000e+000  0.000000e+000  1.000000e+000
    outer loop
      vertex -6.000000e+000 -6.000000e+000  5.000000e+000
      vertex  1.606384e+001  0.000000e+000  5.000000e+000
      vertex  0.000000e+000  1.606384e+001  5.000000e+000
    endloop
  endfacet
  facet normal  0.000000e+000  -0.000000e+000  1.000000e+000
    outer loop
      vertex -6.000000e+000 -6.000000e+000  5.000000e+000
      vertex  0.000000e+000  1.606384e+001  5.000000e+000
      vertex  0.000000e+000  3.200000e+001  5.000000e+000
    endloop
  endfacet
  facet normal  0.000000e+000  0.000000e+000  1.000000e+000
    outer loop
      vertex -6.000000e+000 -6.000000e+000  5.000000e+000
      vertex  0.000000e+000  3.200000e+001  5.000000e+000
      vertex -3.000000e+000  3.500000e+001  5.000000e+000
    endloop
  endfacet
  facet normal  0.000000e+000  0.000000e+000  9.999999e-001
    outer loop
      vertex -6.000000e+000 -6.000000e+000  5.000000e+000
      vertex -3.000000e+000  3.500000e+001  5.000000e+000
      vertex -6.000000e+000  3.500000e+001  5.000000e+000
    endloop
  endfacet
  facet normal  0.000000e+000  0.000000e+000 -9.999999e-001
    outer loop
      vertex -6.000000e+000 -6.000000e+000 -5.000000e+000
      vertex -6.000000e+000  3.500000e+001 -5.000000e+000
      vertex -3.000000e+000  3.500000e+001 -5.000000e+000
    endloop
  endfacet
  facet normal  0.000000e+000  -0.000000e+000 -1.000000e+000
    outer loop
      vertex -6.000000e+000 -6.000000e+000 -5.000000e+000
      vertex -3.000000e+000  3.500000e+001 -5.000000e+000
      vertex  0.000000e+000  3.200000e+001 -5.000000e+000
    endloop
  endfacet
  facet normal  0.000000e+000  -0.000000e+000 -1.000000e+000
    outer loop
      vertex -6.000000e+000 -6.000000e+000 -5.000000e+000
      vertex  0.000000e+000  3.200000e+001 -5.000000e+000
      vertex  0.000000e+000  1.606384e+001 -5.000000e+000
    endloop
  endfacet
  facet normal  0.000000e+000  -0.000000e+000 -1.000000e+000
    outer loop
      vertex -6.000000e+000 -6.000000e+000 -5.000000e+000
      vertex  0.000000e+000  1.606384e+001 -5.000000e+000
      vertex  1.606384e+001  0.000000e+000 -5.000000e+000
    endloop
  endfacet
  facet normal  0.000000e+000  -0.000000e+000 -1.000000e+000
    outer loop
      vertex -6.000000e+000 -6.000000e+000 -5.000000e+000
      vertex  1.606384e+001  0.000000e+000 -5.000000e+000
      vertex  3.200000e+001  0.000000e+000 -5.000000e+000
    endloop
  endfacet
  facet normal  0.000000e+000  -0.000000e+000 -1.000000e+000
    outer loop
      vertex -6.000000e+000 -6.000000e+000 -5.000000e+000
      vertex  3.200000e+001  0.000000e+000 -5.000000e+000
      vertex  3.500000e+001 -3.000000e+000 -5.000000e+000
    endloop
  endfacet
  facet normal  0.000000e+000  -0.000000e+000 -9.999999e-001
    outer loop
      vertex -6.000000e+000 -6.000000e+000 -5.000000e+000
      vertex  3.500000e+001 -3.000000e+000 -5.000000e+000
      vertex  3.500000e+001 -6.000000e+000 -5.000000e+000
    endloop
  endfacet
  facet normal  1.000000e+000  0.000000e+000  0.000000e+000
    outer loop
      vertex  0.000000e+000  3.200000e+001 -5.000000e+000
      vertex  0.000000e+000  2.617275e+001  9.352347e-001
      vertex  0.000000e+000  2.635145e+001  6.508256e-001
    endloop
  endfacet
  facet normal  1.000000e+000  0.000000e+000  0.000000e+000
    outer loop
      vertex  0.000000e+000  3.200000e+001 -5.000000e+000
      vertex  0.000000e+000  2.635145e+001  6.508256e-001
      vertex  0.000000e+000  2.646239e+001  3.337814e-001
    endloop
  endfacet
  facet normal  1.000000e+000  0.000000e+000  0.000000e+000
    outer loop
      vertex  0.000000e+000  3.200000e+001 -5.000000e+000
      vertex  0.000000e+000  2.646239e+001  3.337814e-001
      vertex  0.000000e+000  2.650000e+001  0.000000e+000
    endloop
  endfacet
  facet normal  1.000000e+000  0.000000e+000  0.000000e+000
    outer loop
      vertex  0.000000e+000  3.200000e+001 -5.000000e+000
      vertex  0.000000e+000  2.650000e+001  0.000000e+000
      vertex  0.000000e+000  2.646239e+001 -3.337814e-001
    endloop
  endfacet
  facet normal  1.000000e+000  0.000000e+000  0.000000e+000
    outer loop
      vertex  0.000000e+000  3.200000e+001 -5.000000e+000
      vertex  0.000000e+000  2.646239e+001 -3.337814e-001
      vertex  0.000000e+000  2.635145e+001 -6.508256e-001
    endloop
  endfacet
  facet normal  1.000000e+000  0.000000e+000  0.000000e+000
    outer loop
      vertex  0.000000e+000  3.200000e+001 -5.000000e+000
      vertex  0.000000e+000  2.635145e+001 -6.508256e-001
      vertex  0.000000e+000  2.617275e+001 -9.352347e-001
    endloop
  endfacet
  facet normal  1.000000e+000  0.000000e+000  0.000000e+000
    outer loop
      vertex  0.000000e+000  3.200000e+001 -5.000000e+000
      vertex  0.000000e+000  2.617275e+001 -9.352347e-001
      vertex  0.000000e+000  2.593523e+001 -1.172747e+000
    endloop
  endfacet
  facet normal  1.000000e+000  0.000000e+000  0.000000e+000
    outer loop
      vertex  0.000000e+000  3.200000e+001 -5.000000e+000
      vertex  0.000000e+000  2.593523e+001 -1.172747e+000
      vertex  0.000000e+000  2.565083e+001 -1.351453e+000
    endloop
  endfacet
  facet normal  9.999999e-001  0.000000e+000  0.000000e+000
    outer loop
      vertex  0.000000e+000  3.200000e+001 -5.000000e+000
      vertex  0.000000e+000  2.565083e+001 -1.351453e+000
      vertex  0.000000e+000  2.533378e+001 -1.462392e+000
    endloop
  endfacet
  facet normal  1.000000e+000  0.000000e+000  0.000000e+000
    outer loop
      vertex  0.000000e+000  3.200000e+001 -5.000000e+000
      vertex  0.000000e+000  2.533378e+001 -1.462392e+000
      vertex  0.000000e+000  1.606384e+001 -5.000000e+000
    endloop
  endfacet
  facet normal  1.000000e+000  -0.000000e+000  0.000000e+000
    outer loop
      vertex  0.000000e+000  3.200000e+001  5.000000e+000
      vertex  0.000000e+000  1.606384e+001  5.000000e+000
      vertex  0.000000e+000  2.533378e+001  1.462392e+000
    endloop
  endfacet
  facet normal  9.999999e-001  -0.000000e+000  0.000000e+000
    outer loop
      vertex  0.000000e+000  3.200000e+001  5.000000e+000
      vertex  0.000000e+000  2.533378e+001  1.462392e+000
      vertex  0.000000e+000  2.565083e+001  1.351453e+000
    endloop
  endfacet
  facet normal  1.000000e+000  -0.000000e+000  0.000000e+000
    outer loop
      vertex  0.000000e+000  3.200000e+001  5.000000e+000
      vertex  0.000000e+000  2.565083e+001  1.351453e+000
      vertex  0.000000e+000  2.593523e+001  1.172747e+000
    endloop
  endfacet
  facet normal  1.000000e+000  -0.000000e+000  0.000000e+000
    outer loop
      vertex  0.000000e+000  3.200000e+001  5.000000e+000
      vertex  0.000000e+000  2.593523e+001  1.172747e+000
      vertex  0.000000e+000  2.617275e+001  9.352347e-001
    endloop
  endfacet
  facet normal  1.000000e+000  -0.000000e+000  0.000000e+000
    outer loop
      vertex  0.000000e+000  3.200000e+001  5.000000e+000
      vertex  0.000000e+000  2.617275e+001  9.352347e-001
      vertex  0.000000e+000  3.200000e+001 -5.000000e+000
    endloop
  endfacet
  facet normal  1.000000e+000  0.000000e+000  0.000000e+000
    outer loop
      vertex  0.000000e+000  1.606384e+001 -5.000000e+000
      vertex  0.000000e+000  2.533378e+001 -1.462392e+000
      vertex  0.000000e+000  2.500000e+001 -1.500000e+000
    endloop
  endfacet
  facet normal  1.000000e+000  0.000000e+000  0.000000e+000
    outer loop
      vertex  0.000000e+000  1.606384e+001 -5.000000e+000
      vertex  0.000000e+000  2.500000e+001 -1.500000e+000
      vertex  0.000000e+000  2.466622e+001 -1.462392e+000
    endloop
  endfacet
  facet normal  1.000000e+000  0.000000e+000  0.000000e+000
    outer loop
      vertex  0.000000e+000  1.606384e+001 -5.000000e+000
      vertex  0.000000e+000  2.466622e+001 -1.462392e+000
      vertex  0.000000e+000  2.434917e+001 -1.351453e+000
    endloop
  endfacet
  facet normal  1.000000e+000  0.000000e+000  0.000000e+000
    outer loop
      vertex  0.000000e+000  1.606384e+001 -5.000000e+000
      vertex  0.000000e+000  2.434917e+001 -1.351453e+000
      vertex  0.000000e+000  2.406477e+001 -1.172747e+000
    endloop
  endfacet
  facet normal  1.000000e+000  0.000000e+000  0.000000e+000
    outer loop
      vertex  0.000000e+000  1.606384e+001 -5.000000e+000
      vertex  0.000000e+000  2.406477e+001 -1.172747e+000
      vertex  0.000000e+000  2.382725e+001 -9.352347e-001
    endloop
  endfacet
  facet normal  1.000000e+000  0.000000e+000  0.000000e+000
    outer loop
      vertex  0.000000e+000  1.606384e+001 -5.000000e+000
      vertex  0.000000e+000  2.382725e+001 -9.352347e-001
      vertex  0.000000e+000  2.364855e+001 -6.508256e-001
    endloop
  endfacet
  facet normal  1.000000e+000  0.000000e+000  0.000000e+000
    outer loop
      vertex  0.000000e+000  1.606384e+001 -5.000000e+000
      vertex  0.000000e+000  2.364855e+001 -6.508256e-001
      vertex  0.000000e+000  2.353761e+001 -3.337814e-001
    endloop
  endfacet
  facet normal  1.000000e+000  0.000000e+000  0.000000e+000
    outer loop
      vertex  0.000000e+000  1.606384e+001 -5.000000e+000
      vertex  0.000000e+000  2.353761e+001 -3.337814e-001
      vertex  0.000000e+000  2.350000e+001  1.836910e-016
    endloop
  endfacet
  facet normal  1.000000e+000  0.000000e+000  0.000000e+000
    outer loop
      vertex  0.000000e+000  1.606384e+001 -5.000000e+000
      vertex  0.000000e+000  2.350000e+001  1.836910e-016
      vertex  0.000000e+000  1.606384e+001  5.000000e+000
    endloop
  endfacet
  facet normal  1.000000e+000  0.000000e+000  -0.000000e+000
    outer loop
      vertex  0.000000e+000  1.606384e+001  5.000000e+000
      vertex  0.000000e+000  2.350000e+001  1.836910e-016
      vertex  0.000000e+000  2.353761e+001  3.337814e-001
    endloop
  endfacet
  facet normal  1.000000e+000  0.000000e+000  -0.000000e+000
    outer loop
      vertex  0.000000e+000  1.606384e+001  5.000000e+000
      vertex  0.000000e+000  2.353761e+001  3.337814e-001
      vertex  0.000000e+000  2.364855e+001  6.508256e-001
    endloop
  endfacet
  facet normal  1.000000e+000  0.000000e+000  -0.000000e+000
    outer loop
      vertex  0.000000e+000  1.606384e+001  5.000000e+000
      vertex  0.000000e+000  2.364855e+001  6.508256e-001
      vertex  0.000000e+000  2.382725e+001  9.352347e-001
    endloop
  endfacet
  facet normal  1.000000e+000  0.000000e+000  -0.000000e+000
    outer loop
      vertex  0.000000e+000  1.606384e+001  5.000000e+000
      vertex  0.000000e+000  2.382725e+001  9.352347e-001
      vertex  0.000000e+000  2.406477e+001  1.172747e+000
    endloop
  endfacet
  facet normal  1.000000e+000  0.000000e+000  -0.000000e+000
    outer loop
      vertex  0.000000e+000  1.606384e+001  5.000000e+000
      vertex  0.000000e+000  2.406477e+001  1.172747e+000
      vertex  0.000000e+000  2.434917e+001  1.351453e+000
    endloop
  endfacet
  facet normal  1.000000e+000  0.000000e+000  -0.000000e+000
    outer loop
      vertex  0.000000e+000  1.606384e+001  5.000000e+000
      vertex  0.000000e+000  2.434917e+001  1.351453e+000
      vertex  0.000000e+000  2.466622e+001  1.462392e+000
    endloop
  endfacet
  facet normal  1.000000e+000  0.000000e+000  -0.000000e+000
    outer loop
      vertex  0.000000e+000  1.606384e+001  5.000000e+000
      vertex  0.000000e+000  2.466622e+001  1.462392e+000
      vertex  0.000000e+000  2.500000e+001  1.500000e+000
    endloop
  endfacet
  facet normal  1.000000e+000  -0.000000e+000  -0.000000e+000
    outer loop
      vertex  0.000000e+000  1.606384e+001  5.000000e+000
      vertex  0.000000e+000  2.500000e+001  1.500000e+000
      vertex  0.000000e+000  2.533378e+001  1.462392e+000
    endloop
  endfacet
  facet normal  0.000000e+000  1.000000e+000  0.000000e+000
    outer loop
      vertex -3.000000e+000  3.500000e+001 -5.000000e+000
      vertex -6.000000e+000  3.500000e+001 -5.000000e+000
      vertex -3.000000e+000  3.500000e+001  5.000000e+000
    endloop
  endfacet
  facet normal  0.000000e+000  1.000000e+000  0.000000e+000
    outer loop
      vertex -3.000000e+000  3.500000e+001  5.000000e+000
      vertex -6.000000e+000  3.500000e+001 -5.000000e+000
      vertex -6.000000e+000  3.500000e+001  5.000000e+000
    endloop
  endfacet
  facet normal  7.071068e-001  7.071068e-001  0.000000e+000
    outer loop
      vertex -3.000000e+000  3.500000e+001  5.000000e+000
      vertex  0.000000e+000  3.200000e+001  5.000000e+000
      vertex -3.000000e+000  3.500000e+001 -5.000000e+000
    endloop
  endfacet
  facet normal  7.071068e-001  7.071068e-001  0.000000e+000
    outer loop
      vertex -3.000000e+000  3.500000e+001 -5.000000e+000
      vertex  0.000000e+000  3.200000e+001  5.000000e+000
      vertex  0.000000e+000  3.200000e+001 -5.000000e+000
    endloop
  endfacet
  facet normal  0.000000e+000  1.000000e+000  0.000000e+000
    outer loop
      vertex  3.200000e+001  0.000000e+000 -5.000000e+000
      vertex  1.606384e+001  0.000000e+000 -5.000000e+000
      vertex  2.533378e+001  0.000000e+000 -1.462392e+000
    endloop
  endfacet
  facet normal  -0.000000e+000  9.999999e-001  0.000000e+000
    outer loop
      vertex  3.200000e+001  0.000000e+000 -5.000000e+000
      vertex  2.533378e+001  0.000000e+000 -1.462392e+000
      vertex  2.565083e+001  0.000000e+000 -1.351453e+000
    endloop
  endfacet
  facet normal  -0.000000e+000  1.000000e+000  0.000000e+000
    outer loop
      vertex  3.200000e+001  0.000000e+000 -5.000000e+000
      vertex  2.565083e+001  0.000000e+000 -1.351453e+000
      vertex  2.593523e+001  0.000000e+000 -1.172747e+000
    endloop
  endfacet
  facet normal  -0.000000e+000  1.000000e+000  0.000000e+000
    outer loop
      vertex  3.200000e+001  0.000000e+000 -5.000000e+000
      vertex  2.593523e+001  0.000000e+000 -1.172747e+000
      vertex  2.617275e+001  0.000000e+000 -9.352347e-001
    endloop
  endfacet
  facet normal  -0.000000e+000  1.000000e+000  0.000000e+000
    outer loop
      vertex  3.200000e+001  0.000000e+000 -5.000000e+000
      vertex  2.617275e+001  0.000000e+000 -9.352347e-001
      vertex  2.635145e+001  0.000000e+000 -6.508256e-001
    endloop
  endfacet
  facet normal  -0.000000e+000  1.000000e+000  0.000000e+000
    outer loop
      vertex  3.200000e+001  0.000000e+000 -5.000000e+000
      vertex  2.635145e+001  0.000000e+000 -6.508256e-001
      vertex  2.646239e+001  0.000000e+000 -3.337814e-001
    endloop
  endfacet
  facet normal  -0.000000e+000  1.000000e+000  0.000000e+000
    outer loop
      vertex  3.200000e+001  0.000000e+000 -5.000000e+000
      vertex  2.646239e+001  0.000000e+000 -3.337814e-001
      vertex  2.650000e+001  0.000000e+000  1.836910e-016
    endloop
  endfacet
  facet normal  -0.000000e+000  1.000000e+000  -0.000000e+000
    outer loop
      vertex  3.200000e+001  0.000000e+000 -5.000000e+000
      vertex  2.650000e+001  0.000000e+000  1.836910e-016
      vertex  2.646239e+001  0.000000e+000  3.337814e-001
    endloop
  endfacet
  facet normal  -0.000000e+000  1.000000e+000  -0.000000e+000
    outer loop
      vertex  3.200000e+001  0.000000e+000 -5.000000e+000
      vertex  2.646239e+001  0.000000e+000  3.337814e-001
      vertex  2.635145e+001  0.000000e+000  6.508256e-001
    endloop
  endfacet
  facet normal  -0.000000e+000  1.000000e+000  -0.000000e+000
    outer loop
      vertex  3.200000e+001  0.000000e+000 -5.000000e+000
      vertex  2.635145e+001  0.000000e+000  6.508256e-001
      vertex  2.617275e+001  0.000000e+000  9.352347e-001
    endloop
  endfacet
  facet normal  0.000000e+000  1.000000e+000  -0.000000e+000
    outer loop
      vertex  3.200000e+001  0.000000e+000  5.000000e+000
      vertex  3.200000e+001  0.000000e+000 -5.000000e+000
      vertex  2.617275e+001  0.000000e+000  9.352347e-001
    endloop
  endfacet
  facet normal  0.000000e+000  1.000000e+000  -0.000000e+000
    outer loop
      vertex  3.200000e+001  0.000000e+000  5.000000e+000
      vertex  2.617275e+001  0.000000e+000  9.352347e-001
      vertex  2.593523e+001  0.000000e+000  1.172747e+000
    endloop
  endfacet
  facet normal  0.000000e+000  1.000000e+000  -0.000000e+000
    outer loop
      vertex  3.200000e+001  0.000000e+000  5.000000e+000
      vertex  2.593523e+001  0.000000e+000  1.172747e+000
      vertex  2.565083e+001  0.000000e+000  1.351453e+000
    endloop
  endfacet
  facet normal  0.000000e+000  9.999999e-001  -0.000000e+000
    outer loop
      vertex  3.200000e+001  0.000000e+000  5.000000e+000
      vertex  2.565083e+001  0.000000e+000  1.351453e+000
      vertex  2.533378e+001  0.000000e+000  1.462392e+000
    endloop
  endfacet
  facet normal  0.000000e+000  1.000000e+000  -0.000000e+000
    outer loop
      vertex  3.200000e+001  0.000000e+000  5.000000e+000
      vertex  2.533378e+001  0.000000e+000  1.462392e+000
      vertex  1.606384e+001  0.000000e+000  5.000000e+000
    endloop
  endfacet
  facet normal  0.000000e+000  1.000000e+000  0.000000e+000
    outer loop
      vertex  1.606384e+001  0.000000e+000 -5.000000e+000
      vertex  1.606384e+001  0.000000e+000  5.000000e+000
      vertex  2.350000e+001  0.000000e+000  0.000000e+000
    endloop
  endfacet
  facet normal  0.000000e+000  1.000000e+000  0.000000e+000
    outer loop
      vertex  1.606384e+001  0.000000e+000 -5.000000e+000
      vertex  2.350000e+001  0.000000e+000  0.000000e+000
      vertex  2.353761e+001  0.000000e+000 -3.337814e-001
    endloop
  endfacet
  facet normal  0.000000e+000  1.000000e+000  0.000000e+000
    outer loop
      vertex  1.606384e+001  0.000000e+000 -5.000000e+000
      vertex  2.353761e+001  0.000000e+000 -3.337814e-001
      vertex  2.364855e+001  0.000000e+000 -6.508256e-001
    endloop
  endfacet
  facet normal  0.000000e+000  1.000000e+000  0.000000e+000
    outer loop
      vertex  1.606384e+001  0.000000e+000 -5.000000e+000
      vertex  2.364855e+001  0.000000e+000 -6.508256e-001
      vertex  2.382725e+001  0.000000e+000 -9.352347e-001
    endloop
  endfacet
  facet normal  0.000000e+000  1.000000e+000  0.000000e+000
    outer loop
      vertex  1.606384e+001  0.000000e+000 -5.000000e+000
      vertex  2.382725e+001  0.000000e+000 -9.352347e-001
      vertex  2.406477e+001  0.000000e+000 -1.172747e+000
    endloop
  endfacet
  facet normal  0.000000e+000  1.000000e+000  0.000000e+000
    outer loop
      vertex  1.606384e+001  0.000000e+000 -5.000000e+000
      vertex  2.406477e+001  0.000000e+000 -1.172747e+000
      vertex  2.434917e+001  0.000000e+000 -1.351453e+000
    endloop
  endfacet
  facet normal  0.000000e+000  1.000000e+000  0.000000e+000
    outer loop
      vertex  1.606384e+001  0.000000e+000 -5.000000e+000
      vertex  2.434917e+001  0.000000e+000 -1.351453e+000
      vertex  2.466622e+001  0.000000e+000 -1.462392e+000
    endloop
  endfacet
  facet normal  0.000000e+000  1.000000e+000  0.000000e+000
    outer loop
      vertex  1.606384e+001  0.000000e+000 -5.000000e+000
      vertex  2.466622e+001  0.000000e+000 -1.462392e+000
      vertex  2.500000e+001  0.000000e+000 -1.500000e+000
    endloop
  endfacet
  facet normal  -0.000000e+000  1.000000e+000  0.000000e+000
    outer loop
      vertex  1.606384e+001  0.000000e+000 -5.000000e+000
      vertex  2.500000e+001  0.000000e+000 -1.500000e+000
      vertex  2.533378e+001  0.000000e+000 -1.462392e+000
    endloop
  endfacet
  facet normal  0.000000e+000  1.000000e+000  0.000000e+000
    outer loop
      vertex  1.606384e+001  0.000000e+000  5.000000e+000
      vertex  2.533378e+001  0.000000e+000  1.462392e+000
      vertex  2.500000e+001  0.000000e+000  1.500000e+000
    endloop
  endfacet
  facet normal  0.000000e+000  1.000000e+000  0.000000e+000
    outer loop
      vertex  1.606384e+001  0.000000e+000  5.000000e+000
      vertex  2.500000e+001  0.000000e+000  1.500000e+000
      vertex  2.466622e+001  0.000000e+000  1.462392e+000
    endloop
  endfacet
  facet normal  0.000000e+000  1.000000e+000  0.000000e+000
    outer loop
      vertex  1.606384e+001  0.000000e+000  5.000000e+000
      vertex  2.466622e+001  0.000000e+000  1.462392e+000
      vertex  2.434917e+001  0.000000e+000  1.351453e+000
    endloop
  endfacet
  facet normal  0.000000e+000  1.000000e+000  0.000000e+000
    outer loop
      vertex  1.606384e+001  0.000000e+000  5.000000e+000
      vertex  2.434917e+001  0.000000e+000  1.351453e+000
      vertex  2.406477e+001  0.000000e+000  1.172747e+000
    endloop
  endfacet
  facet normal  0.000000e+000  1.000000e+000  0.000000e+000
    outer loop
      vertex  1.606384e+001  0.000000e+000  5.000000e+000
      vertex  2.406477e+001  0.000000e+000  1.172747e+000
      vertex  2.382725e+001  0.000000e+000  9.352347e-001
    endloop
  endfacet
  facet normal  0.000000e+000  1.000000e+000  0.000000e+000
    outer loop
      vertex  1.606384e+001  0.000000e+000  5.000000e+000
      vertex  2.382725e+001  0.000000e+000  9.352347e-001
      vertex  2.364855e+001  0.000000e+000  6.508256e-001
    endloop
  endfacet
  facet normal  0.000000e+000  1.000000e+000  0.000000e+000
    outer loop
      vertex  1.606384e+001  0.000000e+000  5.000000e+000
      vertex  2.364855e+001  0.000000e+000  6.508256e-001
      vertex  2.353761e+001  0.000000e+000  3.337814e-001
    endloop
  endfacet
  facet normal  0.000000e+000  1.000000e+000  0.000000e+000
    outer loop
      vertex  1.606384e+001  0.000000e+000  5.000000e+000
      vertex  2.353761e+001  0.000000e+000  3.337814e-001
      vertex  2.350000e+001  0.000000e+000  0.000000e+000
    endloop
  endfacet
  facet normal  1.000000e+000  0.000000e+000  0.000000e+000
    outer loop
      vertex  3.500000e+001 -6.000000e+000 -5.000000e+000
      vertex  3.500000e+001 -3.000000e+000 -5.000000e+000
      vertex  3.500000e+001 -6.000000e+000  5.000000e+000
    endloop
  endfacet
  facet normal  1.000000e+000  -0.000000e+000  0.000000e+000
    outer loop
      vertex  3.500000e+001 -6.000000e+000  5.000000e+000
      vertex  3.500000e+001 -3.000000e+000 -5.000000e+000
      vertex  3.500000e+001 -3.000000e+000  5.000000e+000
    endloop
  endfacet
  facet normal  7.071068e-001  7.071068e-001  0.000000e+000
    outer loop
      vertex  3.200000e+001  0.000000e+000  5.000000e+000
      vertex  3.500000e+001 -3.000000e+000  5.000000e+000
      vertex  3.200000e+001  0.000000e+000 -5.000000e+000
    endloop
  endfacet
  facet normal  7.071068e-001  7.071068e-001  0.000000e+000
    outer loop
      vertex  3.200000e+001  0.000000e+000 -5.000000e+000
      vertex  3.500000e+001 -3.000000e+000  5.000000e+000
      vertex  3.500000e+001 -3.000000e+000 -5.000000e+000
    endloop
  endfacet
  facet normal  0.000000e+000 -9.999999e-001  0.000000e+000
    outer loop
      vertex -6.000000e+000 -6.000000e+000 -5.000000e+000
      vertex  3.500000e+001 -6.000000e+000 -5.000000e+000
      vertex  2.466622e+001 -6.000000e+000 -1.462392e+000
    endloop
  endfacet
  facet normal  -0.000000e+000 -1.000000e+000  0.000000e+000
    outer loop
      vertex -6.000000e+000 -6.000000e+000 -5.000000e+000
      vertex  2.466622e+001 -6.000000e+000 -1.462392e+000
      vertex  2.434917e+001 -6.000000e+000 -1.351453e+000
    endloop
  endfacet
  facet normal  -0.000000e+000 -1.000000e+000  0.000000e+000
    outer loop
      vertex -6.000000e+000 -6.000000e+000 -5.000000e+000
      vertex  2.434917e+001 -6.000000e+000 -1.351453e+000
      vertex  2.406477e+001 -6.000000e+000 -1.172747e+000
    endloop
  endfacet
  facet normal  -0.000000e+000 -1.000000e+000  0.000000e+000
    outer loop
      vertex -6.000000e+000 -6.000000e+000 -5.000000e+000
      vertex  2.406477e+001 -6.000000e+000 -1.172747e+000
      vertex  2.382725e+001 -6.000000e+000 -9.352347e-001
    endloop
  endfacet
  facet normal  -0.000000e+000 -1.000000e+000  0.000000e+000
    outer loop
      vertex -6.000000e+000 -6.000000e+000 -5.000000e+000
      vertex  2.382725e+001 -6.000000e+000 -9.352347e-001
      vertex  2.364855e+001 -6.000000e+000 -6.508256e-001
    endloop
  endfacet
  facet normal  -0.000000e+000 -1.000000e+000  0.000000e+000
    outer loop
      vertex -6.000000e+000 -6.000000e+000 -5.000000e+000
      vertex  2.364855e+001 -6.000000e+000 -6.508256e-001
      vertex  2.353761e+001 -6.000000e+000 -3.337814e-001
    endloop
  endfacet
  facet normal  -0.000000e+000 -1.000000e+000  0.000000e+000
    outer loop
      vertex -6.000000e+000 -6.000000e+000 -5.000000e+000
      vertex  2.353761e+001 -6.000000e+000 -3.337814e-001
      vertex  2.350000e+001 -6.000000e+000  0.000000e+000
    endloop
  endfacet
  facet normal  -0.000000e+000 -1.000000e+000  0.000000e+000
    outer loop
      vertex -6.000000e+000 -6.000000e+000 -5.000000e+000
      vertex  2.350000e+001 -6.000000e+000  0.000000e+000
      vertex  2.353761e+001 -6.000000e+000  3.337814e-001
    endloop
  endfacet
  facet normal  -0.000000e+000 -1.000000e+000  0.000000e+000
    outer loop
      vertex -6.000000e+000 -6.000000e+000 -5.000000e+000
      vertex  2.353761e+001 -6.000000e+000  3.337814e-001
      vertex  2.364855e+001 -6.000000e+000  6.508256e-001
    endloop
  endfacet
  facet normal  -0.000000e+000 -1.000000e+000  0.000000e+000
    outer loop
      vertex -6.000000e+000 -6.000000e+000 -5.000000e+000
      vertex  2.364855e+001 -6.000000e+000  6.508256e-001
      vertex  2.382725e+001 -6.000000e+000  9.352347e-001
    endloop
  endfacet
  facet normal  -0.000000e+000 -9.999999e-001  0.000000e+000
    outer loop
      vertex -6.000000e+000 -6.000000e+000 -5.000000e+000
      vertex  2.382725e+001 -6.000000e+000  9.352347e-001
      vertex  2.406477e+001 -6.000000e+000  1.172747e+000
    endloop
  endfacet
  facet normal  -0.000000e+000 -9.999999e-001  0.000000e+000
    outer loop
      vertex -6.000000e+000 -6.000000e+000 -5.000000e+000
      vertex  2.406477e+001 -6.000000e+000  1.172747e+000
      vertex  2.434917e+001 -6.000000e+000  1.351453e+000
    endloop
  endfacet
  facet normal  -0.000000e+000 -1.000000e+000  0.000000e+000
    outer loop
      vertex -6.000000e+000 -6.000000e+000 -5.000000e+000
      vertex  2.434917e+001 -6.000000e+000  1.351453e+000
      vertex  2.466622e+001 -6.000000e+000  1.462392e+000
    endloop
  endfacet
  facet normal  -0.000000e+000 -9.999999e-001  0.000000e+000
    outer loop
      vertex -6.000000e+000 -6.000000e+000 -5.000000e+000
      vertex  2.466622e+001 -6.000000e+000  1.462392e+000
      vertex  3.500000e+001 -6.000000e+000  5.000000e+000
    endloop
  endfacet
  facet normal  -0.000000e+000 -1.000000e+000  0.000000e+000
    outer loop
      vertex -6.000000e+000 -6.000000e+000 -5.000000e+000
      vertex  3.500000e+001 -6.000000e+000  5.000000e+000
      vertex -6.000000e+000 -6.000000e+000  5.000000e+000
    endloop
  endfacet
  facet normal  0.000000e+000 -1.000000e+000  -0.000000e+000
    outer loop
      vertex  3.500000e+001 -6.000000e+000 -5.000000e+000
      vertex  3.500000e+001 -6.000000e+000  5.000000e+000
      vertex  2.650000e+001 -6.000000e+000  1.836910e-016
    endloop
  endfacet
  facet normal  0.000000e+000 -1.000000e+000  -0.000000e+000
    outer loop
      vertex  3.500000e+001 -6.000000e+000 -5.000000e+000
      vertex  2.650000e+001 -6.000000e+000  1.836910e-016
      vertex  2.646239e+001 -6.000000e+000 -3.337814e-001
    endloop
  endfacet
  facet normal  0.000000e+000 -1.000000e+000  -0.000000e+000
    outer loop
      vertex  3.500000e+001 -6.000000e+000 -5.000000e+000
      vertex  2.646239e+001 -6.000000e+000 -3.337814e-001
      vertex  2.635145e+001 -6.000000e+000 -6.508256e-001
    endloop
  endfacet
  facet normal  0.000000e+000 -9.999999e-001  -0.000000e+000
    outer loop
      vertex  3.500000e+001 -6.000000e+000 -5.000000e+000
      vertex  2.635145e+001 -6.000000e+000 -6.508256e-001
      vertex  2.617275e+001 -6.000000e+000 -9.352347e-001
    endloop
  endfacet
  facet normal  0.000000e+000 -1.000000e+000  -0.000000e+000
    outer loop
      vertex  3.500000e+001 -6.000000e+000 -5.000000e+000
      vertex  2.617275e+001 -6.000000e+000 -9.352347e-001
      vertex  2.593523e+001 -6.000000e+000 -1.172747e+000
    endloop
  endfacet
  facet normal  0.000000e+000 -1.000000e+000  -0.000000e+000
    outer loop
      vertex  3.500000e+001 -6.000000e+000 -5.000000e+000
      vertex  2.593523e+001 -6.000000e+000 -1.172747e+000
      vertex  2.565083e+001 -6.000000e+000 -1.351453e+000
    endloop
  endfacet
  facet normal  0.000000e+000 -1.000000e+000  -0.000000e+000
    outer loop
      vertex  3.500000e+001 -6.000000e+000 -5.000000e+000
      vertex  2.565083e+001 -6.000000e+000 -1.351453e+000
      vertex  2.533378e+001 -6.000000e+000 -1.462392e+000
    endloop
  endfacet
  facet normal  0.000000e+000 -1.000000e+000  -0.000000e+000
    outer loop
      vertex  3.500000e+001 -6.000000e+000 -5.000000e+000
      vertex  2.533378e+001 -6.000000e+000 -1.462392e+000
      vertex  2.500000e+001 -6.000000e+000 -1.500000e+000
    endloop
  endfacet
  facet normal  -0.000000e+000 -1.000000e+000  -0.000000e+000
    outer loop
      vertex  3.500000e+001 -6.000000e+000 -5.000000e+000
      vertex  2.500000e+001 -6.000000e+000 -1.500000e+000
      vertex  2.466622e+001 -6.000000e+000 -1.462392e+000
    endloop
  endfacet
  facet normal  0.000000e+000 -1.000000e+000  0.000000e+000
    outer loop
      vertex  3.500000e+001 -6.000000e+000  5.000000e+000
      vertex  2.466622e+001 -6.000000e+000  1.462392e+000
      vertex  2.500000e+001 -6.000000e+000  1.500000e+000
    endloop
  endfacet
  facet normal  0.000000e+000 -1.000000e+000  0.000000e+000
    outer loop
      vertex  3.500000e+001 -6.000000e+000  5.000000e+000
      vertex  2.500000e+001 -6.000000e+000  1.500000e+000
      vertex  2.533378e+001 -6.000000e+000  1.462392e+000
    endloop
  endfacet
  facet normal  0.000000e+000 -1.000000e+000  0.000000e+000
    outer loop
      vertex  3.500000e+001 -6.000000e+000  5.000000e+000
      vertex  2.533378e+001 -6.000000e+000  1.462392e+000
      vertex  2.565083e+001 -6.000000e+000  1.351453e+000
    endloop
  endfacet
  facet normal  0.000000e+000 -1.000000e+000  0.000000e+000
    outer loop
      vertex  3.500000e+001 -6.000000e+000  5.000000e+000
      vertex  2.565083e+001 -6.000000e+000  1.351453e+000
      vertex  2.593523e+001 -6.000000e+000  1.172747e+000
    endloop
  endfacet
  facet normal  0.000000e+000 -1.000000e+000  0.000000e+000
    outer loop
      vertex  3.500000e+001 -6.000000e+000  5.000000e+000
      vertex  2.593523e+001 -6.000000e+000  1.172747e+000
      vertex  2.617275e+001 -6.000000e+000  9.352347e-001
    endloop
  endfacet
  facet normal  0.000000e+000 -9.999999e-001  0.000000e+000
    outer loop
      vertex  3.500000e+001 -6.000000e+000  5.000000e+000
      vertex  2.617275e+001 -6.000000e+000  9.352347e-001
      vertex  2.635145e+001 -6.000000e+000  6.508256e-001
    endloop
  endfacet
  facet normal  0.000000e+000 -1.000000e+000  0.000000e+000
    outer loop
      vertex  3.500000e+001 -6.000000e+000  5.000000e+000
      vertex  2.635145e+001 -6.000000e+000  6.508256e-001
      vertex  2.646239e+001 -6.000000e+000  3.337814e-001
    endloop
  endfacet
  facet normal  0.000000e+000 -1.000000e+000  0.000000e+000
    outer loop
      vertex  3.500000e+001 -6.000000e+000  5.000000e+000
      vertex  2.646239e+001 -6.000000e+000  3.337814e-001
      vertex  2.650000e+001 -6.000000e+000  1.836910e-016
    endloop
  endfacet
  facet normal -9.937125e-001  0.000000e+000 -1.119617e-001
    outer loop
      vertex  2.650000e+001  0.000000e+000  1.836910e-016
      vertex  2.650000e+001 -6.000000e+000  1.836910e-016
      vertex  2.646239e+001  0.000000e+000  3.337814e-001
    endloop
  endfacet
  facet normal -9.937125e-001  -0.000000e+000 -1.119617e-001
    outer loop
      vertex  2.646239e+001  0.000000e+000  3.337814e-001
      vertex  2.650000e+001 -6.000000e+000  1.836910e-016
      vertex  2.646239e+001 -6.000000e+000  3.337814e-001
    endloop
  endfacet
  facet normal -9.438829e-001  0.000000e+000 -3.302803e-001
    outer loop
      vertex  2.646239e+001  0.000000e+000  3.337814e-001
      vertex  2.646239e+001 -6.000000e+000  3.337814e-001
      vertex  2.635145e+001  0.000000e+000  6.508256e-001
    endloop
  endfacet
  facet normal -9.438829e-001  -0.000000e+000 -3.302803e-001
    outer loop
      vertex  2.635145e+001  0.000000e+000  6.508256e-001
      vertex  2.646239e+001 -6.000000e+000  3.337814e-001
      vertex  2.635145e+001 -6.000000e+000  6.508256e-001
    endloop
  endfacet
  facet normal -8.467228e-001  0.000000e+000 -5.320343e-001
    outer loop
      vertex  2.635145e+001  0.000000e+000  6.508256e-001
      vertex  2.635145e+001 -6.000000e+000  6.508256e-001
      vertex  2.617275e+001  0.000000e+000  9.352347e-001
    endloop
  endfacet
  facet normal -8.467228e-001  -0.000000e+000 -5.320343e-001
    outer loop
      vertex  2.617275e+001  0.000000e+000  9.352347e-001
      vertex  2.635145e+001 -6.000000e+000  6.508256e-001
      vertex  2.617275e+001 -6.000000e+000  9.352347e-001
    endloop
  endfacet
  facet normal -7.071067e-001  0.000000e+000 -7.071069e-001
    outer loop
      vertex  2.617275e+001  0.000000e+000  9.352347e-001
      vertex  2.617275e+001 -6.000000e+000  9.352347e-001
      vertex  2.593523e+001  0.000000e+000  1.172747e+000
    endloop
  endfacet
  facet normal -7.071067e-001  -0.000000e+000 -7.071069e-001
    outer loop
      vertex  2.593523e+001  0.000000e+000  1.172747e+000
      vertex  2.617275e+001 -6.000000e+000  9.352347e-001
      vertex  2.593523e+001 -6.000000e+000  1.172747e+000
    endloop
  endfacet
  facet normal -5.320327e-001  0.000000e+000 -8.467239e-001
    outer loop
      vertex  2.593523e+001  0.000000e+000  1.172747e+000
      vertex  2.593523e+001 -6.000000e+000  1.172747e+000
      vertex  2.565083e+001  0.000000e+000  1.351453e+000
    endloop
  endfacet
  facet normal -5.320327e-001  -0.000000e+000 -8.467239e-001
    outer loop
      vertex  2.565083e+001  0.000000e+000  1.351453e+000
      vertex  2.593523e+001 -6.000000e+000  1.172747e+000
      vertex  2.565083e+001 -6.000000e+000  1.351453e+000
    endloop
  endfacet
  facet normal -3.302799e-001  0.000000e+000 -9.438831e-001
    outer loop
      vertex  2.565083e+001  0.000000e+000  1.351453e+000
      vertex  2.565083e+001 -6.000000e+000  1.351453e+000
      vertex  2.533378e+001  0.000000e+000  1.462392e+000
    endloop
  endfacet
  facet normal -3.302799e-001  -0.000000e+000 -9.438831e-001
    outer loop
      vertex  2.533378e+001  0.000000e+000  1.462392e+000
      vertex  2.565083e+001 -6.000000e+000  1.351453e+000
      vertex  2.533378e+001 -6.000000e+000  1.462392e+000
    endloop
  endfacet
  facet normal -1.119643e-001  0.000000e+000 -9.937122e-001
    outer loop
      vertex  2.533378e+001  0.000000e+000  1.462392e+000
      vertex  2.533378e+001 -6.000000e+000  1.462392e+000
      vertex  2.500000e+001  0.000000e+000  1.500000e+000
    endloop
  endfacet
  facet normal -1.119643e-001  -0.000000e+000 -9.937122e-001
    outer loop
      vertex  2.500000e+001  0.000000e+000  1.500000e+000
      vertex  2.533378e+001 -6.000000e+000  1.462392e+000
      vertex  2.500000e+001 -6.000000e+000  1.500000e+000
    endloop
  endfacet
  facet normal  1.119643e-001  0.000000e+000 -9.937122e-001
    outer loop
      vertex  2.500000e+001  0.000000e+000  1.500000e+000
      vertex  2.500000e+001 -6.000000e+000  1.500000e+000
      vertex  2.466622e+001  0.000000e+000  1.462392e+000
    endloop
  endfacet
  facet normal  1.119643e-001  0.000000e+000 -9.937122e-001
    outer loop
      vertex  2.466622e+001  0.000000e+000  1.462392e+000
      vertex  2.500000e+001 -6.000000e+000  1.500000e+000
      vertex  2.466622e+001 -6.000000e+000  1.462392e+000
    endloop
  endfacet
  facet normal  3.302799e-001  0.000000e+000 -9.438831e-001
    outer loop
      vertex  2.466622e+001  0.000000e+000  1.462392e+000
      vertex  2.466622e+001 -6.000000e+000  1.462392e+000
      vertex  2.434917e+001  0.000000e+000  1.351453e+000
    endloop
  endfacet
  facet normal  3.302799e-001  0.000000e+000 -9.438831e-001
    outer loop
      vertex  2.434917e+001  0.000000e+000  1.351453e+000
      vertex  2.466622e+001 -6.000000e+000  1.462392e+000
      vertex  2.434917e+001 -6.000000e+000  1.351453e+000
    endloop
  endfacet
  facet normal  5.320327e-001  0.000000e+000 -8.467239e-001
    outer loop
      vertex  2.434917e+001  0.000000e+000  1.351453e+000
      vertex  2.434917e+001 -6.000000e+000  1.351453e+000
      vertex  2.406477e+001  0.000000e+000  1.172747e+000
    endloop
  endfacet
  facet normal  5.320327e-001  0.000000e+000 -8.467239e-001
    outer loop
      vertex  2.406477e+001  0.000000e+000  1.172747e+000
      vertex  2.434917e+001 -6.000000e+000  1.351453e+000
      vertex  2.406477e+001 -6.000000e+000  1.172747e+000
    endloop
  endfacet
  facet normal  7.071067e-001  0.000000e+000 -7.071069e-001
    outer loop
      vertex  2.406477e+001  0.000000e+000  1.172747e+000
      vertex  2.406477e+001 -6.000000e+000  1.172747e+000
      vertex  2.382725e+001  0.000000e+000  9.352347e-001
    endloop
  endfacet
  facet normal  7.071067e-001  0.000000e+000 -7.071069e-001
    outer loop
      vertex  2.382725e+001  0.000000e+000  9.352347e-001
      vertex  2.406477e+001 -6.000000e+000  1.172747e+000
      vertex  2.382725e+001 -6.000000e+000  9.352347e-001
    endloop
  endfacet
  facet normal  8.467228e-001  0.000000e+000 -5.320343e-001
    outer loop
      vertex  2.382725e+001  0.000000e+000  9.352347e-001
      vertex  2.382725e+001 -6.000000e+000  9.352347e-001
      vertex  2.364855e+001  0.000000e+000  6.508256e-001
    endloop
  endfacet
  facet normal  8.467228e-001  0.000000e+000 -5.320343e-001
    outer loop
      vertex  2.364855e+001  0.000000e+000  6.508256e-001
      vertex  2.382725e+001 -6.000000e+000  9.352347e-001
      vertex  2.364855e+001 -6.000000e+000  6.508256e-001
    endloop
  endfacet
  facet normal  9.438829e-001  0.000000e+000 -3.302803e-001
    outer loop
      vertex  2.364855e+001  0.000000e+000  6.508256e-001
      vertex  2.364855e+001 -6.000000e+000  6.508256e-001
      vertex  2.353761e+001  0.000000e+000  3.337814e-001
    endloop
  endfacet
  facet normal  9.438829e-001  0.000000e+000 -3.302803e-001
    outer loop
      vertex  2.353761e+001  0.000000e+000  3.337814e-001
      vertex  2.364855e+001 -6.000000e+000  6.508256e-001
      vertex  2.353761e+001 -6.000000e+000  3.337814e-001
    endloop
  endfacet
  facet normal  9.937125e-001  0.000000e+000 -1.119617e-001
    outer loop
      vertex  2.353761e+001  0.000000e+000  3.337814e-001
      vertex  2.353761e+001 -6.000000e+000  3.337814e-001
      vertex  2.350000e+001  0.000000e+000  0.000000e+000
    endloop
  endfacet
  facet normal  9.937125e-001  0.000000e+000 -1.119617e-001
    outer loop
      vertex  2.350000e+001  0.000000e+000  0.000000e+000
      vertex  2.353761e+001 -6.000000e+000  3.337814e-001
      vertex  2.350000e+001 -6.000000e+000  0.000000e+000
    endloop
  endfacet
  facet normal  9.937125e-001  -0.000000e+000  1.119617e-001
    outer loop
      vertex  2.350000e+001  0.000000e+000  0.000000e+000
      vertex  2.350000e+001 -6.000000e+000  0.000000e+000
      vertex  2.353761e+001  0.000000e+000 -3.337814e-001
    endloop
  endfacet
  facet normal  9.937125e-001  0.000000e+000  1.119617e-001
    outer loop
      vertex  2.353761e+001  0.000000e+000 -3.337814e-001
      vertex  2.350000e+001 -6.000000e+000  0.000000e+000
      vertex  2.353761e+001 -6.000000e+000 -3.337814e-001
    endloop
  endfacet
  facet normal  9.438829e-001  -0.000000e+000  3.302803e-001
    outer loop
      vertex  2.353761e+001  0.000000e+000 -3.337814e-001
      vertex  2.353761e+001 -6.000000e+000 -3.337814e-001
      vertex  2.364855e+001  0.000000e+000 -6.508256e-001
    endloop
  endfacet
  facet normal  9.438829e-001  0.000000e+000  3.302803e-001
    outer loop
      vertex  2.364855e+001  0.000000e+000 -6.508256e-001
      vertex  2.353761e+001 -6.000000e+000 -3.337814e-001
      vertex  2.364855e+001 -6.000000e+000 -6.508256e-001
    endloop
  endfacet
  facet normal  8.467228e-001  -0.000000e+000  5.320343e-001
    outer loop
      vertex  2.364855e+001  0.000000e+000 -6.508256e-001
      vertex  2.364855e+001 -6.000000e+000 -6.508256e-001
      vertex  2.382725e+001  0.000000e+000 -9.352347e-001
    endloop
  endfacet
  facet normal  8.467228e-001  0.000000e+000  5.320343e-001
    outer loop
      vertex  2.382725e+001  0.000000e+000 -9.352347e-001
      vertex  2.364855e+001 -6.000000e+000 -6.508256e-001
      vertex  2.382725e+001 -6.000000e+000 -9.352347e-001
    endloop
  endfacet
  facet normal  7.071067e-001  -0.000000e+000  7.071069e-001
    outer loop
      vertex  2.382725e+001  0.000000e+000 -9.352347e-001
      vertex  2.382725e+001 -6.000000e+000 -9.352347e-001
      vertex  2.406477e+001  0.000000e+000 -1.172747e+000
    endloop
  endfacet
  facet normal  7.071067e-001  0.000000e+000  7.071069e-001
    outer loop
      vertex  2.406477e+001  0.000000e+000 -1.172747e+000
      vertex  2.382725e+001 -6.000000e+000 -9.352347e-001
      vertex  2.406477e+001 -6.000000e+000 -1.172747e+000
    endloop
  endfacet
  facet normal  5.320327e-001  -0.000000e+000  8.467239e-001
    outer loop
      vertex  2.406477e+001  0.000000e+000 -1.172747e+000
      vertex  2.406477e+001 -6.000000e+000 -1.172747e+000
      vertex  2.434917e+001  0.000000e+000 -1.351453e+000
    endloop
  endfacet
  facet normal  5.320327e-001  0.000000e+000  8.467239e-001
    outer loop
      vertex  2.434917e+001  0.000000e+000 -1.351453e+000
      vertex  2.406477e+001 -6.000000e+000 -1.172747e+000
      vertex  2.434917e+001 -6.000000e+000 -1.351453e+000
    endloop
  endfacet
  facet normal  3.302799e-001  -0.000000e+000  9.438831e-001
    outer loop
      vertex  2.434917e+001  0.000000e+000 -1.351453e+000
      vertex  2.434917e+001 -6.000000e+000 -1.351453e+000
      vertex  2.466622e+001  0.000000e+000 -1.462392e+000
    endloop
  endfacet
  facet normal  3.302799e-001  0.000000e+000  9.438831e-001
    outer loop
      vertex  2.466622e+001  0.000000e+000 -1.462392e+000
      vertex  2.434917e+001 -6.000000e+000 -1.351453e+000
      vertex  2.466622e+001 -6.000000e+000 -1.462392e+000
    endloop
  endfacet
  facet normal  1.119643e-001  -0.000000e+000  9.937122e-001
    outer loop
      vertex  2.466622e+001  0.000000e+000 -1.462392e+000
      vertex  2.466622e+001 -6.000000e+000 -1.462392e+000
      vertex  2.500000e+001  0.000000e+000 -1.500000e+000
    endloop
  endfacet
  facet normal  1.119643e-001  0.000000e+000  9.937122e-001
    outer loop
      vertex  2.500000e+001  0.000000e+000 -1.500000e+000
      vertex  2.466622e+001 -6.000000e+000 -1.462392e+000
      vertex  2.500000e+001 -6.000000e+000 -1.500000e+000
    endloop
  endfacet
  facet normal -1.119643e-001  0.000000e+000  9.937122e-001
    outer loop
      vertex  2.500000e+001  0.000000e+000 -1.500000e+000
      vertex  2.500000e+001 -6.000000e+000 -1.500000e+000
      vertex  2.533378e+001  0.000000e+000 -1.462392e+000
    endloop
  endfacet
  facet normal -1.119643e-001  0.000000e+000  9.937122e-001
    outer loop
      vertex  2.533378e+001  0.000000e+000 -1.462392e+000
      vertex  2.500000e+001 -6.000000e+000 -1.500000e+000
      vertex  2.533378e+001 -6.000000e+000 -1.462392e+000
    endloop
  endfacet
  facet normal -3.302799e-001  0.000000e+000  9.438831e-001
    outer loop
      vertex  2.533378e+001  0.000000e+000 -1.462392e+000
      vertex  2.533378e+001 -6.000000e+000 -1.462392e+000
      vertex  2.565083e+001  0.000000e+000 -1.351453e+000
    endloop
  endfacet
  facet normal -3.302799e-001  0.000000e+000  9.438831e-001
    outer loop
      vertex  2.565083e+001  0.000000e+000 -1.351453e+000
      vertex  2.533378e+001 -6.000000e+000 -1.462392e+000
      vertex  2.565083e+001 -6.000000e+000 -1.351453e+000
    endloop
  endfacet
  facet normal -5.320327e-001  0.000000e+000  8.467239e-001
    outer loop
      vertex  2.565083e+001  0.000000e+000 -1.351453e+000
      vertex  2.565083e+001 -6.000000e+000 -1.351453e+000
      vertex  2.593523e+001  0.000000e+000 -1.172747e+000
    endloop
  endfacet
  facet normal -5.320327e-001  0.000000e+000  8.467239e-001
    outer loop
      vertex  2.593523e+001  0.000000e+000 -1.172747e+000
      vertex  2.565083e+001 -6.000000e+000 -1.351453e+000
      vertex  2.593523e+001 -6.000000e+000 -1.172747e+000
    endloop
  endfacet
  facet normal -7.071067e-001  0.000000e+000  7.071069e-001
    outer loop
      vertex  2.593523e+001  0.000000e+000 -1.172747e+000
      vertex  2.593523e+001 -6.000000e+000 -1.172747e+000
      vertex  2.617275e+001  0.000000e+000 -9.352347e-001
    endloop
  endfacet
  facet normal -7.071067e-001  0.000000e+000  7.071069e-001
    outer loop
      vertex  2.617275e+001  0.000000e+000 -9.352347e-001
      vertex  2.593523e+001 -6.000000e+000 -1.172747e+000
      vertex  2.617275e+001 -6.000000e+000 -9.352347e-001
    endloop
  endfacet
  facet normal -8.467228e-001  0.000000e+000  5.320343e-001
    outer loop
      vertex  2.617275e+001  0.000000e+000 -9.352347e-001
      vertex  2.617275e+001 -6.000000e+000 -9.352347e-001
      vertex  2.635145e+001  0.000000e+000 -6.508256e-001
    endloop
  endfacet
  facet normal -8.467228e-001  0.000000e+000  5.320343e-001
    outer loop
      vertex  2.635145e+001  0.000000e+000 -6.508256e-001
      vertex  2.617275e+001 -6.000000e+000 -9.352347e-001
      vertex  2.635145e+001 -6.000000e+000 -6.508256e-001
    endloop
  endfacet
  facet normal -9.438829e-001  0.000000e+000  3.302803e-001
    outer loop
      vertex  2.635145e+001  0.000000e+000 -6.508256e-001
      vertex  2.635145e+001 -6.000000e+000 -6.508256e-001
      vertex  2.646239e+001  0.000000e+000 -3.337814e-001
    endloop
  endfacet
  facet normal -9.438829e-001  0.000000e+000  3.302803e-001
    outer loop
      vertex  2.646239e+001  0.000000e+000 -3.337814e-001
      vertex  2.635145e+001 -6.000000e+000 -6.508256e-001
      vertex  2.646239e+001 -6.000000e+000 -3.337814e-001
    endloop
  endfacet
  facet normal -9.937125e-001  0.000000e+000  1.119617e-001
    outer loop
      vertex  2.646239e+001  0.000000e+000 -3.337814e-001
      vertex  2.646239e+001 -6.000000e+000 -3.337814e-001
      vertex  2.650000e+001  0.000000e+000  1.836910e-016
    endloop
  endfacet
  facet normal -9.937125e-001  0.000000e+000  1.119617e-001
    outer loop
      vertex  2.650000e+001  0.000000e+000  1.836910e-016
      vertex  2.646239e+001 -6.000000e+000 -3.337814e-001
      vertex  2.650000e+001 -6.000000e+000  1.836910e-016
    endloop
  endfacet
  facet normal -1.000000e+000  0.000000e+000  0.000000e+000
    outer loop
      vertex -6.000000e+000 -6.000000e+000 -5.000000e+000
      vertex -6.000000e+000 -6.000000e+000  5.000000e+000
      vertex -6.000000e+000  3.500000e+001  5.000000e+000
    endloop
  endfacet
  facet normal -9.999999e-001  0.000000e+000  0.000000e+000
    outer loop
      vertex -6.000000e+000 -6.000000e+000 -5.000000e+000
      vertex -6.000000e+000  3.500000e+001  5.000000e+000
      vertex -6.000000e+000  2.466622e+001  1.462392e+000
    endloop
  endfacet
  facet normal -1.000000e+000  0.000000e+000  0.000000e+000
    outer loop
      vertex -6.000000e+000 -6.000000e+000 -5.000000e+000
      vertex -6.000000e+000  2.466622e+001  1.462392e+000
      vertex -6.000000e+000  2.434917e+001  1.351453e+000
    endloop
  endfacet
  facet normal -9.999999e-001  0.000000e+000  0.000000e+000
    outer loop
      vertex -6.000000e+000 -6.000000e+000 -5.000000e+000
      vertex -6.000000e+000  2.434917e+001  1.351453e+000
      vertex -6.000000e+000  2.406477e+001  1.172747e+000
    endloop
  endfacet
  facet normal -9.999999e-001  0.000000e+000  0.000000e+000
    outer loop
      vertex -6.000000e+000 -6.000000e+000 -5.000000e+000
      vertex -6.000000e+000  2.406477e+001  1.172747e+000
      vertex -6.000000e+000  2.382725e+001  9.352347e-001
    endloop
  endfacet
  facet normal -1.000000e+000  0.000000e+000  0.000000e+000
    outer loop
      vertex -6.000000e+000 -6.000000e+000 -5.000000e+000
      vertex -6.000000e+000  2.382725e+001  9.352347e-001
      vertex -6.000000e+000  2.364855e+001  6.508256e-001
    endloop
  endfacet
  facet normal -1.000000e+000  0.000000e+000  0.000000e+000
    outer loop
      vertex -6.000000e+000 -6.000000e+000 -5.000000e+000
      vertex -6.000000e+000  2.364855e+001  6.508256e-001
      vertex -6.000000e+000  2.353761e+001  3.337814e-001
    endloop
  endfacet
  facet normal -1.000000e+000  0.000000e+000  0.000000e+000
    outer loop
      vertex -6.000000e+000 -6.000000e+000 -5.000000e+000
      vertex -6.000000e+000  2.353761e+001  3.337814e-001
      vertex -6.000000e+000  2.350000e+001  1.836910e-016
    endloop
  endfacet
  facet normal -1.000000e+000  0.000000e+000  -0.000000e+000
    outer loop
      vertex -6.000000e+000 -6.000000e+000 -5.000000e+000
      vertex -6.000000e+000  2.350000e+001  1.836910e-016
      vertex -6.000000e+000  2.353761e+001 -3.337814e-001
    endloop
  endfacet
  facet normal -1.000000e+000  0.000000e+000  -0.000000e+000
    outer loop
      vertex -6.000000e+000 -6.000000e+000 -5.000000e+000
      vertex -6.000000e+000  2.353761e+001 -3.337814e-001
      vertex -6.000000e+000  2.364855e+001 -6.508256e-001
    endloop
  endfacet
  facet normal -1.000000e+000  0.000000e+000  -0.000000e+000
    outer loop
      vertex -6.000000e+000 -6.000000e+000 -5.000000e+000
      vertex -6.000000e+000  2.364855e+001 -6.508256e-001
      vertex -6.000000e+000  2.382725e+001 -9.352347e-001
    endloop
  endfacet
  facet normal -1.000000e+000  0.000000e+000  -0.000000e+000
    outer loop
      vertex -6.000000e+000 -6.000000e+000 -5.000000e+000
      vertex -6.000000e+000  2.382725e+001 -9.352347e-001
      vertex -6.000000e+000  2.406477e+001 -1.172747e+000
    endloop
  endfacet
  facet normal -1.000000e+000  0.000000e+000  -0.000000e+000
    outer loop
      vertex -6.000000e+000 -6.000000e+000 -5.000000e+000
      vertex -6.000000e+000  2.406477e+001 -1.172747e+000
      vertex -6.000000e+000  2.434917e+001 -1.351453e+000
    endloop
  endfacet
  facet normal -1.000000e+000  0.000000e+000  -0.000000e+000
    outer loop
      vertex -6.000000e+000 -6.000000e+000 -5.000000e+000
      vertex -6.000000e+000  2.434917e+001 -1.351453e+000
      vertex -6.000000e+000  2.466622e+001 -1.462392e+000
    endloop
  endfacet
  facet normal -9.999999e-001  0.000000e+000  -0.000000e+000
    outer loop
      vertex -6.000000e+000 -6.000000e+000 -5.000000e+000
      vertex -6.000000e+000  2.466622e+001 -1.462392e+000
      vertex -6.000000e+000  3.500000e+001 -5.000000e+000
    endloop
  endfacet
  facet normal -1.000000e+000  0.000000e+000  0.000000e+000
    outer loop
      vertex -6.000000e+000  3.500000e+001 -5.000000e+000
      vertex -6.000000e+000  2.466622e+001 -1.462392e+000
      vertex -6.000000e+000  2.500000e+001 -1.500000e+000
    endloop
  endfacet
  facet normal -1.000000e+000  0.000000e+000  0.000000e+000
    outer loop
      vertex -6.000000e+000  3.500000e+001 -5.000000e+000
      vertex -6.000000e+000  2.500000e+001 -1.500000e+000
      vertex -6.000000e+000  2.533378e+001 -1.462392e+000
    endloop
  endfacet
  facet normal -1.000000e+000  0.000000e+000  0.000000e+000
    outer loop
      vertex -6.000000e+000  3.500000e+001 -5.000000e+000
      vertex -6.000000e+000  2.533378e+001 -1.462392e+000
      vertex -6.000000e+000  2.565083e+001 -1.351453e+000
    endloop
  endfacet
  facet normal -1.000000e+000  0.000000e+000  0.000000e+000
    outer loop
      vertex -6.000000e+000  3.500000e+001 -5.000000e+000
      vertex -6.000000e+000  2.565083e+001 -1.351453e+000
      vertex -6.000000e+000  2.593523e+001 -1.172747e+000
    endloop
  endfacet
  facet normal -1.000000e+000  0.000000e+000  0.000000e+000
    outer loop
      vertex -6.000000e+000  3.500000e+001 -5.000000e+000
      vertex -6.000000e+000  2.593523e+001 -1.172747e+000
      vertex -6.000000e+000  2.617275e+001 -9.352347e-001
    endloop
  endfacet
  facet normal -9.999999e-001  0.000000e+000  0.000000e+000
    outer loop
      vertex -6.000000e+000  3.500000e+001 -5.000000e+000
      vertex -6.000000e+000  2.617275e+001 -9.352347e-001
      vertex -6.000000e+000  2.635145e+001 -6.508256e-001
    endloop
  endfacet
  facet normal -1.000000e+000  0.000000e+000  0.000000e+000
    outer loop
      vertex -6.000000e+000  3.500000e+001 -5.000000e+000
      vertex -6.000000e+000  2.635145e+001 -6.508256e-001
      vertex -6.000000e+000  2.646239e+001 -3.337814e-001
    endloop
  endfacet
  facet normal -1.000000e+000  0.000000e+000  0.000000e+000
    outer loop
      vertex -6.000000e+000  3.500000e+001 -5.000000e+000
      vertex -6.000000e+000  2.646239e+001 -3.337814e-001
      vertex -6.000000e+000  2.650000e+001  0.000000e+000
    endloop
  endfacet
  facet normal -1.000000e+000  0.000000e+000  0.000000e+000
    outer loop
      vertex -6.000000e+000  3.500000e+001 -5.000000e+000
      vertex -6.000000e+000  2.650000e+001  0.000000e+000
      vertex -6.000000e+000  3.500000e+001  5.000000e+000
    endloop
  endfacet
  facet normal -1.000000e+000  0.000000e+000  0.000000e+000
    outer loop
      vertex -6.000000e+000  3.500000e+001  5.000000e+000
      vertex -6.000000e+000  2.650000e+001  0.000000e+000
      vertex -6.000000e+000  2.646239e+001  3.337814e-001
    endloop
  endfacet
  facet normal -1.000000e+000  0.000000e+000  0.000000e+000
    outer loop
      vertex -6.000000e+000  3.500000e+001  5.000000e+000
      vertex -6.000000e+000  2.646239e+001  3.337814e-001
      vertex -6.000000e+000  2.635145e+001  6.508256e-001
    endloop
  endfacet
  facet normal -9.999999e-001  0.000000e+000  0.000000e+000
    outer loop
      vertex -6.000000e+000  3.500000e+001  5.000000e+000
      vertex -6.000000e+000  2.635145e+001  6.508256e-001
      vertex -6.000000e+000  2.617275e+001  9.352347e-001
    endloop
  endfacet
  facet normal -1.000000e+000  0.000000e+000  0.000000e+000
    outer loop
      vertex -6.000000e+000  3.500000e+001  5.000000e+000
      vertex -6.000000e+000  2.617275e+001  9.352347e-001
      vertex -6.000000e+000  2.593523e+001  1.172747e+000
    endloop
  endfacet
  facet normal -1.000000e+000  0.000000e+000  0.000000e+000
    outer loop
      vertex -6.000000e+000  3.500000e+001  5.000000e+000
      vertex -6.000000e+000  2.593523e+001  1.172747e+000
      vertex -6.000000e+000  2.565083e+001  1.351453e+000
    endloop
  endfacet
  facet normal -1.000000e+000  0.000000e+000  0.000000e+000
    outer loop
      vertex -6.000000e+000  3.500000e+001  5.000000e+000
      vertex -6.000000e+000  2.565083e+001  1.351453e+000
      vertex -6.000000e+000  2.533378e+001  1.462392e+000
    endloop
  endfacet
  facet normal -1.000000e+000  0.000000e+000  0.000000e+000
    outer loop
      vertex -6.000000e+000  3.500000e+001  5.000000e+000
      vertex -6.000000e+000  2.533378e+001  1.462392e+000
      vertex -6.000000e+000  2.500000e+001  1.500000e+000
    endloop
  endfacet
  facet normal -1.000000e+000  -0.000000e+000  0.000000e+000
    outer loop
      vertex -6.000000e+000  3.500000e+001  5.000000e+000
      vertex -6.000000e+000  2.500000e+001  1.500000e+000
      vertex -6.000000e+000  2.466622e+001  1.462392e+000
    endloop
  endfacet
  facet normal  0.000000e+000  9.937125e-001 -1.119617e-001
    outer loop
      vertex  0.000000e+000  2.350000e+001  1.836910e-016
      vertex -6.000000e+000  2.350000e+001  1.836910e-016
      vertex  0.000000e+000  2.353761e+001  3.337814e-001
    endloop
  endfacet
  facet normal  0.000000e+000  9.937125e-001 -1.119617e-001
    outer loop
      vertex  0.000000e+000  2.353761e+001  3.337814e-001
      vertex -6.000000e+000  2.350000e+001  1.836910e-016
      vertex -6.000000e+000  2.353761e+001  3.337814e-001
    endloop
  endfacet
  facet normal  0.000000e+000  9.438829e-001 -3.302803e-001
    outer loop
      vertex  0.000000e+000  2.353761e+001  3.337814e-001
      vertex -6.000000e+000  2.353761e+001  3.337814e-001
      vertex  0.000000e+000  2.364855e+001  6.508256e-001
    endloop
  endfacet
  facet normal  0.000000e+000  9.438829e-001 -3.302803e-001
    outer loop
      vertex  0.000000e+000  2.364855e+001  6.508256e-001
      vertex -6.000000e+000  2.353761e+001  3.337814e-001
      vertex -6.000000e+000  2.364855e+001  6.508256e-001
    endloop
  endfacet
  facet normal  0.000000e+000  8.467228e-001 -5.320343e-001
    outer loop
      vertex  0.000000e+000  2.364855e+001  6.508256e-001
      vertex -6.000000e+000  2.364855e+001  6.508256e-001
      vertex  0.000000e+000  2.382725e+001  9.352347e-001
    endloop
  endfacet
  facet normal  0.000000e+000  8.467228e-001 -5.320343e-001
    outer loop
      vertex  0.000000e+000  2.382725e+001  9.352347e-001
      vertex -6.000000e+000  2.364855e+001  6.508256e-001
      vertex -6.000000e+000  2.382725e+001  9.352347e-001
    endloop
  endfacet
  facet normal  0.000000e+000  7.071067e-001 -7.071069e-001
    outer loop
      vertex  0.000000e+000  2.382725e+001  9.352347e-001
      vertex -6.000000e+000  2.382725e+001  9.352347e-001
      vertex  0.000000e+000  2.406477e+001  1.172747e+000
    endloop
  endfacet
  facet normal  0.000000e+000  7.071067e-001 -7.071069e-001
    outer loop
      vertex  0.000000e+000  2.406477e+001  1.172747e+000
      vertex -6.000000e+000  2.382725e+001  9.352347e-001
      vertex -6.000000e+000  2.406477e+001  1.172747e+000
    endloop
  endfacet
  facet normal  0.000000e+000  5.320327e-001 -8.467239e-001
    outer loop
      vertex  0.000000e+000  2.406477e+001  1.172747e+000
      vertex -6.000000e+000  2.406477e+001  1.172747e+000
      vertex  0.000000e+000  2.434917e+001  1.351453e+000
    endloop
  endfacet
  facet normal  0.000000e+000  5.320327e-001 -8.467239e-001
    outer loop
      vertex  0.000000e+000  2.434917e+001  1.351453e+000
      vertex -6.000000e+000  2.406477e+001  1.172747e+000
      vertex -6.000000e+000  2.434917e+001  1.351453e+000
    endloop
  endfacet
  facet normal  0.000000e+000  3.302799e-001 -9.438831e-001
    outer loop
      vertex  0.000000e+000  2.434917e+001  1.351453e+000
      vertex -6.000000e+000  2.434917e+001  1.351453e+000
      vertex  0.000000e+000  2.466622e+001  1.462392e+000
    endloop
  endfacet
  facet normal  0.000000e+000  3.302799e-001 -9.438831e-001
    outer loop
      vertex  0.000000e+000  2.466622e+001  1.462392e+000
      vertex -6.000000e+000  2.434917e+001  1.351453e+000
      vertex -6.000000e+000  2.466622e+001  1.462392e+000
    endloop
  endfacet
  facet normal  0.000000e+000  1.119643e-001 -9.937122e-001
    outer loop
      vertex  0.000000e+000  2.466622e+001  1.462392e+000
      vertex -6.000000e+000  2.466622e+001  1.462392e+000
      vertex  0.000000e+000  2.500000e+001  1.500000e+000
    endloop
  endfacet
  facet normal  0.000000e+000  1.119643e-001 -9.937122e-001
    outer loop
      vertex  0.000000e+000  2.500000e+001  1.500000e+000
      vertex -6.000000e+000  2.466622e+001  1.462392e+000
      vertex -6.000000e+000  2.500000e+001  1.500000e+000
    endloop
  endfacet
  facet normal  0.000000e+000 -1.119643e-001 -9.937122e-001
    outer loop
      vertex  0.000000e+000  2.500000e+001  1.500000e+000
      vertex -6.000000e+000  2.500000e+001  1.500000e+000
      vertex  0.000000e+000  2.533378e+001  1.462392e+000
    endloop
  endfacet
  facet normal  -0.000000e+000 -1.119643e-001 -9.937122e-001
    outer loop
      vertex  0.000000e+000  2.533378e+001  1.462392e+000
      vertex -6.000000e+000  2.500000e+001  1.500000e+000
      vertex -6.000000e+000  2.533378e+001  1.462392e+000
    endloop
  endfacet
  facet normal  0.000000e+000 -3.302799e-001 -9.438831e-001
    outer loop
      vertex  0.000000e+000  2.533378e+001  1.462392e+000
      vertex -6.000000e+000  2.533378e+001  1.462392e+000
      vertex  0.000000e+000  2.565083e+001  1.351453e+000
    endloop
  endfacet
  facet normal  -0.000000e+000 -3.302799e-001 -9.438831e-001
    outer loop
      vertex  0.000000e+000  2.565083e+001  1.351453e+000
      vertex -6.000000e+000  2.533378e+001  1.462392e+000
      vertex -6.000000e+000  2.565083e+001  1.351453e+000
    endloop
  endfacet
  facet normal  0.000000e+000 -5.320327e-001 -8.467239e-001
    outer loop
      vertex  0.000000e+000  2.565083e+001  1.351453e+000
      vertex -6.000000e+000  2.565083e+001  1.351453e+000
      vertex  0.000000e+000  2.593523e+001  1.172747e+000
    endloop
  endfacet
  facet normal  -0.000000e+000 -5.320327e-001 -8.467239e-001
    outer loop
      vertex  0.000000e+000  2.593523e+001  1.172747e+000
      vertex -6.000000e+000  2.565083e+001  1.351453e+000
      vertex -6.000000e+000  2.593523e+001  1.172747e+000
    endloop
  endfacet
  facet normal  0.000000e+000 -7.071067e-001 -7.071069e-001
    outer loop
      vertex  0.000000e+000  2.593523e+001  1.172747e+000
      vertex -6.000000e+000  2.593523e+001  1.172747e+000
      vertex  0.000000e+000  2.617275e+001  9.352347e-001
    endloop
  endfacet
  facet normal  -0.000000e+000 -7.071067e-001 -7.071069e-001
    outer loop
      vertex  0.000000e+000  2.617275e+001  9.352347e-001
      vertex -6.000000e+000  2.593523e+001  1.172747e+000
      vertex -6.000000e+000  2.617275e+001  9.352347e-001
    endloop
  endfacet
  facet normal  0.000000e+000 -8.467228e-001 -5.320343e-001
    outer loop
      vertex  0.000000e+000  2.617275e+001  9.352347e-001
      vertex -6.000000e+000  2.617275e+001  9.352347e-001
      vertex  0.000000e+000  2.635145e+001  6.508256e-001
    endloop
  endfacet
  facet normal  -0.000000e+000 -8.467228e-001 -5.320343e-001
    outer loop
      vertex  0.000000e+000  2.635145e+001  6.508256e-001
      vertex -6.000000e+000  2.617275e+001  9.352347e-001
      vertex -6.000000e+000  2.635145e+001  6.508256e-001
    endloop
  endfacet
  facet normal  0.000000e+000 -9.438829e-001 -3.302803e-001
    outer loop
      vertex  0.000000e+000  2.635145e+001  6.508256e-001
      vertex -6.000000e+000  2.635145e+001  6.508256e-001
      vertex  0.000000e+000  2.646239e+001  3.337814e-001
    endloop
  endfacet
  facet normal  -0.000000e+000 -9.438829e-001 -3.302803e-001
    outer loop
      vertex  0.000000e+000  2.646239e+001  3.337814e-001
      vertex -6.000000e+000  2.635145e+001  6.508256e-001
      vertex -6.000000e+000  2.646239e+001  3.337814e-001
    endloop
  endfacet
  facet normal  0.000000e+000 -9.937125e-001 -1.119617e-001
    outer loop
      vertex  0.000000e+000  2.646239e+001  3.337814e-001
      vertex -6.000000e+000  2.646239e+001  3.337814e-001
      vertex  0.000000e+000  2.650000e+001  0.000000e+000
    endloop
  endfacet
  facet normal  -0.000000e+000 -9.937125e-001 -1.119617e-001
    outer loop
      vertex  0.000000e+000  2.650000e+001  0.000000e+000
      vertex -6.000000e+000  2.646239e+001  3.337814e-001
      vertex -6.000000e+000  2.650000e+001  0.000000e+000
    endloop
  endfacet
  facet normal  0.000000e+000 -9.937125e-001  1.119617e-001
    outer loop
      vertex  0.000000e+000  2.650000e+001  0.000000e+000
      vertex -6.000000e+000  2.650000e+001  0.000000e+000
      vertex  0.000000e+000  2.646239e+001 -3.337814e-001
    endloop
  endfacet
  facet normal  0.000000e+000 -9.937125e-001  1.119617e-001
    outer loop
      vertex  0.000000e+000  2.646239e+001 -3.337814e-001
      vertex -6.000000e+000  2.650000e+001  0.000000e+000
      vertex -6.000000e+000  2.646239e+001 -3.337814e-001
    endloop
  endfacet
  facet normal  0.000000e+000 -9.438829e-001  3.302803e-001
    outer loop
      vertex  0.000000e+000  2.646239e+001 -3.337814e-001
      vertex -6.000000e+000  2.646239e+001 -3.337814e-001
      vertex  0.000000e+000  2.635145e+001 -6.508256e-001
    endloop
  endfacet
  facet normal  0.000000e+000 -9.438829e-001  3.302803e-001
    outer loop
      vertex  0.000000e+000  2.635145e+001 -6.508256e-001
      vertex -6.000000e+000  2.646239e+001 -3.337814e-001
      vertex -6.000000e+000  2.635145e+001 -6.508256e-001
    endloop
  endfacet
  facet normal  0.000000e+000 -8.467228e-001  5.320343e-001
    outer loop
      vertex  0.000000e+000  2.635145e+001 -6.508256e-001
      vertex -6.000000e+000  2.635145e+001 -6.508256e-001
      vertex  0.000000e+000  2.617275e+001 -9.352347e-001
    endloop
  endfacet
  facet normal  0.000000e+000 -8.467228e-001  5.320343e-001
    outer loop
      vertex  0.000000e+000  2.617275e+001 -9.352347e-001
      vertex -6.000000e+000  2.635145e+001 -6.508256e-001
      vertex -6.000000e+000  2.617275e+001 -9.352347e-001
    endloop
  endfacet
  facet normal  0.000000e+000 -7.071067e-001  7.071069e-001
    outer loop
      vertex  0.000000e+000  2.617275e+001 -9.352347e-001
      vertex -6.000000e+000  2.617275e+001 -9.352347e-001
      vertex  0.000000e+000  2.593523e+001 -1.172747e+000
    endloop
  endfacet
  facet normal  0.000000e+000 -7.071067e-001  7.071069e-001
    outer loop
      vertex  0.000000e+000  2.593523e+001 -1.172747e+000
      vertex -6.000000e+000  2.617275e+001 -9.352347e-001
      vertex -6.000000e+000  2.593523e+001 -1.172747e+000
    endloop
  endfacet
  facet normal  0.000000e+000 -5.320327e-001  8.467239e-001
    outer loop
      vertex  0.000000e+000  2.593523e+001 -1.172747e+000
      vertex -6.000000e+000  2.593523e+001 -1.172747e+000
      vertex  0.000000e+000  2.565083e+001 -1.351453e+000
    endloop
  endfacet
  facet normal  0.000000e+000 -5.320327e-001  8.467239e-001
    outer loop
      vertex  0.000000e+000  2.565083e+001 -1.351453e+000
      vertex -6.000000e+000  2.593523e+001 -1.172747e+000
      vertex -6.000000e+000  2.565083e+001 -1.351453e+000
    endloop
  endfacet
  facet normal  0.000000e+000 -3.302799e-001  9.438831e-001
    outer loop
      vertex  0.000000e+000  2.565083e+001 -1.351453e+000
      vertex -6.000000e+000  2.565083e+001 -1.351453e+000
      vertex  0.000000e+000  2.533378e+001 -1.462392e+000
    endloop
  endfacet
  facet normal  0.000000e+000 -3.302799e-001  9.438831e-001
    outer loop
      vertex  0.000000e+000  2.533378e+001 -1.462392e+000
      vertex -6.000000e+000  2.565083e+001 -1.351453e+000
      vertex -6.000000e+000  2.533378e+001 -1.462392e+000
    endloop
  endfacet
  facet normal  0.000000e+000 -1.119643e-001  9.937122e-001
    outer loop
      vertex  0.000000e+000  2.533378e+001 -1.462392e+000
      vertex -6.000000e+000  2.533378e+001 -1.462392e+000
      vertex  0.000000e+000  2.500000e+001 -1.500000e+000
    endloop
  endfacet
  facet normal  0.000000e+000 -1.119643e-001  9.937122e-001
    outer loop
      vertex  0.000000e+000  2.500000e+001 -1.500000e+000
      vertex -6.000000e+000  2.533378e+001 -1.462392e+000
      vertex -6.000000e+000  2.500000e+001 -1.500000e+000
    endloop
  endfacet
  facet normal  -0.000000e+000  1.119643e-001  9.937122e-001
    outer loop
      vertex  0.000000e+000  2.500000e+001 -1.500000e+000
      vertex -6.000000e+000  2.500000e+001 -1.500000e+000
      vertex  0.000000e+000  2.466622e+001 -1.462392e+000
    endloop
  endfacet
  facet normal  0.000000e+000  1.119643e-001  9.937122e-001
    outer loop
      vertex  0.000000e+000  2.466622e+001 -1.462392e+000
      vertex -6.000000e+000  2.500000e+001 -1.500000e+000
      vertex -6.000000e+000  2.466622e+001 -1.462392e+000
    endloop
  endfacet
  facet normal  -0.000000e+000  3.302799e-001  9.438831e-001
    outer loop
      vertex  0.000000e+000  2.466622e+001 -1.462392e+000
      vertex -6.000000e+000  2.466622e+001 -1.462392e+000
      vertex  0.000000e+000  2.434917e+001 -1.351453e+000
    endloop
  endfacet
  facet normal  0.000000e+000  3.302799e-001  9.438831e-001
    outer loop
      vertex  0.000000e+000  2.434917e+001 -1.351453e+000
      vertex -6.000000e+000  2.466622e+001 -1.462392e+000
      vertex -6.000000e+000  2.434917e+001 -1.351453e+000
    endloop
  endfacet
  facet normal  -0.000000e+000  5.320327e-001  8.467239e-001
    outer loop
      vertex  0.000000e+000  2.434917e+001 -1.351453e+000
      vertex -6.000000e+000  2.434917e+001 -1.351453e+000
      vertex  0.000000e+000  2.406477e+001 -1.172747e+000
    endloop
  endfacet
  facet normal  0.000000e+000  5.320327e-001  8.467239e-001
    outer loop
      vertex  0.000000e+000  2.406477e+001 -1.172747e+000
      vertex -6.000000e+000  2.434917e+001 -1.351453e+000
      vertex -6.000000e+000  2.406477e+001 -1.172747e+000
    endloop
  endfacet
  facet normal  -0.000000e+000  7.071067e-001  7.071069e-001
    outer loop
      vertex  0.000000e+000  2.406477e+001 -1.172747e+000
      vertex -6.000000e+000  2.406477e+001 -1.172747e+000
      vertex  0.000000e+000  2.382725e+001 -9.352347e-001
    endloop
  endfacet
  facet normal  0.000000e+000  7.071067e-001  7.071069e-001
    outer loop
      vertex  0.000000e+000  2.382725e+001 -9.352347e-001
      vertex -6.000000e+000  2.406477e+001 -1.172747e+000
      vertex -6.000000e+000  2.382725e+001 -9.352347e-001
    endloop
  endfacet
  facet normal  -0.000000e+000  8.467228e-001  5.320343e-001
    outer loop
      vertex  0.000000e+000  2.382725e+001 -9.352347e-001
      vertex -6.000000e+000  2.382725e+001 -9.352347e-001
      vertex  0.000000e+000  2.364855e+001 -6.508256e-001
    endloop
  endfacet
  facet normal  0.000000e+000  8.467228e-001  5.320343e-001
    outer loop
      vertex  0.000000e+000  2.364855e+001 -6.508256e-001
      vertex -6.000000e+000  2.382725e+001 -9.352347e-001
      vertex -6.000000e+000  2.364855e+001 -6.508256e-001
    endloop
  endfacet
  facet normal  -0.000000e+000  9.438829e-001  3.302803e-001
    outer loop
      vertex  0.000000e+000  2.364855e+001 -6.508256e-001
      vertex -6.000000e+000  2.364855e+001 -6.508256e-001
      vertex  0.000000e+000  2.353761e+001 -3.337814e-001
    endloop
  endfacet
  facet normal  0.000000e+000  9.438829e-001  3.302803e-001
    outer loop
      vertex  0.000000e+000  2.353761e+001 -3.337814e-001
      vertex -6.000000e+000  2.364855e+001 -6.508256e-001
      vertex -6.000000e+000  2.353761e+001 -3.337814e-001
    endloop
  endfacet
  facet normal  -0.000000e+000  9.937125e-001  1.119617e-001
    outer loop
      vertex  0.000000e+000  2.353761e+001 -3.337814e-001
      vertex -6.000000e+000  2.353761e+001 -3.337814e-001
      vertex  0.000000e+000  2.350000e+001  1.836910e-016
    endloop
  endfacet
  facet normal  0.000000e+000  9.937125e-001  1.119617e-001
    outer loop
      vertex  0.000000e+000  2.350000e+001  1.836910e-016
      vertex -6.000000e+000  2.353761e+001 -3.337814e-001
      vertex -6.000000e+000  2.350000e+001  1.836910e-016
    endloop
  endfacet
  facet normal  7.071068e-001  7.071068e-001  0.000000e+000
    outer loop
      vertex  0.000000e+000  1.606384e+001 -5.000000e+000
      vertex  0.000000e+000  1.606384e+001  5.000000e+000
      vertex  1.606384e+001  0.000000e+000 -5.000000e+000
    endloop
  endfacet
  facet normal  7.071068e-001  7.071068e-001  -0.000000e+000
    outer loop
      vertex  1.606384e+001  0.000000e+000 -5.000000e+000
      vertex  0.000000e+000  1.606384e+001  5.000000e+000
      vertex  1.606384e+001  0.000000e+000  5.000000e+000
    endloop
  endfacet
endsolid CATIA STL
