<?xml version="1.0" standalone="no"?>
<!DOCTYPE svg PUBLIC "-//W3C//DTD SVG 1.1//EN"
  "http://www.w3.org/Graphics/SVG/1.1/DTD/svg11.dtd">
<svg width="302mm" height="415.9999999999999mm" viewBox="-151 -207.99999999999994 302 415.9999999999999" xmlns="http://www.w3.org/2000/svg" version="1.1">
	<title>svgOutput</title>
	<desc>made with tinkercad</desc>
<path d="M -150 -206.99999999999994 L -145.8778839111328 -206.99999999999994 L 0 -206.99999999999994 L 80.36055755615234 -206.99999999999994 L 150 -206.99999999999994 L 150 -131.0720062255859 L 150 -114.68800354003903 L 150 -113.1860427856445 L 150 -108.53800201416013 L 150 -103.56874084472653 L 150 -98.30400085449216 L 150 -65.53600311279295 L 150 -47.38851165771484 L 150 -20.174554824829098 L 150 -13.186042785644528 L 150 -8.538000106811522 L 150 -3.5687386989593497 L 150 1.1102230246251565e-16 L 150 65.53600311279295 L 150 98.30400085449216 L 150 99.8254470825195 L 150 106.81395721435544 L 150 111.46199798583982 L 150 114.68800354003903 L 150 131.0720062255859 L 150 131.46200561523435 L 150 136.4312591552734 L 150 144.8943176269531 L 150 206.99999999999994 L 0 206.99999999999994 L -54.440093994140625 206.99999999999994 L -150 206.99999999999994 L -150 1.1102230246251565e-16 L -150 -1.4620000123977657 L -150 -25.6658706665039 L -150 -65.08663177490233 L -150 -206.99999999999994 M 139.06500244140625 -131.1730041503906 L 138.98451232910156 -131.0720062255859 L 138.6490020751953 -130.65100097656247 L 138.5 -129.99999999999997 L 138.6490020751953 -129.34899902343747 L 139.06500244140625 -128.82699584960935 L 139.66600036621094 -128.5379943847656 L 140.33399963378906 -128.5379943847656 L 140.93499755859375 -128.82699584960935 L 141.3520050048828 -129.34899902343747 L 141.5 -129.99999999999997 L 141.3520050048828 -130.65100097656247 L 141.01568603515625 -131.0720062255859 L 140.93499755859375 -131.1730041503906 L 140.33399963378906 -131.46200561523435 L 139.66600036621094 -131.46200561523435 L 139.06500244140625 -131.1730041503906 M 138.6490020751953 -110.65100097656247 L 138.5 -109.99999999999997 L 138.6490020751953 -109.34899902343747 L 139.06500244140625 -108.82700347900388 L 139.66600036621094 -108.53800201416013 L 140.33399963378906 -108.53800201416013 L 140.93499755859375 -108.82700347900388 L 141.3520050048828 -109.34899902343747 L 141.5 -109.99999999999997 L 141.3520050048828 -110.65100097656247 L 140.93499755859375 -111.17299652099607 L 140.33399963378906 -111.46199798583982 L 139.66600036621094 -111.46199798583982 L 139.06500244140625 -111.17299652099607 L 138.6490020751953 -110.65100097656247 M 138.6490020751953 -10.651000022888182 L 138.5 -9.999999999999998 L 138.6490020751953 -9.348999977111815 L 139.06500244140625 -8.826999664306639 L 139.66600036621094 -8.538000106811522 L 140.33399963378906 -8.538000106811522 L 140.93499755859375 -8.826999664306639 L 141.3520050048828 -9.348999977111815 L 141.5 -9.999999999999998 L 141.3520050048828 -10.651000022888182 L 140.93499755859375 -11.173000335693358 L 140.33399963378906 -11.461999893188475 L 139.66600036621094 -11.461999893188475 L 139.06500244140625 -11.173000335693358 L 138.6490020751953 -10.651000022888182 M -101.35199737548828 -0.6510000228881834 L -101.5 1.1102230246251565e-16 L -101.35199737548828 0.6510000228881836 L -100.93499755859375 1.1729999780654907 L -100.33399963378906 1.4620000123977661 L -99.66600036621094 1.4620000123977661 L -99.06500244140625 1.1729999780654907 L -98.64900207519531 0.6510000228881836 L -98.5 1.1102230246251565e-16 L -98.64900207519531 -0.6510000228881834 L -99.06500244140625 -1.1729999780654903 L -99.66600036621094 -1.4620000123977657 L -100.33399963378906 -1.4620000123977657 L -100.93499755859375 -1.1729999780654903 L -101.35199737548828 -0.6510000228881834 M 140.93499755859375 11.173000335693358 L 141.3520050048828 10.651000022888182 L 141.5 9.999999999999998 L 141.3520050048828 9.348999977111815 L 140.93499755859375 8.826999664306639 L 140.33399963378906 8.538000106811522 L 139.66600036621094 8.538000106811522 L 139.06500244140625 8.826999664306639 L 138.6490020751953 9.348999977111815 L 138.5 9.999999999999998 L 138.6490020751953 10.651000022888182 L 139.06500244140625 11.173000335693358 L 139.66600036621094 11.461999893188475 L 140.33399963378906 11.461999893188475 L 140.93499755859375 11.173000335693358 M 138.6490020751953 109.34899902343747 L 138.5 109.99999999999997 L 138.6490020751953 110.65100097656247 L 139.06500244140625 111.17299652099607 L 139.66600036621094 111.46199798583982 L 140.33399963378906 111.46199798583982 L 140.93499755859375 111.17299652099607 L 141.3520050048828 110.65100097656247 L 141.5 109.99999999999997 L 141.3520050048828 109.34899902343747 L 140.93499755859375 108.82700347900388 L 140.33399963378906 108.53800201416013 L 139.66600036621094 108.53800201416013 L 139.06500244140625 108.82700347900388 L 138.6490020751953 109.34899902343747 M 138.6490020751953 129.34899902343747 L 138.5 129.99999999999997 L 138.6490020751953 130.65100097656247 L 138.98451232910156 131.0720062255859 L 139.06500244140625 131.1730041503906 L 139.66600036621094 131.46200561523435 L 140.33399963378906 131.46200561523435 L 140.93499755859375 131.1730041503906 L 141.01568603515625 131.0720062255859 L 141.3520050048828 130.65100097656247 L 141.5 129.99999999999997 L 141.3520050048828 129.34899902343747 L 140.93499755859375 128.82699584960935 L 140.33399963378906 128.5379943847656 L 139.66600036621094 128.5379943847656 L 139.06500244140625 128.82699584960935 L 138.6490020751953 129.34899902343747 z" fill="none" stroke="rgb(255,0,0)" stroke-width="0.001mm" />
</svg>