solid CATIA STL
  facet normal  0.000000e+000  -0.000000e+000 -1.000000e+000
    outer loop
      vertex  9.352347e-001 -1.172747e+000  0.000000e+000
      vertex  1.351453e+000 -6.508256e-001  0.000000e+000
      vertex  1.481532e+001 -2.346517e+000  0.000000e+000
    endloop
  endfacet
  facet normal  0.000000e+000  -0.000000e+000 -1.000000e+000
    outer loop
      vertex  3.337814e-001 -1.462392e+000  0.000000e+000
      vertex  9.352347e-001 -1.172747e+000  0.000000e+000
      vertex  1.481532e+001 -2.346517e+000  0.000000e+000
    endloop
  endfacet
  facet normal  0.000000e+000  -0.000000e+000 -1.000000e+000
    outer loop
      vertex -1.500000e+001  8.498248e-015  0.000000e+000
      vertex -1.481532e+001  2.346517e+000  0.000000e+000
      vertex -3.337814e-001  1.462392e+000  0.000000e+000
    endloop
  endfacet
  facet normal  0.000000e+000  0.000000e+000 -1.000000e+000
    outer loop
      vertex -1.500000e+001  8.498248e-015  0.000000e+000
      vertex -3.337814e-001  1.462392e+000  0.000000e+000
      vertex -9.352347e-001  1.172747e+000  0.000000e+000
    endloop
  endfacet
  facet normal  0.000000e+000  0.000000e+000 -1.000000e+000
    outer loop
      vertex -1.500000e+001  8.498248e-015  0.000000e+000
      vertex -9.352347e-001  1.172747e+000  0.000000e+000
      vertex -1.351453e+000  6.508256e-001  0.000000e+000
    endloop
  endfacet
  facet normal  0.000000e+000  0.000000e+000 -1.000000e+000
    outer loop
      vertex -1.500000e+001  8.498248e-015  0.000000e+000
      vertex -1.351453e+000  6.508256e-001  0.000000e+000
      vertex -1.500000e+000  1.836910e-016  0.000000e+000
    endloop
  endfacet
  facet normal  0.000000e+000  -0.000000e+000 -1.000000e+000
    outer loop
      vertex -1.481532e+001  2.346517e+000  0.000000e+000
      vertex -1.426585e+001  4.635255e+000  0.000000e+000
      vertex -1.336510e+001  6.809857e+000  0.000000e+000
    endloop
  endfacet
  facet normal  0.000000e+000  -0.000000e+000 -1.000000e+000
    outer loop
      vertex -1.481532e+001  2.346517e+000  0.000000e+000
      vertex -1.336510e+001  6.809857e+000  0.000000e+000
      vertex -1.213525e+001  8.816779e+000  0.000000e+000
    endloop
  endfacet
  facet normal  0.000000e+000  -0.000000e+000 -1.000000e+000
    outer loop
      vertex -1.481532e+001  2.346517e+000  0.000000e+000
      vertex -1.213525e+001  8.816779e+000  0.000000e+000
      vertex -1.060660e+001  1.060660e+001  0.000000e+000
    endloop
  endfacet
  facet normal  0.000000e+000  -0.000000e+000 -1.000000e+000
    outer loop
      vertex -1.481532e+001  2.346517e+000  0.000000e+000
      vertex -1.060660e+001  1.060660e+001  0.000000e+000
      vertex -8.816779e+000  1.213525e+001  0.000000e+000
    endloop
  endfacet
  facet normal  0.000000e+000  -0.000000e+000 -1.000000e+000
    outer loop
      vertex -1.481532e+001  2.346517e+000  0.000000e+000
      vertex -8.816779e+000  1.213525e+001  0.000000e+000
      vertex -6.809857e+000  1.336510e+001  0.000000e+000
    endloop
  endfacet
  facet normal  0.000000e+000  -0.000000e+000 -1.000000e+000
    outer loop
      vertex -1.481532e+001  2.346517e+000  0.000000e+000
      vertex -6.809857e+000  1.336510e+001  0.000000e+000
      vertex -4.635255e+000  1.426585e+001  0.000000e+000
    endloop
  endfacet
  facet normal  0.000000e+000  -0.000000e+000 -1.000000e+000
    outer loop
      vertex -1.481532e+001  2.346517e+000  0.000000e+000
      vertex -4.635255e+000  1.426585e+001  0.000000e+000
      vertex -2.346517e+000  1.481532e+001  0.000000e+000
    endloop
  endfacet
  facet normal  0.000000e+000  -0.000000e+000 -1.000000e+000
    outer loop
      vertex  3.337814e-001  1.462392e+000  0.000000e+000
      vertex  2.346517e+000  1.481532e+001  0.000000e+000
      vertex  4.635255e+000  1.426585e+001  0.000000e+000
    endloop
  endfacet
  facet normal  0.000000e+000  -0.000000e+000 -1.000000e+000
    outer loop
      vertex  3.337814e-001  1.462392e+000  0.000000e+000
      vertex  4.635255e+000  1.426585e+001  0.000000e+000
      vertex  6.809857e+000  1.336510e+001  0.000000e+000
    endloop
  endfacet
  facet normal  0.000000e+000  -0.000000e+000 -1.000000e+000
    outer loop
      vertex  3.337814e-001  1.462392e+000  0.000000e+000
      vertex  6.809857e+000  1.336510e+001  0.000000e+000
      vertex  8.816779e+000  1.213525e+001  0.000000e+000
    endloop
  endfacet
  facet normal  0.000000e+000  -0.000000e+000 -1.000000e+000
    outer loop
      vertex  3.337814e-001  1.462392e+000  0.000000e+000
      vertex  8.816779e+000  1.213525e+001  0.000000e+000
      vertex  1.060660e+001  1.060660e+001  0.000000e+000
    endloop
  endfacet
  facet normal  0.000000e+000  -0.000000e+000 -1.000000e+000
    outer loop
      vertex  3.337814e-001  1.462392e+000  0.000000e+000
      vertex  1.060660e+001  1.060660e+001  0.000000e+000
      vertex  1.213525e+001  8.816779e+000  0.000000e+000
    endloop
  endfacet
  facet normal  0.000000e+000  -0.000000e+000 -1.000000e+000
    outer loop
      vertex  3.337814e-001  1.462392e+000  0.000000e+000
      vertex  1.213525e+001  8.816779e+000  0.000000e+000
      vertex  1.336510e+001  6.809857e+000  0.000000e+000
    endloop
  endfacet
  facet normal  0.000000e+000  -0.000000e+000 -1.000000e+000
    outer loop
      vertex  3.337814e-001  1.462392e+000  0.000000e+000
      vertex  1.336510e+001  6.809857e+000  0.000000e+000
      vertex  1.426585e+001  4.635255e+000  0.000000e+000
    endloop
  endfacet
  facet normal  0.000000e+000  -0.000000e+000 -1.000000e+000
    outer loop
      vertex  3.337814e-001  1.462392e+000  0.000000e+000
      vertex  1.426585e+001  4.635255e+000  0.000000e+000
      vertex  1.481532e+001  2.346517e+000  0.000000e+000
    endloop
  endfacet
  facet normal  0.000000e+000  -0.000000e+000 -1.000000e+000
    outer loop
      vertex  3.337814e-001  1.462392e+000  0.000000e+000
      vertex  1.481532e+001  2.346517e+000  0.000000e+000
      vertex  1.500000e+001  0.000000e+000  0.000000e+000
    endloop
  endfacet
  facet normal  0.000000e+000  0.000000e+000 -1.000000e+000
    outer loop
      vertex -1.607804e-014 -1.500000e+001  0.000000e+000
      vertex -2.346517e+000 -1.481532e+001  0.000000e+000
      vertex -4.635255e+000 -1.426585e+001  0.000000e+000
    endloop
  endfacet
  facet normal  0.000000e+000  0.000000e+000 -1.000000e+000
    outer loop
      vertex -1.607804e-014 -1.500000e+001  0.000000e+000
      vertex -4.635255e+000 -1.426585e+001  0.000000e+000
      vertex -6.809857e+000 -1.336510e+001  0.000000e+000
    endloop
  endfacet
  facet normal  0.000000e+000  0.000000e+000 -1.000000e+000
    outer loop
      vertex -1.607804e-014 -1.500000e+001  0.000000e+000
      vertex -6.809857e+000 -1.336510e+001  0.000000e+000
      vertex -8.816779e+000 -1.213525e+001  0.000000e+000
    endloop
  endfacet
  facet normal  0.000000e+000  0.000000e+000 -1.000000e+000
    outer loop
      vertex -1.607804e-014 -1.500000e+001  0.000000e+000
      vertex -8.816779e+000 -1.213525e+001  0.000000e+000
      vertex -1.060660e+001 -1.060660e+001  0.000000e+000
    endloop
  endfacet
  facet normal  0.000000e+000  0.000000e+000 -9.999999e-001
    outer loop
      vertex -1.607804e-014 -1.500000e+001  0.000000e+000
      vertex -1.060660e+001 -1.060660e+001  0.000000e+000
      vertex -1.213525e+001 -8.816779e+000  0.000000e+000
    endloop
  endfacet
  facet normal  0.000000e+000  0.000000e+000 -1.000000e+000
    outer loop
      vertex -1.607804e-014 -1.500000e+001  0.000000e+000
      vertex -1.213525e+001 -8.816779e+000  0.000000e+000
      vertex -1.336510e+001 -6.809857e+000  0.000000e+000
    endloop
  endfacet
  facet normal  0.000000e+000  0.000000e+000 -1.000000e+000
    outer loop
      vertex -1.607804e-014 -1.500000e+001  0.000000e+000
      vertex -1.336510e+001 -6.809857e+000  0.000000e+000
      vertex -1.426585e+001 -4.635255e+000  0.000000e+000
    endloop
  endfacet
  facet normal  0.000000e+000  0.000000e+000 -1.000000e+000
    outer loop
      vertex -1.607804e-014 -1.500000e+001  0.000000e+000
      vertex -1.426585e+001 -4.635255e+000  0.000000e+000
      vertex -1.481532e+001 -2.346517e+000  0.000000e+000
    endloop
  endfacet
  facet normal  0.000000e+000  0.000000e+000 -1.000000e+000
    outer loop
      vertex -1.607804e-014 -1.500000e+001  0.000000e+000
      vertex -1.481532e+001 -2.346517e+000  0.000000e+000
      vertex -3.337814e-001 -1.462392e+000  0.000000e+000
    endloop
  endfacet
  facet normal  0.000000e+000  0.000000e+000 -1.000000e+000
    outer loop
      vertex -1.607804e-014 -1.500000e+001  0.000000e+000
      vertex -3.337814e-001 -1.462392e+000  0.000000e+000
      vertex  3.337814e-001 -1.462392e+000  0.000000e+000
    endloop
  endfacet
  facet normal  0.000000e+000  -0.000000e+000 -1.000000e+000
    outer loop
      vertex -1.607804e-014 -1.500000e+001  0.000000e+000
      vertex  3.337814e-001 -1.462392e+000  0.000000e+000
      vertex  1.481532e+001 -2.346517e+000  0.000000e+000
    endloop
  endfacet
  facet normal  0.000000e+000  0.000000e+000 -1.000000e+000
    outer loop
      vertex -1.607804e-014 -1.500000e+001  0.000000e+000
      vertex  1.481532e+001 -2.346517e+000  0.000000e+000
      vertex  1.426585e+001 -4.635255e+000  0.000000e+000
    endloop
  endfacet
  facet normal  0.000000e+000  0.000000e+000 -1.000000e+000
    outer loop
      vertex -1.607804e-014 -1.500000e+001  0.000000e+000
      vertex  1.426585e+001 -4.635255e+000  0.000000e+000
      vertex  1.336510e+001 -6.809857e+000  0.000000e+000
    endloop
  endfacet
  facet normal  0.000000e+000  0.000000e+000 -1.000000e+000
    outer loop
      vertex -1.607804e-014 -1.500000e+001  0.000000e+000
      vertex  1.336510e+001 -6.809857e+000  0.000000e+000
      vertex  1.213525e+001 -8.816779e+000  0.000000e+000
    endloop
  endfacet
  facet normal  0.000000e+000  0.000000e+000 -9.999999e-001
    outer loop
      vertex -1.607804e-014 -1.500000e+001  0.000000e+000
      vertex  1.213525e+001 -8.816779e+000  0.000000e+000
      vertex  1.060660e+001 -1.060660e+001  0.000000e+000
    endloop
  endfacet
  facet normal  0.000000e+000  0.000000e+000 -1.000000e+000
    outer loop
      vertex -1.607804e-014 -1.500000e+001  0.000000e+000
      vertex  1.060660e+001 -1.060660e+001  0.000000e+000
      vertex  8.816779e+000 -1.213525e+001  0.000000e+000
    endloop
  endfacet
  facet normal  0.000000e+000  0.000000e+000 -1.000000e+000
    outer loop
      vertex -1.607804e-014 -1.500000e+001  0.000000e+000
      vertex  8.816779e+000 -1.213525e+001  0.000000e+000
      vertex  6.809857e+000 -1.336510e+001  0.000000e+000
    endloop
  endfacet
  facet normal  0.000000e+000  0.000000e+000 -1.000000e+000
    outer loop
      vertex -1.607804e-014 -1.500000e+001  0.000000e+000
      vertex  6.809857e+000 -1.336510e+001  0.000000e+000
      vertex  4.635255e+000 -1.426585e+001  0.000000e+000
    endloop
  endfacet
  facet normal  0.000000e+000  0.000000e+000 -1.000000e+000
    outer loop
      vertex -1.607804e-014 -1.500000e+001  0.000000e+000
      vertex  4.635255e+000 -1.426585e+001  0.000000e+000
      vertex  2.346517e+000 -1.481532e+001  0.000000e+000
    endloop
  endfacet
  facet normal  0.000000e+000  0.000000e+000 -1.000000e+000
    outer loop
      vertex -1.481532e+001 -2.346517e+000  0.000000e+000
      vertex -1.500000e+001  8.498248e-015  0.000000e+000
      vertex -1.500000e+000  1.836910e-016  0.000000e+000
    endloop
  endfacet
  facet normal  0.000000e+000  -0.000000e+000 -1.000000e+000
    outer loop
      vertex -1.481532e+001 -2.346517e+000  0.000000e+000
      vertex -1.500000e+000  1.836910e-016  0.000000e+000
      vertex -1.351453e+000 -6.508256e-001  0.000000e+000
    endloop
  endfacet
  facet normal  0.000000e+000  -0.000000e+000 -1.000000e+000
    outer loop
      vertex -1.481532e+001 -2.346517e+000  0.000000e+000
      vertex -1.351453e+000 -6.508256e-001  0.000000e+000
      vertex -9.352347e-001 -1.172747e+000  0.000000e+000
    endloop
  endfacet
  facet normal  0.000000e+000  -0.000000e+000 -1.000000e+000
    outer loop
      vertex -1.481532e+001 -2.346517e+000  0.000000e+000
      vertex -9.352347e-001 -1.172747e+000  0.000000e+000
      vertex -3.337814e-001 -1.462392e+000  0.000000e+000
    endloop
  endfacet
  facet normal  0.000000e+000  0.000000e+000 -1.000000e+000
    outer loop
      vertex  1.500000e+001  0.000000e+000  0.000000e+000
      vertex  1.481532e+001 -2.346517e+000  0.000000e+000
      vertex  1.351453e+000 -6.508256e-001  0.000000e+000
    endloop
  endfacet
  facet normal  0.000000e+000  0.000000e+000 -1.000000e+000
    outer loop
      vertex  1.500000e+001  0.000000e+000  0.000000e+000
      vertex  1.351453e+000 -6.508256e-001  0.000000e+000
      vertex  1.500000e+000  0.000000e+000  0.000000e+000
    endloop
  endfacet
  facet normal  0.000000e+000  0.000000e+000 -1.000000e+000
    outer loop
      vertex  1.500000e+001  0.000000e+000  0.000000e+000
      vertex  1.500000e+000  0.000000e+000  0.000000e+000
      vertex  1.351453e+000  6.508256e-001  0.000000e+000
    endloop
  endfacet
  facet normal  0.000000e+000  0.000000e+000 -1.000000e+000
    outer loop
      vertex  1.500000e+001  0.000000e+000  0.000000e+000
      vertex  1.351453e+000  6.508256e-001  0.000000e+000
      vertex  9.352347e-001  1.172747e+000  0.000000e+000
    endloop
  endfacet
  facet normal  0.000000e+000  0.000000e+000 -1.000000e+000
    outer loop
      vertex  1.500000e+001  0.000000e+000  0.000000e+000
      vertex  9.352347e-001  1.172747e+000  0.000000e+000
      vertex  3.337814e-001  1.462392e+000  0.000000e+000
    endloop
  endfacet
  facet normal  0.000000e+000  0.000000e+000 -1.000000e+000
    outer loop
      vertex  2.346517e+000  1.481532e+001  0.000000e+000
      vertex  3.337814e-001  1.462392e+000  0.000000e+000
      vertex  4.249124e-015  1.500000e+001  0.000000e+000
    endloop
  endfacet
  facet normal  0.000000e+000  -0.000000e+000 -1.000000e+000
    outer loop
      vertex  4.249124e-015  1.500000e+001  0.000000e+000
      vertex  3.337814e-001  1.462392e+000  0.000000e+000
      vertex -3.337814e-001  1.462392e+000  0.000000e+000
    endloop
  endfacet
  facet normal  0.000000e+000  0.000000e+000 -1.000000e+000
    outer loop
      vertex  4.249124e-015  1.500000e+001  0.000000e+000
      vertex -3.337814e-001  1.462392e+000  0.000000e+000
      vertex -2.346517e+000  1.481532e+001  0.000000e+000
    endloop
  endfacet
  facet normal  0.000000e+000  -0.000000e+000 -1.000000e+000
    outer loop
      vertex -2.346517e+000  1.481532e+001  0.000000e+000
      vertex -3.337814e-001  1.462392e+000  0.000000e+000
      vertex -1.481532e+001  2.346517e+000  0.000000e+000
    endloop
  endfacet
  facet normal  9.749280e-001 -2.225209e-001  0.000000e+000
    outer loop
      vertex -1.500000e+000  1.836910e-016  1.000000e+001
      vertex -1.500000e+000  1.836910e-016  0.000000e+000
      vertex -1.351453e+000  6.508256e-001  1.000000e+001
    endloop
  endfacet
  facet normal  9.749280e-001 -2.225209e-001  0.000000e+000
    outer loop
      vertex -1.351453e+000  6.508256e-001  1.000000e+001
      vertex -1.500000e+000  1.836910e-016  0.000000e+000
      vertex -1.351453e+000  6.508256e-001  0.000000e+000
    endloop
  endfacet
  facet normal  7.818314e-001 -6.234897e-001  0.000000e+000
    outer loop
      vertex -1.351453e+000  6.508256e-001  1.000000e+001
      vertex -1.351453e+000  6.508256e-001  0.000000e+000
      vertex -9.352347e-001  1.172747e+000  1.000000e+001
    endloop
  endfacet
  facet normal  7.818314e-001 -6.234897e-001  0.000000e+000
    outer loop
      vertex -9.352347e-001  1.172747e+000  1.000000e+001
      vertex -1.351453e+000  6.508256e-001  0.000000e+000
      vertex -9.352347e-001  1.172747e+000  0.000000e+000
    endloop
  endfacet
  facet normal  4.338837e-001 -9.009689e-001  0.000000e+000
    outer loop
      vertex -9.352347e-001  1.172747e+000  1.000000e+001
      vertex -9.352347e-001  1.172747e+000  0.000000e+000
      vertex -3.337814e-001  1.462392e+000  1.000000e+001
    endloop
  endfacet
  facet normal  4.338837e-001 -9.009689e-001  0.000000e+000
    outer loop
      vertex -3.337814e-001  1.462392e+000  1.000000e+001
      vertex -9.352347e-001  1.172747e+000  0.000000e+000
      vertex -3.337814e-001  1.462392e+000  0.000000e+000
    endloop
  endfacet
  facet normal  0.000000e+000 -1.000000e+000  0.000000e+000
    outer loop
      vertex -3.337814e-001  1.462392e+000  1.000000e+001
      vertex -3.337814e-001  1.462392e+000  0.000000e+000
      vertex  3.337814e-001  1.462392e+000  1.000000e+001
    endloop
  endfacet
  facet normal  0.000000e+000 -1.000000e+000  -0.000000e+000
    outer loop
      vertex  3.337814e-001  1.462392e+000  1.000000e+001
      vertex -3.337814e-001  1.462392e+000  0.000000e+000
      vertex  3.337814e-001  1.462392e+000  0.000000e+000
    endloop
  endfacet
  facet normal -4.338837e-001 -9.009689e-001  0.000000e+000
    outer loop
      vertex  3.337814e-001  1.462392e+000  1.000000e+001
      vertex  3.337814e-001  1.462392e+000  0.000000e+000
      vertex  9.352347e-001  1.172747e+000  1.000000e+001
    endloop
  endfacet
  facet normal -4.338837e-001 -9.009689e-001  -0.000000e+000
    outer loop
      vertex  9.352347e-001  1.172747e+000  1.000000e+001
      vertex  3.337814e-001  1.462392e+000  0.000000e+000
      vertex  9.352347e-001  1.172747e+000  0.000000e+000
    endloop
  endfacet
  facet normal -7.818314e-001 -6.234897e-001  0.000000e+000
    outer loop
      vertex  9.352347e-001  1.172747e+000  1.000000e+001
      vertex  9.352347e-001  1.172747e+000  0.000000e+000
      vertex  1.351453e+000  6.508256e-001  1.000000e+001
    endloop
  endfacet
  facet normal -7.818314e-001 -6.234897e-001  -0.000000e+000
    outer loop
      vertex  1.351453e+000  6.508256e-001  1.000000e+001
      vertex  9.352347e-001  1.172747e+000  0.000000e+000
      vertex  1.351453e+000  6.508256e-001  0.000000e+000
    endloop
  endfacet
  facet normal -9.749280e-001 -2.225209e-001  0.000000e+000
    outer loop
      vertex  1.351453e+000  6.508256e-001  1.000000e+001
      vertex  1.351453e+000  6.508256e-001  0.000000e+000
      vertex  1.500000e+000  0.000000e+000  1.000000e+001
    endloop
  endfacet
  facet normal -9.749280e-001 -2.225209e-001  -0.000000e+000
    outer loop
      vertex  1.500000e+000  0.000000e+000  1.000000e+001
      vertex  1.351453e+000  6.508256e-001  0.000000e+000
      vertex  1.500000e+000  0.000000e+000  0.000000e+000
    endloop
  endfacet
  facet normal -9.749280e-001  2.225209e-001  0.000000e+000
    outer loop
      vertex  1.500000e+000  0.000000e+000  1.000000e+001
      vertex  1.500000e+000  0.000000e+000  0.000000e+000
      vertex  1.351453e+000 -6.508256e-001  1.000000e+001
    endloop
  endfacet
  facet normal -9.749280e-001  2.225209e-001  0.000000e+000
    outer loop
      vertex  1.351453e+000 -6.508256e-001  1.000000e+001
      vertex  1.500000e+000  0.000000e+000  0.000000e+000
      vertex  1.351453e+000 -6.508256e-001  0.000000e+000
    endloop
  endfacet
  facet normal -7.818314e-001  6.234897e-001  0.000000e+000
    outer loop
      vertex  1.351453e+000 -6.508256e-001  1.000000e+001
      vertex  1.351453e+000 -6.508256e-001  0.000000e+000
      vertex  9.352347e-001 -1.172747e+000  1.000000e+001
    endloop
  endfacet
  facet normal -7.818314e-001  6.234897e-001  0.000000e+000
    outer loop
      vertex  9.352347e-001 -1.172747e+000  1.000000e+001
      vertex  1.351453e+000 -6.508256e-001  0.000000e+000
      vertex  9.352347e-001 -1.172747e+000  0.000000e+000
    endloop
  endfacet
  facet normal -4.338837e-001  9.009689e-001  0.000000e+000
    outer loop
      vertex  9.352347e-001 -1.172747e+000  1.000000e+001
      vertex  9.352347e-001 -1.172747e+000  0.000000e+000
      vertex  3.337814e-001 -1.462392e+000  1.000000e+001
    endloop
  endfacet
  facet normal -4.338837e-001  9.009689e-001  0.000000e+000
    outer loop
      vertex  3.337814e-001 -1.462392e+000  1.000000e+001
      vertex  9.352347e-001 -1.172747e+000  0.000000e+000
      vertex  3.337814e-001 -1.462392e+000  0.000000e+000
    endloop
  endfacet
  facet normal  0.000000e+000  1.000000e+000  -0.000000e+000
    outer loop
      vertex  3.337814e-001 -1.462392e+000  1.000000e+001
      vertex  3.337814e-001 -1.462392e+000  0.000000e+000
      vertex -3.337814e-001 -1.462392e+000  1.000000e+001
    endloop
  endfacet
  facet normal  0.000000e+000  1.000000e+000  0.000000e+000
    outer loop
      vertex -3.337814e-001 -1.462392e+000  1.000000e+001
      vertex  3.337814e-001 -1.462392e+000  0.000000e+000
      vertex -3.337814e-001 -1.462392e+000  0.000000e+000
    endloop
  endfacet
  facet normal  4.338837e-001  9.009689e-001  -0.000000e+000
    outer loop
      vertex -3.337814e-001 -1.462392e+000  1.000000e+001
      vertex -3.337814e-001 -1.462392e+000  0.000000e+000
      vertex -9.352347e-001 -1.172747e+000  1.000000e+001
    endloop
  endfacet
  facet normal  4.338837e-001  9.009689e-001  0.000000e+000
    outer loop
      vertex -9.352347e-001 -1.172747e+000  1.000000e+001
      vertex -3.337814e-001 -1.462392e+000  0.000000e+000
      vertex -9.352347e-001 -1.172747e+000  0.000000e+000
    endloop
  endfacet
  facet normal  7.818314e-001  6.234897e-001  -0.000000e+000
    outer loop
      vertex -9.352347e-001 -1.172747e+000  1.000000e+001
      vertex -9.352347e-001 -1.172747e+000  0.000000e+000
      vertex -1.351453e+000 -6.508256e-001  1.000000e+001
    endloop
  endfacet
  facet normal  7.818314e-001  6.234897e-001  0.000000e+000
    outer loop
      vertex -1.351453e+000 -6.508256e-001  1.000000e+001
      vertex -9.352347e-001 -1.172747e+000  0.000000e+000
      vertex -1.351453e+000 -6.508256e-001  0.000000e+000
    endloop
  endfacet
  facet normal  9.749280e-001  2.225209e-001  -0.000000e+000
    outer loop
      vertex -1.351453e+000 -6.508256e-001  1.000000e+001
      vertex -1.351453e+000 -6.508256e-001  0.000000e+000
      vertex -1.500000e+000  1.836910e-016  1.000000e+001
    endloop
  endfacet
  facet normal  9.749280e-001  2.225209e-001  0.000000e+000
    outer loop
      vertex -1.500000e+000  1.836910e-016  1.000000e+001
      vertex -1.351453e+000 -6.508256e-001  0.000000e+000
      vertex -1.500000e+000  1.836910e-016  0.000000e+000
    endloop
  endfacet
  facet normal  -0.000000e+000  0.000000e+000 -1.000000e+000
    outer loop
      vertex -3.337814e-001  1.462392e+000  1.000000e+001
      vertex  3.337814e-001  1.462392e+000  1.000000e+001
      vertex -9.352347e-001  1.172747e+000  1.000000e+001
    endloop
  endfacet
  facet normal  0.000000e+000  0.000000e+000 -1.000000e+000
    outer loop
      vertex -9.352347e-001  1.172747e+000  1.000000e+001
      vertex  3.337814e-001  1.462392e+000  1.000000e+001
      vertex  9.352347e-001  1.172747e+000  1.000000e+001
    endloop
  endfacet
  facet normal  -0.000000e+000  0.000000e+000 -1.000000e+000
    outer loop
      vertex -9.352347e-001  1.172747e+000  1.000000e+001
      vertex  9.352347e-001  1.172747e+000  1.000000e+001
      vertex -1.351453e+000  6.508256e-001  1.000000e+001
    endloop
  endfacet
  facet normal  0.000000e+000  0.000000e+000 -1.000000e+000
    outer loop
      vertex -1.351453e+000  6.508256e-001  1.000000e+001
      vertex  9.352347e-001  1.172747e+000  1.000000e+001
      vertex  1.351453e+000  6.508256e-001  1.000000e+001
    endloop
  endfacet
  facet normal  -0.000000e+000  0.000000e+000 -1.000000e+000
    outer loop
      vertex -1.351453e+000  6.508256e-001  1.000000e+001
      vertex  1.351453e+000  6.508256e-001  1.000000e+001
      vertex -1.500000e+000  1.836910e-016  1.000000e+001
    endloop
  endfacet
  facet normal  0.000000e+000  0.000000e+000 -1.000000e+000
    outer loop
      vertex -1.500000e+000  1.836910e-016  1.000000e+001
      vertex  1.351453e+000  6.508256e-001  1.000000e+001
      vertex  1.500000e+000  0.000000e+000  1.000000e+001
    endloop
  endfacet
  facet normal  -0.000000e+000  0.000000e+000 -1.000000e+000
    outer loop
      vertex -1.500000e+000  1.836910e-016  1.000000e+001
      vertex  1.500000e+000  0.000000e+000  1.000000e+001
      vertex -1.351453e+000 -6.508256e-001  1.000000e+001
    endloop
  endfacet
  facet normal  0.000000e+000  0.000000e+000 -1.000000e+000
    outer loop
      vertex -1.351453e+000 -6.508256e-001  1.000000e+001
      vertex  1.500000e+000  0.000000e+000  1.000000e+001
      vertex  1.351453e+000 -6.508256e-001  1.000000e+001
    endloop
  endfacet
  facet normal  -0.000000e+000  0.000000e+000 -1.000000e+000
    outer loop
      vertex -1.351453e+000 -6.508256e-001  1.000000e+001
      vertex  1.351453e+000 -6.508256e-001  1.000000e+001
      vertex -9.352347e-001 -1.172747e+000  1.000000e+001
    endloop
  endfacet
  facet normal  0.000000e+000  0.000000e+000 -1.000000e+000
    outer loop
      vertex -9.352347e-001 -1.172747e+000  1.000000e+001
      vertex  1.351453e+000 -6.508256e-001  1.000000e+001
      vertex  9.352347e-001 -1.172747e+000  1.000000e+001
    endloop
  endfacet
  facet normal  -0.000000e+000  0.000000e+000 -1.000000e+000
    outer loop
      vertex -9.352347e-001 -1.172747e+000  1.000000e+001
      vertex  9.352347e-001 -1.172747e+000  1.000000e+001
      vertex -3.337814e-001 -1.462392e+000  1.000000e+001
    endloop
  endfacet
  facet normal  0.000000e+000  0.000000e+000 -1.000000e+000
    outer loop
      vertex -3.337814e-001 -1.462392e+000  1.000000e+001
      vertex  9.352347e-001 -1.172747e+000  1.000000e+001
      vertex  3.337814e-001 -1.462392e+000  1.000000e+001
    endloop
  endfacet
  facet normal  0.000000e+000  0.000000e+000  1.000000e+000
    outer loop
      vertex -2.346517e+000  1.481532e+001  2.000000e+001
      vertex  2.346517e+000  1.481532e+001  2.000000e+001
      vertex  4.249124e-015  1.500000e+001  2.000000e+001
    endloop
  endfacet
  facet normal  -0.000000e+000  0.000000e+000  9.999999e-001
    outer loop
      vertex  2.346517e+000  1.481532e+001  2.000000e+001
      vertex -2.346517e+000  1.481532e+001  2.000000e+001
      vertex  4.635255e+000  1.426585e+001  2.000000e+001
    endloop
  endfacet
  facet normal  0.000000e+000  0.000000e+000  1.000000e+000
    outer loop
      vertex  4.635255e+000  1.426585e+001  2.000000e+001
      vertex -2.346517e+000  1.481532e+001  2.000000e+001
      vertex -4.635255e+000  1.426585e+001  2.000000e+001
    endloop
  endfacet
  facet normal  -0.000000e+000  0.000000e+000  1.000000e+000
    outer loop
      vertex  4.635255e+000  1.426585e+001  2.000000e+001
      vertex -4.635255e+000  1.426585e+001  2.000000e+001
      vertex  6.809857e+000  1.336510e+001  2.000000e+001
    endloop
  endfacet
  facet normal  0.000000e+000  0.000000e+000  1.000000e+000
    outer loop
      vertex  6.809857e+000  1.336510e+001  2.000000e+001
      vertex -4.635255e+000  1.426585e+001  2.000000e+001
      vertex -6.809857e+000  1.336510e+001  2.000000e+001
    endloop
  endfacet
  facet normal  -0.000000e+000  0.000000e+000  1.000000e+000
    outer loop
      vertex  6.809857e+000  1.336510e+001  2.000000e+001
      vertex -6.809857e+000  1.336510e+001  2.000000e+001
      vertex  8.816779e+000  1.213525e+001  2.000000e+001
    endloop
  endfacet
  facet normal  0.000000e+000  0.000000e+000  1.000000e+000
    outer loop
      vertex  8.816779e+000  1.213525e+001  2.000000e+001
      vertex -6.809857e+000  1.336510e+001  2.000000e+001
      vertex -8.816779e+000  1.213525e+001  2.000000e+001
    endloop
  endfacet
  facet normal  -0.000000e+000  0.000000e+000  1.000000e+000
    outer loop
      vertex  8.816779e+000  1.213525e+001  2.000000e+001
      vertex -8.816779e+000  1.213525e+001  2.000000e+001
      vertex  1.060660e+001  1.060660e+001  2.000000e+001
    endloop
  endfacet
  facet normal  0.000000e+000  0.000000e+000  1.000000e+000
    outer loop
      vertex  1.060660e+001  1.060660e+001  2.000000e+001
      vertex -8.816779e+000  1.213525e+001  2.000000e+001
      vertex -1.060660e+001  1.060660e+001  2.000000e+001
    endloop
  endfacet
  facet normal  -0.000000e+000  0.000000e+000  1.000000e+000
    outer loop
      vertex  1.060660e+001  1.060660e+001  2.000000e+001
      vertex -1.060660e+001  1.060660e+001  2.000000e+001
      vertex  1.213525e+001  8.816779e+000  2.000000e+001
    endloop
  endfacet
  facet normal  0.000000e+000  0.000000e+000  1.000000e+000
    outer loop
      vertex  1.213525e+001  8.816779e+000  2.000000e+001
      vertex -1.060660e+001  1.060660e+001  2.000000e+001
      vertex -1.213525e+001  8.816779e+000  2.000000e+001
    endloop
  endfacet
  facet normal  -0.000000e+000  0.000000e+000  1.000000e+000
    outer loop
      vertex  1.213525e+001  8.816779e+000  2.000000e+001
      vertex -1.213525e+001  8.816779e+000  2.000000e+001
      vertex  1.336510e+001  6.809857e+000  2.000000e+001
    endloop
  endfacet
  facet normal  0.000000e+000  0.000000e+000  9.999999e-001
    outer loop
      vertex  1.336510e+001  6.809857e+000  2.000000e+001
      vertex -1.213525e+001  8.816779e+000  2.000000e+001
      vertex -1.336510e+001  6.809857e+000  2.000000e+001
    endloop
  endfacet
  facet normal  -0.000000e+000  0.000000e+000  9.999999e-001
    outer loop
      vertex  1.336510e+001  6.809857e+000  2.000000e+001
      vertex -1.336510e+001  6.809857e+000  2.000000e+001
      vertex  1.426585e+001  4.635255e+000  2.000000e+001
    endloop
  endfacet
  facet normal  0.000000e+000  0.000000e+000  9.999999e-001
    outer loop
      vertex  1.426585e+001  4.635255e+000  2.000000e+001
      vertex -1.336510e+001  6.809857e+000  2.000000e+001
      vertex -1.426585e+001  4.635255e+000  2.000000e+001
    endloop
  endfacet
  facet normal  -0.000000e+000  0.000000e+000  1.000000e+000
    outer loop
      vertex  1.426585e+001  4.635255e+000  2.000000e+001
      vertex -1.426585e+001  4.635255e+000  2.000000e+001
      vertex  1.481532e+001  2.346517e+000  2.000000e+001
    endloop
  endfacet
  facet normal  0.000000e+000  0.000000e+000  1.000000e+000
    outer loop
      vertex  1.481532e+001  2.346517e+000  2.000000e+001
      vertex -1.426585e+001  4.635255e+000  2.000000e+001
      vertex -1.481532e+001  2.346517e+000  2.000000e+001
    endloop
  endfacet
  facet normal  -0.000000e+000  0.000000e+000  1.000000e+000
    outer loop
      vertex  1.481532e+001  2.346517e+000  2.000000e+001
      vertex -1.481532e+001  2.346517e+000  2.000000e+001
      vertex  1.500000e+001  0.000000e+000  2.000000e+001
    endloop
  endfacet
  facet normal  0.000000e+000  0.000000e+000  1.000000e+000
    outer loop
      vertex  1.500000e+001  0.000000e+000  2.000000e+001
      vertex -1.481532e+001  2.346517e+000  2.000000e+001
      vertex -1.500000e+001  8.498248e-015  2.000000e+001
    endloop
  endfacet
  facet normal  0.000000e+000  0.000000e+000  1.000000e+000
    outer loop
      vertex  1.500000e+001  0.000000e+000  2.000000e+001
      vertex -1.500000e+001  8.498248e-015  2.000000e+001
      vertex  1.481532e+001 -2.346517e+000  2.000000e+001
    endloop
  endfacet
  facet normal  0.000000e+000  0.000000e+000  1.000000e+000
    outer loop
      vertex  1.481532e+001 -2.346517e+000  2.000000e+001
      vertex -1.500000e+001  8.498248e-015  2.000000e+001
      vertex -1.481532e+001 -2.346517e+000  2.000000e+001
    endloop
  endfacet
  facet normal  -0.000000e+000  0.000000e+000  1.000000e+000
    outer loop
      vertex  1.481532e+001 -2.346517e+000  2.000000e+001
      vertex -1.481532e+001 -2.346517e+000  2.000000e+001
      vertex  1.426585e+001 -4.635255e+000  2.000000e+001
    endloop
  endfacet
  facet normal  0.000000e+000  0.000000e+000  1.000000e+000
    outer loop
      vertex  1.426585e+001 -4.635255e+000  2.000000e+001
      vertex -1.481532e+001 -2.346517e+000  2.000000e+001
      vertex -1.426585e+001 -4.635255e+000  2.000000e+001
    endloop
  endfacet
  facet normal  -0.000000e+000  0.000000e+000  9.999999e-001
    outer loop
      vertex  1.426585e+001 -4.635255e+000  2.000000e+001
      vertex -1.426585e+001 -4.635255e+000  2.000000e+001
      vertex  1.336510e+001 -6.809857e+000  2.000000e+001
    endloop
  endfacet
  facet normal  0.000000e+000  0.000000e+000  9.999999e-001
    outer loop
      vertex  1.336510e+001 -6.809857e+000  2.000000e+001
      vertex -1.426585e+001 -4.635255e+000  2.000000e+001
      vertex -1.336510e+001 -6.809857e+000  2.000000e+001
    endloop
  endfacet
  facet normal  -0.000000e+000  0.000000e+000  9.999999e-001
    outer loop
      vertex  1.336510e+001 -6.809857e+000  2.000000e+001
      vertex -1.336510e+001 -6.809857e+000  2.000000e+001
      vertex  1.213525e+001 -8.816779e+000  2.000000e+001
    endloop
  endfacet
  facet normal  0.000000e+000  0.000000e+000  1.000000e+000
    outer loop
      vertex  1.213525e+001 -8.816779e+000  2.000000e+001
      vertex -1.336510e+001 -6.809857e+000  2.000000e+001
      vertex -1.213525e+001 -8.816779e+000  2.000000e+001
    endloop
  endfacet
  facet normal  -0.000000e+000  0.000000e+000  1.000000e+000
    outer loop
      vertex  1.213525e+001 -8.816779e+000  2.000000e+001
      vertex -1.213525e+001 -8.816779e+000  2.000000e+001
      vertex  1.060660e+001 -1.060660e+001  2.000000e+001
    endloop
  endfacet
  facet normal  0.000000e+000  0.000000e+000  1.000000e+000
    outer loop
      vertex  1.060660e+001 -1.060660e+001  2.000000e+001
      vertex -1.213525e+001 -8.816779e+000  2.000000e+001
      vertex -1.060660e+001 -1.060660e+001  2.000000e+001
    endloop
  endfacet
  facet normal  -0.000000e+000  0.000000e+000  1.000000e+000
    outer loop
      vertex  1.060660e+001 -1.060660e+001  2.000000e+001
      vertex -1.060660e+001 -1.060660e+001  2.000000e+001
      vertex  8.816779e+000 -1.213525e+001  2.000000e+001
    endloop
  endfacet
  facet normal  0.000000e+000  0.000000e+000  1.000000e+000
    outer loop
      vertex  8.816779e+000 -1.213525e+001  2.000000e+001
      vertex -1.060660e+001 -1.060660e+001  2.000000e+001
      vertex -8.816779e+000 -1.213525e+001  2.000000e+001
    endloop
  endfacet
  facet normal  -0.000000e+000  0.000000e+000  1.000000e+000
    outer loop
      vertex  8.816779e+000 -1.213525e+001  2.000000e+001
      vertex -8.816779e+000 -1.213525e+001  2.000000e+001
      vertex  6.809857e+000 -1.336510e+001  2.000000e+001
    endloop
  endfacet
  facet normal  0.000000e+000  0.000000e+000  1.000000e+000
    outer loop
      vertex  6.809857e+000 -1.336510e+001  2.000000e+001
      vertex -8.816779e+000 -1.213525e+001  2.000000e+001
      vertex -6.809857e+000 -1.336510e+001  2.000000e+001
    endloop
  endfacet
  facet normal  -0.000000e+000  0.000000e+000  1.000000e+000
    outer loop
      vertex  6.809857e+000 -1.336510e+001  2.000000e+001
      vertex -6.809857e+000 -1.336510e+001  2.000000e+001
      vertex  4.635255e+000 -1.426585e+001  2.000000e+001
    endloop
  endfacet
  facet normal  0.000000e+000  0.000000e+000  1.000000e+000
    outer loop
      vertex  4.635255e+000 -1.426585e+001  2.000000e+001
      vertex -6.809857e+000 -1.336510e+001  2.000000e+001
      vertex -4.635255e+000 -1.426585e+001  2.000000e+001
    endloop
  endfacet
  facet normal  -0.000000e+000  0.000000e+000  1.000000e+000
    outer loop
      vertex  4.635255e+000 -1.426585e+001  2.000000e+001
      vertex -4.635255e+000 -1.426585e+001  2.000000e+001
      vertex  2.346517e+000 -1.481532e+001  2.000000e+001
    endloop
  endfacet
  facet normal  0.000000e+000  0.000000e+000  9.999999e-001
    outer loop
      vertex  2.346517e+000 -1.481532e+001  2.000000e+001
      vertex -4.635255e+000 -1.426585e+001  2.000000e+001
      vertex -2.346517e+000 -1.481532e+001  2.000000e+001
    endloop
  endfacet
  facet normal  -0.000000e+000  0.000000e+000  1.000000e+000
    outer loop
      vertex  2.346517e+000 -1.481532e+001  2.000000e+001
      vertex -2.346517e+000 -1.481532e+001  2.000000e+001
      vertex -1.607804e-014 -1.500000e+001  2.000000e+001
    endloop
  endfacet
  facet normal  9.969174e-001 -7.845923e-002  0.000000e+000
    outer loop
      vertex  1.500000e+001  0.000000e+000  0.000000e+000
      vertex  1.500000e+001  0.000000e+000  2.000000e+001
      vertex  1.481532e+001 -2.346517e+000  0.000000e+000
    endloop
  endfacet
  facet normal  9.969174e-001 -7.845923e-002  0.000000e+000
    outer loop
      vertex  1.481532e+001 -2.346517e+000  0.000000e+000
      vertex  1.500000e+001  0.000000e+000  2.000000e+001
      vertex  1.481532e+001 -2.346517e+000  2.000000e+001
    endloop
  endfacet
  facet normal  9.723700e-001 -2.334451e-001  0.000000e+000
    outer loop
      vertex  1.481532e+001 -2.346517e+000  0.000000e+000
      vertex  1.481532e+001 -2.346517e+000  2.000000e+001
      vertex  1.426585e+001 -4.635255e+000  0.000000e+000
    endloop
  endfacet
  facet normal  9.723700e-001 -2.334451e-001  0.000000e+000
    outer loop
      vertex  1.426585e+001 -4.635255e+000  0.000000e+000
      vertex  1.481532e+001 -2.346517e+000  2.000000e+001
      vertex  1.426585e+001 -4.635255e+000  2.000000e+001
    endloop
  endfacet
  facet normal  9.238794e-001 -3.826835e-001  0.000000e+000
    outer loop
      vertex  1.426585e+001 -4.635255e+000  0.000000e+000
      vertex  1.426585e+001 -4.635255e+000  2.000000e+001
      vertex  1.336510e+001 -6.809857e+000  0.000000e+000
    endloop
  endfacet
  facet normal  9.238794e-001 -3.826835e-001  0.000000e+000
    outer loop
      vertex  1.336510e+001 -6.809857e+000  0.000000e+000
      vertex  1.426585e+001 -4.635255e+000  2.000000e+001
      vertex  1.336510e+001 -6.809857e+000  2.000000e+001
    endloop
  endfacet
  facet normal  8.526402e-001 -5.224985e-001  0.000000e+000
    outer loop
      vertex  1.336510e+001 -6.809857e+000  0.000000e+000
      vertex  1.336510e+001 -6.809857e+000  2.000000e+001
      vertex  1.213525e+001 -8.816779e+000  0.000000e+000
    endloop
  endfacet
  facet normal  8.526402e-001 -5.224985e-001  0.000000e+000
    outer loop
      vertex  1.213525e+001 -8.816779e+000  0.000000e+000
      vertex  1.336510e+001 -6.809857e+000  2.000000e+001
      vertex  1.213525e+001 -8.816779e+000  2.000000e+001
    endloop
  endfacet
  facet normal  7.604059e-001 -6.494481e-001  0.000000e+000
    outer loop
      vertex  1.213525e+001 -8.816779e+000  0.000000e+000
      vertex  1.213525e+001 -8.816779e+000  2.000000e+001
      vertex  1.060660e+001 -1.060660e+001  0.000000e+000
    endloop
  endfacet
  facet normal  7.604059e-001 -6.494481e-001  0.000000e+000
    outer loop
      vertex  1.060660e+001 -1.060660e+001  0.000000e+000
      vertex  1.213525e+001 -8.816779e+000  2.000000e+001
      vertex  1.060660e+001 -1.060660e+001  2.000000e+001
    endloop
  endfacet
  facet normal  6.494481e-001 -7.604059e-001  0.000000e+000
    outer loop
      vertex  1.060660e+001 -1.060660e+001  0.000000e+000
      vertex  1.060660e+001 -1.060660e+001  2.000000e+001
      vertex  8.816779e+000 -1.213525e+001  0.000000e+000
    endloop
  endfacet
  facet normal  6.494481e-001 -7.604059e-001  0.000000e+000
    outer loop
      vertex  8.816779e+000 -1.213525e+001  0.000000e+000
      vertex  1.060660e+001 -1.060660e+001  2.000000e+001
      vertex  8.816779e+000 -1.213525e+001  2.000000e+001
    endloop
  endfacet
  facet normal  5.224985e-001 -8.526402e-001  0.000000e+000
    outer loop
      vertex  8.816779e+000 -1.213525e+001  0.000000e+000
      vertex  8.816779e+000 -1.213525e+001  2.000000e+001
      vertex  6.809857e+000 -1.336510e+001  0.000000e+000
    endloop
  endfacet
  facet normal  5.224985e-001 -8.526402e-001  0.000000e+000
    outer loop
      vertex  6.809857e+000 -1.336510e+001  0.000000e+000
      vertex  8.816779e+000 -1.213525e+001  2.000000e+001
      vertex  6.809857e+000 -1.336510e+001  2.000000e+001
    endloop
  endfacet
  facet normal  3.826835e-001 -9.238794e-001  0.000000e+000
    outer loop
      vertex  6.809857e+000 -1.336510e+001  0.000000e+000
      vertex  6.809857e+000 -1.336510e+001  2.000000e+001
      vertex  4.635255e+000 -1.426585e+001  0.000000e+000
    endloop
  endfacet
  facet normal  3.826835e-001 -9.238794e-001  0.000000e+000
    outer loop
      vertex  4.635255e+000 -1.426585e+001  0.000000e+000
      vertex  6.809857e+000 -1.336510e+001  2.000000e+001
      vertex  4.635255e+000 -1.426585e+001  2.000000e+001
    endloop
  endfacet
  facet normal  2.334451e-001 -9.723700e-001  0.000000e+000
    outer loop
      vertex  4.635255e+000 -1.426585e+001  0.000000e+000
      vertex  4.635255e+000 -1.426585e+001  2.000000e+001
      vertex  2.346517e+000 -1.481532e+001  0.000000e+000
    endloop
  endfacet
  facet normal  2.334451e-001 -9.723700e-001  0.000000e+000
    outer loop
      vertex  2.346517e+000 -1.481532e+001  0.000000e+000
      vertex  4.635255e+000 -1.426585e+001  2.000000e+001
      vertex  2.346517e+000 -1.481532e+001  2.000000e+001
    endloop
  endfacet
  facet normal  7.845923e-002 -9.969174e-001  0.000000e+000
    outer loop
      vertex  2.346517e+000 -1.481532e+001  0.000000e+000
      vertex  2.346517e+000 -1.481532e+001  2.000000e+001
      vertex -1.607804e-014 -1.500000e+001  0.000000e+000
    endloop
  endfacet
  facet normal  7.845923e-002 -9.969174e-001  0.000000e+000
    outer loop
      vertex -1.607804e-014 -1.500000e+001  0.000000e+000
      vertex  2.346517e+000 -1.481532e+001  2.000000e+001
      vertex -1.607804e-014 -1.500000e+001  2.000000e+001
    endloop
  endfacet
  facet normal -7.845923e-002 -9.969174e-001  -0.000000e+000
    outer loop
      vertex -1.607804e-014 -1.500000e+001  0.000000e+000
      vertex -1.607804e-014 -1.500000e+001  2.000000e+001
      vertex -2.346517e+000 -1.481532e+001  0.000000e+000
    endloop
  endfacet
  facet normal -7.845923e-002 -9.969174e-001  0.000000e+000
    outer loop
      vertex -2.346517e+000 -1.481532e+001  0.000000e+000
      vertex -1.607804e-014 -1.500000e+001  2.000000e+001
      vertex -2.346517e+000 -1.481532e+001  2.000000e+001
    endloop
  endfacet
  facet normal -2.334451e-001 -9.723700e-001  -0.000000e+000
    outer loop
      vertex -2.346517e+000 -1.481532e+001  0.000000e+000
      vertex -2.346517e+000 -1.481532e+001  2.000000e+001
      vertex -4.635255e+000 -1.426585e+001  0.000000e+000
    endloop
  endfacet
  facet normal -2.334451e-001 -9.723700e-001  0.000000e+000
    outer loop
      vertex -4.635255e+000 -1.426585e+001  0.000000e+000
      vertex -2.346517e+000 -1.481532e+001  2.000000e+001
      vertex -4.635255e+000 -1.426585e+001  2.000000e+001
    endloop
  endfacet
  facet normal -3.826835e-001 -9.238794e-001  -0.000000e+000
    outer loop
      vertex -4.635255e+000 -1.426585e+001  0.000000e+000
      vertex -4.635255e+000 -1.426585e+001  2.000000e+001
      vertex -6.809857e+000 -1.336510e+001  0.000000e+000
    endloop
  endfacet
  facet normal -3.826835e-001 -9.238794e-001  0.000000e+000
    outer loop
      vertex -6.809857e+000 -1.336510e+001  0.000000e+000
      vertex -4.635255e+000 -1.426585e+001  2.000000e+001
      vertex -6.809857e+000 -1.336510e+001  2.000000e+001
    endloop
  endfacet
  facet normal -5.224985e-001 -8.526402e-001  -0.000000e+000
    outer loop
      vertex -6.809857e+000 -1.336510e+001  0.000000e+000
      vertex -6.809857e+000 -1.336510e+001  2.000000e+001
      vertex -8.816779e+000 -1.213525e+001  0.000000e+000
    endloop
  endfacet
  facet normal -5.224985e-001 -8.526402e-001  0.000000e+000
    outer loop
      vertex -8.816779e+000 -1.213525e+001  0.000000e+000
      vertex -6.809857e+000 -1.336510e+001  2.000000e+001
      vertex -8.816779e+000 -1.213525e+001  2.000000e+001
    endloop
  endfacet
  facet normal -6.494481e-001 -7.604059e-001  -0.000000e+000
    outer loop
      vertex -8.816779e+000 -1.213525e+001  0.000000e+000
      vertex -8.816779e+000 -1.213525e+001  2.000000e+001
      vertex -1.060660e+001 -1.060660e+001  0.000000e+000
    endloop
  endfacet
  facet normal -6.494481e-001 -7.604059e-001  0.000000e+000
    outer loop
      vertex -1.060660e+001 -1.060660e+001  0.000000e+000
      vertex -8.816779e+000 -1.213525e+001  2.000000e+001
      vertex -1.060660e+001 -1.060660e+001  2.000000e+001
    endloop
  endfacet
  facet normal -7.604059e-001 -6.494481e-001  -0.000000e+000
    outer loop
      vertex -1.060660e+001 -1.060660e+001  0.000000e+000
      vertex -1.060660e+001 -1.060660e+001  2.000000e+001
      vertex -1.213525e+001 -8.816779e+000  0.000000e+000
    endloop
  endfacet
  facet normal -7.604059e-001 -6.494481e-001  0.000000e+000
    outer loop
      vertex -1.213525e+001 -8.816779e+000  0.000000e+000
      vertex -1.060660e+001 -1.060660e+001  2.000000e+001
      vertex -1.213525e+001 -8.816779e+000  2.000000e+001
    endloop
  endfacet
  facet normal -8.526402e-001 -5.224985e-001  -0.000000e+000
    outer loop
      vertex -1.213525e+001 -8.816779e+000  0.000000e+000
      vertex -1.213525e+001 -8.816779e+000  2.000000e+001
      vertex -1.336510e+001 -6.809857e+000  0.000000e+000
    endloop
  endfacet
  facet normal -8.526402e-001 -5.224985e-001  0.000000e+000
    outer loop
      vertex -1.336510e+001 -6.809857e+000  0.000000e+000
      vertex -1.213525e+001 -8.816779e+000  2.000000e+001
      vertex -1.336510e+001 -6.809857e+000  2.000000e+001
    endloop
  endfacet
  facet normal -9.238794e-001 -3.826835e-001  -0.000000e+000
    outer loop
      vertex -1.336510e+001 -6.809857e+000  0.000000e+000
      vertex -1.336510e+001 -6.809857e+000  2.000000e+001
      vertex -1.426585e+001 -4.635255e+000  0.000000e+000
    endloop
  endfacet
  facet normal -9.238794e-001 -3.826835e-001  0.000000e+000
    outer loop
      vertex -1.426585e+001 -4.635255e+000  0.000000e+000
      vertex -1.336510e+001 -6.809857e+000  2.000000e+001
      vertex -1.426585e+001 -4.635255e+000  2.000000e+001
    endloop
  endfacet
  facet normal -9.723700e-001 -2.334451e-001  -0.000000e+000
    outer loop
      vertex -1.426585e+001 -4.635255e+000  0.000000e+000
      vertex -1.426585e+001 -4.635255e+000  2.000000e+001
      vertex -1.481532e+001 -2.346517e+000  0.000000e+000
    endloop
  endfacet
  facet normal -9.723700e-001 -2.334451e-001  0.000000e+000
    outer loop
      vertex -1.481532e+001 -2.346517e+000  0.000000e+000
      vertex -1.426585e+001 -4.635255e+000  2.000000e+001
      vertex -1.481532e+001 -2.346517e+000  2.000000e+001
    endloop
  endfacet
  facet normal -9.969174e-001 -7.845923e-002  -0.000000e+000
    outer loop
      vertex -1.481532e+001 -2.346517e+000  0.000000e+000
      vertex -1.481532e+001 -2.346517e+000  2.000000e+001
      vertex -1.500000e+001  8.498248e-015  0.000000e+000
    endloop
  endfacet
  facet normal -9.969174e-001 -7.845923e-002  0.000000e+000
    outer loop
      vertex -1.500000e+001  8.498248e-015  0.000000e+000
      vertex -1.481532e+001 -2.346517e+000  2.000000e+001
      vertex -1.500000e+001  8.498248e-015  2.000000e+001
    endloop
  endfacet
  facet normal -9.969174e-001  7.845923e-002  0.000000e+000
    outer loop
      vertex -1.500000e+001  8.498248e-015  0.000000e+000
      vertex -1.500000e+001  8.498248e-015  2.000000e+001
      vertex -1.481532e+001  2.346517e+000  0.000000e+000
    endloop
  endfacet
  facet normal -9.969174e-001  7.845923e-002  0.000000e+000
    outer loop
      vertex -1.481532e+001  2.346517e+000  0.000000e+000
      vertex -1.500000e+001  8.498248e-015  2.000000e+001
      vertex -1.481532e+001  2.346517e+000  2.000000e+001
    endloop
  endfacet
  facet normal -9.723700e-001  2.334451e-001  0.000000e+000
    outer loop
      vertex -1.481532e+001  2.346517e+000  0.000000e+000
      vertex -1.481532e+001  2.346517e+000  2.000000e+001
      vertex -1.426585e+001  4.635255e+000  0.000000e+000
    endloop
  endfacet
  facet normal -9.723700e-001  2.334451e-001  0.000000e+000
    outer loop
      vertex -1.426585e+001  4.635255e+000  0.000000e+000
      vertex -1.481532e+001  2.346517e+000  2.000000e+001
      vertex -1.426585e+001  4.635255e+000  2.000000e+001
    endloop
  endfacet
  facet normal -9.238794e-001  3.826835e-001  0.000000e+000
    outer loop
      vertex -1.426585e+001  4.635255e+000  0.000000e+000
      vertex -1.426585e+001  4.635255e+000  2.000000e+001
      vertex -1.336510e+001  6.809857e+000  0.000000e+000
    endloop
  endfacet
  facet normal -9.238794e-001  3.826835e-001  0.000000e+000
    outer loop
      vertex -1.336510e+001  6.809857e+000  0.000000e+000
      vertex -1.426585e+001  4.635255e+000  2.000000e+001
      vertex -1.336510e+001  6.809857e+000  2.000000e+001
    endloop
  endfacet
  facet normal -8.526402e-001  5.224985e-001  0.000000e+000
    outer loop
      vertex -1.336510e+001  6.809857e+000  0.000000e+000
      vertex -1.336510e+001  6.809857e+000  2.000000e+001
      vertex -1.213525e+001  8.816779e+000  0.000000e+000
    endloop
  endfacet
  facet normal -8.526402e-001  5.224985e-001  0.000000e+000
    outer loop
      vertex -1.213525e+001  8.816779e+000  0.000000e+000
      vertex -1.336510e+001  6.809857e+000  2.000000e+001
      vertex -1.213525e+001  8.816779e+000  2.000000e+001
    endloop
  endfacet
  facet normal -7.604059e-001  6.494481e-001  0.000000e+000
    outer loop
      vertex -1.213525e+001  8.816779e+000  0.000000e+000
      vertex -1.213525e+001  8.816779e+000  2.000000e+001
      vertex -1.060660e+001  1.060660e+001  0.000000e+000
    endloop
  endfacet
  facet normal -7.604059e-001  6.494481e-001  0.000000e+000
    outer loop
      vertex -1.060660e+001  1.060660e+001  0.000000e+000
      vertex -1.213525e+001  8.816779e+000  2.000000e+001
      vertex -1.060660e+001  1.060660e+001  2.000000e+001
    endloop
  endfacet
  facet normal -6.494481e-001  7.604059e-001  0.000000e+000
    outer loop
      vertex -1.060660e+001  1.060660e+001  0.000000e+000
      vertex -1.060660e+001  1.060660e+001  2.000000e+001
      vertex -8.816779e+000  1.213525e+001  0.000000e+000
    endloop
  endfacet
  facet normal -6.494481e-001  7.604059e-001  0.000000e+000
    outer loop
      vertex -8.816779e+000  1.213525e+001  0.000000e+000
      vertex -1.060660e+001  1.060660e+001  2.000000e+001
      vertex -8.816779e+000  1.213525e+001  2.000000e+001
    endloop
  endfacet
  facet normal -5.224985e-001  8.526402e-001  0.000000e+000
    outer loop
      vertex -8.816779e+000  1.213525e+001  0.000000e+000
      vertex -8.816779e+000  1.213525e+001  2.000000e+001
      vertex -6.809857e+000  1.336510e+001  0.000000e+000
    endloop
  endfacet
  facet normal -5.224985e-001  8.526402e-001  0.000000e+000
    outer loop
      vertex -6.809857e+000  1.336510e+001  0.000000e+000
      vertex -8.816779e+000  1.213525e+001  2.000000e+001
      vertex -6.809857e+000  1.336510e+001  2.000000e+001
    endloop
  endfacet
  facet normal -3.826835e-001  9.238794e-001  0.000000e+000
    outer loop
      vertex -6.809857e+000  1.336510e+001  0.000000e+000
      vertex -6.809857e+000  1.336510e+001  2.000000e+001
      vertex -4.635255e+000  1.426585e+001  0.000000e+000
    endloop
  endfacet
  facet normal -3.826835e-001  9.238794e-001  0.000000e+000
    outer loop
      vertex -4.635255e+000  1.426585e+001  0.000000e+000
      vertex -6.809857e+000  1.336510e+001  2.000000e+001
      vertex -4.635255e+000  1.426585e+001  2.000000e+001
    endloop
  endfacet
  facet normal -2.334451e-001  9.723700e-001  0.000000e+000
    outer loop
      vertex -4.635255e+000  1.426585e+001  0.000000e+000
      vertex -4.635255e+000  1.426585e+001  2.000000e+001
      vertex -2.346517e+000  1.481532e+001  0.000000e+000
    endloop
  endfacet
  facet normal -2.334451e-001  9.723700e-001  0.000000e+000
    outer loop
      vertex -2.346517e+000  1.481532e+001  0.000000e+000
      vertex -4.635255e+000  1.426585e+001  2.000000e+001
      vertex -2.346517e+000  1.481532e+001  2.000000e+001
    endloop
  endfacet
  facet normal -7.845923e-002  9.969174e-001  0.000000e+000
    outer loop
      vertex -2.346517e+000  1.481532e+001  0.000000e+000
      vertex -2.346517e+000  1.481532e+001  2.000000e+001
      vertex  4.249124e-015  1.500000e+001  0.000000e+000
    endloop
  endfacet
  facet normal -7.845923e-002  9.969174e-001  0.000000e+000
    outer loop
      vertex  4.249124e-015  1.500000e+001  0.000000e+000
      vertex -2.346517e+000  1.481532e+001  2.000000e+001
      vertex  4.249124e-015  1.500000e+001  2.000000e+001
    endloop
  endfacet
  facet normal  7.845923e-002  9.969174e-001  0.000000e+000
    outer loop
      vertex  4.249124e-015  1.500000e+001  0.000000e+000
      vertex  4.249124e-015  1.500000e+001  2.000000e+001
      vertex  2.346517e+000  1.481532e+001  0.000000e+000
    endloop
  endfacet
  facet normal  7.845923e-002  9.969174e-001  -0.000000e+000
    outer loop
      vertex  2.346517e+000  1.481532e+001  0.000000e+000
      vertex  4.249124e-015  1.500000e+001  2.000000e+001
      vertex  2.346517e+000  1.481532e+001  2.000000e+001
    endloop
  endfacet
  facet normal  2.334451e-001  9.723700e-001  0.000000e+000
    outer loop
      vertex  2.346517e+000  1.481532e+001  0.000000e+000
      vertex  2.346517e+000  1.481532e+001  2.000000e+001
      vertex  4.635255e+000  1.426585e+001  0.000000e+000
    endloop
  endfacet
  facet normal  2.334451e-001  9.723700e-001  -0.000000e+000
    outer loop
      vertex  4.635255e+000  1.426585e+001  0.000000e+000
      vertex  2.346517e+000  1.481532e+001  2.000000e+001
      vertex  4.635255e+000  1.426585e+001  2.000000e+001
    endloop
  endfacet
  facet normal  3.826835e-001  9.238794e-001  0.000000e+000
    outer loop
      vertex  4.635255e+000  1.426585e+001  0.000000e+000
      vertex  4.635255e+000  1.426585e+001  2.000000e+001
      vertex  6.809857e+000  1.336510e+001  0.000000e+000
    endloop
  endfacet
  facet normal  3.826835e-001  9.238794e-001  -0.000000e+000
    outer loop
      vertex  6.809857e+000  1.336510e+001  0.000000e+000
      vertex  4.635255e+000  1.426585e+001  2.000000e+001
      vertex  6.809857e+000  1.336510e+001  2.000000e+001
    endloop
  endfacet
  facet normal  5.224985e-001  8.526402e-001  0.000000e+000
    outer loop
      vertex  6.809857e+000  1.336510e+001  0.000000e+000
      vertex  6.809857e+000  1.336510e+001  2.000000e+001
      vertex  8.816779e+000  1.213525e+001  0.000000e+000
    endloop
  endfacet
  facet normal  5.224985e-001  8.526402e-001  -0.000000e+000
    outer loop
      vertex  8.816779e+000  1.213525e+001  0.000000e+000
      vertex  6.809857e+000  1.336510e+001  2.000000e+001
      vertex  8.816779e+000  1.213525e+001  2.000000e+001
    endloop
  endfacet
  facet normal  6.494481e-001  7.604059e-001  0.000000e+000
    outer loop
      vertex  8.816779e+000  1.213525e+001  0.000000e+000
      vertex  8.816779e+000  1.213525e+001  2.000000e+001
      vertex  1.060660e+001  1.060660e+001  0.000000e+000
    endloop
  endfacet
  facet normal  6.494481e-001  7.604059e-001  -0.000000e+000
    outer loop
      vertex  1.060660e+001  1.060660e+001  0.000000e+000
      vertex  8.816779e+000  1.213525e+001  2.000000e+001
      vertex  1.060660e+001  1.060660e+001  2.000000e+001
    endloop
  endfacet
  facet normal  7.604059e-001  6.494481e-001  0.000000e+000
    outer loop
      vertex  1.060660e+001  1.060660e+001  0.000000e+000
      vertex  1.060660e+001  1.060660e+001  2.000000e+001
      vertex  1.213525e+001  8.816779e+000  0.000000e+000
    endloop
  endfacet
  facet normal  7.604059e-001  6.494481e-001  -0.000000e+000
    outer loop
      vertex  1.213525e+001  8.816779e+000  0.000000e+000
      vertex  1.060660e+001  1.060660e+001  2.000000e+001
      vertex  1.213525e+001  8.816779e+000  2.000000e+001
    endloop
  endfacet
  facet normal  8.526402e-001  5.224985e-001  0.000000e+000
    outer loop
      vertex  1.213525e+001  8.816779e+000  0.000000e+000
      vertex  1.213525e+001  8.816779e+000  2.000000e+001
      vertex  1.336510e+001  6.809857e+000  0.000000e+000
    endloop
  endfacet
  facet normal  8.526402e-001  5.224985e-001  -0.000000e+000
    outer loop
      vertex  1.336510e+001  6.809857e+000  0.000000e+000
      vertex  1.213525e+001  8.816779e+000  2.000000e+001
      vertex  1.336510e+001  6.809857e+000  2.000000e+001
    endloop
  endfacet
  facet normal  9.238794e-001  3.826835e-001  0.000000e+000
    outer loop
      vertex  1.336510e+001  6.809857e+000  0.000000e+000
      vertex  1.336510e+001  6.809857e+000  2.000000e+001
      vertex  1.426585e+001  4.635255e+000  0.000000e+000
    endloop
  endfacet
  facet normal  9.238794e-001  3.826835e-001  -0.000000e+000
    outer loop
      vertex  1.426585e+001  4.635255e+000  0.000000e+000
      vertex  1.336510e+001  6.809857e+000  2.000000e+001
      vertex  1.426585e+001  4.635255e+000  2.000000e+001
    endloop
  endfacet
  facet normal  9.723700e-001  2.334451e-001  0.000000e+000
    outer loop
      vertex  1.426585e+001  4.635255e+000  0.000000e+000
      vertex  1.426585e+001  4.635255e+000  2.000000e+001
      vertex  1.481532e+001  2.346517e+000  0.000000e+000
    endloop
  endfacet
  facet normal  9.723700e-001  2.334451e-001  -0.000000e+000
    outer loop
      vertex  1.481532e+001  2.346517e+000  0.000000e+000
      vertex  1.426585e+001  4.635255e+000  2.000000e+001
      vertex  1.481532e+001  2.346517e+000  2.000000e+001
    endloop
  endfacet
  facet normal  9.969174e-001  7.845923e-002  0.000000e+000
    outer loop
      vertex  1.481532e+001  2.346517e+000  0.000000e+000
      vertex  1.481532e+001  2.346517e+000  2.000000e+001
      vertex  1.500000e+001  0.000000e+000  0.000000e+000
    endloop
  endfacet
  facet normal  9.969174e-001  7.845923e-002  -0.000000e+000
    outer loop
      vertex  1.500000e+001  0.000000e+000  0.000000e+000
      vertex  1.481532e+001  2.346517e+000  2.000000e+001
      vertex  1.500000e+001  0.000000e+000  2.000000e+001
    endloop
  endfacet
endsolid CATIA STL
