solid CATIA STL
  facet normal  1.000000e+000  -0.000000e+000  0.000000e+000
    outer loop
      vertex  0.000000e+000  4.700000e+001  5.000000e+000
      vertex  0.000000e+000  1.606384e+001  5.000000e+000
      vertex  0.000000e+000  4.000000e+001  2.500000e+000
    endloop
  endfacet
  facet normal  1.000000e+000  -0.000000e+000  0.000000e+000
    outer loop
      vertex  0.000000e+000  4.700000e+001  5.000000e+000
      vertex  0.000000e+000  4.000000e+001  2.500000e+000
      vertex  0.000000e+000  4.095671e+001  2.309699e+000
    endloop
  endfacet
  facet normal  1.000000e+000  -0.000000e+000  0.000000e+000
    outer loop
      vertex  0.000000e+000  4.700000e+001  5.000000e+000
      vertex  0.000000e+000  4.095671e+001  2.309699e+000
      vertex  0.000000e+000  4.176777e+001  1.767767e+000
    endloop
  endfacet
  facet normal  1.000000e+000  -0.000000e+000  0.000000e+000
    outer loop
      vertex  0.000000e+000  4.700000e+001  5.000000e+000
      vertex  0.000000e+000  4.176777e+001  1.767767e+000
      vertex  0.000000e+000  4.230970e+001  9.567085e-001
    endloop
  endfacet
  facet normal  1.000000e+000  -0.000000e+000  0.000000e+000
    outer loop
      vertex  0.000000e+000  4.700000e+001  5.000000e+000
      vertex  0.000000e+000  4.230970e+001  9.567085e-001
      vertex  0.000000e+000  4.700000e+001 -5.000000e+000
    endloop
  endfacet
  facet normal  1.000000e+000  0.000000e+000  0.000000e+000
    outer loop
      vertex  0.000000e+000  1.606384e+001 -5.000000e+000
      vertex  0.000000e+000  4.000000e+001 -2.500000e+000
      vertex  0.000000e+000  3.904329e+001 -2.309699e+000
    endloop
  endfacet
  facet normal  9.999999e-001  0.000000e+000  0.000000e+000
    outer loop
      vertex  0.000000e+000  1.606384e+001 -5.000000e+000
      vertex  0.000000e+000  3.904329e+001 -2.309699e+000
      vertex  0.000000e+000  3.823223e+001 -1.767767e+000
    endloop
  endfacet
  facet normal  9.999999e-001  0.000000e+000  0.000000e+000
    outer loop
      vertex  0.000000e+000  1.606384e+001 -5.000000e+000
      vertex  0.000000e+000  3.823223e+001 -1.767767e+000
      vertex  0.000000e+000  3.769030e+001 -9.567086e-001
    endloop
  endfacet
  facet normal  1.000000e+000  0.000000e+000  0.000000e+000
    outer loop
      vertex  0.000000e+000  1.606384e+001 -5.000000e+000
      vertex  0.000000e+000  3.769030e+001 -9.567086e-001
      vertex  0.000000e+000  3.750000e+001  9.582283e-007
    endloop
  endfacet
  facet normal  1.000000e+000  0.000000e+000  0.000000e+000
    outer loop
      vertex  0.000000e+000  1.606384e+001 -5.000000e+000
      vertex  0.000000e+000  3.750000e+001  9.582283e-007
      vertex  0.000000e+000  1.606384e+001  5.000000e+000
    endloop
  endfacet
  facet normal  1.000000e+000  0.000000e+000  0.000000e+000
    outer loop
      vertex  0.000000e+000  4.700000e+001 -5.000000e+000
      vertex  0.000000e+000  4.230970e+001  9.567085e-001
      vertex  0.000000e+000  4.250000e+001 -1.404584e-016
    endloop
  endfacet
  facet normal  1.000000e+000  0.000000e+000  0.000000e+000
    outer loop
      vertex  0.000000e+000  4.700000e+001 -5.000000e+000
      vertex  0.000000e+000  4.250000e+001 -1.404584e-016
      vertex  0.000000e+000  4.230970e+001 -9.567086e-001
    endloop
  endfacet
  facet normal  1.000000e+000  0.000000e+000  0.000000e+000
    outer loop
      vertex  0.000000e+000  4.700000e+001 -5.000000e+000
      vertex  0.000000e+000  4.230970e+001 -9.567086e-001
      vertex  0.000000e+000  4.176777e+001 -1.767767e+000
    endloop
  endfacet
  facet normal  1.000000e+000  0.000000e+000  0.000000e+000
    outer loop
      vertex  0.000000e+000  4.700000e+001 -5.000000e+000
      vertex  0.000000e+000  4.176777e+001 -1.767767e+000
      vertex  0.000000e+000  4.095671e+001 -2.309699e+000
    endloop
  endfacet
  facet normal  1.000000e+000  0.000000e+000  0.000000e+000
    outer loop
      vertex  0.000000e+000  4.700000e+001 -5.000000e+000
      vertex  0.000000e+000  4.095671e+001 -2.309699e+000
      vertex  0.000000e+000  4.000000e+001 -2.500000e+000
    endloop
  endfacet
  facet normal  1.000000e+000  0.000000e+000  0.000000e+000
    outer loop
      vertex  0.000000e+000  4.700000e+001 -5.000000e+000
      vertex  0.000000e+000  4.000000e+001 -2.500000e+000
      vertex  0.000000e+000  1.606384e+001 -5.000000e+000
    endloop
  endfacet
  facet normal  1.000000e+000  0.000000e+000  -0.000000e+000
    outer loop
      vertex  0.000000e+000  1.606384e+001  5.000000e+000
      vertex  0.000000e+000  3.750000e+001  9.582283e-007
      vertex  0.000000e+000  3.769030e+001  9.567094e-001
    endloop
  endfacet
  facet normal  1.000000e+000  0.000000e+000  -0.000000e+000
    outer loop
      vertex  0.000000e+000  1.606384e+001  5.000000e+000
      vertex  0.000000e+000  3.769030e+001  9.567094e-001
      vertex  0.000000e+000  3.823223e+001  1.767767e+000
    endloop
  endfacet
  facet normal  9.999999e-001  0.000000e+000  -0.000000e+000
    outer loop
      vertex  0.000000e+000  1.606384e+001  5.000000e+000
      vertex  0.000000e+000  3.823223e+001  1.767767e+000
      vertex  0.000000e+000  3.904329e+001  2.309699e+000
    endloop
  endfacet
  facet normal  1.000000e+000  0.000000e+000  -0.000000e+000
    outer loop
      vertex  0.000000e+000  1.606384e+001  5.000000e+000
      vertex  0.000000e+000  3.904329e+001  2.309699e+000
      vertex  0.000000e+000  4.000000e+001  2.500000e+000
    endloop
  endfacet
  facet normal  0.000000e+000  9.749274e-001 -2.225230e-001
    outer loop
      vertex -1.000000e+000  3.850000e+001  1.836910e-016
      vertex -4.000000e+000  3.850000e+001  1.836910e-016
      vertex -1.000000e+000  3.864855e+001  6.508256e-001
    endloop
  endfacet
  facet normal  0.000000e+000  9.749274e-001 -2.225230e-001
    outer loop
      vertex -1.000000e+000  3.864855e+001  6.508256e-001
      vertex -4.000000e+000  3.850000e+001  1.836910e-016
      vertex -4.000000e+000  3.864855e+001  6.508256e-001
    endloop
  endfacet
  facet normal  0.000000e+000  7.818320e-001 -6.234890e-001
    outer loop
      vertex -1.000000e+000  3.864855e+001  6.508256e-001
      vertex -4.000000e+000  3.864855e+001  6.508256e-001
      vertex -1.000000e+000  3.906477e+001  1.172747e+000
    endloop
  endfacet
  facet normal  0.000000e+000  7.818320e-001 -6.234890e-001
    outer loop
      vertex -1.000000e+000  3.906477e+001  1.172747e+000
      vertex -4.000000e+000  3.864855e+001  6.508256e-001
      vertex -4.000000e+000  3.906477e+001  1.172747e+000
    endloop
  endfacet
  facet normal  0.000000e+000  4.338845e-001 -9.009686e-001
    outer loop
      vertex -1.000000e+000  3.906477e+001  1.172747e+000
      vertex -4.000000e+000  3.906477e+001  1.172747e+000
      vertex -1.000000e+000  3.966622e+001  1.462392e+000
    endloop
  endfacet
  facet normal  0.000000e+000  4.338845e-001 -9.009686e-001
    outer loop
      vertex -1.000000e+000  3.966622e+001  1.462392e+000
      vertex -4.000000e+000  3.906477e+001  1.172747e+000
      vertex -4.000000e+000  3.966622e+001  1.462392e+000
    endloop
  endfacet
  facet normal  0.000000e+000  0.000000e+000 -1.000000e+000
    outer loop
      vertex -1.000000e+000  3.966622e+001  1.462392e+000
      vertex -4.000000e+000  3.966622e+001  1.462392e+000
      vertex -1.000000e+000  4.033378e+001  1.462392e+000
    endloop
  endfacet
  facet normal  -0.000000e+000  0.000000e+000 -1.000000e+000
    outer loop
      vertex -1.000000e+000  4.033378e+001  1.462392e+000
      vertex -4.000000e+000  3.966622e+001  1.462392e+000
      vertex -4.000000e+000  4.033378e+001  1.462392e+000
    endloop
  endfacet
  facet normal  0.000000e+000 -4.338845e-001 -9.009686e-001
    outer loop
      vertex -1.000000e+000  4.033378e+001  1.462392e+000
      vertex -4.000000e+000  4.033378e+001  1.462392e+000
      vertex -1.000000e+000  4.093523e+001  1.172747e+000
    endloop
  endfacet
  facet normal  -0.000000e+000 -4.338845e-001 -9.009686e-001
    outer loop
      vertex -1.000000e+000  4.093523e+001  1.172747e+000
      vertex -4.000000e+000  4.033378e+001  1.462392e+000
      vertex -4.000000e+000  4.093523e+001  1.172747e+000
    endloop
  endfacet
  facet normal  0.000000e+000 -7.818320e-001 -6.234890e-001
    outer loop
      vertex -1.000000e+000  4.093523e+001  1.172747e+000
      vertex -4.000000e+000  4.093523e+001  1.172747e+000
      vertex -1.000000e+000  4.135145e+001  6.508256e-001
    endloop
  endfacet
  facet normal  -0.000000e+000 -7.818320e-001 -6.234890e-001
    outer loop
      vertex -1.000000e+000  4.135145e+001  6.508256e-001
      vertex -4.000000e+000  4.093523e+001  1.172747e+000
      vertex -4.000000e+000  4.135145e+001  6.508256e-001
    endloop
  endfacet
  facet normal  0.000000e+000 -9.749274e-001 -2.225230e-001
    outer loop
      vertex -1.000000e+000  4.135145e+001  6.508256e-001
      vertex -4.000000e+000  4.135145e+001  6.508256e-001
      vertex -1.000000e+000  4.150000e+001 -3.673819e-016
    endloop
  endfacet
  facet normal -2.725030e-017 -9.749274e-001 -2.225230e-001
    outer loop
      vertex -1.000000e+000  4.150000e+001 -3.673819e-016
      vertex -4.000000e+000  4.135145e+001  6.508256e-001
      vertex -4.000000e+000  4.150000e+001  0.000000e+000
    endloop
  endfacet
  facet normal  2.725030e-017 -9.749274e-001  2.225230e-001
    outer loop
      vertex -1.000000e+000  4.150000e+001 -3.673819e-016
      vertex -4.000000e+000  4.150000e+001  0.000000e+000
      vertex -1.000000e+000  4.135145e+001 -6.508256e-001
    endloop
  endfacet
  facet normal  0.000000e+000 -9.749274e-001  2.225230e-001
    outer loop
      vertex -1.000000e+000  4.135145e+001 -6.508256e-001
      vertex -4.000000e+000  4.150000e+001  0.000000e+000
      vertex -4.000000e+000  4.135145e+001 -6.508256e-001
    endloop
  endfacet
  facet normal  0.000000e+000 -7.818320e-001  6.234890e-001
    outer loop
      vertex -1.000000e+000  4.135145e+001 -6.508256e-001
      vertex -4.000000e+000  4.135145e+001 -6.508256e-001
      vertex -1.000000e+000  4.093523e+001 -1.172747e+000
    endloop
  endfacet
  facet normal  0.000000e+000 -7.818320e-001  6.234890e-001
    outer loop
      vertex -1.000000e+000  4.093523e+001 -1.172747e+000
      vertex -4.000000e+000  4.135145e+001 -6.508256e-001
      vertex -4.000000e+000  4.093523e+001 -1.172747e+000
    endloop
  endfacet
  facet normal  0.000000e+000 -4.338845e-001  9.009686e-001
    outer loop
      vertex -1.000000e+000  4.093523e+001 -1.172747e+000
      vertex -4.000000e+000  4.093523e+001 -1.172747e+000
      vertex -1.000000e+000  4.033378e+001 -1.462392e+000
    endloop
  endfacet
  facet normal  0.000000e+000 -4.338845e-001  9.009686e-001
    outer loop
      vertex -1.000000e+000  4.033378e+001 -1.462392e+000
      vertex -4.000000e+000  4.093523e+001 -1.172747e+000
      vertex -4.000000e+000  4.033378e+001 -1.462392e+000
    endloop
  endfacet
  facet normal  -0.000000e+000  0.000000e+000  1.000000e+000
    outer loop
      vertex -1.000000e+000  4.033378e+001 -1.462392e+000
      vertex -4.000000e+000  4.033378e+001 -1.462392e+000
      vertex -1.000000e+000  3.966622e+001 -1.462392e+000
    endloop
  endfacet
  facet normal  0.000000e+000  0.000000e+000  1.000000e+000
    outer loop
      vertex -1.000000e+000  3.966622e+001 -1.462392e+000
      vertex -4.000000e+000  4.033378e+001 -1.462392e+000
      vertex -4.000000e+000  3.966622e+001 -1.462392e+000
    endloop
  endfacet
  facet normal  -0.000000e+000  4.338845e-001  9.009686e-001
    outer loop
      vertex -1.000000e+000  3.966622e+001 -1.462392e+000
      vertex -4.000000e+000  3.966622e+001 -1.462392e+000
      vertex -1.000000e+000  3.906477e+001 -1.172747e+000
    endloop
  endfacet
  facet normal  0.000000e+000  4.338845e-001  9.009686e-001
    outer loop
      vertex -1.000000e+000  3.906477e+001 -1.172747e+000
      vertex -4.000000e+000  3.966622e+001 -1.462392e+000
      vertex -4.000000e+000  3.906477e+001 -1.172747e+000
    endloop
  endfacet
  facet normal  -0.000000e+000  7.818320e-001  6.234890e-001
    outer loop
      vertex -1.000000e+000  3.906477e+001 -1.172747e+000
      vertex -4.000000e+000  3.906477e+001 -1.172747e+000
      vertex -1.000000e+000  3.864855e+001 -6.508256e-001
    endloop
  endfacet
  facet normal  0.000000e+000  7.818320e-001  6.234890e-001
    outer loop
      vertex -1.000000e+000  3.864855e+001 -6.508256e-001
      vertex -4.000000e+000  3.906477e+001 -1.172747e+000
      vertex -4.000000e+000  3.864855e+001 -6.508256e-001
    endloop
  endfacet
  facet normal  -0.000000e+000  9.749274e-001  2.225230e-001
    outer loop
      vertex -1.000000e+000  3.864855e+001 -6.508256e-001
      vertex -4.000000e+000  3.864855e+001 -6.508256e-001
      vertex -1.000000e+000  3.850000e+001  1.836910e-016
    endloop
  endfacet
  facet normal  0.000000e+000  9.749274e-001  2.225230e-001
    outer loop
      vertex -1.000000e+000  3.850000e+001  1.836910e-016
      vertex -4.000000e+000  3.864855e+001 -6.508256e-001
      vertex -4.000000e+000  3.850000e+001  1.836910e-016
    endloop
  endfacet
  facet normal  7.002147e-001  7.002146e-001 -1.392805e-001
    outer loop
      vertex  0.000000e+000  3.769030e+001  9.567094e-001
      vertex  0.000000e+000  3.750000e+001  9.582283e-007
      vertex -1.000000e+000  3.850000e+001  1.836910e-016
    endloop
  endfacet
  facet normal  7.079145e-001  6.885894e-001 -1.571675e-001
    outer loop
      vertex -1.000000e+000  3.864855e+001  6.508256e-001
      vertex  0.000000e+000  3.769030e+001  9.567094e-001
      vertex -1.000000e+000  3.850000e+001  1.836910e-016
    endloop
  endfacet
  facet normal  7.079144e-001 -6.885895e-001 -1.571676e-001
    outer loop
      vertex  0.000000e+000  4.230970e+001  9.567085e-001
      vertex -1.000000e+000  4.135145e+001  6.508256e-001
      vertex -1.000000e+000  4.150000e+001 -3.673819e-016
    endloop
  endfacet
  facet normal  7.002146e-001 -7.002146e-001 -1.392805e-001
    outer loop
      vertex  0.000000e+000  4.250000e+001 -1.404584e-016
      vertex  0.000000e+000  4.230970e+001  9.567085e-001
      vertex -1.000000e+000  4.150000e+001 -3.673819e-016
    endloop
  endfacet
  facet normal  6.950322e-001 -5.978091e-001 -3.994428e-001
    outer loop
      vertex  0.000000e+000  4.230970e+001  9.567085e-001
      vertex  0.000000e+000  4.176777e+001  1.767767e+000
      vertex -1.000000e+000  4.135145e+001  6.508256e-001
    endloop
  endfacet
  facet normal  6.915057e-001 -4.013279e-001 -6.006295e-001
    outer loop
      vertex  0.000000e+000  4.176777e+001  1.767767e+000
      vertex  0.000000e+000  4.095671e+001  2.309699e+000
      vertex -1.000000e+000  4.093523e+001  1.172747e+000
    endloop
  endfacet
  facet normal  7.147205e-001 -5.468212e-001 -4.360745e-001
    outer loop
      vertex -1.000000e+000  4.135145e+001  6.508256e-001
      vertex  0.000000e+000  4.176777e+001  1.767767e+000
      vertex -1.000000e+000  4.093523e+001  1.172747e+000
    endloop
  endfacet
  facet normal  6.897206e-001 -1.412600e-001 -7.101628e-001
    outer loop
      vertex  0.000000e+000  4.095671e+001  2.309699e+000
      vertex  0.000000e+000  4.000000e+001  2.500000e+000
      vertex -1.000000e+000  4.033378e+001  1.462392e+000
    endloop
  endfacet
  facet normal  7.187173e-001 -3.016810e-001 -6.264456e-001
    outer loop
      vertex -1.000000e+000  4.093523e+001  1.172747e+000
      vertex  0.000000e+000  4.095671e+001  2.309699e+000
      vertex -1.000000e+000  4.033378e+001  1.462392e+000
    endloop
  endfacet
  facet normal  6.897206e-001  1.412602e-001 -7.101628e-001
    outer loop
      vertex  0.000000e+000  4.000000e+001  2.500000e+000
      vertex  0.000000e+000  3.904329e+001  2.309699e+000
      vertex -1.000000e+000  3.966622e+001  1.462392e+000
    endloop
  endfacet
  facet normal  7.200353e-001  0.000000e+000 -6.939375e-001
    outer loop
      vertex -1.000000e+000  4.033378e+001  1.462392e+000
      vertex  0.000000e+000  4.000000e+001  2.500000e+000
      vertex -1.000000e+000  3.966622e+001  1.462392e+000
    endloop
  endfacet
  facet normal  6.915051e-001  4.013281e-001 -6.006300e-001
    outer loop
      vertex  0.000000e+000  3.904329e+001  2.309699e+000
      vertex  0.000000e+000  3.823223e+001  1.767767e+000
      vertex -1.000000e+000  3.906477e+001  1.172747e+000
    endloop
  endfacet
  facet normal  7.187169e-001  3.016812e-001 -6.264460e-001
    outer loop
      vertex -1.000000e+000  3.966622e+001  1.462392e+000
      vertex  0.000000e+000  3.904329e+001  2.309699e+000
      vertex -1.000000e+000  3.906477e+001  1.172747e+000
    endloop
  endfacet
  facet normal  6.950320e-001  5.978079e-001 -3.994449e-001
    outer loop
      vertex  0.000000e+000  3.823223e+001  1.767767e+000
      vertex  0.000000e+000  3.769030e+001  9.567094e-001
      vertex -1.000000e+000  3.864855e+001  6.508256e-001
    endloop
  endfacet
  facet normal  7.147197e-001  5.468220e-001 -4.360751e-001
    outer loop
      vertex -1.000000e+000  3.906477e+001  1.172747e+000
      vertex  0.000000e+000  3.823223e+001  1.767767e+000
      vertex -1.000000e+000  3.864855e+001  6.508256e-001
    endloop
  endfacet
  facet normal  7.002146e-001 -7.002146e-001  1.392805e-001
    outer loop
      vertex  0.000000e+000  4.230970e+001 -9.567086e-001
      vertex  0.000000e+000  4.250000e+001 -1.404584e-016
      vertex -1.000000e+000  4.150000e+001 -3.673819e-016
    endloop
  endfacet
  facet normal  7.079144e-001 -6.885895e-001  1.571676e-001
    outer loop
      vertex -1.000000e+000  4.135145e+001 -6.508256e-001
      vertex  0.000000e+000  4.230970e+001 -9.567086e-001
      vertex -1.000000e+000  4.150000e+001 -3.673819e-016
    endloop
  endfacet
  facet normal  7.079145e-001  6.885895e-001  1.571676e-001
    outer loop
      vertex  0.000000e+000  3.769030e+001 -9.567086e-001
      vertex -1.000000e+000  3.864855e+001 -6.508256e-001
      vertex -1.000000e+000  3.850000e+001  1.836910e-016
    endloop
  endfacet
  facet normal  7.002146e-001  7.002147e-001  1.392803e-001
    outer loop
      vertex  0.000000e+000  3.750000e+001  9.582283e-007
      vertex  0.000000e+000  3.769030e+001 -9.567086e-001
      vertex -1.000000e+000  3.850000e+001  1.836910e-016
    endloop
  endfacet
  facet normal  6.950318e-001  5.978081e-001  3.994448e-001
    outer loop
      vertex  0.000000e+000  3.769030e+001 -9.567086e-001
      vertex  0.000000e+000  3.823223e+001 -1.767767e+000
      vertex -1.000000e+000  3.864855e+001 -6.508256e-001
    endloop
  endfacet
  facet normal  6.915050e-001  4.013283e-001  6.006300e-001
    outer loop
      vertex  0.000000e+000  3.823223e+001 -1.767767e+000
      vertex  0.000000e+000  3.904329e+001 -2.309699e+000
      vertex -1.000000e+000  3.906477e+001 -1.172747e+000
    endloop
  endfacet
  facet normal  7.147197e-001  5.468221e-001  4.360752e-001
    outer loop
      vertex -1.000000e+000  3.864855e+001 -6.508256e-001
      vertex  0.000000e+000  3.823223e+001 -1.767767e+000
      vertex -1.000000e+000  3.906477e+001 -1.172747e+000
    endloop
  endfacet
  facet normal  6.897205e-001  1.412604e-001  7.101628e-001
    outer loop
      vertex  0.000000e+000  3.904329e+001 -2.309699e+000
      vertex  0.000000e+000  4.000000e+001 -2.500000e+000
      vertex -1.000000e+000  3.966622e+001 -1.462392e+000
    endloop
  endfacet
  facet normal  7.187168e-001  3.016812e-001  6.264460e-001
    outer loop
      vertex -1.000000e+000  3.906477e+001 -1.172747e+000
      vertex  0.000000e+000  3.904329e+001 -2.309699e+000
      vertex -1.000000e+000  3.966622e+001 -1.462392e+000
    endloop
  endfacet
  facet normal  6.897205e-001 -1.412604e-001  7.101628e-001
    outer loop
      vertex  0.000000e+000  4.000000e+001 -2.500000e+000
      vertex  0.000000e+000  4.095671e+001 -2.309699e+000
      vertex -1.000000e+000  4.033378e+001 -1.462392e+000
    endloop
  endfacet
  facet normal  7.200353e-001  0.000000e+000  6.939375e-001
    outer loop
      vertex -1.000000e+000  3.966622e+001 -1.462392e+000
      vertex  0.000000e+000  4.000000e+001 -2.500000e+000
      vertex -1.000000e+000  4.033378e+001 -1.462392e+000
    endloop
  endfacet
  facet normal  6.915054e-001 -4.013267e-001  6.006305e-001
    outer loop
      vertex  0.000000e+000  4.095671e+001 -2.309699e+000
      vertex  0.000000e+000  4.176777e+001 -1.767767e+000
      vertex -1.000000e+000  4.093523e+001 -1.172747e+000
    endloop
  endfacet
  facet normal  7.187168e-001 -3.016812e-001  6.264460e-001
    outer loop
      vertex -1.000000e+000  4.033378e+001 -1.462392e+000
      vertex  0.000000e+000  4.095671e+001 -2.309699e+000
      vertex -1.000000e+000  4.093523e+001 -1.172747e+000
    endloop
  endfacet
  facet normal  6.950322e-001 -5.978091e-001  3.994427e-001
    outer loop
      vertex  0.000000e+000  4.176777e+001 -1.767767e+000
      vertex  0.000000e+000  4.230970e+001 -9.567086e-001
      vertex -1.000000e+000  4.135145e+001 -6.508256e-001
    endloop
  endfacet
  facet normal  7.147206e-001 -5.468212e-001  4.360745e-001
    outer loop
      vertex -1.000000e+000  4.093523e+001 -1.172747e+000
      vertex  0.000000e+000  4.176777e+001 -1.767767e+000
      vertex -1.000000e+000  4.135145e+001 -6.508256e-001
    endloop
  endfacet
  facet normal  0.000000e+000  1.000000e+000  -0.000000e+000
    outer loop
      vertex  4.700000e+001  0.000000e+000  5.000000e+000
      vertex  4.700000e+001  0.000000e+000 -5.000000e+000
      vertex  4.230970e+001  0.000000e+000  9.567086e-001
    endloop
  endfacet
  facet normal  0.000000e+000  1.000000e+000  -0.000000e+000
    outer loop
      vertex  4.700000e+001  0.000000e+000  5.000000e+000
      vertex  4.230970e+001  0.000000e+000  9.567086e-001
      vertex  4.176777e+001  0.000000e+000  1.767767e+000
    endloop
  endfacet
  facet normal  0.000000e+000  1.000000e+000  -0.000000e+000
    outer loop
      vertex  4.700000e+001  0.000000e+000  5.000000e+000
      vertex  4.176777e+001  0.000000e+000  1.767767e+000
      vertex  4.095671e+001  0.000000e+000  2.309699e+000
    endloop
  endfacet
  facet normal  0.000000e+000  1.000000e+000  -0.000000e+000
    outer loop
      vertex  4.700000e+001  0.000000e+000  5.000000e+000
      vertex  4.095671e+001  0.000000e+000  2.309699e+000
      vertex  4.000000e+001  0.000000e+000  2.500000e+000
    endloop
  endfacet
  facet normal  0.000000e+000  1.000000e+000  -0.000000e+000
    outer loop
      vertex  4.700000e+001  0.000000e+000  5.000000e+000
      vertex  4.000000e+001  0.000000e+000  2.500000e+000
      vertex  1.606384e+001  0.000000e+000  5.000000e+000
    endloop
  endfacet
  facet normal  0.000000e+000  1.000000e+000  0.000000e+000
    outer loop
      vertex  1.606384e+001  0.000000e+000 -5.000000e+000
      vertex  1.606384e+001  0.000000e+000  5.000000e+000
      vertex  3.750000e+001  0.000000e+000 -2.148584e-015
    endloop
  endfacet
  facet normal  0.000000e+000  1.000000e+000  0.000000e+000
    outer loop
      vertex  1.606384e+001  0.000000e+000 -5.000000e+000
      vertex  3.750000e+001  0.000000e+000 -2.148584e-015
      vertex  3.769030e+001  0.000000e+000 -9.567086e-001
    endloop
  endfacet
  facet normal  0.000000e+000  1.000000e+000  0.000000e+000
    outer loop
      vertex  1.606384e+001  0.000000e+000 -5.000000e+000
      vertex  3.769030e+001  0.000000e+000 -9.567086e-001
      vertex  3.823223e+001  0.000000e+000 -1.767767e+000
    endloop
  endfacet
  facet normal  0.000000e+000  1.000000e+000  0.000000e+000
    outer loop
      vertex  1.606384e+001  0.000000e+000 -5.000000e+000
      vertex  3.823223e+001  0.000000e+000 -1.767767e+000
      vertex  3.904329e+001  0.000000e+000 -2.309699e+000
    endloop
  endfacet
  facet normal  0.000000e+000  1.000000e+000  0.000000e+000
    outer loop
      vertex  1.606384e+001  0.000000e+000 -5.000000e+000
      vertex  3.904329e+001  0.000000e+000 -2.309699e+000
      vertex  4.000000e+001  0.000000e+000 -2.500000e+000
    endloop
  endfacet
  facet normal  0.000000e+000  1.000000e+000  0.000000e+000
    outer loop
      vertex  4.700000e+001  0.000000e+000 -5.000000e+000
      vertex  1.606384e+001  0.000000e+000 -5.000000e+000
      vertex  4.000000e+001  0.000000e+000 -2.500000e+000
    endloop
  endfacet
  facet normal  -0.000000e+000  1.000000e+000  0.000000e+000
    outer loop
      vertex  4.700000e+001  0.000000e+000 -5.000000e+000
      vertex  4.000000e+001  0.000000e+000 -2.500000e+000
      vertex  4.095671e+001  0.000000e+000 -2.309699e+000
    endloop
  endfacet
  facet normal  -0.000000e+000  9.999999e-001  0.000000e+000
    outer loop
      vertex  4.700000e+001  0.000000e+000 -5.000000e+000
      vertex  4.095671e+001  0.000000e+000 -2.309699e+000
      vertex  4.176777e+001  0.000000e+000 -1.767767e+000
    endloop
  endfacet
  facet normal  -0.000000e+000  1.000000e+000  0.000000e+000
    outer loop
      vertex  4.700000e+001  0.000000e+000 -5.000000e+000
      vertex  4.176777e+001  0.000000e+000 -1.767767e+000
      vertex  4.230970e+001  0.000000e+000 -9.567086e-001
    endloop
  endfacet
  facet normal  -0.000000e+000  1.000000e+000  0.000000e+000
    outer loop
      vertex  4.700000e+001  0.000000e+000 -5.000000e+000
      vertex  4.230970e+001  0.000000e+000 -9.567086e-001
      vertex  4.250000e+001  0.000000e+000 -9.718137e-009
    endloop
  endfacet
  facet normal  -0.000000e+000  1.000000e+000  -0.000000e+000
    outer loop
      vertex  4.700000e+001  0.000000e+000 -5.000000e+000
      vertex  4.250000e+001  0.000000e+000 -9.718137e-009
      vertex  4.230970e+001  0.000000e+000  9.567086e-001
    endloop
  endfacet
  facet normal  0.000000e+000  1.000000e+000  0.000000e+000
    outer loop
      vertex  1.606384e+001  0.000000e+000  5.000000e+000
      vertex  4.000000e+001  0.000000e+000  2.500000e+000
      vertex  3.904329e+001  0.000000e+000  2.309699e+000
    endloop
  endfacet
  facet normal  0.000000e+000  1.000000e+000  0.000000e+000
    outer loop
      vertex  1.606384e+001  0.000000e+000  5.000000e+000
      vertex  3.904329e+001  0.000000e+000  2.309699e+000
      vertex  3.823223e+001  0.000000e+000  1.767767e+000
    endloop
  endfacet
  facet normal  0.000000e+000  1.000000e+000  0.000000e+000
    outer loop
      vertex  1.606384e+001  0.000000e+000  5.000000e+000
      vertex  3.823223e+001  0.000000e+000  1.767767e+000
      vertex  3.769030e+001  0.000000e+000  9.567086e-001
    endloop
  endfacet
  facet normal  0.000000e+000  1.000000e+000  0.000000e+000
    outer loop
      vertex  1.606384e+001  0.000000e+000  5.000000e+000
      vertex  3.769030e+001  0.000000e+000  9.567086e-001
      vertex  3.750000e+001  0.000000e+000 -2.148584e-015
    endloop
  endfacet
  facet normal -9.749274e-001  0.000000e+000 -2.225230e-001
    outer loop
      vertex  4.150000e+001 -1.000000e+000  1.836910e-016
      vertex  4.150000e+001 -4.000000e+000  1.836910e-016
      vertex  4.135145e+001 -1.000000e+000  6.508256e-001
    endloop
  endfacet
  facet normal -9.749274e-001  -0.000000e+000 -2.225230e-001
    outer loop
      vertex  4.135145e+001 -1.000000e+000  6.508256e-001
      vertex  4.150000e+001 -4.000000e+000  1.836910e-016
      vertex  4.135145e+001 -4.000000e+000  6.508256e-001
    endloop
  endfacet
  facet normal -7.818320e-001  0.000000e+000 -6.234890e-001
    outer loop
      vertex  4.135145e+001 -1.000000e+000  6.508256e-001
      vertex  4.135145e+001 -4.000000e+000  6.508256e-001
      vertex  4.093523e+001 -1.000000e+000  1.172747e+000
    endloop
  endfacet
  facet normal -7.818320e-001  -0.000000e+000 -6.234890e-001
    outer loop
      vertex  4.093523e+001 -1.000000e+000  1.172747e+000
      vertex  4.135145e+001 -4.000000e+000  6.508256e-001
      vertex  4.093523e+001 -4.000000e+000  1.172747e+000
    endloop
  endfacet
  facet normal -4.338845e-001  0.000000e+000 -9.009686e-001
    outer loop
      vertex  4.093523e+001 -1.000000e+000  1.172747e+000
      vertex  4.093523e+001 -4.000000e+000  1.172747e+000
      vertex  4.033378e+001 -1.000000e+000  1.462392e+000
    endloop
  endfacet
  facet normal -4.338845e-001  -0.000000e+000 -9.009686e-001
    outer loop
      vertex  4.033378e+001 -1.000000e+000  1.462392e+000
      vertex  4.093523e+001 -4.000000e+000  1.172747e+000
      vertex  4.033378e+001 -4.000000e+000  1.462392e+000
    endloop
  endfacet
  facet normal  0.000000e+000  0.000000e+000 -1.000000e+000
    outer loop
      vertex  4.033378e+001 -1.000000e+000  1.462392e+000
      vertex  4.033378e+001 -4.000000e+000  1.462392e+000
      vertex  3.966622e+001 -1.000000e+000  1.462392e+000
    endloop
  endfacet
  facet normal  0.000000e+000  0.000000e+000 -1.000000e+000
    outer loop
      vertex  3.966622e+001 -1.000000e+000  1.462392e+000
      vertex  4.033378e+001 -4.000000e+000  1.462392e+000
      vertex  3.966622e+001 -4.000000e+000  1.462392e+000
    endloop
  endfacet
  facet normal  4.338845e-001  0.000000e+000 -9.009686e-001
    outer loop
      vertex  3.966622e+001 -1.000000e+000  1.462392e+000
      vertex  3.966622e+001 -4.000000e+000  1.462392e+000
      vertex  3.906477e+001 -1.000000e+000  1.172747e+000
    endloop
  endfacet
  facet normal  4.338845e-001  0.000000e+000 -9.009686e-001
    outer loop
      vertex  3.906477e+001 -1.000000e+000  1.172747e+000
      vertex  3.966622e+001 -4.000000e+000  1.462392e+000
      vertex  3.906477e+001 -4.000000e+000  1.172747e+000
    endloop
  endfacet
  facet normal  7.818320e-001  0.000000e+000 -6.234890e-001
    outer loop
      vertex  3.906477e+001 -1.000000e+000  1.172747e+000
      vertex  3.906477e+001 -4.000000e+000  1.172747e+000
      vertex  3.864855e+001 -1.000000e+000  6.508256e-001
    endloop
  endfacet
  facet normal  7.818320e-001  0.000000e+000 -6.234890e-001
    outer loop
      vertex  3.864855e+001 -1.000000e+000  6.508256e-001
      vertex  3.906477e+001 -4.000000e+000  1.172747e+000
      vertex  3.864855e+001 -4.000000e+000  6.508256e-001
    endloop
  endfacet
  facet normal  9.749274e-001  0.000000e+000 -2.225230e-001
    outer loop
      vertex  3.864855e+001 -1.000000e+000  6.508256e-001
      vertex  3.864855e+001 -4.000000e+000  6.508256e-001
      vertex  3.850000e+001 -1.000000e+000  0.000000e+000
    endloop
  endfacet
  facet normal  9.749274e-001  0.000000e+000 -2.225230e-001
    outer loop
      vertex  3.850000e+001 -1.000000e+000  0.000000e+000
      vertex  3.864855e+001 -4.000000e+000  6.508256e-001
      vertex  3.850000e+001 -4.000000e+000  0.000000e+000
    endloop
  endfacet
  facet normal  9.749274e-001  -0.000000e+000  2.225230e-001
    outer loop
      vertex  3.850000e+001 -1.000000e+000  0.000000e+000
      vertex  3.850000e+001 -4.000000e+000  0.000000e+000
      vertex  3.864855e+001 -1.000000e+000 -6.508256e-001
    endloop
  endfacet
  facet normal  9.749274e-001  0.000000e+000  2.225230e-001
    outer loop
      vertex  3.864855e+001 -1.000000e+000 -6.508256e-001
      vertex  3.850000e+001 -4.000000e+000  0.000000e+000
      vertex  3.864855e+001 -4.000000e+000 -6.508256e-001
    endloop
  endfacet
  facet normal  7.818320e-001  -0.000000e+000  6.234890e-001
    outer loop
      vertex  3.864855e+001 -1.000000e+000 -6.508256e-001
      vertex  3.864855e+001 -4.000000e+000 -6.508256e-001
      vertex  3.906477e+001 -1.000000e+000 -1.172747e+000
    endloop
  endfacet
  facet normal  7.818320e-001  0.000000e+000  6.234890e-001
    outer loop
      vertex  3.906477e+001 -1.000000e+000 -1.172747e+000
      vertex  3.864855e+001 -4.000000e+000 -6.508256e-001
      vertex  3.906477e+001 -4.000000e+000 -1.172747e+000
    endloop
  endfacet
  facet normal  4.338845e-001  -0.000000e+000  9.009686e-001
    outer loop
      vertex  3.906477e+001 -1.000000e+000 -1.172747e+000
      vertex  3.906477e+001 -4.000000e+000 -1.172747e+000
      vertex  3.966622e+001 -1.000000e+000 -1.462392e+000
    endloop
  endfacet
  facet normal  4.338845e-001  0.000000e+000  9.009686e-001
    outer loop
      vertex  3.966622e+001 -1.000000e+000 -1.462392e+000
      vertex  3.906477e+001 -4.000000e+000 -1.172747e+000
      vertex  3.966622e+001 -4.000000e+000 -1.462392e+000
    endloop
  endfacet
  facet normal  0.000000e+000  0.000000e+000  1.000000e+000
    outer loop
      vertex  3.966622e+001 -1.000000e+000 -1.462392e+000
      vertex  3.966622e+001 -4.000000e+000 -1.462392e+000
      vertex  4.033378e+001 -1.000000e+000 -1.462392e+000
    endloop
  endfacet
  facet normal  0.000000e+000  0.000000e+000  1.000000e+000
    outer loop
      vertex  4.033378e+001 -1.000000e+000 -1.462392e+000
      vertex  3.966622e+001 -4.000000e+000 -1.462392e+000
      vertex  4.033378e+001 -4.000000e+000 -1.462392e+000
    endloop
  endfacet
  facet normal -4.338845e-001  0.000000e+000  9.009686e-001
    outer loop
      vertex  4.033378e+001 -1.000000e+000 -1.462392e+000
      vertex  4.033378e+001 -4.000000e+000 -1.462392e+000
      vertex  4.093523e+001 -1.000000e+000 -1.172747e+000
    endloop
  endfacet
  facet normal -4.338845e-001  0.000000e+000  9.009686e-001
    outer loop
      vertex  4.093523e+001 -1.000000e+000 -1.172747e+000
      vertex  4.033378e+001 -4.000000e+000 -1.462392e+000
      vertex  4.093523e+001 -4.000000e+000 -1.172747e+000
    endloop
  endfacet
  facet normal -7.818320e-001  0.000000e+000  6.234890e-001
    outer loop
      vertex  4.093523e+001 -1.000000e+000 -1.172747e+000
      vertex  4.093523e+001 -4.000000e+000 -1.172747e+000
      vertex  4.135145e+001 -1.000000e+000 -6.508256e-001
    endloop
  endfacet
  facet normal -7.818320e-001  0.000000e+000  6.234890e-001
    outer loop
      vertex  4.135145e+001 -1.000000e+000 -6.508256e-001
      vertex  4.093523e+001 -4.000000e+000 -1.172747e+000
      vertex  4.135145e+001 -4.000000e+000 -6.508256e-001
    endloop
  endfacet
  facet normal -9.749274e-001  0.000000e+000  2.225230e-001
    outer loop
      vertex  4.135145e+001 -1.000000e+000 -6.508256e-001
      vertex  4.135145e+001 -4.000000e+000 -6.508256e-001
      vertex  4.150000e+001 -1.000000e+000  1.836910e-016
    endloop
  endfacet
  facet normal -9.749274e-001  0.000000e+000  2.225230e-001
    outer loop
      vertex  4.150000e+001 -1.000000e+000  1.836910e-016
      vertex  4.135145e+001 -4.000000e+000 -6.508256e-001
      vertex  4.150000e+001 -4.000000e+000  1.836910e-016
    endloop
  endfacet
  facet normal -6.885895e-001  7.079145e-001 -1.571676e-001
    outer loop
      vertex  4.150000e+001 -1.000000e+000  1.836910e-016
      vertex  4.135145e+001 -1.000000e+000  6.508256e-001
      vertex  4.230970e+001  0.000000e+000  9.567086e-001
    endloop
  endfacet
  facet normal -7.002146e-001  7.002146e-001 -1.392805e-001
    outer loop
      vertex  4.150000e+001 -1.000000e+000  1.836910e-016
      vertex  4.230970e+001  0.000000e+000  9.567086e-001
      vertex  4.250000e+001  0.000000e+000 -9.718137e-009
    endloop
  endfacet
  facet normal  7.002146e-001  7.002146e-001 -1.392805e-001
    outer loop
      vertex  3.850000e+001 -1.000000e+000  0.000000e+000
      vertex  3.750000e+001  0.000000e+000 -2.148584e-015
      vertex  3.769030e+001  0.000000e+000  9.567086e-001
    endloop
  endfacet
  facet normal  6.885895e-001  7.079145e-001 -1.571676e-001
    outer loop
      vertex  3.850000e+001 -1.000000e+000  0.000000e+000
      vertex  3.769030e+001  0.000000e+000  9.567086e-001
      vertex  3.864855e+001 -1.000000e+000  6.508256e-001
    endloop
  endfacet
  facet normal -5.978091e-001  6.950322e-001 -3.994428e-001
    outer loop
      vertex  4.135145e+001 -1.000000e+000  6.508256e-001
      vertex  4.176777e+001  0.000000e+000  1.767767e+000
      vertex  4.230970e+001  0.000000e+000  9.567086e-001
    endloop
  endfacet
  facet normal -4.013267e-001  6.915054e-001 -6.006305e-001
    outer loop
      vertex  4.093523e+001 -1.000000e+000  1.172747e+000
      vertex  4.095671e+001  0.000000e+000  2.309699e+000
      vertex  4.176777e+001  0.000000e+000  1.767767e+000
    endloop
  endfacet
  facet normal -5.468212e-001  7.147206e-001 -4.360745e-001
    outer loop
      vertex  4.093523e+001 -1.000000e+000  1.172747e+000
      vertex  4.176777e+001  0.000000e+000  1.767767e+000
      vertex  4.135145e+001 -1.000000e+000  6.508256e-001
    endloop
  endfacet
  facet normal -1.412604e-001  6.897205e-001 -7.101628e-001
    outer loop
      vertex  4.033378e+001 -1.000000e+000  1.462392e+000
      vertex  4.000000e+001  0.000000e+000  2.500000e+000
      vertex  4.095671e+001  0.000000e+000  2.309699e+000
    endloop
  endfacet
  facet normal -3.016812e-001  7.187168e-001 -6.264460e-001
    outer loop
      vertex  4.033378e+001 -1.000000e+000  1.462392e+000
      vertex  4.095671e+001  0.000000e+000  2.309699e+000
      vertex  4.093523e+001 -1.000000e+000  1.172747e+000
    endloop
  endfacet
  facet normal  1.412604e-001  6.897205e-001 -7.101628e-001
    outer loop
      vertex  3.966622e+001 -1.000000e+000  1.462392e+000
      vertex  3.904329e+001  0.000000e+000  2.309699e+000
      vertex  4.000000e+001  0.000000e+000  2.500000e+000
    endloop
  endfacet
  facet normal  0.000000e+000  7.200353e-001 -6.939375e-001
    outer loop
      vertex  3.966622e+001 -1.000000e+000  1.462392e+000
      vertex  4.000000e+001  0.000000e+000  2.500000e+000
      vertex  4.033378e+001 -1.000000e+000  1.462392e+000
    endloop
  endfacet
  facet normal  4.013267e-001  6.915054e-001 -6.006305e-001
    outer loop
      vertex  3.906477e+001 -1.000000e+000  1.172747e+000
      vertex  3.823223e+001  0.000000e+000  1.767767e+000
      vertex  3.904329e+001  0.000000e+000  2.309699e+000
    endloop
  endfacet
  facet normal  3.016812e-001  7.187168e-001 -6.264460e-001
    outer loop
      vertex  3.906477e+001 -1.000000e+000  1.172747e+000
      vertex  3.904329e+001  0.000000e+000  2.309699e+000
      vertex  3.966622e+001 -1.000000e+000  1.462392e+000
    endloop
  endfacet
  facet normal  5.978091e-001  6.950322e-001 -3.994428e-001
    outer loop
      vertex  3.864855e+001 -1.000000e+000  6.508256e-001
      vertex  3.769030e+001  0.000000e+000  9.567086e-001
      vertex  3.823223e+001  0.000000e+000  1.767767e+000
    endloop
  endfacet
  facet normal  5.468212e-001  7.147206e-001 -4.360745e-001
    outer loop
      vertex  3.864855e+001 -1.000000e+000  6.508256e-001
      vertex  3.823223e+001  0.000000e+000  1.767767e+000
      vertex  3.906477e+001 -1.000000e+000  1.172747e+000
    endloop
  endfacet
  facet normal  6.885895e-001  7.079144e-001  1.571676e-001
    outer loop
      vertex  3.850000e+001 -1.000000e+000  0.000000e+000
      vertex  3.864855e+001 -1.000000e+000 -6.508256e-001
      vertex  3.769030e+001  0.000000e+000 -9.567086e-001
    endloop
  endfacet
  facet normal  7.002146e-001  7.002146e-001  1.392805e-001
    outer loop
      vertex  3.850000e+001 -1.000000e+000  0.000000e+000
      vertex  3.769030e+001  0.000000e+000 -9.567086e-001
      vertex  3.750000e+001  0.000000e+000 -2.148584e-015
    endloop
  endfacet
  facet normal -7.002146e-001  7.002146e-001  1.392805e-001
    outer loop
      vertex  4.150000e+001 -1.000000e+000  1.836910e-016
      vertex  4.250000e+001  0.000000e+000 -9.718137e-009
      vertex  4.230970e+001  0.000000e+000 -9.567086e-001
    endloop
  endfacet
  facet normal -6.885895e-001  7.079145e-001  1.571676e-001
    outer loop
      vertex  4.150000e+001 -1.000000e+000  1.836910e-016
      vertex  4.230970e+001  0.000000e+000 -9.567086e-001
      vertex  4.135145e+001 -1.000000e+000 -6.508256e-001
    endloop
  endfacet
  facet normal  5.978091e-001  6.950322e-001  3.994427e-001
    outer loop
      vertex  3.864855e+001 -1.000000e+000 -6.508256e-001
      vertex  3.823223e+001  0.000000e+000 -1.767767e+000
      vertex  3.769030e+001  0.000000e+000 -9.567086e-001
    endloop
  endfacet
  facet normal  4.013267e-001  6.915054e-001  6.006305e-001
    outer loop
      vertex  3.906477e+001 -1.000000e+000 -1.172747e+000
      vertex  3.904329e+001  0.000000e+000 -2.309699e+000
      vertex  3.823223e+001  0.000000e+000 -1.767767e+000
    endloop
  endfacet
  facet normal  5.468212e-001  7.147206e-001  4.360745e-001
    outer loop
      vertex  3.906477e+001 -1.000000e+000 -1.172747e+000
      vertex  3.823223e+001  0.000000e+000 -1.767767e+000
      vertex  3.864855e+001 -1.000000e+000 -6.508256e-001
    endloop
  endfacet
  facet normal  1.412604e-001  6.897205e-001  7.101628e-001
    outer loop
      vertex  3.966622e+001 -1.000000e+000 -1.462392e+000
      vertex  4.000000e+001  0.000000e+000 -2.500000e+000
      vertex  3.904329e+001  0.000000e+000 -2.309699e+000
    endloop
  endfacet
  facet normal  3.016812e-001  7.187168e-001  6.264460e-001
    outer loop
      vertex  3.966622e+001 -1.000000e+000 -1.462392e+000
      vertex  3.904329e+001  0.000000e+000 -2.309699e+000
      vertex  3.906477e+001 -1.000000e+000 -1.172747e+000
    endloop
  endfacet
  facet normal -1.412604e-001  6.897205e-001  7.101628e-001
    outer loop
      vertex  4.033378e+001 -1.000000e+000 -1.462392e+000
      vertex  4.095671e+001  0.000000e+000 -2.309699e+000
      vertex  4.000000e+001  0.000000e+000 -2.500000e+000
    endloop
  endfacet
  facet normal  0.000000e+000  7.200353e-001  6.939375e-001
    outer loop
      vertex  4.033378e+001 -1.000000e+000 -1.462392e+000
      vertex  4.000000e+001  0.000000e+000 -2.500000e+000
      vertex  3.966622e+001 -1.000000e+000 -1.462392e+000
    endloop
  endfacet
  facet normal -4.013283e-001  6.915050e-001  6.006300e-001
    outer loop
      vertex  4.093523e+001 -1.000000e+000 -1.172747e+000
      vertex  4.176777e+001  0.000000e+000 -1.767767e+000
      vertex  4.095671e+001  0.000000e+000 -2.309699e+000
    endloop
  endfacet
  facet normal -3.016812e-001  7.187168e-001  6.264460e-001
    outer loop
      vertex  4.093523e+001 -1.000000e+000 -1.172747e+000
      vertex  4.095671e+001  0.000000e+000 -2.309699e+000
      vertex  4.033378e+001 -1.000000e+000 -1.462392e+000
    endloop
  endfacet
  facet normal -5.978081e-001  6.950318e-001  3.994448e-001
    outer loop
      vertex  4.135145e+001 -1.000000e+000 -6.508256e-001
      vertex  4.230970e+001  0.000000e+000 -9.567086e-001
      vertex  4.176777e+001  0.000000e+000 -1.767767e+000
    endloop
  endfacet
  facet normal -5.468221e-001  7.147197e-001  4.360752e-001
    outer loop
      vertex  4.135145e+001 -1.000000e+000 -6.508256e-001
      vertex  4.176777e+001  0.000000e+000 -1.767767e+000
      vertex  4.093523e+001 -1.000000e+000 -1.172747e+000
    endloop
  endfacet
  facet normal  -0.000000e+000  0.000000e+000  1.000000e+000
    outer loop
      vertex -3.000000e+000  5.000000e+001  5.000000e+000
      vertex -4.000000e+000  5.000000e+001  5.000000e+000
      vertex  0.000000e+000  4.700000e+001  5.000000e+000
    endloop
  endfacet
  facet normal  0.000000e+000  -0.000000e+000  1.000000e+000
    outer loop
      vertex -4.000000e+000 -4.000000e+000  5.000000e+000
      vertex  5.000000e+001 -4.000000e+000  5.000000e+000
      vertex  5.000000e+001 -3.000000e+000  5.000000e+000
    endloop
  endfacet
  facet normal  0.000000e+000  0.000000e+000  9.999999e-001
    outer loop
      vertex -4.000000e+000 -4.000000e+000  5.000000e+000
      vertex  5.000000e+001 -3.000000e+000  5.000000e+000
      vertex  4.700000e+001  0.000000e+000  5.000000e+000
    endloop
  endfacet
  facet normal  0.000000e+000  0.000000e+000  1.000000e+000
    outer loop
      vertex -4.000000e+000 -4.000000e+000  5.000000e+000
      vertex  4.700000e+001  0.000000e+000  5.000000e+000
      vertex  1.606384e+001  0.000000e+000  5.000000e+000
    endloop
  endfacet
  facet normal  0.000000e+000  0.000000e+000  1.000000e+000
    outer loop
      vertex -4.000000e+000 -4.000000e+000  5.000000e+000
      vertex  1.606384e+001  0.000000e+000  5.000000e+000
      vertex  0.000000e+000  1.606384e+001  5.000000e+000
    endloop
  endfacet
  facet normal  0.000000e+000  -0.000000e+000  1.000000e+000
    outer loop
      vertex -4.000000e+000 -4.000000e+000  5.000000e+000
      vertex  0.000000e+000  1.606384e+001  5.000000e+000
      vertex  0.000000e+000  4.700000e+001  5.000000e+000
    endloop
  endfacet
  facet normal  0.000000e+000  0.000000e+000  1.000000e+000
    outer loop
      vertex -4.000000e+000 -4.000000e+000  5.000000e+000
      vertex  0.000000e+000  4.700000e+001  5.000000e+000
      vertex -4.000000e+000  5.000000e+001  5.000000e+000
    endloop
  endfacet
  facet normal  0.000000e+000  0.000000e+000 -1.000000e+000
    outer loop
      vertex  0.000000e+000  4.700000e+001 -5.000000e+000
      vertex -4.000000e+000  5.000000e+001 -5.000000e+000
      vertex -3.000000e+000  5.000000e+001 -5.000000e+000
    endloop
  endfacet
  facet normal  0.000000e+000  0.000000e+000 -1.000000e+000
    outer loop
      vertex -4.000000e+000 -4.000000e+000 -5.000000e+000
      vertex -4.000000e+000  5.000000e+001 -5.000000e+000
      vertex  0.000000e+000  4.700000e+001 -5.000000e+000
    endloop
  endfacet
  facet normal  0.000000e+000  -0.000000e+000 -1.000000e+000
    outer loop
      vertex -4.000000e+000 -4.000000e+000 -5.000000e+000
      vertex  0.000000e+000  4.700000e+001 -5.000000e+000
      vertex  0.000000e+000  1.606384e+001 -5.000000e+000
    endloop
  endfacet
  facet normal  0.000000e+000  -0.000000e+000 -1.000000e+000
    outer loop
      vertex -4.000000e+000 -4.000000e+000 -5.000000e+000
      vertex  0.000000e+000  1.606384e+001 -5.000000e+000
      vertex  1.606384e+001  0.000000e+000 -5.000000e+000
    endloop
  endfacet
  facet normal  0.000000e+000  -0.000000e+000 -1.000000e+000
    outer loop
      vertex -4.000000e+000 -4.000000e+000 -5.000000e+000
      vertex  1.606384e+001  0.000000e+000 -5.000000e+000
      vertex  4.700000e+001  0.000000e+000 -5.000000e+000
    endloop
  endfacet
  facet normal  0.000000e+000  -0.000000e+000 -9.999999e-001
    outer loop
      vertex -4.000000e+000 -4.000000e+000 -5.000000e+000
      vertex  4.700000e+001  0.000000e+000 -5.000000e+000
      vertex  5.000000e+001 -3.000000e+000 -5.000000e+000
    endloop
  endfacet
  facet normal  0.000000e+000  -0.000000e+000 -1.000000e+000
    outer loop
      vertex -4.000000e+000 -4.000000e+000 -5.000000e+000
      vertex  5.000000e+001 -3.000000e+000 -5.000000e+000
      vertex  5.000000e+001 -4.000000e+000 -5.000000e+000
    endloop
  endfacet
  facet normal  0.000000e+000  1.000000e+000  0.000000e+000
    outer loop
      vertex -3.000000e+000  5.000000e+001 -5.000000e+000
      vertex -4.000000e+000  5.000000e+001 -5.000000e+000
      vertex -3.000000e+000  5.000000e+001  5.000000e+000
    endloop
  endfacet
  facet normal  0.000000e+000  1.000000e+000  0.000000e+000
    outer loop
      vertex -3.000000e+000  5.000000e+001  5.000000e+000
      vertex -4.000000e+000  5.000000e+001 -5.000000e+000
      vertex -4.000000e+000  5.000000e+001  5.000000e+000
    endloop
  endfacet
  facet normal  7.071068e-001  7.071068e-001  0.000000e+000
    outer loop
      vertex -3.000000e+000  5.000000e+001  5.000000e+000
      vertex  0.000000e+000  4.700000e+001  5.000000e+000
      vertex -3.000000e+000  5.000000e+001 -5.000000e+000
    endloop
  endfacet
  facet normal  7.071068e-001  7.071068e-001  0.000000e+000
    outer loop
      vertex -3.000000e+000  5.000000e+001 -5.000000e+000
      vertex  0.000000e+000  4.700000e+001  5.000000e+000
      vertex  0.000000e+000  4.700000e+001 -5.000000e+000
    endloop
  endfacet
  facet normal  1.000000e+000  0.000000e+000  0.000000e+000
    outer loop
      vertex  5.000000e+001 -4.000000e+000 -5.000000e+000
      vertex  5.000000e+001 -3.000000e+000 -5.000000e+000
      vertex  5.000000e+001 -4.000000e+000  5.000000e+000
    endloop
  endfacet
  facet normal  1.000000e+000  -0.000000e+000  0.000000e+000
    outer loop
      vertex  5.000000e+001 -4.000000e+000  5.000000e+000
      vertex  5.000000e+001 -3.000000e+000 -5.000000e+000
      vertex  5.000000e+001 -3.000000e+000  5.000000e+000
    endloop
  endfacet
  facet normal  7.071068e-001  7.071068e-001  0.000000e+000
    outer loop
      vertex  4.700000e+001  0.000000e+000  5.000000e+000
      vertex  5.000000e+001 -3.000000e+000  5.000000e+000
      vertex  4.700000e+001  0.000000e+000 -5.000000e+000
    endloop
  endfacet
  facet normal  7.071068e-001  7.071068e-001  0.000000e+000
    outer loop
      vertex  4.700000e+001  0.000000e+000 -5.000000e+000
      vertex  5.000000e+001 -3.000000e+000  5.000000e+000
      vertex  5.000000e+001 -3.000000e+000 -5.000000e+000
    endloop
  endfacet
  facet normal  0.000000e+000 -1.000000e+000  -0.000000e+000
    outer loop
      vertex  5.000000e+001 -4.000000e+000 -5.000000e+000
      vertex  5.000000e+001 -4.000000e+000  5.000000e+000
      vertex  4.150000e+001 -4.000000e+000  1.836910e-016
    endloop
  endfacet
  facet normal  0.000000e+000 -1.000000e+000  -0.000000e+000
    outer loop
      vertex  5.000000e+001 -4.000000e+000 -5.000000e+000
      vertex  4.150000e+001 -4.000000e+000  1.836910e-016
      vertex  4.135145e+001 -4.000000e+000 -6.508256e-001
    endloop
  endfacet
  facet normal  0.000000e+000 -1.000000e+000  -0.000000e+000
    outer loop
      vertex  5.000000e+001 -4.000000e+000 -5.000000e+000
      vertex  4.135145e+001 -4.000000e+000 -6.508256e-001
      vertex  4.093523e+001 -4.000000e+000 -1.172747e+000
    endloop
  endfacet
  facet normal  0.000000e+000 -1.000000e+000  -0.000000e+000
    outer loop
      vertex  5.000000e+001 -4.000000e+000 -5.000000e+000
      vertex  4.093523e+001 -4.000000e+000 -1.172747e+000
      vertex  4.033378e+001 -4.000000e+000 -1.462392e+000
    endloop
  endfacet
  facet normal  -0.000000e+000 -1.000000e+000  -0.000000e+000
    outer loop
      vertex  5.000000e+001 -4.000000e+000 -5.000000e+000
      vertex  4.033378e+001 -4.000000e+000 -1.462392e+000
      vertex  3.966622e+001 -4.000000e+000 -1.462392e+000
    endloop
  endfacet
  facet normal  0.000000e+000 -1.000000e+000  -0.000000e+000
    outer loop
      vertex  5.000000e+001 -4.000000e+000 -5.000000e+000
      vertex  3.966622e+001 -4.000000e+000 -1.462392e+000
      vertex -4.000000e+000 -4.000000e+000 -5.000000e+000
    endloop
  endfacet
  facet normal  -0.000000e+000 -1.000000e+000  0.000000e+000
    outer loop
      vertex -4.000000e+000 -4.000000e+000 -5.000000e+000
      vertex  3.966622e+001 -4.000000e+000 -1.462392e+000
      vertex  3.906477e+001 -4.000000e+000 -1.172747e+000
    endloop
  endfacet
  facet normal  -0.000000e+000 -1.000000e+000  0.000000e+000
    outer loop
      vertex -4.000000e+000 -4.000000e+000 -5.000000e+000
      vertex  3.906477e+001 -4.000000e+000 -1.172747e+000
      vertex  3.864855e+001 -4.000000e+000 -6.508256e-001
    endloop
  endfacet
  facet normal  -0.000000e+000 -1.000000e+000  0.000000e+000
    outer loop
      vertex -4.000000e+000 -4.000000e+000 -5.000000e+000
      vertex  3.864855e+001 -4.000000e+000 -6.508256e-001
      vertex  3.850000e+001 -4.000000e+000  0.000000e+000
    endloop
  endfacet
  facet normal  -0.000000e+000 -1.000000e+000  0.000000e+000
    outer loop
      vertex -4.000000e+000 -4.000000e+000 -5.000000e+000
      vertex  3.850000e+001 -4.000000e+000  0.000000e+000
      vertex  3.864855e+001 -4.000000e+000  6.508256e-001
    endloop
  endfacet
  facet normal  -0.000000e+000 -1.000000e+000  0.000000e+000
    outer loop
      vertex -4.000000e+000 -4.000000e+000 -5.000000e+000
      vertex  3.864855e+001 -4.000000e+000  6.508256e-001
      vertex  3.906477e+001 -4.000000e+000  1.172747e+000
    endloop
  endfacet
  facet normal  -0.000000e+000 -1.000000e+000  0.000000e+000
    outer loop
      vertex -4.000000e+000 -4.000000e+000 -5.000000e+000
      vertex  3.906477e+001 -4.000000e+000  1.172747e+000
      vertex  3.966622e+001 -4.000000e+000  1.462392e+000
    endloop
  endfacet
  facet normal  -0.000000e+000 -1.000000e+000  0.000000e+000
    outer loop
      vertex -4.000000e+000 -4.000000e+000 -5.000000e+000
      vertex  3.966622e+001 -4.000000e+000  1.462392e+000
      vertex -4.000000e+000 -4.000000e+000  5.000000e+000
    endloop
  endfacet
  facet normal  0.000000e+000 -1.000000e+000  0.000000e+000
    outer loop
      vertex  5.000000e+001 -4.000000e+000  5.000000e+000
      vertex -4.000000e+000 -4.000000e+000  5.000000e+000
      vertex  3.966622e+001 -4.000000e+000  1.462392e+000
    endloop
  endfacet
  facet normal  0.000000e+000 -1.000000e+000  0.000000e+000
    outer loop
      vertex  5.000000e+001 -4.000000e+000  5.000000e+000
      vertex  3.966622e+001 -4.000000e+000  1.462392e+000
      vertex  4.033378e+001 -4.000000e+000  1.462392e+000
    endloop
  endfacet
  facet normal  0.000000e+000 -1.000000e+000  0.000000e+000
    outer loop
      vertex  5.000000e+001 -4.000000e+000  5.000000e+000
      vertex  4.033378e+001 -4.000000e+000  1.462392e+000
      vertex  4.093523e+001 -4.000000e+000  1.172747e+000
    endloop
  endfacet
  facet normal  0.000000e+000 -1.000000e+000  0.000000e+000
    outer loop
      vertex  5.000000e+001 -4.000000e+000  5.000000e+000
      vertex  4.093523e+001 -4.000000e+000  1.172747e+000
      vertex  4.135145e+001 -4.000000e+000  6.508256e-001
    endloop
  endfacet
  facet normal  0.000000e+000 -1.000000e+000  0.000000e+000
    outer loop
      vertex  5.000000e+001 -4.000000e+000  5.000000e+000
      vertex  4.135145e+001 -4.000000e+000  6.508256e-001
      vertex  4.150000e+001 -4.000000e+000  1.836910e-016
    endloop
  endfacet
  facet normal -1.000000e+000  0.000000e+000  0.000000e+000
    outer loop
      vertex -4.000000e+000  5.000000e+001 -5.000000e+000
      vertex -4.000000e+000 -4.000000e+000 -5.000000e+000
      vertex -4.000000e+000  3.966622e+001 -1.462392e+000
    endloop
  endfacet
  facet normal -1.000000e+000  0.000000e+000  0.000000e+000
    outer loop
      vertex -4.000000e+000  5.000000e+001 -5.000000e+000
      vertex -4.000000e+000  3.966622e+001 -1.462392e+000
      vertex -4.000000e+000  4.033378e+001 -1.462392e+000
    endloop
  endfacet
  facet normal -1.000000e+000  0.000000e+000  0.000000e+000
    outer loop
      vertex -4.000000e+000  5.000000e+001 -5.000000e+000
      vertex -4.000000e+000  4.033378e+001 -1.462392e+000
      vertex -4.000000e+000  4.093523e+001 -1.172747e+000
    endloop
  endfacet
  facet normal -1.000000e+000  0.000000e+000  0.000000e+000
    outer loop
      vertex -4.000000e+000  5.000000e+001 -5.000000e+000
      vertex -4.000000e+000  4.093523e+001 -1.172747e+000
      vertex -4.000000e+000  4.135145e+001 -6.508256e-001
    endloop
  endfacet
  facet normal -1.000000e+000  0.000000e+000  0.000000e+000
    outer loop
      vertex -4.000000e+000  5.000000e+001 -5.000000e+000
      vertex -4.000000e+000  4.135145e+001 -6.508256e-001
      vertex -4.000000e+000  4.150000e+001  0.000000e+000
    endloop
  endfacet
  facet normal -1.000000e+000  0.000000e+000  0.000000e+000
    outer loop
      vertex -4.000000e+000  5.000000e+001 -5.000000e+000
      vertex -4.000000e+000  4.150000e+001  0.000000e+000
      vertex -4.000000e+000  5.000000e+001  5.000000e+000
    endloop
  endfacet
  facet normal -1.000000e+000  0.000000e+000  0.000000e+000
    outer loop
      vertex -4.000000e+000 -4.000000e+000 -5.000000e+000
      vertex -4.000000e+000 -4.000000e+000  5.000000e+000
      vertex -4.000000e+000  3.966622e+001  1.462392e+000
    endloop
  endfacet
  facet normal -1.000000e+000  0.000000e+000  0.000000e+000
    outer loop
      vertex -4.000000e+000 -4.000000e+000 -5.000000e+000
      vertex -4.000000e+000  3.966622e+001  1.462392e+000
      vertex -4.000000e+000  3.906477e+001  1.172747e+000
    endloop
  endfacet
  facet normal -1.000000e+000  0.000000e+000  0.000000e+000
    outer loop
      vertex -4.000000e+000 -4.000000e+000 -5.000000e+000
      vertex -4.000000e+000  3.906477e+001  1.172747e+000
      vertex -4.000000e+000  3.864855e+001  6.508256e-001
    endloop
  endfacet
  facet normal -1.000000e+000  0.000000e+000  0.000000e+000
    outer loop
      vertex -4.000000e+000 -4.000000e+000 -5.000000e+000
      vertex -4.000000e+000  3.864855e+001  6.508256e-001
      vertex -4.000000e+000  3.850000e+001  1.836910e-016
    endloop
  endfacet
  facet normal -1.000000e+000  0.000000e+000  -0.000000e+000
    outer loop
      vertex -4.000000e+000 -4.000000e+000 -5.000000e+000
      vertex -4.000000e+000  3.850000e+001  1.836910e-016
      vertex -4.000000e+000  3.864855e+001 -6.508256e-001
    endloop
  endfacet
  facet normal -1.000000e+000  0.000000e+000  -0.000000e+000
    outer loop
      vertex -4.000000e+000 -4.000000e+000 -5.000000e+000
      vertex -4.000000e+000  3.864855e+001 -6.508256e-001
      vertex -4.000000e+000  3.906477e+001 -1.172747e+000
    endloop
  endfacet
  facet normal -1.000000e+000  0.000000e+000  -0.000000e+000
    outer loop
      vertex -4.000000e+000 -4.000000e+000 -5.000000e+000
      vertex -4.000000e+000  3.906477e+001 -1.172747e+000
      vertex -4.000000e+000  3.966622e+001 -1.462392e+000
    endloop
  endfacet
  facet normal -1.000000e+000  0.000000e+000  0.000000e+000
    outer loop
      vertex -4.000000e+000  5.000000e+001  5.000000e+000
      vertex -4.000000e+000  4.150000e+001  0.000000e+000
      vertex -4.000000e+000  4.135145e+001  6.508256e-001
    endloop
  endfacet
  facet normal -1.000000e+000  0.000000e+000  0.000000e+000
    outer loop
      vertex -4.000000e+000  5.000000e+001  5.000000e+000
      vertex -4.000000e+000  4.135145e+001  6.508256e-001
      vertex -4.000000e+000  4.093523e+001  1.172747e+000
    endloop
  endfacet
  facet normal -1.000000e+000  0.000000e+000  0.000000e+000
    outer loop
      vertex -4.000000e+000  5.000000e+001  5.000000e+000
      vertex -4.000000e+000  4.093523e+001  1.172747e+000
      vertex -4.000000e+000  4.033378e+001  1.462392e+000
    endloop
  endfacet
  facet normal -1.000000e+000  0.000000e+000  0.000000e+000
    outer loop
      vertex -4.000000e+000  5.000000e+001  5.000000e+000
      vertex -4.000000e+000  4.033378e+001  1.462392e+000
      vertex -4.000000e+000  3.966622e+001  1.462392e+000
    endloop
  endfacet
  facet normal -1.000000e+000  0.000000e+000  0.000000e+000
    outer loop
      vertex -4.000000e+000  5.000000e+001  5.000000e+000
      vertex -4.000000e+000  3.966622e+001  1.462392e+000
      vertex -4.000000e+000 -4.000000e+000  5.000000e+000
    endloop
  endfacet
  facet normal  7.071068e-001  7.071068e-001  0.000000e+000
    outer loop
      vertex  0.000000e+000  1.606384e+001 -5.000000e+000
      vertex  0.000000e+000  1.606384e+001  5.000000e+000
      vertex  1.606384e+001  0.000000e+000 -5.000000e+000
    endloop
  endfacet
  facet normal  7.071068e-001  7.071068e-001  -0.000000e+000
    outer loop
      vertex  1.606384e+001  0.000000e+000 -5.000000e+000
      vertex  0.000000e+000  1.606384e+001  5.000000e+000
      vertex  1.606384e+001  0.000000e+000  5.000000e+000
    endloop
  endfacet
endsolid CATIA STL
