<?xml version="1.0" standalone="no"?>
<!DOCTYPE svg PUBLIC "-//W3C//DTD SVG 1.1//EN"
  "http://www.w3.org/Graphics/SVG/1.1/DTD/svg11.dtd">
<svg width="302mm" height="413.9999999999999mm" viewBox="-151 -206.99999999999994 302 413.9999999999999" xmlns="http://www.w3.org/2000/svg" version="1.1">
	<title>svgOutput</title>
	<desc>made with tinkercad</desc>
<path d="M 60 -205.99999999999994 L 60 -199.99999999999994 L 90 -199.99999999999994 L 90 -205.99999999999994 L 120 -205.99999999999994 L 120 -199.99999999999994 L 150 -199.99999999999994 L 150 1.1102230246251565e-16 L 150 199.99999999999994 L 120 199.99999999999994 L 120 205.99999999999994 L 90 205.99999999999994 L 90 199.99999999999994 L 60 199.99999999999994 L 60 205.99999999999994 L 30 205.99999999999994 L 30 199.99999999999994 L 10 199.99999999999994 L 10 205.99999999999994 L 0 205.99999999999994 L -10 205.99999999999994 L -10 199.99999999999994 L -30 199.99999999999994 L -30 205.99999999999994 L -60 205.99999999999994 L -60 199.99999999999994 L -90 199.99999999999994 L -90 205.99999999999994 L -120 205.99999999999994 L -120 199.99999999999994 L -144 199.99999999999994 L -144 99.99999999999997 L -150 99.99999999999997 L -150 39.99999999999999 L -144 39.99999999999999 L -144 19.999999999999996 L -150 19.999999999999996 L -150 1.1102230246251565e-16 L -150 -19.999999999999996 L -144 -19.999999999999996 L -144 -39.99999999999999 L -150 -39.99999999999999 L -150 -99.99999999999997 L -144 -99.99999999999997 L -144 -199.99999999999994 L -120 -199.99999999999994 L -120 -205.99999999999994 L -90 -205.99999999999994 L -90 -199.99999999999994 L -60 -199.99999999999994 L -60 -205.99999999999994 L -30 -205.99999999999994 L -30 -199.99999999999994 L -10 -199.99999999999994 L -10 -205.99999999999994 L 0 -205.99999999999994 L 10 -205.99999999999994 L 10 -199.99999999999994 L 30 -199.99999999999994 L 30 -205.99999999999994 L 60 -205.99999999999994 z" fill="none" stroke="rgb(255,0,0)" stroke-width="0.001mm" />
</svg>