<?xml version="1.0" standalone="no"?>
<!DOCTYPE svg PUBLIC "-//W3C//DTD SVG 1.1//EN"
  "http://www.w3.org/Graphics/SVG/1.1/DTD/svg11.dtd">
<svg width="302mm" height="301.99999999999994mm" viewBox="-151 -150.99999999999997 302 301.99999999999994" xmlns="http://www.w3.org/2000/svg" version="1.1">
	<title>svgOutput</title>
	<desc>made with tinkercad</desc>
<path d="M 120 -149.99999999999997 L 150 -149.99999999999997 L 150 -131.0720062255859 L 150 -119.99999999999997 L 144 -119.99999999999997 L 144 -89.99999999999999 L 150 -89.99999999999999 L 150 -59.999999999999986 L 144 -59.999999999999986 L 144 -29.999999999999993 L 150 -29.999999999999993 L 150 -9.999999999999998 L 144 -9.999999999999998 L 144 1.1102230246251565e-16 L 144 9.999999999999998 L 150 9.999999999999998 L 150 29.999999999999993 L 144 29.999999999999993 L 144 59.999999999999986 L 150 59.999999999999986 L 150 89.99999999999999 L 144 89.99999999999999 L 144 119.99999999999997 L 150 119.99999999999997 L 150 131.0720062255859 L 150 149.99999999999997 L 0 149.99999999999997 L -150 149.99999999999997 L -150 131.0720062255859 L -150 119.99999999999997 L -144 119.99999999999997 L -144 89.99999999999999 L -150 89.99999999999999 L -150 59.999999999999986 L -144 59.999999999999986 L -144 29.999999999999993 L -150 29.999999999999993 L -150 9.999999999999998 L -144 9.999999999999998 L -144 1.1102230246251565e-16 L -144 -9.999999999999998 L -150 -9.999999999999998 L -150 -29.999999999999993 L -144 -29.999999999999993 L -144 -59.999999999999986 L -150 -59.999999999999986 L -150 -89.99999999999999 L -144 -89.99999999999999 L -144 -119.99999999999997 L -150 -119.99999999999997 L -150 -131.0720062255859 L -150 -143.99999999999997 L -150 -149.99999999999997 L -120 -149.99999999999997 L -120 -143.99999999999997 L -90 -143.99999999999997 L -90 -149.99999999999997 L -60 -149.99999999999997 L -60 -143.99999999999997 L -30 -143.99999999999997 L -30 -149.99999999999997 L -10 -149.99999999999997 L -10 -143.99999999999997 L 0 -143.99999999999997 L 10 -143.99999999999997 L 10 -149.99999999999997 L 30 -149.99999999999997 L 30 -143.99999999999997 L 60 -143.99999999999997 L 60 -149.99999999999997 L 90 -149.99999999999997 L 90 -143.99999999999997 L 120 -143.99999999999997 L 120 -149.99999999999997 M 116.35199737548828 -114.34899902343747 L 116.5 -114.99999999999997 L 116.35199737548828 -115.65100097656247 L 115.93499755859375 -116.17299652099607 L 115.33399963378906 -116.46199798583982 L 114.66600036621094 -116.46199798583982 L 114.06500244140625 -116.17299652099607 L 113.64900207519531 -115.65100097656247 L 113.5 -114.99999999999997 L 113.64900207519531 -114.34899902343747 L 114.06500244140625 -113.82700347900388 L 114.66600036621094 -113.53800201416013 L 115.33399963378906 -113.53800201416013 L 115.93499755859375 -113.82700347900388 L 116.35199737548828 -114.34899902343747 M -116.35199737548828 -115.65100097656247 L -116.5 -114.99999999999997 L -116.35199737548828 -114.34899902343747 L -115.93499755859375 -113.82700347900388 L -115.33399963378906 -113.53800201416013 L -114.66600036621094 -113.53800201416013 L -114.06500244140625 -113.82700347900388 L -113.64900207519531 -114.34899902343747 L -113.5 -114.99999999999997 L -113.64900207519531 -115.65100097656247 L -114.06500244140625 -116.17299652099607 L -114.66600036621094 -116.46199798583982 L -115.33399963378906 -116.46199798583982 L -115.93499755859375 -116.17299652099607 L -116.35199737548828 -115.65100097656247 M 115.93499755859375 113.82700347900388 L 115.33399963378906 113.53800201416013 L 114.66600036621094 113.53800201416013 L 114.06500244140625 113.82700347900388 L 113.64900207519531 114.34899902343747 L 113.5 114.99999999999997 L 113.64900207519531 115.65100097656247 L 114.06500244140625 116.17299652099607 L 114.66600036621094 116.46199798583982 L 115.33399963378906 116.46199798583982 L 115.93499755859375 116.17299652099607 L 116.35199737548828 115.65100097656247 L 116.5 114.99999999999997 L 116.35199737548828 114.34899902343747 L 115.93499755859375 113.82700347900388 M -116.35199737548828 114.34899902343747 L -116.5 114.99999999999997 L -116.35199737548828 115.65100097656247 L -115.93499755859375 116.17299652099607 L -115.33399963378906 116.46199798583982 L -114.66600036621094 116.46199798583982 L -114.06500244140625 116.17299652099607 L -113.64900207519531 115.65100097656247 L -113.5 114.99999999999997 L -113.64900207519531 114.34899902343747 L -114.06500244140625 113.82700347900388 L -114.66600036621094 113.53800201416013 L -115.33399963378906 113.53800201416013 L -115.93499755859375 113.82700347900388 L -116.35199737548828 114.34899902343747 z" fill="none" stroke="rgb(255,0,0)" stroke-width="0.001mm" />
</svg>