solid CATIA STL
  facet normal  0.000000e+000  0.000000e+000  1.000000e+000
    outer loop
      vertex -2.500000e+001  5.000000e+001  3.000000e+000
      vertex -5.000000e+001  2.500000e+001  3.000000e+000
      vertex -2.500000e+001  2.500000e+001  3.000000e+000
    endloop
  endfacet
  facet normal  0.000000e+000  0.000000e+000  1.000000e+000
    outer loop
      vertex  5.000000e+001 -2.500000e+001  3.000000e+000
      vertex  5.000000e+001  2.500000e+001  3.000000e+000
      vertex  2.500000e+001  2.500000e+001  3.000000e+000
    endloop
  endfacet
  facet normal  0.000000e+000  0.000000e+000  1.000000e+000
    outer loop
      vertex  5.000000e+001 -2.500000e+001  3.000000e+000
      vertex  2.500000e+001  2.500000e+001  3.000000e+000
      vertex  2.500000e+001 -2.500000e+001  3.000000e+000
    endloop
  endfacet
  facet normal  -0.000000e+000  0.000000e+000  1.000000e+000
    outer loop
      vertex  5.000000e+001 -2.500000e+001  3.000000e+000
      vertex  2.500000e+001 -2.500000e+001  3.000000e+000
      vertex  2.500000e+001 -5.000000e+001  3.000000e+000
    endloop
  endfacet
  facet normal  0.000000e+000  0.000000e+000  1.000000e+000
    outer loop
      vertex  5.000000e+001 -2.500000e+001  3.000000e+000
      vertex  2.500000e+001 -5.000000e+001  3.000000e+000
      vertex  5.000000e+001 -5.000000e+001  3.000000e+000
    endloop
  endfacet
  facet normal  0.000000e+000  0.000000e+000  1.000000e+000
    outer loop
      vertex  5.000000e+001 -2.500000e+001  3.000000e+000
      vertex  5.000000e+001 -5.000000e+001  3.000000e+000
      vertex  1.000000e+002 -5.000000e+001  3.000000e+000
    endloop
  endfacet
  facet normal  0.000000e+000  -0.000000e+000  1.000000e+000
    outer loop
      vertex  5.000000e+001 -2.500000e+001  3.000000e+000
      vertex  1.000000e+002 -5.000000e+001  3.000000e+000
      vertex  1.000000e+002 -2.500000e+001  3.000000e+000
    endloop
  endfacet
  facet normal  0.000000e+000  -0.000000e+000  1.000000e+000
    outer loop
      vertex  2.500000e+001  2.500000e+001  3.000000e+000
      vertex  5.000000e+001  2.500000e+001  3.000000e+000
      vertex  5.000000e+001  5.000000e+001  3.000000e+000
    endloop
  endfacet
  facet normal  0.000000e+000  0.000000e+000  1.000000e+000
    outer loop
      vertex  2.500000e+001  2.500000e+001  3.000000e+000
      vertex  5.000000e+001  5.000000e+001  3.000000e+000
      vertex  2.500000e+001  5.000000e+001  3.000000e+000
    endloop
  endfacet
  facet normal  0.000000e+000  0.000000e+000  1.000000e+000
    outer loop
      vertex  2.500000e+001  2.500000e+001  3.000000e+000
      vertex  2.500000e+001  5.000000e+001  3.000000e+000
      vertex -2.500000e+001  5.000000e+001  3.000000e+000
    endloop
  endfacet
  facet normal  0.000000e+000  0.000000e+000  1.000000e+000
    outer loop
      vertex  2.500000e+001  2.500000e+001  3.000000e+000
      vertex -2.500000e+001  5.000000e+001  3.000000e+000
      vertex -2.500000e+001  2.500000e+001  3.000000e+000
    endloop
  endfacet
  facet normal  0.000000e+000  0.000000e+000  1.000000e+000
    outer loop
      vertex -2.500000e+001 -2.500000e+001  3.000000e+000
      vertex -2.500000e+001  2.500000e+001  3.000000e+000
      vertex -5.000000e+001  2.500000e+001  3.000000e+000
    endloop
  endfacet
  facet normal  0.000000e+000  0.000000e+000  1.000000e+000
    outer loop
      vertex -2.500000e+001 -2.500000e+001  3.000000e+000
      vertex -5.000000e+001  2.500000e+001  3.000000e+000
      vertex -5.000000e+001 -2.500000e+001  3.000000e+000
    endloop
  endfacet
  facet normal  -0.000000e+000  0.000000e+000  1.000000e+000
    outer loop
      vertex -2.500000e+001 -2.500000e+001  3.000000e+000
      vertex -5.000000e+001 -2.500000e+001  3.000000e+000
      vertex -5.000000e+001 -5.000000e+001  3.000000e+000
    endloop
  endfacet
  facet normal  0.000000e+000  0.000000e+000  1.000000e+000
    outer loop
      vertex -2.500000e+001 -2.500000e+001  3.000000e+000
      vertex -5.000000e+001 -5.000000e+001  3.000000e+000
      vertex -2.500000e+001 -5.000000e+001  3.000000e+000
    endloop
  endfacet
  facet normal  0.000000e+000  0.000000e+000  1.000000e+000
    outer loop
      vertex -2.500000e+001 -2.500000e+001  3.000000e+000
      vertex -2.500000e+001 -5.000000e+001  3.000000e+000
      vertex  2.500000e+001 -5.000000e+001  3.000000e+000
    endloop
  endfacet
  facet normal  0.000000e+000  -0.000000e+000  1.000000e+000
    outer loop
      vertex -2.500000e+001 -2.500000e+001  3.000000e+000
      vertex  2.500000e+001 -5.000000e+001  3.000000e+000
      vertex  2.500000e+001 -2.500000e+001  3.000000e+000
    endloop
  endfacet
  facet normal  0.000000e+000  0.000000e+000  1.000000e+000
    outer loop
      vertex -1.100000e+002 -1.100000e+002  3.000000e+000
      vertex  1.100000e+002 -1.100000e+002  3.000000e+000
      vertex  1.000000e+002 -1.000000e+002  3.000000e+000
    endloop
  endfacet
  facet normal  0.000000e+000  0.000000e+000  1.000000e+000
    outer loop
      vertex -1.100000e+002 -1.100000e+002  3.000000e+000
      vertex  1.000000e+002 -1.000000e+002  3.000000e+000
      vertex  5.000000e+001 -1.000000e+002  3.000000e+000
    endloop
  endfacet
  facet normal  0.000000e+000  0.000000e+000  1.000000e+000
    outer loop
      vertex -1.100000e+002 -1.100000e+002  3.000000e+000
      vertex  5.000000e+001 -1.000000e+002  3.000000e+000
      vertex  2.500000e+001 -1.000000e+002  3.000000e+000
    endloop
  endfacet
  facet normal  0.000000e+000  0.000000e+000  1.000000e+000
    outer loop
      vertex -1.100000e+002 -1.100000e+002  3.000000e+000
      vertex  2.500000e+001 -1.000000e+002  3.000000e+000
      vertex -2.500000e+001 -1.000000e+002  3.000000e+000
    endloop
  endfacet
  facet normal  0.000000e+000  0.000000e+000  1.000000e+000
    outer loop
      vertex -1.100000e+002 -1.100000e+002  3.000000e+000
      vertex -2.500000e+001 -1.000000e+002  3.000000e+000
      vertex -5.000000e+001 -1.000000e+002  3.000000e+000
    endloop
  endfacet
  facet normal  0.000000e+000  0.000000e+000  1.000000e+000
    outer loop
      vertex -1.100000e+002 -1.100000e+002  3.000000e+000
      vertex -5.000000e+001 -1.000000e+002  3.000000e+000
      vertex -1.000000e+002 -1.000000e+002  3.000000e+000
    endloop
  endfacet
  facet normal  0.000000e+000  -0.000000e+000  1.000000e+000
    outer loop
      vertex -1.100000e+002 -1.100000e+002  3.000000e+000
      vertex -1.000000e+002 -1.000000e+002  3.000000e+000
      vertex -1.000000e+002 -5.000000e+001  3.000000e+000
    endloop
  endfacet
  facet normal  0.000000e+000  0.000000e+000  9.999999e-001
    outer loop
      vertex -1.100000e+002 -1.100000e+002  3.000000e+000
      vertex -1.000000e+002 -5.000000e+001  3.000000e+000
      vertex -1.100000e+002  3.928932e+001  3.000000e+000
    endloop
  endfacet
  facet normal  0.000000e+000  -0.000000e+000  1.000000e+000
    outer loop
      vertex -1.100000e+002  3.928932e+001  3.000000e+000
      vertex -1.000000e+002 -5.000000e+001  3.000000e+000
      vertex -1.000000e+002 -2.500000e+001  3.000000e+000
    endloop
  endfacet
  facet normal  0.000000e+000  -0.000000e+000  1.000000e+000
    outer loop
      vertex -1.100000e+002  3.928932e+001  3.000000e+000
      vertex -1.000000e+002 -2.500000e+001  3.000000e+000
      vertex -1.000000e+002  2.500000e+001  3.000000e+000
    endloop
  endfacet
  facet normal  0.000000e+000  -0.000000e+000  1.000000e+000
    outer loop
      vertex -1.100000e+002  3.928932e+001  3.000000e+000
      vertex -1.000000e+002  2.500000e+001  3.000000e+000
      vertex -5.000000e+001  2.500000e+001  3.000000e+000
    endloop
  endfacet
  facet normal  0.000000e+000  -0.000000e+000  1.000000e+000
    outer loop
      vertex -1.100000e+002  3.928932e+001  3.000000e+000
      vertex -5.000000e+001  2.500000e+001  3.000000e+000
      vertex -2.500000e+001  5.000000e+001  3.000000e+000
    endloop
  endfacet
  facet normal  0.000000e+000  0.000000e+000  1.000000e+000
    outer loop
      vertex -1.100000e+002  3.928932e+001  3.000000e+000
      vertex -2.500000e+001  5.000000e+001  3.000000e+000
      vertex -3.928932e+001  1.100000e+002  3.000000e+000
    endloop
  endfacet
  facet normal  0.000000e+000  -0.000000e+000  1.000000e+000
    outer loop
      vertex -3.928932e+001  1.100000e+002  3.000000e+000
      vertex -2.500000e+001  5.000000e+001  3.000000e+000
      vertex -2.500000e+001  1.000000e+002  3.000000e+000
    endloop
  endfacet
  facet normal  0.000000e+000  -0.000000e+000  1.000000e+000
    outer loop
      vertex -3.928932e+001  1.100000e+002  3.000000e+000
      vertex -2.500000e+001  1.000000e+002  3.000000e+000
      vertex  2.500000e+001  1.000000e+002  3.000000e+000
    endloop
  endfacet
  facet normal  0.000000e+000  -0.000000e+000  1.000000e+000
    outer loop
      vertex -3.928932e+001  1.100000e+002  3.000000e+000
      vertex  2.500000e+001  1.000000e+002  3.000000e+000
      vertex  5.000000e+001  1.000000e+002  3.000000e+000
    endloop
  endfacet
  facet normal  0.000000e+000  -0.000000e+000  1.000000e+000
    outer loop
      vertex -3.928932e+001  1.100000e+002  3.000000e+000
      vertex  5.000000e+001  1.000000e+002  3.000000e+000
      vertex  1.000000e+002  1.000000e+002  3.000000e+000
    endloop
  endfacet
  facet normal  0.000000e+000  -0.000000e+000  9.999999e-001
    outer loop
      vertex -3.928932e+001  1.100000e+002  3.000000e+000
      vertex  1.000000e+002  1.000000e+002  3.000000e+000
      vertex  1.100000e+002  1.100000e+002  3.000000e+000
    endloop
  endfacet
  facet normal  -0.000000e+000  0.000000e+000  1.000000e+000
    outer loop
      vertex  1.100000e+002  1.100000e+002  3.000000e+000
      vertex  1.000000e+002  1.000000e+002  3.000000e+000
      vertex  1.000000e+002  5.000000e+001  3.000000e+000
    endloop
  endfacet
  facet normal  -0.000000e+000  0.000000e+000  1.000000e+000
    outer loop
      vertex  1.100000e+002  1.100000e+002  3.000000e+000
      vertex  1.000000e+002  5.000000e+001  3.000000e+000
      vertex  1.000000e+002  2.500000e+001  3.000000e+000
    endloop
  endfacet
  facet normal  -0.000000e+000  0.000000e+000  1.000000e+000
    outer loop
      vertex  1.100000e+002  1.100000e+002  3.000000e+000
      vertex  1.000000e+002  2.500000e+001  3.000000e+000
      vertex  1.000000e+002 -2.500000e+001  3.000000e+000
    endloop
  endfacet
  facet normal  -0.000000e+000  0.000000e+000  1.000000e+000
    outer loop
      vertex  1.100000e+002  1.100000e+002  3.000000e+000
      vertex  1.000000e+002 -2.500000e+001  3.000000e+000
      vertex  1.000000e+002 -5.000000e+001  3.000000e+000
    endloop
  endfacet
  facet normal  -0.000000e+000  0.000000e+000  1.000000e+000
    outer loop
      vertex  1.100000e+002  1.100000e+002  3.000000e+000
      vertex  1.000000e+002 -5.000000e+001  3.000000e+000
      vertex  1.000000e+002 -1.000000e+002  3.000000e+000
    endloop
  endfacet
  facet normal  -0.000000e+000  0.000000e+000  1.000000e+000
    outer loop
      vertex  1.100000e+002  1.100000e+002  3.000000e+000
      vertex  1.000000e+002 -1.000000e+002  3.000000e+000
      vertex  1.100000e+002 -1.100000e+002  3.000000e+000
    endloop
  endfacet
  facet normal  0.000000e+000  0.000000e+000  1.000000e+000
    outer loop
      vertex -1.000000e+002 -5.000000e+001  3.000000e+000
      vertex -5.000000e+001 -5.000000e+001  3.000000e+000
      vertex -1.000000e+002 -2.500000e+001  3.000000e+000
    endloop
  endfacet
  facet normal  -0.000000e+000  0.000000e+000  1.000000e+000
    outer loop
      vertex -1.000000e+002 -2.500000e+001  3.000000e+000
      vertex -5.000000e+001 -5.000000e+001  3.000000e+000
      vertex -5.000000e+001 -2.500000e+001  3.000000e+000
    endloop
  endfacet
  facet normal  0.000000e+000  0.000000e+000  1.000000e+000
    outer loop
      vertex  5.000000e+001  5.000000e+001  3.000000e+000
      vertex  5.000000e+001  2.500000e+001  3.000000e+000
      vertex  1.000000e+002  5.000000e+001  3.000000e+000
    endloop
  endfacet
  facet normal  0.000000e+000  0.000000e+000  1.000000e+000
    outer loop
      vertex  1.000000e+002  5.000000e+001  3.000000e+000
      vertex  5.000000e+001  2.500000e+001  3.000000e+000
      vertex  1.000000e+002  2.500000e+001  3.000000e+000
    endloop
  endfacet
  facet normal  0.000000e+000  0.000000e+000  1.000000e+000
    outer loop
      vertex -5.000000e+001 -1.000000e+002  3.000000e+000
      vertex -2.500000e+001 -1.000000e+002  3.000000e+000
      vertex -5.000000e+001 -5.000000e+001  3.000000e+000
    endloop
  endfacet
  facet normal  -0.000000e+000  0.000000e+000  1.000000e+000
    outer loop
      vertex -5.000000e+001 -5.000000e+001  3.000000e+000
      vertex -2.500000e+001 -1.000000e+002  3.000000e+000
      vertex -2.500000e+001 -5.000000e+001  3.000000e+000
    endloop
  endfacet
  facet normal  0.000000e+000  0.000000e+000  1.000000e+000
    outer loop
      vertex  2.500000e+001  5.000000e+001  3.000000e+000
      vertex  5.000000e+001  5.000000e+001  3.000000e+000
      vertex  2.500000e+001  1.000000e+002  3.000000e+000
    endloop
  endfacet
  facet normal  -0.000000e+000  0.000000e+000  1.000000e+000
    outer loop
      vertex  2.500000e+001  1.000000e+002  3.000000e+000
      vertex  5.000000e+001  5.000000e+001  3.000000e+000
      vertex  5.000000e+001  1.000000e+002  3.000000e+000
    endloop
  endfacet
  facet normal  0.000000e+000  0.000000e+000  1.000000e+000
    outer loop
      vertex  2.500000e+001 -1.000000e+002  3.000000e+000
      vertex  5.000000e+001 -1.000000e+002  3.000000e+000
      vertex  2.500000e+001 -5.000000e+001  3.000000e+000
    endloop
  endfacet
  facet normal  -0.000000e+000  0.000000e+000  1.000000e+000
    outer loop
      vertex  2.500000e+001 -5.000000e+001  3.000000e+000
      vertex  5.000000e+001 -1.000000e+002  3.000000e+000
      vertex  5.000000e+001 -5.000000e+001  3.000000e+000
    endloop
  endfacet
  facet normal  0.000000e+000  0.000000e+000 -1.000000e+000
    outer loop
      vertex  1.100000e+002 -1.100000e+002 -3.000000e+000
      vertex -1.100000e+002 -1.100000e+002 -3.000000e+000
      vertex  1.100000e+002  1.100000e+002 -3.000000e+000
    endloop
  endfacet
  facet normal  0.000000e+000  0.000000e+000 -1.000000e+000
    outer loop
      vertex  1.100000e+002  1.100000e+002 -3.000000e+000
      vertex -1.100000e+002 -1.100000e+002 -3.000000e+000
      vertex -1.100000e+002  3.928932e+001 -3.000000e+000
    endloop
  endfacet
  facet normal  0.000000e+000  0.000000e+000 -1.000000e+000
    outer loop
      vertex  1.100000e+002  1.100000e+002 -3.000000e+000
      vertex -1.100000e+002  3.928932e+001 -3.000000e+000
      vertex -3.928932e+001  1.100000e+002 -3.000000e+000
    endloop
  endfacet
  facet normal  0.000000e+000 -9.999999e-001  -0.000000e+000
    outer loop
      vertex  1.100000e+002 -1.100000e+002 -3.000000e+000
      vertex  1.100000e+002 -1.100000e+002  3.000000e+000
      vertex -1.100000e+002 -1.100000e+002 -3.000000e+000
    endloop
  endfacet
  facet normal  0.000000e+000 -9.999999e-001  0.000000e+000
    outer loop
      vertex -1.100000e+002 -1.100000e+002 -3.000000e+000
      vertex  1.100000e+002 -1.100000e+002  3.000000e+000
      vertex -1.100000e+002 -1.100000e+002  3.000000e+000
    endloop
  endfacet
  facet normal -1.000000e+000  0.000000e+000  0.000000e+000
    outer loop
      vertex -1.100000e+002 -1.100000e+002 -3.000000e+000
      vertex -1.100000e+002 -1.100000e+002  3.000000e+000
      vertex -1.100000e+002  3.928932e+001 -3.000000e+000
    endloop
  endfacet
  facet normal -1.000000e+000  0.000000e+000  0.000000e+000
    outer loop
      vertex -1.100000e+002  3.928932e+001 -3.000000e+000
      vertex -1.100000e+002 -1.100000e+002  3.000000e+000
      vertex -1.100000e+002  3.928932e+001  3.000000e+000
    endloop
  endfacet
  facet normal  9.999999e-001  0.000000e+000  0.000000e+000
    outer loop
      vertex  1.100000e+002  1.100000e+002 -3.000000e+000
      vertex  1.100000e+002  1.100000e+002  3.000000e+000
      vertex  1.100000e+002 -1.100000e+002 -3.000000e+000
    endloop
  endfacet
  facet normal  9.999999e-001  0.000000e+000  0.000000e+000
    outer loop
      vertex  1.100000e+002 -1.100000e+002 -3.000000e+000
      vertex  1.100000e+002  1.100000e+002  3.000000e+000
      vertex  1.100000e+002 -1.100000e+002  3.000000e+000
    endloop
  endfacet
  facet normal -7.071068e-001  7.071068e-001  0.000000e+000
    outer loop
      vertex -1.100000e+002  3.928932e+001 -3.000000e+000
      vertex -1.100000e+002  3.928932e+001  3.000000e+000
      vertex -3.928932e+001  1.100000e+002 -3.000000e+000
    endloop
  endfacet
  facet normal -7.071068e-001  7.071068e-001  0.000000e+000
    outer loop
      vertex -3.928932e+001  1.100000e+002 -3.000000e+000
      vertex -1.100000e+002  3.928932e+001  3.000000e+000
      vertex -3.928932e+001  1.100000e+002  3.000000e+000
    endloop
  endfacet
  facet normal  0.000000e+000  1.000000e+000  0.000000e+000
    outer loop
      vertex -3.928932e+001  1.100000e+002 -3.000000e+000
      vertex -3.928932e+001  1.100000e+002  3.000000e+000
      vertex  1.100000e+002  1.100000e+002 -3.000000e+000
    endloop
  endfacet
  facet normal  0.000000e+000  1.000000e+000  -0.000000e+000
    outer loop
      vertex  1.100000e+002  1.100000e+002 -3.000000e+000
      vertex -3.928932e+001  1.100000e+002  3.000000e+000
      vertex  1.100000e+002  1.100000e+002  3.000000e+000
    endloop
  endfacet
  facet normal  0.000000e+000  0.000000e+000  1.000000e+000
    outer loop
      vertex -1.000000e+002 -1.000000e+002  0.000000e+000
      vertex -5.000000e+001 -1.000000e+002  0.000000e+000
      vertex -1.000000e+002 -5.000000e+001  0.000000e+000
    endloop
  endfacet
  facet normal  -0.000000e+000  0.000000e+000  1.000000e+000
    outer loop
      vertex -1.000000e+002 -5.000000e+001  0.000000e+000
      vertex -5.000000e+001 -1.000000e+002  0.000000e+000
      vertex -5.000000e+001 -5.000000e+001  0.000000e+000
    endloop
  endfacet
  facet normal  0.000000e+000  0.000000e+000  1.000000e+000
    outer loop
      vertex  5.000000e+001  5.000000e+001  0.000000e+000
      vertex  1.000000e+002  5.000000e+001  0.000000e+000
      vertex  5.000000e+001  1.000000e+002  0.000000e+000
    endloop
  endfacet
  facet normal  -0.000000e+000  0.000000e+000  1.000000e+000
    outer loop
      vertex  5.000000e+001  1.000000e+002  0.000000e+000
      vertex  1.000000e+002  5.000000e+001  0.000000e+000
      vertex  1.000000e+002  1.000000e+002  0.000000e+000
    endloop
  endfacet
  facet normal  0.000000e+000  0.000000e+000  1.000000e+000
    outer loop
      vertex  5.000000e+001 -1.000000e+002  0.000000e+000
      vertex  1.000000e+002 -1.000000e+002  0.000000e+000
      vertex  5.000000e+001 -5.000000e+001  0.000000e+000
    endloop
  endfacet
  facet normal  -0.000000e+000  0.000000e+000  1.000000e+000
    outer loop
      vertex  5.000000e+001 -5.000000e+001  0.000000e+000
      vertex  1.000000e+002 -1.000000e+002  0.000000e+000
      vertex  1.000000e+002 -5.000000e+001  0.000000e+000
    endloop
  endfacet
  facet normal  0.000000e+000  0.000000e+000  1.000000e+000
    outer loop
      vertex -2.500000e+001  5.000000e+001  0.000000e+000
      vertex  2.500000e+001  5.000000e+001  0.000000e+000
      vertex -2.500000e+001  1.000000e+002  0.000000e+000
    endloop
  endfacet
  facet normal  -0.000000e+000  0.000000e+000  1.000000e+000
    outer loop
      vertex -2.500000e+001  1.000000e+002  0.000000e+000
      vertex  2.500000e+001  5.000000e+001  0.000000e+000
      vertex  2.500000e+001  1.000000e+002  0.000000e+000
    endloop
  endfacet
  facet normal  0.000000e+000  0.000000e+000  1.000000e+000
    outer loop
      vertex -2.500000e+001 -1.000000e+002  0.000000e+000
      vertex  2.500000e+001 -1.000000e+002  0.000000e+000
      vertex -2.500000e+001 -5.000000e+001  0.000000e+000
    endloop
  endfacet
  facet normal  -0.000000e+000  0.000000e+000  1.000000e+000
    outer loop
      vertex -2.500000e+001 -5.000000e+001  0.000000e+000
      vertex  2.500000e+001 -1.000000e+002  0.000000e+000
      vertex  2.500000e+001 -5.000000e+001  0.000000e+000
    endloop
  endfacet
  facet normal  0.000000e+000  0.000000e+000  1.000000e+000
    outer loop
      vertex -1.000000e+002 -2.500000e+001  0.000000e+000
      vertex -5.000000e+001 -2.500000e+001  0.000000e+000
      vertex -1.000000e+002  2.500000e+001  0.000000e+000
    endloop
  endfacet
  facet normal  -0.000000e+000  0.000000e+000  1.000000e+000
    outer loop
      vertex -1.000000e+002  2.500000e+001  0.000000e+000
      vertex -5.000000e+001 -2.500000e+001  0.000000e+000
      vertex -5.000000e+001  2.500000e+001  0.000000e+000
    endloop
  endfacet
  facet normal  0.000000e+000  0.000000e+000  1.000000e+000
    outer loop
      vertex  5.000000e+001 -2.500000e+001  0.000000e+000
      vertex  1.000000e+002 -2.500000e+001  0.000000e+000
      vertex  5.000000e+001  2.500000e+001  0.000000e+000
    endloop
  endfacet
  facet normal  -0.000000e+000  0.000000e+000  1.000000e+000
    outer loop
      vertex  5.000000e+001  2.500000e+001  0.000000e+000
      vertex  1.000000e+002 -2.500000e+001  0.000000e+000
      vertex  1.000000e+002  2.500000e+001  0.000000e+000
    endloop
  endfacet
  facet normal  0.000000e+000  0.000000e+000  1.000000e+000
    outer loop
      vertex -2.500000e+001 -2.500000e+001  0.000000e+000
      vertex  2.500000e+001 -2.500000e+001  0.000000e+000
      vertex -2.500000e+001  2.500000e+001  0.000000e+000
    endloop
  endfacet
  facet normal  -0.000000e+000  0.000000e+000  1.000000e+000
    outer loop
      vertex -2.500000e+001  2.500000e+001  0.000000e+000
      vertex  2.500000e+001 -2.500000e+001  0.000000e+000
      vertex  2.500000e+001  2.500000e+001  0.000000e+000
    endloop
  endfacet
  facet normal  1.000000e+000  0.000000e+000  0.000000e+000
    outer loop
      vertex -1.000000e+002 -5.000000e+001  0.000000e+000
      vertex -1.000000e+002 -5.000000e+001  3.000000e+000
      vertex -1.000000e+002 -1.000000e+002  0.000000e+000
    endloop
  endfacet
  facet normal  1.000000e+000  0.000000e+000  0.000000e+000
    outer loop
      vertex -1.000000e+002 -1.000000e+002  0.000000e+000
      vertex -1.000000e+002 -5.000000e+001  3.000000e+000
      vertex -1.000000e+002 -1.000000e+002  3.000000e+000
    endloop
  endfacet
  facet normal  0.000000e+000  1.000000e+000  0.000000e+000
    outer loop
      vertex -1.000000e+002 -1.000000e+002  0.000000e+000
      vertex -1.000000e+002 -1.000000e+002  3.000000e+000
      vertex -5.000000e+001 -1.000000e+002  0.000000e+000
    endloop
  endfacet
  facet normal  0.000000e+000  1.000000e+000  -0.000000e+000
    outer loop
      vertex -5.000000e+001 -1.000000e+002  0.000000e+000
      vertex -1.000000e+002 -1.000000e+002  3.000000e+000
      vertex -5.000000e+001 -1.000000e+002  3.000000e+000
    endloop
  endfacet
  facet normal -1.000000e+000  0.000000e+000  0.000000e+000
    outer loop
      vertex -5.000000e+001 -1.000000e+002  0.000000e+000
      vertex -5.000000e+001 -1.000000e+002  3.000000e+000
      vertex -5.000000e+001 -5.000000e+001  0.000000e+000
    endloop
  endfacet
  facet normal -1.000000e+000  0.000000e+000  0.000000e+000
    outer loop
      vertex -5.000000e+001 -5.000000e+001  0.000000e+000
      vertex -5.000000e+001 -1.000000e+002  3.000000e+000
      vertex -5.000000e+001 -5.000000e+001  3.000000e+000
    endloop
  endfacet
  facet normal  0.000000e+000 -1.000000e+000  -0.000000e+000
    outer loop
      vertex -5.000000e+001 -5.000000e+001  0.000000e+000
      vertex -5.000000e+001 -5.000000e+001  3.000000e+000
      vertex -1.000000e+002 -5.000000e+001  0.000000e+000
    endloop
  endfacet
  facet normal  0.000000e+000 -1.000000e+000  0.000000e+000
    outer loop
      vertex -1.000000e+002 -5.000000e+001  0.000000e+000
      vertex -5.000000e+001 -5.000000e+001  3.000000e+000
      vertex -1.000000e+002 -5.000000e+001  3.000000e+000
    endloop
  endfacet
  facet normal -1.000000e+000  0.000000e+000  0.000000e+000
    outer loop
      vertex  1.000000e+002  1.000000e+002  3.000000e+000
      vertex  1.000000e+002  1.000000e+002  0.000000e+000
      vertex  1.000000e+002  5.000000e+001  3.000000e+000
    endloop
  endfacet
  facet normal -1.000000e+000  0.000000e+000  0.000000e+000
    outer loop
      vertex  1.000000e+002  5.000000e+001  3.000000e+000
      vertex  1.000000e+002  1.000000e+002  0.000000e+000
      vertex  1.000000e+002  5.000000e+001  0.000000e+000
    endloop
  endfacet
  facet normal  0.000000e+000 -1.000000e+000  0.000000e+000
    outer loop
      vertex  5.000000e+001  1.000000e+002  3.000000e+000
      vertex  5.000000e+001  1.000000e+002  0.000000e+000
      vertex  1.000000e+002  1.000000e+002  3.000000e+000
    endloop
  endfacet
  facet normal  0.000000e+000 -1.000000e+000  -0.000000e+000
    outer loop
      vertex  1.000000e+002  1.000000e+002  3.000000e+000
      vertex  5.000000e+001  1.000000e+002  0.000000e+000
      vertex  1.000000e+002  1.000000e+002  0.000000e+000
    endloop
  endfacet
  facet normal  1.000000e+000  0.000000e+000  0.000000e+000
    outer loop
      vertex  5.000000e+001  5.000000e+001  3.000000e+000
      vertex  5.000000e+001  5.000000e+001  0.000000e+000
      vertex  5.000000e+001  1.000000e+002  3.000000e+000
    endloop
  endfacet
  facet normal  1.000000e+000  0.000000e+000  0.000000e+000
    outer loop
      vertex  5.000000e+001  1.000000e+002  3.000000e+000
      vertex  5.000000e+001  5.000000e+001  0.000000e+000
      vertex  5.000000e+001  1.000000e+002  0.000000e+000
    endloop
  endfacet
  facet normal  0.000000e+000  1.000000e+000  -0.000000e+000
    outer loop
      vertex  1.000000e+002  5.000000e+001  3.000000e+000
      vertex  1.000000e+002  5.000000e+001  0.000000e+000
      vertex  5.000000e+001  5.000000e+001  3.000000e+000
    endloop
  endfacet
  facet normal  0.000000e+000  1.000000e+000  0.000000e+000
    outer loop
      vertex  5.000000e+001  5.000000e+001  3.000000e+000
      vertex  1.000000e+002  5.000000e+001  0.000000e+000
      vertex  5.000000e+001  5.000000e+001  0.000000e+000
    endloop
  endfacet
  facet normal  0.000000e+000 -1.000000e+000  -0.000000e+000
    outer loop
      vertex  1.000000e+002 -5.000000e+001  0.000000e+000
      vertex  1.000000e+002 -5.000000e+001  3.000000e+000
      vertex  5.000000e+001 -5.000000e+001  0.000000e+000
    endloop
  endfacet
  facet normal  0.000000e+000 -1.000000e+000  0.000000e+000
    outer loop
      vertex  5.000000e+001 -5.000000e+001  0.000000e+000
      vertex  1.000000e+002 -5.000000e+001  3.000000e+000
      vertex  5.000000e+001 -5.000000e+001  3.000000e+000
    endloop
  endfacet
  facet normal  1.000000e+000  0.000000e+000  0.000000e+000
    outer loop
      vertex  5.000000e+001 -1.000000e+002  3.000000e+000
      vertex  5.000000e+001 -1.000000e+002  0.000000e+000
      vertex  5.000000e+001 -5.000000e+001  3.000000e+000
    endloop
  endfacet
  facet normal  1.000000e+000  0.000000e+000  0.000000e+000
    outer loop
      vertex  5.000000e+001 -5.000000e+001  3.000000e+000
      vertex  5.000000e+001 -1.000000e+002  0.000000e+000
      vertex  5.000000e+001 -5.000000e+001  0.000000e+000
    endloop
  endfacet
  facet normal  0.000000e+000  1.000000e+000  0.000000e+000
    outer loop
      vertex  5.000000e+001 -1.000000e+002  0.000000e+000
      vertex  5.000000e+001 -1.000000e+002  3.000000e+000
      vertex  1.000000e+002 -1.000000e+002  0.000000e+000
    endloop
  endfacet
  facet normal  0.000000e+000  1.000000e+000  -0.000000e+000
    outer loop
      vertex  1.000000e+002 -1.000000e+002  0.000000e+000
      vertex  5.000000e+001 -1.000000e+002  3.000000e+000
      vertex  1.000000e+002 -1.000000e+002  3.000000e+000
    endloop
  endfacet
  facet normal -1.000000e+000  0.000000e+000  0.000000e+000
    outer loop
      vertex  1.000000e+002 -5.000000e+001  3.000000e+000
      vertex  1.000000e+002 -5.000000e+001  0.000000e+000
      vertex  1.000000e+002 -1.000000e+002  3.000000e+000
    endloop
  endfacet
  facet normal -1.000000e+000  0.000000e+000  0.000000e+000
    outer loop
      vertex  1.000000e+002 -1.000000e+002  3.000000e+000
      vertex  1.000000e+002 -5.000000e+001  0.000000e+000
      vertex  1.000000e+002 -1.000000e+002  0.000000e+000
    endloop
  endfacet
  facet normal  1.000000e+000  0.000000e+000  0.000000e+000
    outer loop
      vertex -2.500000e+001  5.000000e+001  3.000000e+000
      vertex -2.500000e+001  5.000000e+001  0.000000e+000
      vertex -2.500000e+001  1.000000e+002  3.000000e+000
    endloop
  endfacet
  facet normal  1.000000e+000  0.000000e+000  0.000000e+000
    outer loop
      vertex -2.500000e+001  1.000000e+002  3.000000e+000
      vertex -2.500000e+001  5.000000e+001  0.000000e+000
      vertex -2.500000e+001  1.000000e+002  0.000000e+000
    endloop
  endfacet
  facet normal  0.000000e+000  1.000000e+000  -0.000000e+000
    outer loop
      vertex  2.500000e+001  5.000000e+001  3.000000e+000
      vertex  2.500000e+001  5.000000e+001  0.000000e+000
      vertex -2.500000e+001  5.000000e+001  3.000000e+000
    endloop
  endfacet
  facet normal  0.000000e+000  1.000000e+000  0.000000e+000
    outer loop
      vertex -2.500000e+001  5.000000e+001  3.000000e+000
      vertex  2.500000e+001  5.000000e+001  0.000000e+000
      vertex -2.500000e+001  5.000000e+001  0.000000e+000
    endloop
  endfacet
  facet normal -1.000000e+000  0.000000e+000  0.000000e+000
    outer loop
      vertex  2.500000e+001  1.000000e+002  3.000000e+000
      vertex  2.500000e+001  1.000000e+002  0.000000e+000
      vertex  2.500000e+001  5.000000e+001  3.000000e+000
    endloop
  endfacet
  facet normal -1.000000e+000  0.000000e+000  0.000000e+000
    outer loop
      vertex  2.500000e+001  5.000000e+001  3.000000e+000
      vertex  2.500000e+001  1.000000e+002  0.000000e+000
      vertex  2.500000e+001  5.000000e+001  0.000000e+000
    endloop
  endfacet
  facet normal  0.000000e+000 -1.000000e+000  0.000000e+000
    outer loop
      vertex -2.500000e+001  1.000000e+002  3.000000e+000
      vertex -2.500000e+001  1.000000e+002  0.000000e+000
      vertex  2.500000e+001  1.000000e+002  3.000000e+000
    endloop
  endfacet
  facet normal  0.000000e+000 -1.000000e+000  -0.000000e+000
    outer loop
      vertex  2.500000e+001  1.000000e+002  3.000000e+000
      vertex -2.500000e+001  1.000000e+002  0.000000e+000
      vertex  2.500000e+001  1.000000e+002  0.000000e+000
    endloop
  endfacet
  facet normal -1.000000e+000  0.000000e+000  0.000000e+000
    outer loop
      vertex  2.500000e+001 -5.000000e+001  3.000000e+000
      vertex  2.500000e+001 -5.000000e+001  0.000000e+000
      vertex  2.500000e+001 -1.000000e+002  3.000000e+000
    endloop
  endfacet
  facet normal -1.000000e+000  0.000000e+000  0.000000e+000
    outer loop
      vertex  2.500000e+001 -1.000000e+002  3.000000e+000
      vertex  2.500000e+001 -5.000000e+001  0.000000e+000
      vertex  2.500000e+001 -1.000000e+002  0.000000e+000
    endloop
  endfacet
  facet normal  0.000000e+000 -1.000000e+000  -0.000000e+000
    outer loop
      vertex  2.500000e+001 -5.000000e+001  0.000000e+000
      vertex  2.500000e+001 -5.000000e+001  3.000000e+000
      vertex -2.500000e+001 -5.000000e+001  0.000000e+000
    endloop
  endfacet
  facet normal  0.000000e+000 -1.000000e+000  0.000000e+000
    outer loop
      vertex -2.500000e+001 -5.000000e+001  0.000000e+000
      vertex  2.500000e+001 -5.000000e+001  3.000000e+000
      vertex -2.500000e+001 -5.000000e+001  3.000000e+000
    endloop
  endfacet
  facet normal  1.000000e+000  0.000000e+000  0.000000e+000
    outer loop
      vertex -2.500000e+001 -1.000000e+002  3.000000e+000
      vertex -2.500000e+001 -1.000000e+002  0.000000e+000
      vertex -2.500000e+001 -5.000000e+001  3.000000e+000
    endloop
  endfacet
  facet normal  1.000000e+000  0.000000e+000  0.000000e+000
    outer loop
      vertex -2.500000e+001 -5.000000e+001  3.000000e+000
      vertex -2.500000e+001 -1.000000e+002  0.000000e+000
      vertex -2.500000e+001 -5.000000e+001  0.000000e+000
    endloop
  endfacet
  facet normal  0.000000e+000  1.000000e+000  0.000000e+000
    outer loop
      vertex -2.500000e+001 -1.000000e+002  0.000000e+000
      vertex -2.500000e+001 -1.000000e+002  3.000000e+000
      vertex  2.500000e+001 -1.000000e+002  0.000000e+000
    endloop
  endfacet
  facet normal  0.000000e+000  1.000000e+000  -0.000000e+000
    outer loop
      vertex  2.500000e+001 -1.000000e+002  0.000000e+000
      vertex -2.500000e+001 -1.000000e+002  3.000000e+000
      vertex  2.500000e+001 -1.000000e+002  3.000000e+000
    endloop
  endfacet
  facet normal  1.000000e+000  0.000000e+000  0.000000e+000
    outer loop
      vertex -1.000000e+002  2.500000e+001  0.000000e+000
      vertex -1.000000e+002  2.500000e+001  3.000000e+000
      vertex -1.000000e+002 -2.500000e+001  0.000000e+000
    endloop
  endfacet
  facet normal  1.000000e+000  0.000000e+000  0.000000e+000
    outer loop
      vertex -1.000000e+002 -2.500000e+001  0.000000e+000
      vertex -1.000000e+002  2.500000e+001  3.000000e+000
      vertex -1.000000e+002 -2.500000e+001  3.000000e+000
    endloop
  endfacet
  facet normal  0.000000e+000  1.000000e+000  -0.000000e+000
    outer loop
      vertex -5.000000e+001 -2.500000e+001  3.000000e+000
      vertex -5.000000e+001 -2.500000e+001  0.000000e+000
      vertex -1.000000e+002 -2.500000e+001  3.000000e+000
    endloop
  endfacet
  facet normal  0.000000e+000  1.000000e+000  0.000000e+000
    outer loop
      vertex -1.000000e+002 -2.500000e+001  3.000000e+000
      vertex -5.000000e+001 -2.500000e+001  0.000000e+000
      vertex -1.000000e+002 -2.500000e+001  0.000000e+000
    endloop
  endfacet
  facet normal -1.000000e+000  0.000000e+000  0.000000e+000
    outer loop
      vertex -5.000000e+001 -2.500000e+001  0.000000e+000
      vertex -5.000000e+001 -2.500000e+001  3.000000e+000
      vertex -5.000000e+001  2.500000e+001  0.000000e+000
    endloop
  endfacet
  facet normal -1.000000e+000  0.000000e+000  0.000000e+000
    outer loop
      vertex -5.000000e+001  2.500000e+001  0.000000e+000
      vertex -5.000000e+001 -2.500000e+001  3.000000e+000
      vertex -5.000000e+001  2.500000e+001  3.000000e+000
    endloop
  endfacet
  facet normal  0.000000e+000 -1.000000e+000  0.000000e+000
    outer loop
      vertex -1.000000e+002  2.500000e+001  3.000000e+000
      vertex -1.000000e+002  2.500000e+001  0.000000e+000
      vertex -5.000000e+001  2.500000e+001  3.000000e+000
    endloop
  endfacet
  facet normal  0.000000e+000 -1.000000e+000  -0.000000e+000
    outer loop
      vertex -5.000000e+001  2.500000e+001  3.000000e+000
      vertex -1.000000e+002  2.500000e+001  0.000000e+000
      vertex -5.000000e+001  2.500000e+001  0.000000e+000
    endloop
  endfacet
  facet normal  0.000000e+000 -1.000000e+000  0.000000e+000
    outer loop
      vertex  5.000000e+001  2.500000e+001  3.000000e+000
      vertex  5.000000e+001  2.500000e+001  0.000000e+000
      vertex  1.000000e+002  2.500000e+001  3.000000e+000
    endloop
  endfacet
  facet normal  0.000000e+000 -1.000000e+000  -0.000000e+000
    outer loop
      vertex  1.000000e+002  2.500000e+001  3.000000e+000
      vertex  5.000000e+001  2.500000e+001  0.000000e+000
      vertex  1.000000e+002  2.500000e+001  0.000000e+000
    endloop
  endfacet
  facet normal  1.000000e+000  0.000000e+000  0.000000e+000
    outer loop
      vertex  5.000000e+001 -2.500000e+001  3.000000e+000
      vertex  5.000000e+001 -2.500000e+001  0.000000e+000
      vertex  5.000000e+001  2.500000e+001  3.000000e+000
    endloop
  endfacet
  facet normal  1.000000e+000  0.000000e+000  0.000000e+000
    outer loop
      vertex  5.000000e+001  2.500000e+001  3.000000e+000
      vertex  5.000000e+001 -2.500000e+001  0.000000e+000
      vertex  5.000000e+001  2.500000e+001  0.000000e+000
    endloop
  endfacet
  facet normal  0.000000e+000  1.000000e+000  -0.000000e+000
    outer loop
      vertex  1.000000e+002 -2.500000e+001  3.000000e+000
      vertex  1.000000e+002 -2.500000e+001  0.000000e+000
      vertex  5.000000e+001 -2.500000e+001  3.000000e+000
    endloop
  endfacet
  facet normal  0.000000e+000  1.000000e+000  0.000000e+000
    outer loop
      vertex  5.000000e+001 -2.500000e+001  3.000000e+000
      vertex  1.000000e+002 -2.500000e+001  0.000000e+000
      vertex  5.000000e+001 -2.500000e+001  0.000000e+000
    endloop
  endfacet
  facet normal -1.000000e+000  0.000000e+000  0.000000e+000
    outer loop
      vertex  1.000000e+002  2.500000e+001  3.000000e+000
      vertex  1.000000e+002  2.500000e+001  0.000000e+000
      vertex  1.000000e+002 -2.500000e+001  3.000000e+000
    endloop
  endfacet
  facet normal -1.000000e+000  0.000000e+000  0.000000e+000
    outer loop
      vertex  1.000000e+002 -2.500000e+001  3.000000e+000
      vertex  1.000000e+002  2.500000e+001  0.000000e+000
      vertex  1.000000e+002 -2.500000e+001  0.000000e+000
    endloop
  endfacet
  facet normal  0.000000e+000 -1.000000e+000  0.000000e+000
    outer loop
      vertex -2.500000e+001  2.500000e+001  3.000000e+000
      vertex -2.500000e+001  2.500000e+001  0.000000e+000
      vertex  2.500000e+001  2.500000e+001  3.000000e+000
    endloop
  endfacet
  facet normal  0.000000e+000 -1.000000e+000  -0.000000e+000
    outer loop
      vertex  2.500000e+001  2.500000e+001  3.000000e+000
      vertex -2.500000e+001  2.500000e+001  0.000000e+000
      vertex  2.500000e+001  2.500000e+001  0.000000e+000
    endloop
  endfacet
  facet normal  1.000000e+000  0.000000e+000  0.000000e+000
    outer loop
      vertex -2.500000e+001 -2.500000e+001  3.000000e+000
      vertex -2.500000e+001 -2.500000e+001  0.000000e+000
      vertex -2.500000e+001  2.500000e+001  3.000000e+000
    endloop
  endfacet
  facet normal  1.000000e+000  0.000000e+000  0.000000e+000
    outer loop
      vertex -2.500000e+001  2.500000e+001  3.000000e+000
      vertex -2.500000e+001 -2.500000e+001  0.000000e+000
      vertex -2.500000e+001  2.500000e+001  0.000000e+000
    endloop
  endfacet
  facet normal  0.000000e+000  1.000000e+000  -0.000000e+000
    outer loop
      vertex  2.500000e+001 -2.500000e+001  3.000000e+000
      vertex  2.500000e+001 -2.500000e+001  0.000000e+000
      vertex -2.500000e+001 -2.500000e+001  3.000000e+000
    endloop
  endfacet
  facet normal  0.000000e+000  1.000000e+000  0.000000e+000
    outer loop
      vertex -2.500000e+001 -2.500000e+001  3.000000e+000
      vertex  2.500000e+001 -2.500000e+001  0.000000e+000
      vertex -2.500000e+001 -2.500000e+001  0.000000e+000
    endloop
  endfacet
  facet normal -1.000000e+000  0.000000e+000  0.000000e+000
    outer loop
      vertex  2.500000e+001  2.500000e+001  3.000000e+000
      vertex  2.500000e+001  2.500000e+001  0.000000e+000
      vertex  2.500000e+001 -2.500000e+001  3.000000e+000
    endloop
  endfacet
  facet normal -1.000000e+000  0.000000e+000  0.000000e+000
    outer loop
      vertex  2.500000e+001 -2.500000e+001  3.000000e+000
      vertex  2.500000e+001  2.500000e+001  0.000000e+000
      vertex  2.500000e+001 -2.500000e+001  0.000000e+000
    endloop
  endfacet
endsolid CATIA STL
